<svg xmlns="http://www.w3.org/2000/svg" width="48" height="48" fill="none" viewBox="0 0 48 48"><g clip-path="url(#a)"><mask id="b" width="48" height="48" x="0" y="0" maskUnits="userSpaceOnUse" style="mask-type:luminance"><path fill="#fff" d="M48 0H0v48h48z"/></mask><g mask="url(#b)"><path fill="#fff" d="M40 0H8a8 8 0 0 0-8 8v32a8 8 0 0 0 8 8h32a8 8 0 0 0 8-8V8a8 8 0 0 0-8-8"/><g fill="#181818" clip-path="url(#c)"><path d="M26.7 11.4 36.6 36H42l-9.9-24.7zM15.3 26.3l3.4-8.7 3.4 8.7zm.6-15L6 36.2h5.5l2-5.2h10.3l2 5.2h5.6l-9.9-24.7z"/></g></g></g><defs><clipPath id="a"><path fill="#fff" d="M0 0h48v48H0z"/></clipPath><clipPath id="c"><path fill="#fff" d="M6 11.4h36v24.8H6z"/></clipPath></defs></svg>