<svg xmlns="http://www.w3.org/2000/svg" width="48" height="48" fill="none" viewBox="0 0 48 48"><g clip-path="url(#a)"><mask id="b" width="48" height="48" x="0" y="0" maskUnits="userSpaceOnUse" style="mask-type:luminance"><path fill="#fff" d="M48 0H0v48h48z"/></mask><g mask="url(#b)"><path fill="#2545d3" d="M21.5 5.6a7 7 0 0 0-6 4.1L3 42h9.5l9.9-25.4a1.7 1.7 0 0 1 3 0h1.4v-5.1h-2.4l2.2-5.9z"/><path fill="#566de8" d="M15.5 9.7a7 7 0 0 1 5.7-4h5.3c2.6 0 5 1.6 6 4L45 42h-9.7L23.2 10.7a4.4 4.4 0 0 0-8 0z"/></g></g><defs><clipPath id="a"><path fill="#fff" d="M0 0h48v48H0z"/></clipPath></defs></svg>