<svg xmlns="http://www.w3.org/2000/svg" width="48" height="48" fill="none" viewBox="0 0 48 48"><g clip-path="url(#a)"><mask id="b" width="48" height="48" x="0" y="0" maskUnits="userSpaceOnUse" style="mask-type:luminance"><path fill="#fff" d="M48 0H0v48h48z"/></mask><g mask="url(#b)"><path fill="#fff" d="M40 0H8a8 8 0 0 0-8 8v32a8 8 0 0 0 8 8h32a8 8 0 0 0 8-8V8a8 8 0 0 0-8-8"/><path fill="#000" fill-rule="evenodd" d="m15.7 22.5.1 1.1.5 1v.2q0 .3-.2.4l-.8.5-.3.2-.4-.2-.5-.6-.4-.8a5 5 0 0 1-3.7 1.8q-1.6 0-2.5-1-1-.7-1-2.4 0-1.5 1.2-2.6 1.2-1 3.1-1a10 10 0 0 1 2.8.4v-.9q0-1.5-.6-2t-2-.6q-.8 0-1.4.2l-1.8.6h-.2q-.3 0-.3-.4v-.6l.1-.5.4-.2q.7-.5 1.6-.6 1-.2 2-.2 2.1 0 3.2 1 1 1 1 3.1zm-5.1 2 1.3-.3q.7-.2 1.2-.8l.4-.8.1-1.1v-.6l-2.3-.2q-1.3 0-1.9.5t-.6 1.4.5 1.4q.4.4 1.3.4m10.1 1.3-.5-.1-.2-.5-3-9.8-.1-.5q0-.3.3-.3h1.2l.5.1.3.5 2.1 8.4 2-8.4q0-.4.2-.5l.5-.1h1l.5.1.3.5 2 8.5 2.2-8.5q0-.4.2-.5l.5-.1H32q.3 0 .3.3v.2l-.1.3-3 9.8-.3.5-.5.1h-1l-.6-.1-.2-.5-2-8.2-2 8.2q0 .3-.2.5h-1.5M37 26a8 8 0 0 1-3.4-.7q-.4-.1-.4-.4l-.1-.3V24q0-.3.3-.3h.2l.3.1a7 7 0 0 0 3 .6q1 0 1.8-.4a1 1 0 0 0 .6-1.2l-.3-.9-1.3-.6-1.8-.6q-1.5-.4-2-1.3a3 3 0 0 1-.3-3.2q.3-.7.9-1l1.3-.7a6 6 0 0 1 2.4-.2l.9.1 1.2.5q.3 0 .4.3l.1.4v.6q0 .4-.3.4t-.5-.2Q39 16 37.6 16q-1 0-1.7.3-.6.4-.6 1.1 0 .6.4 1l1.4.6 1.8.6q1.4.5 2 1.2.5.8.5 1.8 0 .8-.3 1.4-.3.7-1 1.2l-1.3.7z" clip-rule="evenodd"/><path fill="#f90" fill-rule="evenodd" d="M5.6 29.3a38 38 0 0 0 33.1 2c.7-.3 1.3.5.7 1a27.9 27.9 0 0 1-34.2-2.5c-.4-.3 0-.8.4-.5m37.3-.4c.4.6-.2 4.5-2.4 6.4q-.6.4-.5-.3l.3-.7c.5-1.3 1.2-3.4.8-4-.5-.7-3.5-.3-4.9-.2q-.6-.1 0-.5c2.3-1.7 6.2-1.2 6.7-.7" clip-rule="evenodd"/></g></g><defs><clipPath id="a"><path fill="#fff" d="M0 0h48v48H0z"/></clipPath></defs></svg>