<svg xmlns="http://www.w3.org/2000/svg" width="48" height="48" fill="none" viewBox="0 0 48 48"><g clip-path="url(#a)"><mask id="b" width="48" height="48" x="0" y="0" maskUnits="userSpaceOnUse" style="mask-type:luminance"><path fill="#fff" d="M48 0H0v48h48z"/></mask><g mask="url(#b)"><path fill="#fff" d="M40 0H8a8 8 0 0 0-8 8v32a8 8 0 0 0 8 8h32a8 8 0 0 0 8-8V8a8 8 0 0 0-8-8"/><path fill="#000" d="M9.8 15.1H4.1v2h5a.7.7 0 1 1 0 1.3H4v2h5a.7.7 0 0 1 0 1.3H4v2h5.7a2.6 2.6 0 0 0 2-4.3 2.6 2.6 0 0 0-1-4q-.4-.3-1-.3M43.8 15.1h-3v8.6h3zM34.5 15.1h-3L28 23.7h3l2.1-5.1 2.2 5h3zM21.8 15.1h-3l-3.6 8.6h3l2.2-5.1 2.1 5h3zM12.7 28.5l-.6-2.2h1l.7 2.2zM15.3 33.8l.5-2.2h1l-.6 2.2zM18.1 31.6h1l.3 2.2h-1zM12.7 30.8l-.8-2h1l1 2zM12.5 32.4l.2-1.2h1l-.2 1.6q0 .4-.4.7-.3.3-.8.3H12v-1h.2z"/><path fill="#000" d="M19.4 27.6H18l.2-.3h1.3v-1h-5.2v6q-.2.6-.5.6v1h.3q.4 0 .9-.4.3-.3.4-.9v-5.3h1.6l-.2.3h-1.2v3.7h1.4v1q-.1.7-.3.6v1h.1q.7-.2 1-.5.2-.3.3-.8v-1.3h.2l.8-.3q.3-.4.4-.9zm-3 1h2v.4h-2zm1.8 1.6-.4.2h-1.4V30h2zM3.9 27.6v-.9h.4l.1-.3h1.3l-.1.3h2v.9h-1v.3h1v.9h-1l.3.2.2.1h.6v1H6.5l-.1-.1-.5-.5-.4.5H3.9v-.8h.8l.2-.1.3-.3H3.9v-.9h1.4v-.3zM8 26.5V30h2c.8 0 1.3-.7 1.3-1.2v-2.3zm2.2 2q0 .3-.3.5t-.4.1h-.4v-1.7h1zM4 30.3v3.5h6q1 0 1.2-1.3v-2.2zm5.7 2.5-.4.2h-4v-.5h4.6zm.2-1.2H5.2v-.4H10zM20.5 33.6v-4H20v-1h.3v-.3l.5-1H20v-1h3.2v1H22l-.3.8h1.8v3.6c0 .2 0 1-.5 1.4q-1 .6-1.4.5zm2-4.6h-1v3.7h.1l.6-.3.2-.6zm1.7 1.5h-.5v-1h.5v-2.2h-.5v-1h3.8v1h-.3v2.2h.2v1h-.2v3.2h-1v-3.2h-1V32q0 .8-.5 1.2-.9.6-1 .5v-1l.3-.2.2-.6zm2-3.2h-1v2.2h1zM31.3 26.6v-.3h1.4v.3h2.7v1.5h-1v-.6h-5v.7h-1v-1.6zm.2 1.2-.2.7q0 .4-.7.9l-1 .3h-1.2v-1H30l.3-.5.1-.4zm-.6 2.3H35v2.6h.6v1H35l-.7-.1-.3-.5v-2h-3.2l-.2 1.2q0 .6-.7 1-.4.4-1 .4h-.4v-1h.1l.6-.1q.1 0 .3-.6l.1-1h-1.2v-.9h1.3V30H31zm1.4-2.2h1l.1.3q0 .3.3.4l.6.2h1.3v.9h-1.4l-1.1-.4q-.5-.5-.6-.8zM36.5 26.4h2.7v3.1l-.3.3h-.1l.3.4v1.4c0 .3 0 1-.3 1.2q-.5.5-1 .6h-.3v.4h-1zm1 3h.6l.1-.4v-1.7h-.7zm0 .9v2.3l.4-.2.3-.6v-1.4l-.3-.1zm1.9 3.4V33l.2-.2q.3-.2.3-.5l.4-1.4h1l-.5 1.8c-.4 1-1.4 1.1-1.4 1.1m0-5.7v-1.4h1.5v-.3h1.2v.3h1.6V28h-1v-.5h-2.3v.5zm0 1.2v-.8h4.4v.8zm0 .5h4.4v.9H43v1.3q0 .5.3.7.6.4.7.3v.9a2 2 0 0 1-1.4-.5A2 2 0 0 1 42 32v-1.5h-2.4z"/></g></g><defs><clipPath id="a"><path fill="#fff" d="M0 0h48v48H0z"/></clipPath></defs></svg>