<svg xmlns="http://www.w3.org/2000/svg" width="48" height="48" fill="none" viewBox="0 0 48 48"><g clip-path="url(#a)"><mask id="b" width="48" height="48" x="0" y="0" maskUnits="userSpaceOnUse" style="mask-type:luminance"><path fill="#fff" d="M48 0H0v48h48z"/></mask><g mask="url(#b)"><path fill="#fff" d="M40 0H8a8 8 0 0 0-8 8v32a8 8 0 0 0 8 8h32a8 8 0 0 0 8-8V8a8 8 0 0 0-8-8"/><mask id="c" width="42" height="30" x="3" y="8" maskUnits="userSpaceOnUse" style="mask-type:luminance"><path fill="#fff" d="M3 8h42v30H3z"/></mask><g mask="url(#c)"><path fill="#07130e" d="M33 20.8h-4.5L24 14.5 10 34.1h4.6L24 20.8h4.5L19 34.1h4.5zl12.1 17h-7.1v-3.6l-5-7-5 7v3.6H3L24 8.2z"/></g></g></g><defs><clipPath id="a"><path fill="#fff" d="M0 0h48v48H0z"/></clipPath></defs></svg>