<svg xmlns="http://www.w3.org/2000/svg" width="48" height="48" fill="none" viewBox="0 0 48 48"><g clip-path="url(#a)"><mask id="b" width="48" height="48" x="0" y="0" maskUnits="userSpaceOnUse" style="mask-type:luminance"><path fill="#fff" d="M48 0H0v48h48z"/></mask><g mask="url(#b)"><path fill="#f6821f" d="m32.8 33.4.2-.8q.5-1.6-.3-2.7-.7-1-2.1-1l-17.3-.2-.3-.2v-.3q0-.3.4-.3l17.4-.2c2.1-.1 4.4-1.8 5.1-3.9l1-2.6V21a11.4 11.4 0 0 0-21.8-1.2 5.1 5.1 0 0 0-8 5.4 7.3 7.3 0 0 0-7 8.3q0 .3.3.3h32q.3 0 .4-.3"/><path fill="#fbad41" d="M38.5 21.4H38l-.2.2-.7 2.4q-.5 1.6.3 2.6.7 1 2.2 1l3.6.3.3.1v.3q0 .3-.4.4l-3.8.2c-2 0-4.3 1.8-5.1 3.8l-.3.7q0 .3.2.3h13.2q.3 0 .3-.2a9.4 9.4 0 0 0-9-12"/></g></g><defs><clipPath id="a"><path fill="#fff" d="M0 0h48v48H0z"/></clipPath></defs></svg>