<svg xmlns="http://www.w3.org/2000/svg" width="48" height="48" fill="none" viewBox="0 0 48 48"><g clip-path="url(#a)"><path fill="#fff" fill-rule="evenodd" d="M10.8 0h26.4C43.2 0 48 4.9 48 10.9V37c0 6-4.9 10.9-10.8 10.9H10.8C4.8 48 0 43.1 0 37.1V11C0 4.9 4.9 0 10.8 0" clip-rule="evenodd"/><path fill="#4d6bfe" d="M44.4 11.8q-.6-.1-.9.4l-.2.3q-1 1-2.3 1-2.1 0-3.6 1.4-.4-1.8-2-2.6-1-.3-1.7-1-.3-.7-.5-1.3 0-.5-.5-.6t-.6.4a6 6 0 0 0-.7 3.1q0 3.6 3 5.7.5.2.3.5l-.4 1.4q-.1.4-.6.2-1.5-.6-2.9-2-2-2-4.3-4l-1.2-.8c-1.6-1.6.3-3 .7-3q.7-.6-1.3-.8-2.1.1-4.5 1.1l-.8.3a16 16 0 0 0-4.8-.2q-4.6.5-7.5 4.4-3.2 4.6-2 10 1 5.8 5.5 9.5a15 15 0 0 0 10.8 3.6c2.4-.2 5.2-.5 8.3-3.1q1 .5 3 .6 1.5.1 2.8-.2c1.2-.2 1.1-1.4.7-1.6-3.6-1.6-2.8-1-3.5-1.5 1.8-2.2 4.6-4.4 5.6-11.7V20q-.1-.4.4-.4a7 7 0 0 0 2.6-.8q3.3-2 3.5-5.9.1-.7-.4-1M24 34.4c-3.5-2.8-5.2-3.7-5.9-3.6-.6 0-.5.8-.4 1.2l.7 1.3q.4.5-.2 1C17 35 15.2 34 15 34a15 15 0 0 1-5.5-5.5Q7.6 25 7.4 21q0-.9.8-1 1.3-.2 2.6 0a16 16 0 0 1 9 4.6q2.1 2.2 3.8 4.8a23 23 0 0 0 5.6 6c-1.4.1-3.6.2-5.1-1m1.7-10.9a1 1 0 0 1 .6-.3h.2l.2.4q0 .5-.5.6a1 1 0 0 1-.5-.5zm5 2.9-.8.2a2 2 0 0 1-1.4-.5q-.7-.4-.9-1.2v-1q.3-.7-.4-1.2-.5-.4-1.1-.3l-.4-.2q-.4 0-.2-.6l.3-.3q1-.4 1.9 0 .8.3 1.7 1.3l1.1 1.5.8 1.4q0 .4-.3.7z"/></g><defs><clipPath id="a"><path fill="#fff" d="M0 0h48v48H0z"/></clipPath></defs></svg>