<svg xmlns="http://www.w3.org/2000/svg" width="48" height="48" fill="none" viewBox="0 0 48 48"><g clip-path="url(#a)"><mask id="b" width="48" height="48" x="0" y="0" maskUnits="userSpaceOnUse" style="mask-type:luminance"><path fill="#fff" d="M48 0H0v48h48z"/></mask><g mask="url(#b)"><path fill="#fff" d="M40 0H8a8 8 0 0 0-8 8v32a8 8 0 0 0 8 8h32a8 8 0 0 0 8-8V8a8 8 0 0 0-8-8"/><mask id="c" width="30" height="30" x="9" y="9" maskUnits="userSpaceOnUse" style="mask-type:luminance"><path fill="#fff" d="M39 9H9v30h30z"/></mask><g mask="url(#c)"><path fill="#000" d="M23 39H10.9a.5.5 0 0 1-.3-.8l7.8-7.8.3-.2h4.4c3.4 0 6.3-2.6 6.4-6a6.3 6.3 0 0 0-6.3-6.4h-4.7v5.8q0 .3-.4.4h-7.9l-.4-.4V9.5q0-.5.4-.5h13a15 15 0 0 1 15 15.2c0 8.3-7 14.8-15.2 14.8"/></g></g></g><defs><clipPath id="a"><path fill="#fff" d="M0 0h48v48H0z"/></clipPath></defs></svg>