<svg xmlns="http://www.w3.org/2000/svg" width="48" height="48" fill="none" viewBox="0 0 48 48"><g clip-path="url(#a)"><mask id="b" width="48" height="48" x="0" y="0" maskUnits="userSpaceOnUse" style="mask-type:luminance"><path fill="#fff" d="M48 0H0v48h48z"/></mask><g mask="url(#b)"><path fill="#fff" d="M40 0H8a8 8 0 0 0-8 8v32a8 8 0 0 0 8 8h32a8 8 0 0 0 8-8V8a8 8 0 0 0-8-8"/><mask id="c" width="36" height="22" x="6" y="13" maskUnits="userSpaceOnUse" style="mask-type:luminance"><path fill="#fff" d="M42 13H6v21.5h36z"/></mask><g mask="url(#c)"><path fill="#2b59ff" d="M22.8 34.5H8V13H23q2.4 0 4.1 1.7a7 7 0 0 1 2 4.6v9c0 4.2-4.2 5.9-6.3 6.2m-13-1.8h12.9c.5 0 4.6-.8 4.6-4.4v-9q0-2-1.3-3.4a4 4 0 0 0-2.9-1.2H9.7z"/><path fill="#182547" d="M20.4 29a3 3 0 0 1-1.5-.5q-1.2-.7-1.7-1.5l-1.4-1.7L15 24l-1-1-.5-.3a1 1 0 0 0-.9 0q-.7.4-1.2 1l-1.1 1.4q0 .4-.9.6h-.2l-.2-.1-.4-.6.2-.7q.8-1.2 2.1-2.4a3 3 0 0 1 1.9-.8 3 3 0 0 1 2.3.7l2.1 2.4.3.4.3.3q.8 1 1.8 2t1.9 0T23 25l.2-.3.4-.6q1-1.2 2.3-2.4a3 3 0 0 1 2-.6q.8 0 1.3.3 1.5 1 2.2 2l.1.2.8 1 1.6 2 1 .6q.3.2.8 0l1.3-1 .7-1 .4-.5q.3-.5.9-.5h.2l.2.2q.3.1.4.5 0 .5-.3.7l-.1.2q-.9 1.2-2.2 2.4a3 3 0 0 1-2 .6q-1.4-.1-2-.7l-1.7-1.8v-.1l-.8-1q-.6-1-1.5-1.7-.4-.6-1-.8-.4-.3-.8 0-1.1.5-1.6 1.4l-.2.2-.9 1.2q-.7 1.1-1.9 2.2l-1 .8q-.7.4-1.5.4"/><path fill="#eff3f9" d="M40.5 21.9h-3q-.8 0-.8.7v3q0 .7.7.8h3.1q.7-.1.8-.8v-3q-.1-.7-.8-.7"/><path fill="#2b59ff" d="M40.3 27h-2.6q-1.6-.1-1.8-1.6v-2.5q.1-1.6 1.8-1.7h2.6q1.6.1 1.7 1.7v2.5q-.2 1.6-1.7 1.7m-2.6-4.4q-.3 0-.3.3v2.5q0 .3.3.3h2.6q.2 0 .3-.3v-2.5q0-.3-.3-.3z"/><path fill="#eff3f9" d="M10.6 21.9H7.5q-.7 0-.8.7v3q.1.7.8.8h3q.8-.1.8-.8v-3q0-.7-.7-.7"/><path fill="#2b59ff" d="M10.3 27H7.7Q6.1 27 6 25.5v-2.5q.2-1.6 1.7-1.7h2.6q1.7.1 1.8 1.7v2.5q-.2 1.6-1.8 1.7m-2.6-4.4q-.2 0-.3.3v2.5q0 .3.3.3h2.6q.3 0 .3-.3v-2.5q0-.3-.3-.3z"/></g></g></g><defs><clipPath id="a"><path fill="#fff" d="M0 0h48v48H0z"/></clipPath></defs></svg>