<svg xmlns="http://www.w3.org/2000/svg" width="48" height="48" fill="none" viewBox="0 0 48 48"><g clip-path="url(#a)"><mask id="b" width="48" height="48" x="0" y="0" maskUnits="userSpaceOnUse" style="mask-type:luminance"><path fill="#fff" d="M48 0H0v48h48z"/></mask><g mask="url(#b)"><path fill="#fff" d="M40 0H8a8 8 0 0 0-8 8v32a8 8 0 0 0 8 8h32a8 8 0 0 0 8-8V8a8 8 0 0 0-8-8"/><path fill="#000" fill-rule="evenodd" d="M14 6.8h7.2v34H14zm12.8 0H34v34h-7z" clip-rule="evenodd"/></g></g><defs><clipPath id="a"><path fill="#fff" d="M0 0h48v48H0z"/></clipPath></defs></svg>