<svg xmlns="http://www.w3.org/2000/svg" width="48" height="48" fill="none" viewBox="0 0 48 48"><g clip-path="url(#a)"><mask id="b" width="48" height="48" x="0" y="0" maskUnits="userSpaceOnUse" style="mask-type:luminance"><path fill="#fff" d="M48 0H0v48h48z"/></mask><g mask="url(#b)"><path fill="#fff" d="M40 0H8a8 8 0 0 0-8 8v32a8 8 0 0 0 8 8h32a8 8 0 0 0 8-8V8a8 8 0 0 0-8-8"/><path fill="#5019c5" fill-rule="evenodd" d="M28.7 12.8 24 24l-4.7-11.4h-3l5.1 12.4a2.7 2.7 0 0 0 5.1 0l5.2-12.4zm2 17.2 8.5-8.7-1.2-2.8-9.3 9.5a2.8 2.8 0 0 0 2 4.7H44L42.8 30zM8.8 21.3l1.2-2.8 9.3 9.5a2.8 2.8 0 0 1-2 4.7H4L5.2 30l12.1.1z" clip-rule="evenodd"/></g></g><defs><clipPath id="a"><path fill="#fff" d="M0 0h48v48H0z"/></clipPath></defs></svg>