<svg xmlns="http://www.w3.org/2000/svg" width="48" height="48" fill="none" viewBox="0 0 48 48"><path fill="#fff" d="m43.3 32.4-.5-1v-.6q.3-1.7-.9-3-.6-.6-1.3-.8A17 17 0 0 0 24 6 17 17 0 0 0 7.4 27l-1.2.9a4 4 0 0 0-.8 3.4l-.5 1q-.2 1.4.1 2.4-.4 1.4.2 2.6.4.8 1.2 1.5 1 .7 2.4 1.3c1 .5 2.4 1 3 1q2.5.8 4.7.8Q20 42 22 40a17 17 0 0 0 4.2 0q2 2 5.4 1.9a19 19 0 0 0 7.8-1.8q1.5-.6 2.3-1.3.8-.6 1.3-1.5.6-1.2.1-2.6.5-1 .2-2.3m-1.6 2.2q.4 1 0 2-.5 1.3-3.4 2.4l-2.5.8q-2.4.7-4.4.7-3.3 0-4.8-1.8a16 16 0 0 1-5.2 0q-1.5 1.8-4.8 1.8-2 0-4.4-.7L9.7 39Q6.8 38 6.3 36.5a2 2 0 0 1 .1-2 2 2 0 0 1-.3-2q.2-.6.7-1.1-.3-.4-.3-1-.2-1 .6-1.9.7-.6 1.6-.7a15.8 15.8 0 1 1 30.3 0h.2q1 0 1.7.7a2.4 2.4 0 0 1 .3 2.9q.5.5.7 1.1a2 2 0 0 1-.3 2z"/><path fill="#ff9d00" d="M41.6 34.5a2 2 0 0 0 .3-2q-.2-.6-.7-1.1.2-.4.3-1 .1-1-.6-1.9a2 2 0 0 0-1.9-.7 15.8 15.8 0 1 0-30.2 0q-1 0-1.7.7a2.4 2.4 0 0 0-.3 2.9q-.5.5-.7 1.1a2 2 0 0 0 .3 2 2 2 0 0 0-.1 2Q6.8 38 9.7 39l2.5.8q2.4.7 4.4.7 3.3 0 4.8-1.8 2.6.4 5.2 0 1.5 1.8 4.8 1.8a18 18 0 0 0 6.9-1.5q2.9-1.1 3.4-2.5a2 2 0 0 0-.1-2m-21 2.4-.2.5q-.4.6-1 .9-1.2.6-2.8.6a17 17 0 0 1-4-.6s-5.5-1.6-4.8-3l.5-.2c1 0 2.7 1.4 3.5 1.4q.3 0 .3-.2c.4-1.2-4.9-1.7-4.4-3.4q.1-.4.5-.4c1.3 0 4.2 2.3 4.8 2.3h.1c.3-.5.2-.9-1.8-2l-.2-.2c-2.1-1.3-3.6-2-2.8-3l.4-.1.8.1a16 16 0 0 1 3.6 2.7s.8.8 1.3.8l.3-.1c.4-.6-3.3-3.4-3.5-4.5q-.2-1.2.6-1.2.3 0 .7.3c.9.5 2.6 3.4 3.2 4.5q.3.6.8.6c.7 0 1.2-.7.1-1.5-1.6-1.2-1-3.1-.3-3.2h.1c.7 0 1 1.2 1 1.2s1 2.2 2.5 3.8q2 2 .8 4m5 .3h-1l-.2.1h-2.1q1.4-3-1.3-5.5a11 11 0 0 1-2-3.2c-.3-1-1.2-2.3-2.6-2.3a2 2 0 0 0-1.9 1l-1.1-1.1a3 3 0 0 0-1.6-.5q-1 0-1.7.7l-.2-1V25l-.1-.1v-.8l-.1-.3V23a14.2 14.2 0 0 1 28.4 0v1.5l-.1.2v.6l-.1.2-.1.5v.2q-.6-.6-1.6-.6a3 3 0 0 0-1.6.5l-1.2 1.1a2 2 0 0 0-1.8-1c-1.4 0-2.3 1.2-2.6 2.3-.1.4-.9 2-2 3.2q-2.6 2.5-1.4 5.4m14.7-3.8-.2.3-1.1.8h-.2l-.2.1h-.1l-.8.4h-.2l-.2.1-.2.1H37q-1.3.6-1.2 1l.1.2q.3.2.7 0h.1l.2-.1 1.3-.7.5-.2q.5-.3 1-.3h.3l.2.3q.2.4-.2.8l-1.3.8a23 23 0 0 1-5.3 1.7h-.6l-1 .1H30l-.3-.1h-.2l-.1-.1h-.2l-.1-.1-.2-.1h-.2l-.2-.2h-.1V38h-.1l-.1-.1-.1-.1H28v-.1h-.1v-.1l-.3-.3-.2-.3v-.2h-.1v-.1l-.2-.3v-.1l-.2-.6v-.4q0-1.2 1.2-2.4c1.6-1.6 2.5-3.8 2.5-3.8v-.3l.2-.3v-.2l.2-.2.4-.2h.2q.3 0 .4.2l.2.3.1.1.1.8-.1.7-.2.3-.1.2-.6.6-.3.3q-.4.5-.3.8v.2h.2l.2.1h.8l.1-.2.2-.3 1.2-2V30l.2-.2.3-.4v-.1l.4-.5.4-.6h.1V28l.1-.1.1-.1.4-.3.1-.1q.6-.4 1 0l.2.6v.4l-.1.2-.2.4-.2.2-.4.4-.1.2-.2.1v.1l-.1.1-.2.2-.1.1-1.9 2v.6h.6l.2-.2h.1l.1-.2.3-.2.2-.1v-.1h.1v-.1h.1V32h.1l.3-.3.1-.1h.1l.4-.4 1-.8.2-.1.4-.2.2-.2h.2v-.1h.1l.1-.1h.1l.4-.2h.2l.3-.1h.2l.2.1.2.3v.1q0 .2 0 .4v.1l-.2.3h-.1v.1h-.1l-.6.5-.7.5-1.2.7h-.1l-.4.3-.2.1-.2.1-.1.1-.1.1h-.1v.1l-.3.2-.3.2v.1H35v.1h-.1v.1l-.1.1v.5h.1q.2.1.6-.1h.1v-.1h.2v-.1l1.4-.8.2-.1.8-.5.6-.2 1-.3h.3l.2.4z"/><path fill="#ffd21e" fill-rule="evenodd" d="M38.1 23.2V23a14.2 14.2 0 1 0-28.4 0v1.6l.1.2v.4l.3 1v.1q.6-.7 1.7-.7.7 0 1.6.5l1.1 1.1a2 2 0 0 1 2-1c1.3 0 2.2 1.2 2.5 2.3.1.4.9 2 2 3.2q2.7 2.5 1.3 5.4h1l.1.1h2.2v-.1q-1.2-2.9 1.4-5.4c1.1-1.1 1.9-2.8 2-3.2.3-1 1.2-2.3 2.6-2.3a2 2 0 0 1 1.8 1l1.2-1.1a3 3 0 0 1 1.6-.5q1 0 1.6.6v-.7l.1-.1V25l.1-.2v-1.2h.1v-.4M20.4 37.4Q22 35 19.9 33c-1.6-1.6-2.5-3.8-2.5-3.8s-.3-1.4-1-1.2c-.8 0-1.4 2 .2 3.2s-.3 2-1 1c-.5-1.2-2.2-4-3.1-4.6q-1.5-.9-1.3.9.3.9 2 2.4c.9 1 1.7 1.8 1.5 2-.3.7-1.6-.6-1.6-.6s-4-3.6-4.8-2.7.5 1.6 2.3 2.7l.5.3c2.2 1.3 2.3 1.7 2 2.1q-.2.2-1.7-.7C10 33 8 31.9 7.7 33c-.3.9 1.2 1.4 2.5 2 1 .4 2.1.7 2 1.3-.2.5-1 0-2-.4-1-.6-2-1.2-2.4-.5-.7 1.3 4.7 2.8 4.8 2.9 1.7.4 6.2 1.4 7.8-1m7.2 0Q26 35 28.1 33c1.6-1.6 2.5-3.8 2.5-3.8s.3-1.4 1-1.2c.8 0 1.4 2-.2 3.2s.3 2 1 1c.5-1.2 2.2-4 3-4.6q1.6-.9 1.4.9-.3.9-2 2.4c-.9 1-1.7 1.8-1.5 2 .3.7 1.6-.6 1.6-.6s3.9-3.6 4.7-2.7-.4 1.6-2.2 2.7l-.5.3c-2.2 1.3-2.3 1.7-2 2.1q.2.2 1.7-.7c1.5-1 3.4-2.1 3.7-1 .3.9-1.2 1.4-2.5 2-1.1.4-2.1.7-2 1.3.2.5 1 0 2-.4 1-.6 2-1.2 2.4-.5.7 1.3-4.7 2.8-4.8 2.9-1.7.4-6.2 1.4-7.8-1" clip-rule="evenodd"/><path fill="#32343d" fill-rule="evenodd" d="m28.5 19.2.6.6q.3.6.7.4a2 2 0 1 0-2.8-.8q.2.2.8 0zm-9.6 0-.6.6q-.3.6-.7.4a2 2 0 1 1 2.8-.8q-.3.2-.8 0zM27 28c1.5-1.2 2.1-3.2 2.1-4.4 0-1-.6-.6-1.7-.1q-1.5 1-3.6 1.1-2.2-.2-3.6-1.1c-1-.5-1.7-.9-1.7.1 0 1.3.6 3.3 2.2 4.5a4 4 0 0 1 2.2-1.8l.5.5q.2.5.5.6t.5-.6.6-.5q1.3.5 2 1.7" clip-rule="evenodd"/><path fill="#ff323d" d="M27 28a5 5 0 0 1-3.2 1q-2 0-3-.9a4 4 0 0 1 2-1.8c.4-.1.7 1 1 1 .5 0 .8-1.1 1.2-1q1.3.5 2 1.7"/><path fill="#ffad03" fill-rule="evenodd" d="M15.2 21a1.3 1.3 0 1 1-1.5-2.3 1.3 1.3 0 0 1 1.5 2.2m19 0a1.3 1.3 0 1 1-1.4-2.3 1.3 1.3 0 0 1 1.4 2.2" clip-rule="evenodd"/></svg>