<svg xmlns="http://www.w3.org/2000/svg" width="48" height="48" fill="none" viewBox="0 0 48 48"><g clip-path="url(#a)"><mask id="b" width="48" height="48" x="0" y="0" maskUnits="userSpaceOnUse" style="mask-type:luminance"><path fill="#fff" d="M48 0H0v48h48z"/></mask><g mask="url(#b)"><path fill="#fff" d="M40 0H8a8 8 0 0 0-8 8v32a8 8 0 0 0 8 8h32a8 8 0 0 0 8-8V8a8 8 0 0 0-8-8"/><g clip-path="url(#c)"><path fill="#1f70c1" d="M4 16v1h7.8v-1zm8.9 0v1h11q-1-1-2.5-1zm13.3 0v1h6.7l-.4-1zm11.5 0-.4 1h6.6v-1zM4 18.1v1.1h7.8v-1zm8.9 0v1.1h12.4s-.2-.8-.4-1zm13.3 0v1.1h7.4l-.4-1zm10.7 0-.4 1.1H44v-1zM6.2 20.3v1h3.4v-1zm9 0v1h3.3v-1zm6.6 0v1h3.4l.2-1zm6.6 0v1h6l-.4-1zm7.8 0-.4 1h6v-1zm-30 2v1.2h3.4v-1.1zm9 0v1.2h8.5l1-1.1zm13.2 0v1.2h3.4v-.6l.2.6h6.2l.2-.6v.6h3.4v-1.1h-6.4l-.3 1-.3-1zM6.2 24.6v1.1h3.4v-1zm9 0v1.1h9.5q-.4-.6-1-1zm13.2 0v1.1h3.4v-1zm4 0 .4 1.1h4.6l.4-1zm6 0v1.1h3.4v-1zM6.2 26.6v1.1h3.4v-1zm9 0v1.1h3.3v-1zm6.6 0v1.1h3.6l-.2-1zm6.6 0v1.1h3.4v-1zm4.8 0 .4 1.1h3l.5-1zm5.2 0v1.1h3.4v-1zM4.1 28.8v1h7.7v-1zm8.8 0v1h12c.2-.2.4-1 .4-1zm13.3 0v1h5.6v-1zm7.7 0 .4 1H36l.4-1zm4.5 0v1H44v-1zM4.1 30.9V32h7.7v-1zm8.8 0V32h8.5q1.5 0 2.6-1zm13.3 0V32h5.6v-1zm8.5 0 .4 1.1.5-1.1zm3.7 0V32H44v-1z"/></g></g></g><defs><clipPath id="a"><path fill="#fff" d="M0 0h48v48H0z"/></clipPath><clipPath id="c"><path fill="#fff" d="M4 16h40v16H4z"/></clipPath></defs></svg>