<svg xmlns="http://www.w3.org/2000/svg" width="48" height="48" fill="none" viewBox="0 0 48 48"><g clip-path="url(#a)"><mask id="b" width="48" height="48" x="0" y="0" maskUnits="userSpaceOnUse" style="mask-type:luminance"><path fill="#fff" d="M48 0H0v48h48z"/></mask><g mask="url(#b)"><path fill="#fff" d="M40 0H8a8 8 0 0 0-8 8v32a8 8 0 0 0 8 8h32a8 8 0 0 0 8-8V8a8 8 0 0 0-8-8"/><path fill="#000" fill-rule="evenodd" d="M33.6 6.2q3.7 2.2 5 6.3a5.7 5.7 0 0 1 3.2 7.6q-.4 1.1-1.3 1.9a5.6 5.6 0 0 1-.4 8.6q1 1.6 1 3.5l-.1.2a5.6 5.6 0 0 1-7.8 4.6 5.6 5.6 0 0 1-9.7 1.6 7 7 0 0 1-3 .7H19c-1.8-.1-1.8-3 .2-3h1.5a3.8 3.8 0 1 0 0-7.6h-12a1.5 1.5 0 1 1 0-3h12a3.8 3.8 0 0 0 .8-7.6H8.6a1.5 1.5 0 1 1 0-3h12a3.8 3.8 0 1 0 0-7.7h-1.7c-1.8-.1-1.8-3 .2-3h1.5q1 0 1.9.3a11 11 0 0 1 11.1-.4m-6.2 19.2h-.1l-.2.1a7 7 0 0 1-2.3 3.6 7 7 0 0 1 1 9.6 2.7 2.7 0 0 0 4.7-2.2v-1l.1-.2.3-.4h.1l.1-.1.2-.1h.1v-.1h1.2l.1.1.3.3.1.1a2.7 2.7 0 1 0 4-3.4h-.8a6 6 0 0 1-5-4.3l-.1-.2a2.7 2.7 0 0 0-3.8-1.8M20 33a1.5 1.5 0 1 1 0 3H14a1.5 1.5 0 0 1 0-3zm15.4-17.5a3 3 0 0 0-1.4 2.2v.1a1.5 1.5 0 0 1-1.3 1.5h-.1a1.5 1.5 0 0 1-1.5-1.4 2.7 2.7 0 0 0-4.2-2.2q-.7 1.6-2.1 2.7 1.8 1.6 2.4 3.9a5.6 5.6 0 0 1 6.9 4.2v.2a3 3 0 0 0 2.3 2h.8a2.7 2.7 0 0 0-.4-5.2h-.1a2 2 0 0 1-1.1-.6 1.5 1.5 0 0 1 .1-2q.4-.4.9-.4h.1a2.7 2.7 0 0 0 .6-5.3H37q-.9 0-1.6.3M20 22.3a1.5 1.5 0 1 1 0 3H5.5a1.5 1.5 0 0 1 0-3zm0-10.7a1.5 1.5 0 1 1 0 3H14a1.5 1.5 0 1 1 0-3zm5.5-3.3q1.5 1.7 1.8 4a6 6 0 0 1 5.3 1.7q1.1-1.2 2.8-1.7a7.7 7.7 0 0 0-9.9-4" clip-rule="evenodd"/></g></g><defs><clipPath id="a"><path fill="#fff" d="M0 0h48v48H0z"/></clipPath></defs></svg>