<svg xmlns="http://www.w3.org/2000/svg" width="48" height="48" fill="none" viewBox="0 0 48 48"><g clip-path="url(#a)"><mask id="b" width="48" height="48" x="0" y="0" maskUnits="userSpaceOnUse" style="mask-type:luminance"><path fill="#fff" d="M48 0H0v48h48z"/></mask><g mask="url(#b)"><path fill="#fff" d="M40 0H8a8 8 0 0 0-8 8v32a8 8 0 0 0 8 8h32a8 8 0 0 0 8-8V8a8 8 0 0 0-8-8"/><path fill="#000" d="M19.3 12.4c1-.7 2.6-.8 2.7-1h-1a8 8 0 0 0-5.2 2.1c-2.3 1.9-3 5-2.7 7.7a11 11 0 0 0 4.3 7.2c5 3.3 12 1.7 15.7-2.7A11.6 11.6 0 0 0 31.6 9a13 13 0 0 0-6.2-2.2c-.6 0-.4.5-.5.6-.2.1-1.4.2 0 .7.8.2.3.3-.3.8s0 1-.3 1.2c-.8.9.5 1.2 1.1 1.6 3.2 1.6 4.9 4.6 4.3 8-.8 4.6-7.8 6.6-10.9 3-2.3-2.8-1.4-7.3 2-8.8.4-.3 1.5-.6 1-.5-1.7.1-3.1 1-3.5 1.3h-.1c.3-.6 2.2-1.9 5.8-2.3.7-.1-1.8-.6-4.7 0M20.8 40h2.1l3.4.4h2.4l1.9.1 1 .1 3.7.1q.6 0 1.1-.2.3-.2.2-.5l.2-.1v-.5l-.3-1.3-1-1.9c-.5-.5-.7-1.3-1.4-1.6-1.3-.6-2.6-.5-4-.7a113 113 0 0 0-16.4 0c-3.8.3-2 .8-2.1 1.9 0 .3-.5.3-.5.7.1.5 1.1 1.2 1.7 1.3 2.2.6-.8.7-.4 1.3.2.5 1.5.3 2 .5z"/></g></g><defs><clipPath id="a"><path fill="#fff" d="M0 0h48v48H0z"/></clipPath></defs></svg>