<svg xmlns="http://www.w3.org/2000/svg" width="48" height="48" fill="none" viewBox="0 0 48 48"><g clip-path="url(#a)"><mask id="b" width="48" height="48" x="0" y="0" maskUnits="userSpaceOnUse" style="mask-type:luminance"><path fill="#fff" d="M48 0H0v48h48z"/></mask><g clip-path="url(#c)" mask="url(#b)"><path fill="url(#d)" d="M12 27q1.3-4.2 3.6-8.2c5.8-10 14.3-16 19-13.3-10.5-6-24.2-2-30.5 9q-1.1 2-2 4.2a3 3 0 0 0 1.5 3.5z"/><path fill="url(#e)" d="M36 20.4q-1.3 4.3-3.6 8.2c-5.8 10-14.3 16-19 13.3C24 48 37.7 44 44 33q1.1-2 2-4.2a3 3 0 0 0-1.5-3.5z"/><path fill="url(#f)" d="M32.4 28.6C38.2 18.5 39.2 8 34.5 5.5s-13.1 3.3-19 13.3c3.9-6.5 10.7-9.7 15.4-7 4.6 2.7 5.3 10.2 1.5 16.8"/><path fill="url(#g)" d="M15.6 18.8C9.8 29 8.8 39.2 13.5 42s13.1-3.3 19-13.3c-3.9 6.5-10.7 9.7-15.4 7-4.6-2.7-5.3-10.2-1.5-16.8"/></g></g><defs><linearGradient id="d" x1="17.4" x2="12.9" y1="42.3" y2="27.6" gradientUnits="userSpaceOnUse"><stop stop-color="#003eff"/><stop offset="1" stop-color="#0bffe7"/></linearGradient><linearGradient id="e" x1="17.4" x2="12.9" y1="42.3" y2="27.6" gradientUnits="userSpaceOnUse"><stop stop-color="#003eff"/><stop offset="1" stop-color="#0bffe7"/></linearGradient><linearGradient id="f" x1="17.4" x2="12.9" y1="42.3" y2="27.6" gradientUnits="userSpaceOnUse"><stop stop-color="#003eff"/><stop offset="1" stop-color="#0bffe7"/></linearGradient><linearGradient id="g" x1="17.4" x2="12.9" y1="42.3" y2="27.6" gradientUnits="userSpaceOnUse"><stop stop-color="#003eff"/><stop offset="1" stop-color="#0bffe7"/></linearGradient><clipPath id="a"><path fill="#fff" d="M0 0h48v48H0z"/></clipPath><clipPath id="c"><path fill="#fff" d="M2 1.8h44v44H2z"/></clipPath></defs></svg>