<svg xmlns="http://www.w3.org/2000/svg" width="48" height="48" fill="none" viewBox="0 0 48 48"><g clip-path="url(#a)"><mask id="b" width="48" height="48" x="0" y="0" maskUnits="userSpaceOnUse" style="mask-type:luminance"><path fill="#fff" d="M48 0H0v48h48z"/></mask><g clip-path="url(#c)" mask="url(#b)"><path fill="#000" d="m5.7 12.7 19-11v44l-19-11z"/><path fill="url(#d)" d="m24.7 45.8-19-11 19-11 19 11z"/><path fill="url(#e)" d="m24.7 45.8-19-11 19-11 19 11z"/><path fill="url(#f)" d="m5.7 12.7 19-11v44l-19-11z" style="mix-blend-mode:screen"/><path fill="url(#g)" d="m24.7 45.8-19-11 19-11 19 11z" style="mix-blend-mode:overlay"/><path fill="url(#h)" d="m5.7 12.7 19-11v44l-19-11z" style="mix-blend-mode:overlay"/></g></g><defs><linearGradient id="d" x1="27.2" x2="10.6" y1="43.3" y2="8.6" gradientUnits="userSpaceOnUse"><stop stop-color="#004eff"/><stop offset="1" stop-color="#0ff"/></linearGradient><linearGradient id="e" x1="27.2" x2="10.6" y1="43.3" y2="8.6" gradientUnits="userSpaceOnUse"><stop stop-color="#004eff"/><stop offset="1" stop-color="#0ff"/></linearGradient><linearGradient id="f" x1="27.2" x2="10.6" y1="43.3" y2="8.6" gradientUnits="userSpaceOnUse"><stop stop-color="#004eff"/><stop offset="1" stop-color="#0ff"/></linearGradient><linearGradient id="g" x1="27.2" x2="10.6" y1="43.3" y2="8.6" gradientUnits="userSpaceOnUse"><stop stop-color="#004eff"/><stop offset="1" stop-color="#0ff"/></linearGradient><linearGradient id="h" x1="27.2" x2="10.6" y1="43.3" y2="8.6" gradientUnits="userSpaceOnUse"><stop stop-color="#004eff"/><stop offset="1" stop-color="#0ff"/></linearGradient><clipPath id="a"><path fill="#fff" d="M0 0h48v48H0z"/></clipPath><clipPath id="c"><path fill="#fff" d="M2 1.8h44v44H2z"/></clipPath></defs></svg>