<svg xmlns="http://www.w3.org/2000/svg" width="48" height="48" fill="none" viewBox="0 0 48 48"><path fill="url(#a)" d="M32.6 4c2.3 0 4.1 1.9 4.1 4.1v25a1.5 1.5 0 0 0 1.5 1.5 1.5 1.5 0 0 0 1.5-1.5V18.2a4 4 0 0 1 5.7-3.8 4 4 0 0 1 2.6 3.8v13.1a1.3 1.3 0 0 1-1.8 1.2 1 1 0 0 1-.8-1.2V18.2a1.5 1.5 0 0 0-1.5-1.5 1.5 1.5 0 0 0-1.6 1.5v15a4 4 0 0 1-5.6 3.7A4 4 0 0 1 34 33v-25a2 2 0 0 0-1.5-1.5A1.6 1.6 0 0 0 31 8.1V40a4 4 0 0 1-5.7 3.7 4 4 0 0 1-2.5-3.8v-3.8q.1-1.2 1.3-1.3 1.2.1 1.3 1.3v3.8q0 .9.7 1.3a1.5 1.5 0 0 0 2-.5q.3-.3.3-.8V8.1C28.4 6 30.2 4 32.6 4M21.2 4c2.3 0 4.2 1.9 4.2 4.1v23a1.3 1.3 0 0 1-1.8 1.3 1 1 0 0 1-.8-1.2v-23a1.6 1.6 0 0 0-1.6-1.6A1.6 1.6 0 0 0 19.6 8v28a4 4 0 0 1-4.1 4.2 4 4 0 0 1-4.2-4.1v-18a1.5 1.5 0 0 0-1.5-1.5 1.5 1.5 0 0 0-1.5 1.5v7.6a4 4 0 0 1-5.7 3.8A4 4 0 0 1 0 25.8V23q.1-1.1 1.3-1.2T2.6 23v2.8q.2 1.4 1.5 1.5 1.5-.1 1.6-1.5v-7.6a4 4 0 0 1 4.1-4.1 4 4 0 0 1 4.2 4.1v18q0 1.3 1.5 1.5 1.3-.2 1.5-1.5v-28C17 5.8 19 4 21.2 4"/><defs><linearGradient id="a" x1="0" x2="48.1" y1="24" y2="24" gradientUnits="userSpaceOnUse"><stop stop-color="#e2167e"/><stop offset="1" stop-color="#fe603c"/></linearGradient></defs></svg>