<svg xmlns="http://www.w3.org/2000/svg" width="48" height="48" fill="none" viewBox="0 0 48 48"><g clip-path="url(#a)"><path fill="#000" d="M35 2.2h8.6v8.7H35z"/><path fill="#f7d046" d="M39.3 2.2H48v8.7h-8.7z"/><path fill="#000" d="M0 2.2h8.7v8.7H0zm0 8.7h8.7v8.7H0zm0 8.7h8.7v8.7H0zm0 8.7h8.7v8.8H0zm0 8.8h8.7v8.7H0z"/><path fill="#f7d046" d="M4.4 2.2H13v8.7H4.4z"/><path fill="#f2a73b" d="M39.3 10.9H48v8.7h-8.7zm-35 0h8.8v8.7H4.4z"/><path fill="#000" d="M26.2 10.9h8.7v8.7h-8.7z"/><path fill="#f2a73b" d="M30.5 10.9h8.8v8.7h-8.8zm-17.4 0h8.7v8.7h-8.7z"/><path fill="#ee792f" d="M21.8 19.6h8.7v8.7h-8.7zm8.7 0h8.8v8.7h-8.8zm-17.4 0h8.7v8.7h-8.7z"/><path fill="#000" d="M17.5 28.3h8.7v8.8h-8.7z"/><path fill="#eb5829" d="M21.8 28.3h8.7v8.8h-8.7z"/><path fill="#ee792f" d="M39.3 19.6H48v8.7h-8.7zm-35 0h8.8v8.7H4.4z"/><path fill="#000" d="M35 28.3h8.6v8.8H35z"/><path fill="#eb5829" d="M39.3 28.3H48v8.8h-8.7z"/><path fill="#000" d="M35 37h8.6v8.8H35z"/><path fill="#eb5829" d="M4.4 28.3H13v8.8H4.4z"/><path fill="#ea3326" d="M39.3 37H48v8.8h-8.7zm-35 0h8.8v8.8H4.4z"/></g><defs><clipPath id="a"><path fill="#fff" d="M0 0h48v48H0z"/></clipPath></defs></svg>