<svg xmlns="http://www.w3.org/2000/svg" width="48" height="48" fill="none" viewBox="0 0 48 48"><g clip-path="url(#a)"><mask id="b" width="48" height="48" x="0" y="0" maskUnits="userSpaceOnUse" style="mask-type:luminance"><path fill="#fff" d="M48 0H0v48h48z"/></mask><g mask="url(#b)"><path fill="#fff" d="M40 0H8a8 8 0 0 0-8 8v32a8 8 0 0 0 8 8h32a8 8 0 0 0 8-8V8a8 8 0 0 0-8-8"/><path fill="#19140f" d="M37 17.3c-3.6 0-5.1 6-6.7 12.4q-.6 2.7-1.4 4.8-.8 1.6-1.4 1.7t-1.3-1.7q-.9-2-1.4-4.8l-.7-2.8q-.2-.5-.8-.5-.8 0-.8 1l.7 2.7c1 4 2 7.6 4.3 7.6 2.4 0 3.3-3.7 4.3-7.6.8-2.9 1.5-5.9 2.4-8q1.3-3.2 2.8-3.2t2.7 3.2l1 2.7q.2.6 1 .5.6-.1.5-1c-1.2-4-2.7-7-5.2-7M22.3 20.7q.2.9-.7 1a1 1 0 0 1-.8-.5l-1.4-4q-2.2-5.4-4.8-5.4-2.7 0-4.9 5.4-1.5 4.1-3 9.4 0 .5.4.8a3.1 3.1 0 1 1-2.5-.6q.5 0 .7-.6c2.2-8.6 4.6-16 9.3-16 3.6 0 5.9 4.5 7.7 10.5M5.1 28.3a1.6 1.6 0 1 0 0 3.2 1.6 1.6 0 0 0 0-3.2"/><path fill="#19140f" d="M9.2 27.5q.4.6 1 .3c3.5-1.7 7.6-3 13.8-3q2.9 0 5.2.3a.8.8 0 0 0 .2-1.5q-2.4-.4-5.4-.4c-6.5 0-10.9 1.4-14.5 3.2q-.6.4-.3 1.1M45 32.1a3.1 3.1 0 0 1-5.3-2.6q0-.6-.3-.8-2-1.2-4.3-2a1 1 0 0 1-.5-1q.3-.8 1-.5 2.5 1 4.6 2.2.5.2.8 0a3.1 3.1 0 0 1 4 4.7M43 28.3a1.6 1.6 0 1 0 0 3.2 1.6 1.6 0 0 0 0-3.2"/></g></g><defs><clipPath id="a"><path fill="#fff" d="M0 0h48v48H0z"/></clipPath></defs></svg>