<svg xmlns="http://www.w3.org/2000/svg" width="48" height="48" fill="none" viewBox="0 0 48 48"><g clip-path="url(#a)"><mask id="b" width="48" height="48" x="0" y="0" maskUnits="userSpaceOnUse" style="mask-type:luminance"><path fill="#fff" d="M48 0H0v48h48z"/></mask><g mask="url(#b)"><path fill="#fff" d="M40 0H8a8 8 0 0 0-8 8v32a8 8 0 0 0 8 8h32a8 8 0 0 0 8-8V8a8 8 0 0 0-8-8"/><g clip-path="url(#c)"><path fill="#000" d="M45.8 38.5q-.1.7-.8.7t-.7-.7q0-.8.7-.8t.8.8m.2 0q0-1-1-1t-1 1q.1 1 1 1t1-1m-1.1 0 .3.5h.3l-.3-.5q.3 0 .3-.2 0-.4-.5-.3h-.4v1h.3zm0-.1V38h.1q.2 0 .2.2H45M39.2 33l1.3 3.5h-2.6zm-1.4-1.4L35 39.1h2l.6-1.3h3.4l.4 1.3h2.3l-3-7.4zM32 39.1h2v-7.4h-2zm-14.5-7.4-1.8 6-1.6-6h-2.3l2.4 7.4h3l2.4-7.4zm8.4 1.7h1q1.9-.1 2 2-.1 2.3-2 2.2h-1zm-2-1.7v7.4h3.3c1.8 0 2.4-.3 3-1q.8-.7.8-2.6 0-1.6-.7-2.5-1-1.4-3.5-1.3zM4 31.7v7.4h2.2v-5.6h1.6q.8 0 1.2.4t.4 2V39h2v-4c0-3-1.8-3.4-3.6-3.4zm16.5 0v7.4h2v-7.4z"/><path fill="#77b900" d="M9.7 17s2.7-4 8-4.4v-1.4c-6 .5-11 5.5-11 5.5s2.8 8.4 11 9.2v-1.5c-6-.8-8-7.4-8-7.4m8 4.3v1.4c-4.5-.8-5.8-5.5-5.8-5.5s2.2-2.4 5.8-2.8V16c-1.9-.2-3.4 1.6-3.4 1.6s.9 3 3.4 3.8m0-12.8v2.7h.5c6.8-.3 11.2 5.5 11.2 5.5s-5 6.2-10.3 6.2q-.8 0-1.4-.2v1.7H19c4.9 0 8.4-2.5 11.8-5.4.6.4 3 1.6 3.4 2a30 30 0 0 1-16.4 5v2.2h18.7V8.5zm0 6v-1.9h.5c5-.1 8.1 4.2 8.1 4.2s-3.4 4.8-7.1 4.8q-.8 0-1.5-.3V16c2 .3 2.3 1.1 3.4 3l2.6-2.1s-1.9-2.4-5-2.4z"/></g></g></g><defs><clipPath id="a"><path fill="#fff" d="M0 0h48v48H0z"/></clipPath><clipPath id="c"><path fill="#fff" d="M4 8.5h42v31H4z"/></clipPath></defs></svg>