<svg xmlns="http://www.w3.org/2000/svg" width="48" height="48" fill="none" viewBox="0 0 48 48"><g clip-path="url(#a)"><path fill="#fff" d="M40 0H8a8 8 0 0 0-8 8v32a8 8 0 0 0 8 8h32a8 8 0 0 0 8-8V8a8 8 0 0 0-8-8"/><path fill="#000" d="M10.8 14.2c-.5.4-.5.8-.5 6.3v5.9h-4V29H13V18.6l1.5 1.7L16 22h16l1.5-1.7 1.5-1.7V29h6.8v-1.2l-.2-1.3h-2l-2-.1v-5.9c0-5.5 0-5.9-.4-6.3-1-1-1.2-.7-4 2.6l-2.4 2.6H17.2l-1.6-1.8c-3.7-4.3-3.9-4.4-4.8-3.4"/><path fill="#000" d="M17.4 26q-.9.3-.8 1.4c0 1.5 1.8 2.2 2.8 1.1q1-1.1 0-2.2-1-1-2-.3M29 26q-1 .3-1 1.4c0 1.5 2 2.2 3 1.1q1-1.1-.2-2.2-.8-1-1.9-.3M6.2 33v1.3h3.4l3.2-.1.1-1.3v-1.2H6.3zM35 33v1.3h3.4l3.2-.1.1-1.3v-1.2H35z"/></g><defs><clipPath id="a"><path fill="#fff" d="M0 0h48v48H0z"/></clipPath></defs></svg>