<svg xmlns="http://www.w3.org/2000/svg" width="48" height="48" fill="none" viewBox="0 0 48 48"><g clip-path="url(#a)"><mask id="b" width="48" height="48" x="0" y="0" maskUnits="userSpaceOnUse" style="mask-type:luminance"><path fill="#fff" d="M48 0H0v48h48z"/></mask><g mask="url(#b)"><path fill="url(#c)" fill-rule="evenodd" d="M34.8 19q1.5.1 1.6 1.6v7.1l7.8-6.7a.8.8 0 0 1 1.3.6v19.7a.8.8 0 0 1-1.3.6l-7.8-6.3v7.2q0 .5-.4 1l-.2.2a2 2 0 0 1-1.2.3l-20-2.5v2.4a1.6 1.6 0 0 1-1.7 1.5H4.1a1.6 1.6 0 0 1-1.6-1.5V20.6Q2.6 19.1 4 19zm-11.3 8h-8.2a1 1 0 0 0-.8.8V33q.1.8.8.8h8.2q.7 0 .8-.8v-5.2a1 1 0 0 0-.8-.8M26 1.8a8 8 0 1 1 0 16 8 8 0 0 1 0-16M11.4 4.2a6.7 6.7 0 1 1 0 13.3 6.7 6.7 0 0 1 0-13.3" clip-rule="evenodd"/></g></g><defs><linearGradient id="c" x1="30.1" x2="1.6" y1="3.6" y2="45.9" gradientUnits="userSpaceOnUse"><stop stop-color="#e8632a"/><stop offset=".6" stop-color="#b465e6"/><stop offset="1" stop-color="#979fd9"/></linearGradient><clipPath id="a"><path fill="#fff" d="M0 0h48v48H0z"/></clipPath></defs></svg>