<svg xmlns="http://www.w3.org/2000/svg" width="48" height="48" fill="none" viewBox="0 0 48 48"><g clip-path="url(#a)"><mask id="b" width="48" height="48" x="0" y="0" maskUnits="userSpaceOnUse" style="mask-type:luminance"><path fill="#fff" d="M48 0H0v48h48z"/></mask><g clip-path="url(#c)" mask="url(#b)"><path fill="#fff" d="M9.2.7c3-.5 6.3-.3 9.1 1q2.4 1 4.1 2.9v-.3A2 2 0 0 1 23 3a4 4 0 0 1 3.5-1.2q.9 0 1.6 1 .3.6.2 1v.5q-.2 2.6-.8 5A18.5 18.5 0 0 1 43 26l.8.8q.7 1.3.2 2.4t-1 1.4q-1.1 6.8-6 11.4l-.7.6q-4.6 4-10.7 4.4a19 19 0 0 1-20-16.3h-.1a2.8 2.8 0 0 1 0-4.8q.7-7 5.7-11.9l-1.3-1-.5-.4a2 2 0 0 1-.6-1.4l.1-.7a39 39 0 0 1-1.4-8.3q0-.5.2-.8.4-.4.6-.5z"/><path fill="url(#d)" d="M7 28c0-9.1 7.7-16.5 17.2-16.5S41.4 18.9 41.4 28s-7.7 16.5-17.2 16.5S7 37 7 28"/><path fill="url(#e)" d="M19.7 43c7.8 0 14.2-7.8 14.2-17.4A19 19 0 0 0 28.6 12 16.6 16.6 0 0 1 41.4 28c0 9.1-7.7 16.5-17.2 16.5q-4.7 0-8.9-2.4 2.1.9 4.4.9"/><path fill="url(#f)" d="M10.6 3.5a80 80 0 0 1 6 5.8l-1.2.2c-.3 0-.8.2-.2.6-.7.4 1.5.8 1.6.9l1.6.2 1.2 1.6q-2.6.9-5.2-.2-2.5-1.3-3-4a30 30 0 0 1-.8-5"/><path fill="url(#g)" d="M11 3.4q3.8-.3 7 1.4.8 1 1.1 2.4.5 1.7-.1 3l-1-.8v-.1a4 4 0 0 0 0-1.8q0-.6-.4-.3l-.4 1.3z"/><path fill="#69a45c" d="M18 4.8q2.9 1.5 3.6 4.6a3 3 0 0 1-.8 2.7L19 10.3q.6-1.5.1-3t-1-2.5M15.2 10a4 4 0 0 0 2.2 0l1 1-1.6-.1c-.2 0-2.3-.5-1.6-1"/><path fill="#fff" d="M12.8 27.1a4.8 4.8 0 1 1 9.7 0 4.8 4.8 0 0 1-9.7 0m12.5 0a4.8 4.8 0 1 1 9.7 0 4.8 4.8 0 0 1-9.7 0"/><path fill="#ff94fb" d="M26.7 34.2c0 1.4-1.2 2.7-2.7 2.7s-2.7-1.3-2.7-2.8h.6l.6.1q.8.2 2 .3z"/><path fill="#36124c" fill-rule="evenodd" d="m21.6 33.5.4.1.6.1q.9.3 1.9.3l2-.2h.2l.5-.1v.5q0 1.3-1 2.2-.8 1-2.2 1a3.3 3.3 0 0 1-3.2-3.3v-.4l.4-.1zm.3 1.1q.4 1.6 2.1 1.8.9 0 1.5-.7.4-.3.6-.9l-1.6.2-1.2-.1-1-.2z" clip-rule="evenodd"/><path fill="#36124c" d="M18.4 24.1c1.5 0 2.8 1.4 2.8 3s-1.3 3-2.8 3-2.7-1.3-2.7-3v-.7a1 1 0 1 0 2-.8 1 1 0 0 0-1.2-.6q.8-.8 2-.9"/><path fill="#36124c" fill-rule="evenodd" d="M17.8 21.8a5.4 5.4 0 1 1 0 10.7 5.4 5.4 0 0 1 0-10.8m0 1a4.4 4.4 0 1 0 0 8.7 4.4 4.4 0 0 0 0-8.7" clip-rule="evenodd"/><path fill="#36124c" d="M31 24.1c1.4 0 2.7 1.4 2.7 3s-1.3 3-2.8 3-2.7-1.3-2.7-3v-.7a1 1 0 1 0 2-.8A1 1 0 0 0 29 25q.8-.8 2-.9"/><path fill="#36124c" fill-rule="evenodd" d="M30.3 21.8a5.4 5.4 0 1 1 0 10.7 5.4 5.4 0 0 1 0-10.8m0 1a4.4 4.4 0 1 0 0 8.7 4.4 4.4 0 0 0 0-8.7" clip-rule="evenodd"/><path fill="#36124c" fill-rule="evenodd" d="M9.4 2c5.6-.9 12.2.8 13.9 7a21 21 0 0 0 .5-5l.1-.1q1-1 2.4-.9.9.2.7 1.1a32 32 0 0 1-1.1 6.3c8.9.8 15.3 7.6 15.9 16.4q.5.3.9.7c.5.8.1 2-.9 2.2v.1a18 18 0 0 1-6.3 11.8A17.6 17.6 0 0 1 6.7 29.8l-.6-.1c-1.2-.8-.8-2.5.5-2.8h.1a18 18 0 0 1 6.6-13l-1.2-.7-1.8-1.5q-.5-.5 0-.7v-.1a36 36 0 0 1-1.5-8.7zm16 10-1.2 2.4q-.5 1.2-1.5 1.5-1.2.2-2.3-.5c-.3-.5.2-.8.6-1v-.1q0-.3-.4-.4-2.5 1.3-5.2.7h-.2q-6 4.5-6.7 12l-.2.8q-.5.8-1.4.9 1.4.2 1.6 1.6a16 16 0 0 0 11.7 13.6A16 16 0 0 0 40 29.7q.2-1.2 1.3-1.3.1 0 0-.1-1.2-.3-1.2-1.4l-.3-1.8a16 16 0 0 0-14.5-13.2m-3.4.7-.4.3.1.3zM10.5 3.6q.2 2.4.9 5 .5 2.7 3 4a7 7 0 0 0 5.2.2l-1.2-1.6-1-1q-1.1.2-2.2-.1c-.6-.4 0-.5.2-.6l1.2-.2a80 80 0 0 0-6-5.7m.5-.2 6.1 5.1.4-1.3q.4-.3.5.3a4 4 0 0 1 0 1.8v.1l1 .9 1.8 1.8a3 3 0 0 0 .8-2.7q-.7-3-3.6-4.6c-2-1.2-4.6-1.5-7-1.4" clip-rule="evenodd"/></g></g><defs><radialGradient id="d" cx="0" cy="0" r="1" gradientTransform="matrix(18.0153 0 0 17.2695 14.3 29.4)" gradientUnits="userSpaceOnUse"><stop stop-color="#ac51ff"/><stop offset="1" stop-color="#9b36f6"/></radialGradient><radialGradient id="e" cx="0" cy="0" r="1" gradientTransform="matrix(18.0153 0 0 17.2695 14.3 29.4)" gradientUnits="userSpaceOnUse"><stop stop-color="#ac51ff"/><stop offset="1" stop-color="#9b36f6"/></radialGradient><radialGradient id="f" cx="0" cy="0" r="1" gradientTransform="matrix(18.0153 0 0 17.2695 14.3 29.4)" gradientUnits="userSpaceOnUse"><stop stop-color="#ac51ff"/><stop offset="1" stop-color="#9b36f6"/></radialGradient><radialGradient id="g" cx="0" cy="0" r="1" gradientTransform="matrix(18.0153 0 0 17.2695 14.3 29.4)" gradientUnits="userSpaceOnUse"><stop stop-color="#ac51ff"/><stop offset="1" stop-color="#9b36f6"/></radialGradient><clipPath id="a"><path fill="#fff" d="M0 0h48v48H0z"/></clipPath><clipPath id="c"><path fill="#fff" d="M0-.2h48v48H0z"/></clipPath></defs></svg>