<svg xmlns="http://www.w3.org/2000/svg" width="48" height="48" fill="none" viewBox="0 0 48 48"><g clip-path="url(#a)"><mask id="b" width="48" height="48" x="0" y="0" maskUnits="userSpaceOnUse" style="mask-type:luminance"><path fill="#fff" d="M48 0H0v48h48z"/></mask><g mask="url(#b)"><path fill="#fff" d="M40 0H8a8 8 0 0 0-8 8v32a8 8 0 0 0 8 8h32a8 8 0 0 0 8-8V8a8 8 0 0 0-8-8"/><g fill="#000" fill-rule="evenodd" clip-path="url(#c)" clip-rule="evenodd"><path d="M34.9 18.5c0-6.5-6-11.7-13.2-11.7-2.5 0-4.5 5.2-4.5 11.7q0 2.4.3 4.5h-4.4L8.4 39.3h13.3v-9.1C29 30.2 35 24.9 35 18.5M21.7 8.9c1.3 0 2.4 4.3 2.4 9.6s-1 9.5-2.4 9.5-2.4-4.2-2.4-9.5 1.1-9.6 2.4-9.6"/><path d="M35.1 30.2H21.7l5.2 9.1h13.3z"/></g></g></g><defs><clipPath id="a"><path fill="#fff" d="M0 0h48v48H0z"/></clipPath><clipPath id="c"><path fill="#fff" d="M7 6.8h34v34H7z"/></clipPath></defs></svg>