<svg xmlns="http://www.w3.org/2000/svg" width="48" height="48" fill="none" viewBox="0 0 48 48"><g clip-path="url(#a)"><mask id="b" width="48" height="48" x="0" y="0" maskUnits="userSpaceOnUse" style="mask-type:luminance"><path fill="#fff" d="M48 0H0v48h48z"/></mask><g mask="url(#b)"><path fill="#32d1a2" d="M40 0H8a8 8 0 0 0-8 8v32a8 8 0 0 0 8 8h32a8 8 0 0 0 8-8V8a8 8 0 0 0-8-8"/><path fill="#fff" d="m28 13.5.3 1 .3 2.3.3 3.3.1 1.2.2 3 .3 4q0 1.7.4 3.3v.1l.3-1.3.4-4 .1-2.8.4-4q0-1.6.4-3.4l.3-.6c.1-.3.7-.4.9 0l.4 1.6.4 3.8.2 2.1q0 1.5.3 2.9l.3 2.4q0 .3.2.5l.3-1.3.4-2.7.2-2.2q.1-1.7.7-3.4.1-.5.6-.5t.7.6l.7 3 .7 3 .1.3.2-.3.8-3 .6-1.4c.3-.6 1-.6 1.3 0l.7 1.7.5 1.1q.3.4.6 0l.7-1.6.5-1.1q.7-1 1.7-.3l1.5 1.6v.5h-.5l-.9-1-.9-.7q-.5.5-.7 1.3l-.8 1.7c-.3.6-1.4.9-1.8 0l-1-2.5-.2-.4H41l-.4 1.6-.8 2.5q0 .4-.3.8c-.3.5-1 .5-1.2-.1l-.7-2.3-.8-3.9-.2-.2-.3 1.6-.4 3.2-.3 2.7-.6 2.3q-.2.4-.5.5-.4-.1-.6-.5l-.4-2-.4-3.3-.2-2-.3-3-.3-2.4-.2-.2-.2 1.9-.3 3v1.1l-.3 3.8L31 30l-.5 2.6q0 .5-.6.5-.4-.1-.5-.5l-.3-1.3-.4-3.6q0-1.4-.2-2.7l-.3-3.9v-1.5l-.3-3.1-.3-1.8-.4 1.6-.4 3.3q0 1.5-.3 2.8l-.5 2q-.5.8-1.1.3l-.7-1q-.3-.8-1-1.4-.9-.4-1.4.2l-.5.4q-.2.4-.5.1v-.5q.6-1 1.6-1 1.1-.2 1.8.7l.8 1.5.3.4h.1l.3-1.2.5-3.7.3-3 .5-2 .2-.6z"/><path fill="#fff" d="M1.7 26.7q-1-.6-1.6-1.6-.2-.3 0-.6.4-.2.6.2L2 26q.5.5.8-.2l.7-1.6q.2-.6.6-1.1 1-.9 1.7.3l.8 2 .4.8.3-.5.8-3q.1-.8.7-1.5.6-.4 1 0l.6 1.8 1 4.5v.3l.5-2 .4-2.8.2-2 .8-3.4q.5-.3.9.1.4 1 .5 2.1l.4 3.4.1 1.9.4 3q0 1.3.3 2.5l.1.3.4-3.7.2-3 .3-3.2q0-1.7.3-3.5 0-1.1.4-2.3l.1-.4q.6-.6 1 0l.4 1.6.3 3.5.1 1 .2 3 .5 6.9.3 2.1h.1l.4-2.4.4-3.2.8-4.3q.5-.6 1.2 0l.7 1q.3.8.7 1.2 1.1.6 2-.4.2-.3.4-.3.5 0 .2.6-.7 1.1-2 1a2 2 0 0 1-1.7-1.1l-.7-1.3-.2-.2-.1.2-.4 2-.4 3.4-.4 2.8q0 .8-.4 1.6-.1.4-.5.5t-.6-.5l-.4-2.2-.3-3v-1l-.2-3-1-8.4-.1 1-.3 3.8-.3 3.2-.2 3-.8 4.9q-.2.2-.5.3l-.5-.4-.4-1.9-.4-3.3-.1-2-.3-3-.4-2.4-.1-.6-.3 1.4-.5 3.4-.6 3.9q0 .6-.4 1.2c-.2.4-.9.3-1-.1l-.6-2-.9-4.2-.1-.3H9l-.7 2-.6 2.2q0 .4-.3.7-.7.6-1.2-.2-.5-1-.9-2l-.5-1.1q-.8.6-1 1.4L3.4 26q-.5 1.2-1.7.6"/></g></g><defs><clipPath id="a"><path fill="#fff" d="M0 0h48v48H0z"/></clipPath></defs></svg>