<svg xmlns="http://www.w3.org/2000/svg" width="48" height="48" fill="none" viewBox="0 0 48 48"><g clip-path="url(#a)"><mask id="b" width="48" height="48" x="0" y="0" maskUnits="userSpaceOnUse" style="mask-type:luminance"><path fill="#fff" d="M48 0H0v48h48z"/></mask><g mask="url(#b)"><path fill="#fff" d="M40 0H8a8 8 0 0 0-8 8v32a8 8 0 0 0 8 8h32a8 8 0 0 0 8-8V8a8 8 0 0 0-8-8"/><path fill="#000" fill-rule="evenodd" d="M33 40.7c-4 .4-7.5-4.4-10.1-6.8C21.5 43.5 7 42.6 7 32.8V14.7q0-2.2 1.1-4a8 8 0 0 1 6.9-4h18c9.8 0 10.7 14.6 1.1 15.9l4.6 4.5c5 4.8 1.2 13.8-5.6 13.6M30.9 35c2.9 3 7.4-1.6 4.5-4.5l-8-7.9H23v4.5l6.9 6.8zm-19-2.2c0 4 6.4 4 6.3 0V14.7c0-2-2-3.7-4-3h-.3q-1.9.9-2 3zm21.3-15c4 0 4-6.3 0-6.3H22.3c.8 1.8.6 4.5.6 6.3z" clip-rule="evenodd"/></g></g><defs><clipPath id="a"><path fill="#fff" d="M0 0h48v48H0z"/></clipPath></defs></svg>