<svg xmlns="http://www.w3.org/2000/svg" width="48" height="48" fill="none" viewBox="0 0 48 48"><path fill="url(#a)" d="M14.4 42c8.5 0 14-4.4 14-11.1q-.2-7.8-9.3-9.9L15.2 20c-3.3-.7-5.3-1.6-4.9-4q.4-3 4.3-3c8.6 0 11.7 3 11.7 3V8.9S23.3 6 14.6 6C6.4 6 2 10.1 2 16.5q0 7.6 9.3 9.7l.7.1 3.8 1.2c3.2.7 4 1.5 4 4 0 2-2.3 3.3-5.4 3.3C5.7 34.8 2 30.5 2 30.5v8S4.3 42 14.4 42"/><path fill="#e80000" d="M40.7 41.5c3 0 5.3-2.2 5.3-5 0-3-2.2-5.1-5.3-5.1s-5.1 2-5.1 5 2.1 5 5.1 5"/><defs><linearGradient id="a" x1="1326.1" x2="1326.1" y1="6" y2="3606" gradientUnits="userSpaceOnUse"><stop stop-color="#9d39ff"/><stop offset="1" stop-color="#a380ff"/></linearGradient></defs></svg>