<svg xmlns="http://www.w3.org/2000/svg" width="48" height="48" fill="none" viewBox="0 0 48 48"><g clip-path="url(#a)"><mask id="b" width="48" height="48" x="0" y="0" maskUnits="userSpaceOnUse" style="mask-type:luminance"><path fill="#fff" d="M48 0H0v48h48z"/></mask><g mask="url(#b)"><path fill="#fff" d="M40 0H8a8 8 0 0 0-8 8v32a8 8 0 0 0 8 8h32a8 8 0 0 0 8-8V8a8 8 0 0 0-8-8"/><path fill="#6523cb" d="M26.6 41h.1l-.7.4-1 .3-3.3.5h-1.4l-.1.2v1.3q0 .2.2.2H22l1.2-.2 1.1-.2a15 15 0 0 0 3.8-1.2l1-.5.8-.4.8-.5 1-.7 1-.9q1.1-.8 2-1.8L36 36l1.9-2.9.5-1 .4-1 .4-1.2.1-.2v.5a19 19 0 0 1-5.7 8.5 21 21 0 0 1-7.3 4.3q-2 .6-3.9.8h-1.6q0 .2-.1 0l-.2.1h-.2l-.1-.1v-1.7h.1q2.3 0 4.5-.6z"/><path fill="#fbf7fd" d="M8 20.3v-3.7z"/><path fill="#fffeff" d="M20.4 44h.2zM20.2 44h.1"/><path fill="#6501fe" d="m39.3 29.8-.2.2-.4 1.1q0 .6-.4 1l-.5 1.1-1.9 2.9-1.2 1.4q-.9 1-2 1.8l-1 .9-1 .7-.8.5-.8.4-1 .5-3.8 1.2-1.1.2-1.2.1-1.5.1h-.1q-.2 0-.2-.2l.1-1.4h1.4l1.4-.3 1.9-.3 1-.3.8-.3.2-.1.4-.2.2-.1h.1l.2-.2h.2l1.2-.7 1.2-.7.8-.6a15 15 0 0 0 2.6-2.5l.8-1 .5-.6.7-1.2.9-1.6.4-1v-.2q.5-1.1.7-2.3l.1-.4v-.2l.1-.4v-.4l.1-.2V26l.1-.3v-1.6l-.4-4.7-1.5-4-1.3-2-.5-.7-.3-.4-.4-.4v-.1l-.8-.7-.7-.7-.7-.7-.4-.3-1-.7-1.1-.7-.4-.2-1.3-.7-1.7-.6-1.6-.5-1.6-.2-1-.1-1.3-.1-.1-.1V4.2l.1-.1h1.9l2.5.5.6.1 1.4.4 3.1 1.5.7.4.8.5.7.6.7.5 1 1q.2 0 .3.2l.6.6.6.6v.1l.8.9.5.6q0 .3.3.5l.6 1 .5 1 .5.8.6 1.7.5 1.8.2 1.1.2 1.4.1 1.8V26l-.1.3-.1 1v.2l-.1.3v.5h-.1v.5l-.3.8z"/><path fill="#5a19c1" d="M8 20.3v-3.7h10.6v3.7h-3v11H11v-11zm0-1.5v1.4h2.8q.3 0 .3.2v10.7l.1.2 4.4-.2V20.4q0-.2.2-.2h2.6l.2-.1v-3.2q0-.2-.3-.2l-10.2.2z"/><path fill="#6523cb" d="M39.8 27.3v-1l.1-.3.1-2.3v-1.8l-.3-1.4-.2-1.1-.5-1.8-.6-1.7-.5-.8-.5-1-.6-1q0-.2-.3-.5L36 12l-.7-.9-.1-.1-.6-.6-.6-.6-.2-.3-1-.9-.8-.5-.7-.6-.8-.5-.7-.4-3-1.5-1.5-.4-.6-.1-2.5-.4h-.5l-1-.1h-.4l-.1.1v1.4h.1l1.4.2h.9l1.6.3 1.6.5 1.7.6 1.3.7.4.2H29q-1-.7-2.1-1-2.3-1-4.5-1.2l-2.2-.1h-.1V4h.2A21 21 0 0 1 30 6.6a21 21 0 0 1 9.8 13.8q.4 2.3.3 4.5 0 1.2-.3 2.3z"/><path fill="#631eca" d="M27.8 17.1v-.5h4.7v14.8h-4.7zm0 8.2v5.8q0 .2.3.2h4.1q.3 0 .2-.2V16.8q0-.2-.2-.2h-4.1q-.2 0-.2.2z"/><path fill="#6321c6" d="M23 16.6h1.8v14.8H20V16.6zm-.6 0h-2q-.2 0-.2.3l.2 14.4 4.3-.2V16.8l-.2-.1z"/><path fill="#6623ce" d="m37.3 30.4-.1.3-.4 1-.9 1.5-.7 1.2-.5.7a19 19 0 0 1-3.4 3.4l-.8.6-1.2.7-1.2.7H28l.8-.4a18 18 0 0 0 5.6-4.7q1.9-2.2 2.8-4.8l.1-.2"/><path fill="#6523cb" d="m33.9 12 .4.4q0 .3.3.4l.5.6 1.8 3.4 1 2.7a15 15 0 0 1 .5 4.7v.7-.3l-.1-2A17 17 0 0 0 33.9 12"/><path fill="#6826ca" d="m33.9 12-.9-.8L30.5 9l-1.3-.9 1 .7 1.1.7.4.3.7.7.7.7.7.7zM37.3 30.4q0-.6.3-1.1l.7-3.3v.4h-.1v.3l-.1.8v.2l-.2.4q-.2 1.2-.6 2.3"/><path fill="#6a2dcd" d="m39.8 27.3-.2 1.3v-.7l.1-.1v-.5"/><path fill="#5d15c9" d="M39.3 29.6"/><path fill="#6523cb" d="M38.3 25.6V25z"/><path fill="#6623ce" d="m27.4 40.8-.4.2v-.1h.1z"/><path fill="#6826ca" d="M38.3 25"/><path fill="#6a2dcd" d="m27.6 40.7.2-.1z"/><path fill="#6623ce" d="m27.7 40.7.1-.1h.1z"/><path fill="#6a2dcd" d="M27.4 40.8"/><path fill="#6523cb" d="M27 41h-.2z"/><path fill="#6a2dcd" d="M26.8 41h-.1M27.4 40.7h.1zM27 41zM28 40.5h-.1M26.5 41z"/><path fill="#6826ca" d="M29 8"/><path fill="#6a2dcd" d="M26.6 41"/><path fill="#6826ca" d="M29 8"/><path fill="#6a2dcd" d="M26.8 41"/><path fill="#6826ca" d="M29 8.1h.1"/><path fill="#6523cb" d="M38 28"/><path fill="#5d15c9" d="M39.7 27.5v.2z"/><path fill="#6623ce" d="M27.4 40.7h.1z"/><path fill="#6523cb" d="m38 27.4.1-.2z"/><path fill="#5d15c9" d="M39.6 28"/><path fill="#6523cb" d="M38.2 26.7v-.2zM38.3 26v-.2z"/><path fill="#5d15c9" d="M39.6 28.3v.1zM39.7 27.9"/><path fill="#6523cb" d="M38 27.6v-.1"/><path fill="#6623ce" d="M27.6 40.7"/><path fill="#6502fe" d="M8 18.7V17q0-.2.3-.2l10.3.2V20l-.2.1h-2.6q-.2 0-.2.2v10.7q0 .3-.2.2l-4.4-.2V20.4q0-.2-.2-.2H8.1z"/><path fill="#6501ff" d="M27.9 25.3V17q0-.2.2-.2l4.3.2V31q0 .3-.2.2h-4.1q-.2 0-.2-.2z"/><path fill="#6501fe" d="M22.4 16.7h2.1l.2.1v14.3q0 .3-.2.2l-4.3-.2V17q0-.2.2-.2z"/></g></g><defs><clipPath id="a"><path fill="#fff" d="M0 0h48v48H0z"/></clipPath></defs></svg>