<svg xmlns="http://www.w3.org/2000/svg" width="48" height="48" fill="none" viewBox="0 0 48 48"><g clip-path="url(#a)"><mask id="b" width="48" height="48" x="0" y="0" maskUnits="userSpaceOnUse" style="mask-type:luminance"><path fill="#fff" d="M48 0H0v48h48z"/></mask><g mask="url(#b)"><path fill="#fff" d="M40 0H8a8 8 0 0 0-8 8v32a8 8 0 0 0 8 8h32a8 8 0 0 0 8-8V8a8 8 0 0 0-8-8"/><g clip-path="url(#c)"><path fill="#000" d="M37.6 35.6 36 33.9l.1-.4q1.4-2.5 1.3-6.5V10.5q0-.4-.2-.7t-.7-.2h-7l-.6.2q-.3.3-.3.7v16.7q0 4.6-2.2 6.7-.5.7-1.2 1 2 .4 4 0l.7-1.3q1.3-2.5 1.3-6.6V11.4h3.6v15.8q0 4.6-2.1 6.7a8 8 0 0 1-5.8 2.2q-3.6 0-5.8-2.2-2.1-2-2.1-6.7V10.5q0-.4-.3-.7-.1-.2-.7-.2h-6.8q-.4 0-.7.2l-.2.7v16.6q0 4 1.3 6.5 1.2 2.6 3.6 3.7a12 12 0 0 0 5.6 1.3l-.5-.2a8 8 0 0 1-3-3q-1.3-.5-2.3-1.4-2.1-2.2-2.1-6.8V11.3h3.6V27q0 4 1.3 6.6 1.2 2.4 3.6 3.7 2.3 1.2 5.6 1.2t5.7-1.2l.9-.6 1.5 1.5a1 1 0 0 0 1.3 0l1.4-1.4a1 1 0 0 0 0-1.2"/></g></g></g><defs><clipPath id="a"><path fill="#fff" d="M0 0h48v48H0z"/></clipPath><clipPath id="c"><path fill="#fff" d="M9.5 9.5h29v29h-29z"/></clipPath></defs></svg>