<svg xmlns="http://www.w3.org/2000/svg" width="48" height="48" fill="none" viewBox="0 0 48 48"><g clip-path="url(#a)"><mask id="b" width="48" height="48" x="0" y="0" maskUnits="userSpaceOnUse" style="mask-type:luminance"><path fill="#fff" d="M48 0H0v48h48z"/></mask><g mask="url(#b)"><path fill="url(#c)" d="M39.8 6.5c-5.4-1.8-10 2-11 5.4l-5.5 17.6c-.8 2.5-2.8 6.5-6.4 6.5-3 0-4.6-2.8-5.2-4.5L7.3 19.7c-.6-1.3 0-3.8 2-4.5 2.3-.8 3.7 1 4 2L19 31.4c1.3-1.7 2.1-4.5 2.7-6.4l-3.7-9.6a8 8 0 0 0-10.5-4.9 8.7 8.7 0 0 0-4.9 11l4.6 11.8c.7 1.8 3.4 7.7 9.7 7.7 7.4 0 10.2-6.4 11.8-11.4l5-16.2c.6-2 3.2-2.6 4.7-2 1.1.3 3.1 1.8 2.5 4.2-.1.4-3.5 11.4-4.8 14.7-.6 1.7-2.3 5.5-6 5a15 15 0 0 1-3.6 5.3C31 43 38 40.6 40.9 32l4.8-15a8.7 8.7 0 0 0-6-10.4"/></g></g><defs><linearGradient id="c" x1="3.4" x2="50" y1="12.7" y2="34.1" gradientUnits="userSpaceOnUse"><stop stop-color="#40edd8"/><stop offset="0" stop-color="#38e7e2"/><stop offset=".1" stop-color="#28daf7"/><stop offset=".1" stop-color="#22d5ff"/><stop offset=".4" stop-color="#1abfff"/><stop offset=".8" stop-color="#0786fe"/><stop offset=".9" stop-color="#047ffe"/></linearGradient><clipPath id="a"><path fill="#fff" d="M0 0h48v48H0z"/></clipPath></defs></svg>