<svg xmlns="http://www.w3.org/2000/svg" width="64" height="64" fill="none" viewBox="0 0 64 64"><path fill="#000" fill-rule="evenodd" d="m8.033 6.047-2 2v47.906l2 2h9.226v-4h-7.226V10.047h36.293v7.475h4V8.047l-2-2zm40.614 31.552 6.632 6.019 2.688-2.962-6.62-6.008a9.065 9.065 0 1 0-7.876 4.573c1.924 0 3.708-.6 5.176-1.622m-15.414 6.754h6.73v4h-6.73l3.17 3.17-2.829 2.829-3.177-3.178 2.828-2.828.005.004v-3.994l-.005.004-2.828-2.828 3.177-3.177 2.829 2.828zm-6.912-2.821-2.823 2.823v3.996l2.823 2.823-3.177 3.178-2.829-2.829 3.17-3.17h-6.721v-4h6.721l-3.17-3.17 2.829-2.828zm4.043 9.687v6.734h-4v-6.734zm0-9.732v-6.734h-4v6.734zm8.97-23.143H14.285v-4h25.047zm-25.048 7.708h17.196v-4H14.286zm9.69 7.709h-9.69v-4h9.69zm14.43-3.605a5.065 5.065 0 1 1 10.13 0 5.065 5.065 0 0 1-10.13 0" clip-rule="evenodd"/></svg>