<svg xmlns="http://www.w3.org/2000/svg" viewBox="0 0 64 64"><path d="m51.392 41.465-9.244 9.345-5.563-5.812 2.889-2.766 2.721 2.842 6.353-6.422z"/><path d="M44.002 30A14.013 14.013 0 0 1 58 43.998V44l-.01.519A14.002 14.002 0 0 1 41.27 57.73a14 14 0 0 1-10.46-9.04H8l-2-2a16.685 16.685 0 0 1 16.685-16.685H30.1l.414.005c2.396.06 4.73.634 6.853 1.66A14 14 0 0 1 44 30v1.57zm-.004 4A10 10 0 1 0 54 44.002 10.014 10.014 0 0 0 43.998 34m-21.629.01a12.684 12.684 0 0 0-12.21 10.68h19.859a14 14 0 0 1 3.672-10.162 12.7 12.7 0 0 0-3.276-.518l-.315-.004h-7.414zM26.39 6c6.181 0 11.193 5.011 11.193 11.192 0 6.182-5.012 11.194-11.193 11.194-6.182 0-11.193-5.012-11.193-11.194C15.197 11.012 20.208 6 26.39 6m0 4a7.193 7.193 0 1 0 0 14.386 7.193 7.193 0 0 0 0-14.386"/></svg>