<svg xmlns="http://www.w3.org/2000/svg" viewBox="0 0 32 32" fill="currentColor"><path d="M10 6C10 6.39556 9.8827 6.78224 9.66294 7.11114C9.44318 7.44004 9.13082 7.69638 8.76537 7.84776C8.39991 7.99913 7.99778 8.03874 7.60982 7.96157C7.22186 7.8844 6.86549 7.69392 6.58579 7.41421C6.30608 7.13451 6.1156 6.77814 6.03843 6.39018C5.96126 6.00222 6.00087 5.60009 6.15224 5.23463C6.30362 4.86918 6.55996 4.55682 6.88886 4.33706C7.21776 4.1173 7.60444 4 8 4C8.53043 4 9.03914 4.21071 9.41421 4.58579C9.78929 4.96086 10 5.46957 10 6ZM16 4C15.6044 4 15.2178 4.1173 14.8889 4.33706C14.56 4.55682 14.3036 4.86918 14.1522 5.23463C14.0009 5.60009 13.9613 6.00222 14.0384 6.39018C14.1156 6.77814 14.3061 7.13451 14.5858 7.41421C14.8655 7.69392 15.2219 7.8844 15.6098 7.96157C15.9978 8.03874 16.3999 7.99913 16.7654 7.84776C17.1308 7.69638 17.4432 7.44004 17.6629 7.11114C17.8827 6.78224 18 6.39556 18 6C18 5.46957 17.7893 4.96086 17.4142 4.58579C17.0391 4.21071 16.5304 4 16 4ZM24 8C24.3956 8 24.7822 7.8827 25.1111 7.66294C25.44 7.44318 25.6964 7.13082 25.8478 6.76537C25.9991 6.39991 26.0387 5.99778 25.9616 5.60982C25.8844 5.22186 25.6939 4.86549 25.4142 4.58579C25.1345 4.30608 24.7781 4.1156 24.3902 4.03843C24.0022 3.96126 23.6001 4.00087 23.2346 4.15224C22.8692 4.30362 22.5568 4.55996 22.3371 4.88886C22.1173 5.21776 22 5.60444 22 6C22 6.53043 22.2107 7.03914 22.5858 7.41421C22.9609 7.78929 23.4696 8 24 8ZM8 11C7.60444 11 7.21776 11.1173 6.88886 11.3371C6.55996 11.5568 6.30362 11.8692 6.15224 12.2346C6.00087 12.6001 5.96126 13.0022 6.03843 13.3902C6.1156 13.7781 6.30608 14.1345 6.58579 14.4142C6.86549 14.6939 7.22186 14.8844 7.60982 14.9616C7.99778 15.0387 8.39991 14.9991 8.76537 14.8478C9.13082 14.6964 9.44318 14.44 9.66294 14.1111C9.8827 13.7822 10 13.3956 10 13C10 12.4696 9.78929 11.9609 9.41421 11.5858C9.03914 11.2107 8.53043 11 8 11ZM16 11C15.6044 11 15.2178 11.1173 14.8889 11.3371C14.56 11.5568 14.3036 11.8692 14.1522 12.2346C14.0009 12.6001 13.9613 13.0022 14.0384 13.3902C14.1156 13.7781 14.3061 14.1345 14.5858 14.4142C14.8655 14.6939 15.2219 14.8844 15.6098 14.9616C15.9978 15.0387 16.3999 14.9991 16.7654 14.8478C17.1308 14.6964 17.4432 14.44 17.6629 14.1111C17.8827 13.7822 18 13.3956 18 13C18 12.4696 17.7893 11.9609 17.4142 11.5858C17.0391 11.2107 16.5304 11 16 11ZM24 11C23.6044 11 23.2178 11.1173 22.8889 11.3371C22.56 11.5568 22.3036 11.8692 22.1522 12.2346C22.0009 12.6001 21.9613 13.0022 22.0384 13.3902C22.1156 13.7781 22.3061 14.1345 22.5858 14.4142C22.8655 14.6939 23.2219 14.8844 23.6098 14.9616C23.9978 15.0387 24.3999 14.9991 24.7654 14.8478C25.1308 14.6964 25.4432 14.44 25.6629 14.1111C25.8827 13.7822 26 13.3956 26 13C26 12.4696 25.7893 11.9609 25.4142 11.5858C25.0391 11.2107 24.5304 11 24 11ZM8 18C7.60444 18 7.21776 18.1173 6.88886 18.3371C6.55996 18.5568 6.30362 18.8692 6.15224 19.2346C6.00087 19.6001 5.96126 20.0022 6.03843 20.3902C6.1156 20.7781 6.30608 21.1345 6.58579 21.4142C6.86549 21.6939 7.22186 21.8844 7.60982 21.9616C7.99778 22.0387 8.39991 21.9991 8.76537 21.8478C9.13082 21.6964 9.44318 21.44 9.66294 21.1111C9.8827 20.7822 10 20.3956 10 20C10 19.4696 9.78929 18.9609 9.41421 18.5858C9.03914 18.2107 8.53043 18 8 18ZM16 18C15.6044 18 15.2178 18.1173 14.8889 18.3371C14.56 18.5568 14.3036 18.8692 14.1522 19.2346C14.0009 19.6001 13.9613 20.0022 14.0384 20.3902C14.1156 20.7781 14.3061 21.1345 14.5858 21.4142C14.8655 21.6939 15.2219 21.8844 15.6098 21.9616C15.9978 22.0387 16.3999 21.9991 16.7654 21.8478C17.1308 21.6964 17.4432 21.44 17.6629 21.1111C17.8827 20.7822 18 20.3956 18 20C18 19.4696 17.7893 18.9609 17.4142 18.5858C17.0391 18.2107 16.5304 18 16 18ZM16 25C15.6044 25 15.2178 25.1173 14.8889 25.3371C14.56 25.5568 14.3036 25.8692 14.1522 26.2346C14.0009 26.6001 13.9613 27.0022 14.0384 27.3902C14.1156 27.7781 14.3061 28.1345 14.5858 28.4142C14.8655 28.6939 15.2219 28.8844 15.6098 28.9616C15.9978 29.0387 16.3999 28.9991 16.7654 28.8478C17.1308 28.6964 17.4432 28.44 17.6629 28.1111C17.8827 27.7822 18 27.3956 18 27C18 26.4696 17.7893 25.9609 17.4142 25.5858C17.0391 25.2107 16.5304 25 16 25ZM24 18C23.6044 18 23.2178 18.1173 22.8889 18.3371C22.56 18.5568 22.3036 18.8692 22.1522 19.2346C22.0009 19.6001 21.9613 20.0022 22.0384 20.3902C22.1156 20.7781 22.3061 21.1345 22.5858 21.4142C22.8655 21.6939 23.2219 21.8844 23.6098 21.9616C23.9978 22.0387 24.3999 21.9991 24.7654 21.8478C25.1308 21.6964 25.4432 21.44 25.6629 21.1111C25.8827 20.7822 26 20.3956 26 20C26 19.4696 25.7893 18.9609 25.4142 18.5858C25.0391 18.2107 24.5304 18 24 18Z"/></svg>
