<svg xmlns="http://www.w3.org/2000/svg" aria-hidden="true" viewBox="0 0 16 16"><path fill-rule="evenodd" d="m1.5 1.75.5-.5h9.982l.5.5v3.014a3 3 0 0 0-1-.255V2.25H2.5v10.495h4v1H2l-.5-.5zm8.968 2.745H3.49v-1h6.978zM3.49 6.512h3.948v-1H3.49zm3.948 1.983H3.49v-1h3.948zm3.995 4.85v-1.17a.81.81 0 0 0 .363-.875.81.81 0 0 0-.796-.626.82.82 0 0 0-.796.626.81.81 0 0 0 .363.875v1.17zm2.76-4.129.432.429v4.801l-.431.429H7.806l-.431-.429V9.645l.431-.429h.78v-1.44c0-.637.255-1.248.708-1.698a2.42 2.42 0 0 1 3.412 0c.453.45.708 1.061.708 1.698v1.44zM9.977 6.759c-.271.27-.424.636-.424 1.017v1.44h2.896v-1.44c0-.381-.152-.747-.424-1.017a1.45 1.45 0 0 0-2.048 0m-1.635 7.154v-3.735h5.318v3.735H8.341Z"/></svg>