<svg xmlns="http://www.w3.org/2000/svg" aria-hidden="true" viewBox="0 0 64 64"><path d="M5 51.082V37.27l12.102-6.919 12.12 6.91v13.812L17.11 57.992zm2.77-1.585 9.34 5.343 9.342-5.343V38.846L17.11 33.51l-9.333 5.334v10.652zm24.213-15.848-12.11-6.919V12.92L31.982 6l12.11 6.91v13.82zm-9.34-8.495 9.34 5.335 9.34-5.335v-10.66l-9.34-5.325-9.34 5.334zM46.89 57.966l-12.103-6.918V37.236l12.102-6.919L59 37.211v13.82zm-9.333-8.494 9.332 5.334 9.341-5.343v-10.66l-9.34-5.317-9.333 5.334z"/><path d="M47.972 44.753H16.037l15.886-24.97zm-27.69-2.318H43.71L31.932 24.123z"/><path d="M5 51.082V37.27l12.102-6.919 12.12 6.91v13.812L17.11 57.992zm2.77-1.585 9.34 5.343 9.342-5.343V38.846L17.11 33.51l-9.333 5.334v10.652zm24.213-15.848-12.11-6.919V12.92L31.982 6l12.11 6.91v13.82zm-9.34-8.495 9.34 5.335 9.34-5.335v-10.66l-9.34-5.325-9.34 5.334zM46.89 57.966l-12.103-6.918V37.236l12.102-6.919L59 37.211v13.82zm-9.333-8.494 9.332 5.334 9.341-5.343v-10.66l-9.34-5.317-9.333 5.334z"/><path d="M47.972 44.753H16.037l15.886-24.97zm-27.69-2.318H43.71L31.932 24.123z"/><path d="M31.933 24.06a4.08 4.08 0 0 1-3.768-2.487 4 4 0 0 1 .878-4.39 4.11 4.11 0 0 1 4.44-.876 4.02 4.02 0 0 1 2.515 3.724c0 1.07-.426 2.09-1.193 2.849a4.1 4.1 0 0 1-2.881 1.18M46.91 48.368a4.07 4.07 0 0 1-3.784-2.469 4 4 0 0 1 .86-4.399 4.1 4.1 0 0 1 4.44-.884 4.03 4.03 0 0 1 2.523 3.724c0 2.217-1.806 4.011-4.048 4.028zm-29.833 0a4.08 4.08 0 0 1-3.767-2.486 4.005 4.005 0 0 1 .878-4.39 4.1 4.1 0 0 1 4.44-.876 4.02 4.02 0 0 1 2.515 3.724c0 1.07-.427 2.09-1.194 2.849a4.1 4.1 0 0 1-2.88 1.18z"/></svg>