<svg xmlns="http://www.w3.org/2000/svg" viewBox="0 0 16 16"><path d="M14.9229 3.23313C14.8779 3.16178 14.8155 3.10298 14.7416 3.06222C14.6678 3.02146 14.5848 3.00005 14.5004 3H2.50039C2.40145 2.99992 2.3047 3.0292 2.2224 3.08414C2.14011 3.13908 2.07596 3.21719 2.03808 3.30861C2.00021 3.40002 1.9903 3.50061 2.00963 3.59765C2.02895 3.6947 2.07664 3.78382 2.14664 3.85375L4.79352 6.5L2.14664 9.14625C2.07664 9.21618 2.02895 9.3053 2.00963 9.40235C1.9903 9.49939 2.00021 9.59998 2.03808 9.69139C2.07596 9.78281 2.14011 9.86092 2.2224 9.91586C2.3047 9.9708 2.40145 10.0001 2.50039 10H10.8516L9.04914 13.785C9.019 13.8445 9.00106 13.9094 8.99639 13.9759C8.99171 14.0424 9.00038 14.1092 9.0219 14.1723C9.04342 14.2355 9.07735 14.2936 9.12169 14.3435C9.16603 14.3933 9.21989 14.4337 9.28009 14.4624C9.34029 14.4911 9.40562 14.5074 9.47224 14.5105C9.53886 14.5135 9.60541 14.5032 9.66799 14.4802C9.73056 14.4571 9.78789 14.4218 9.83661 14.3762C9.88532 14.3307 9.92444 14.2759 9.95164 14.215L14.9516 3.715C14.9879 3.63878 15.0043 3.55462 14.9993 3.47036C14.9942 3.3861 14.968 3.30449 14.9229 3.23313ZM11.3273 9H3.70727L5.85414 6.85375C5.90063 6.80731 5.93751 6.75217 5.96267 6.69147C5.98784 6.63077 6.00079 6.56571 6.00079 6.5C6.00079 6.43429 5.98784 6.36923 5.96267 6.30853C5.93751 6.24783 5.90063 6.19269 5.85414 6.14625L3.70727 4H13.7073L11.3273 9Z"/></svg>
