<svg xmlns="http://www.w3.org/2000/svg" aria-hidden="true" viewBox="0 0 16 16"><path d="M12.35 2.861a3.7 3.7 0 0 0-1.42-.614l.196-.98a4.682 4.682 0 0 1 3.531 6.057l-.95-.313a3.68 3.68 0 0 0-1.357-4.15"/><path fill-rule="evenodd" d="m7.17 1.63.88-.028 4.626 8.01-.465.75-5.246-.339-.302.174L8.31 13.05l-.183.683-1.732 1-.683-.183-1.647-2.853-.65.375-.683-.183-1.625-2.814.183-.683 3.55-2.05zM6.163 9.331 5.038 7.383 2.223 9.008l1.125 1.948zM4.93 11.197l1.397 2.42.866-.5-1.397-2.42zm6.412-1.894-4.198-.27L5.788 6.68l1.864-3.77 3.69 6.392z"/><path d="M11.763 3.67a2.7 2.7 0 0 0-1.007-.437l-.202.979a1.68 1.68 0 0 1 1.271 2.116l.96.281a2.68 2.68 0 0 0-1.022-2.938z"/></svg>