<svg xmlns="http://www.w3.org/2000/svg" width="64" height="64" fill="none" viewBox="0 0 64 64"><path fill="#f63" d="m12.737 37.513 4.91-4.91 4.91 4.91-4.91 4.91z"/><circle cx="31.717" cy="37.027" r="4.388" fill="#f63"/><path fill="#f63" d="m45.368 32.64 4.644 8.044h-9.29z"/><path fill="#f63" d="M51.767 51.46H14.865A13.895 13.895 0 0 1 1 37.594 14.24 14.24 0 0 1 6.07 26.84a13.27 13.27 0 0 1 9.453-3.11 18.809 18.809 0 0 1 36.054 4.474 11.32 11.32 0 0 1 7.8 2.654 11.744 11.744 0 0 1-7.605 20.601zM14.645 27.6a9.3 9.3 0 0 0-6.066 2.224 10.3 10.3 0 0 0-3.678 7.77 9.98 9.98 0 0 0 9.935 9.965h36.93a7.753 7.753 0 0 0 7.742-7.744 7.92 7.92 0 0 0-2.66-5.988 8.1 8.1 0 0 0-3.193-1.548c-1.166-.273-2.435-.615-4.386-.127l-1.422-1.774a14.905 14.905 0 0 0-29.143-3.96l-.506 1.645-1.693-.299a11 11 0 0 0-1.86-.164"/></svg>