<svg xmlns="http://www.w3.org/2000/svg" width="65" height="65" viewBox="0 0 65 65"><path fill-rule="evenodd" d="m34.238 5.234-2.98.002-1.149 1.285A27.6 27.6 0 0 1 14.7 14.162l-1.372.2-1.71 1.98v14.14c0 9.853 4.763 17.166 9.5 21.993 4.725 4.815 9.544 7.288 10.026 7.528l.71.355 1.788.002.716-.357c.478-.239 5.3-2.71 10.026-7.528 4.737-4.827 9.5-12.14 9.5-21.992V16.346l-1.71-1.98-1.37-.2h-.003a27.6 27.6 0 0 1-15.41-7.646zM15.618 18.07A31.6 31.6 0 0 0 32.75 9.532a31.6 31.6 0 0 0 17.133 8.542v12.409c0 8.46-4.07 14.824-8.355 19.19-3.897 3.972-7.872 6.182-8.778 6.658-.906-.476-4.881-2.686-8.779-6.658-4.285-4.366-8.355-10.73-8.355-19.19zM19.23 32.4c0-7.387 5.988-13.375 13.375-13.375S45.98 25.014 45.98 32.401s-5.99 13.375-13.375 13.375S19.23 39.788 19.23 32.401m7.3-1.1c.12-3.244.768-6.16 1.755-8.335a10.38 10.38 0 0 0-5.998 8.335zm.04 3h-4.167a10.39 10.39 0 0 0 5.882 7.536c-.905-1.995-1.525-4.614-1.714-7.536m3.008 0h6.053c-.184 2.553-.73 4.744-1.447 6.314-.78 1.712-1.425 2.068-1.58 2.142-.155-.074-.8-.43-1.58-2.142-.715-1.57-1.262-3.76-1.446-6.314m6.099-3h-6.145c.12-2.896.703-5.382 1.492-7.114.78-1.712 1.426-2.069 1.58-2.142.154.073.8.429 1.58 2.142.79 1.732 1.373 4.218 1.493 7.114m2.961 3c-.19 2.922-.809 5.541-1.714 7.536a10.39 10.39 0 0 0 5.882-7.536zm4.284-3H38.68c-.12-3.244-.768-6.16-1.755-8.336a10.38 10.38 0 0 1 5.998 8.336" clip-rule="evenodd"/></svg>