<svg xmlns="http://www.w3.org/2000/svg" aria-hidden="true" viewBox="0 0 16 16"><path d="M14.938 3.935a1.948 1.948 0 0 0-3.788-.632l-6.265-.02a1.945 1.945 0 1 0-2.37 2.06L3.62 11.88a1.946 1.946 0 1 0 2.928 1.912l3.952-1.147a1.945 1.945 0 1 0 2.323-2.857l.597-3.958a1.945 1.945 0 0 0 1.518-1.895m-3.963 6.127-2.592-1.47q.075-.261.077-.534-.001-.323-.107-.628l3.315-2.07c.214.2.47.35.75.438l-.583 3.892a1.9 1.9 0 0 0-.86.373m.155-5.547L7.798 6.598a1.94 1.94 0 0 0-2.063-.325L4.52 4.588q.104-.146.183-.305l6.375.02q.022.107.052.212M5.565 8.058a.948.948 0 1 1 1.895-.01.948.948 0 0 1-1.895.01M13 3a.947.947 0 1 1 0 1.895A.947.947 0 0 1 13 3M2 3.445a.947.947 0 1 1 1.895 0 .947.947 0 0 1-1.895 0m1.523 1.86a2 2 0 0 0 .222-.085l1.208 1.678a1.94 1.94 0 0 0 .465 2.77l-.645 1.942h-.185zM4.618 14.5a.948.948 0 1 1 0-1.895.948.948 0 0 1 0 1.895m1.795-1.703a1.95 1.95 0 0 0-.698-.85L6.363 10h.15a1.94 1.94 0 0 0 1.355-.552l2.5 1.407c-.099.238-.15.493-.15.75v.08zm5.75-.235a.947.947 0 1 1 .873-.584.95.95 0 0 1-.883.58z"/></svg>