<svg xmlns="http://www.w3.org/2000/svg" width="1470" height="1173" fill="none" viewBox="0 0 1470 1173"><path fill="#fff" d="M0 0h1470v1173H0z"/><path stroke="#f6821f" stroke-width="2" d="M430 552h685v493H430z"/><path fill="#c5ebf5" d="M739.875 297.235h34.344v19.625h-34.344zm-53.969-22.079h34.344v19.625h-34.344zm51.516-22.078h34.344v19.625h-34.344zm-17.172-19.625h34.344v19.625H720.25z"/><path fill="#0055dc" stroke="#fff" stroke-width=".5" d="m756.101 231.25 3.303 3.304v17.291h14.635l3.304 3.303v20.491l-3.305 3.303-14.386.104-.248.002v14.297h14.635l3.304 3.303v20.492l-3.304 3.303h-71.564l-3.304-3.303v-17.396h-14.617l-3.304-3.304v-20.49l3.304-3.304h14.617v-14.298h-14.617l-3.304-3.304v-20.49l3.304-3.304zm-50.53 82.794h29.478v-14.3h-29.478zm35.877 0h29.495v-14.3h-29.495zm-17.922-20.699h29.495v-.25l-.017-13.799v-.25h-29.478zm-35.877-.104h29.478v-14.299h-29.478zm17.922-20.595h29.478v-14.298h-29.478zm35.877-.103h29.495v-14.195h-29.495zm-53.799-20.595h29.478v-14.299h-29.478zm35.877 0h29.478v-14.299h-29.478z"/><path stroke="#0055dc" stroke-dasharray="10 10" stroke-width="2" d="M637 211h184v210H637zm303 0h212v210H940z"/><path fill="#000" d="M603.505 286.556a1 1 0 0 0 0-1.414l-6.364-6.364a1 1 0 0 0-1.415 1.414l5.657 5.657-5.657 5.657a1 1 0 0 0 1.415 1.414zm-.707-1.707H479.592v2h123.206zm-284.41 77.195v-14.546h9.801v2.536h-6.726v3.466h6.222v2.535h-6.222v3.473h6.755v2.536zm14.718-10.909 2.003 3.814 2.052-3.814h3.104l-3.161 5.454 3.246 5.455h-3.089l-2.152-3.772-2.117 3.772h-3.125l3.239-5.455-3.125-5.454zm14.758 0v2.272h-6.569v-2.272zm-5.078-2.614h3.026v10.17q0 .42.128.654a.7.7 0 0 0 .355.319q.234.093.54.093.213 0 .426-.036l.326-.064.476 2.252a8 8 0 0 1-.639.163 5 5 0 0 1-1.001.121q-1.095.042-1.918-.291a2.7 2.7 0 0 1-1.271-1.037q-.454-.703-.448-1.776zm11.904 13.736q-1.684 0-2.898-.682a4.67 4.67 0 0 1-1.861-1.946q-.653-1.265-.653-2.99 0-1.683.653-2.955a4.83 4.83 0 0 1 1.84-1.981q1.193-.71 2.798-.71 1.08 0 2.01.348.937.34 1.633 1.029.704.69 1.094 1.733.391 1.037.391 2.429v.831h-9.212v-1.875h6.364a2.3 2.3 0 0 0-.284-1.157 2.04 2.04 0 0 0-.789-.789 2.25 2.25 0 0 0-1.157-.291q-.69 0-1.222.32-.525.312-.824.845-.298.525-.305 1.172v1.782q0 .81.298 1.4.306.59.859.909.555.32 1.314.319.505 0 .924-.142.418-.142.717-.426.298-.284.455-.696l2.798.185a3.8 3.8 0 0 1-.874 1.761q-.653.745-1.69 1.165-1.03.411-2.379.412m6.981-.213v-10.909h2.933v1.903h.114q.299-1.015 1.001-1.534a2.64 2.64 0 0 1 1.62-.526 4.6 4.6 0 0 1 .952.107v2.685a4 4 0 0 0-.59-.114 5 5 0 0 0-.689-.05 2.4 2.4 0 0 0-1.193.291 2.15 2.15 0 0 0-.824.796 2.3 2.3 0 0 0-.298 1.179v6.172zm11.209-6.307v6.307h-3.025v-10.909h2.883v1.924h.128a3.04 3.04 0 0 1 1.215-1.505q.852-.561 2.066-.561 1.137 0 1.982.497a3.4 3.4 0 0 1 1.314 1.42q.468.916.469 2.188v6.946h-3.026v-6.407q.007-1-.511-1.562-.519-.568-1.428-.568-.61 0-1.079.263-.462.262-.725.767-.255.497-.263 1.2m12.527 6.513q-1.044 0-1.861-.363a3 3 0 0 1-1.292-1.086q-.47-.724-.469-1.804 0-.909.334-1.527.333-.619.909-.994a4.4 4.4 0 0 1 1.307-.569 10 10 0 0 1 1.548-.27 39 39 0 0 0 1.534-.184q.582-.093.845-.27t.263-.526v-.042q0-.675-.426-1.044-.42-.37-1.193-.37-.817 0-1.3.363a1.66 1.66 0 0 0-.639.894l-2.799-.227a3.8 3.8 0 0 1 .838-1.719q.625-.73 1.613-1.122.995-.397 2.301-.397.909 0 1.74.213a4.6 4.6 0 0 1 1.484.66q.654.447 1.03 1.151.376.696.376 1.669v7.358h-2.869v-1.513h-.085q-.263.511-.703.902a3.3 3.3 0 0 1-1.058.604q-.618.213-1.428.213m.866-2.088q.669 0 1.179-.263a2.1 2.1 0 0 0 .803-.725q.291-.455.291-1.029v-1.158a1.7 1.7 0 0 1-.39.17 7 7 0 0 1-.547.135q-.306.057-.611.107l-.554.078a3.7 3.7 0 0 0-.93.249 1.5 1.5 0 0 0-.618.461q-.22.284-.221.71 0 .618.448.945.454.32 1.15.32m10.65-12.664v14.546h-3.025v-14.546zm12.024 14.759q-1.683 0-2.897-.682a4.67 4.67 0 0 1-1.861-1.946q-.654-1.265-.653-2.99 0-1.683.653-2.955a4.84 4.84 0 0 1 1.839-1.981q1.194-.71 2.799-.71 1.079 0 2.01.348.937.34 1.633 1.029.704.69 1.094 1.733.39 1.037.391 2.429v.831h-9.212v-1.875h6.364a2.3 2.3 0 0 0-.285-1.157 2.03 2.03 0 0 0-.788-.789q-.496-.291-1.158-.291-.688 0-1.221.32-.526.312-.824.845-.299.525-.305 1.172v1.782q0 .81.298 1.4.305.59.859.909.555.32 1.314.319.504 0 .923-.142a1.9 1.9 0 0 0 .718-.426q.298-.284.454-.696l2.799.185a3.8 3.8 0 0 1-.874 1.761q-.654.745-1.69 1.165-1.03.411-2.38.412m6.982-.213v-10.909h2.884v1.924h.127a3.03 3.03 0 0 1 1.137-1.512q.796-.554 1.903-.554 1.122 0 1.911.561.788.554 1.051 1.505h.113a2.9 2.9 0 0 1 1.208-1.498q.88-.568 2.081-.568 1.527 0 2.478.973.96.965.959 2.741v7.337h-3.018v-6.74q0-.91-.483-1.364t-1.208-.455q-.823 0-1.285.526-.462.519-.462 1.371v6.662h-2.933v-6.804q0-.802-.462-1.279-.454-.476-1.2-.476-.504 0-.909.256-.398.249-.632.703a2.24 2.24 0 0 0-.234 1.051v6.549zm21.353.206q-1.044 0-1.861-.363a3 3 0 0 1-1.292-1.086q-.47-.724-.469-1.804 0-.909.334-1.527.333-.619.909-.994a4.4 4.4 0 0 1 1.307-.569 10 10 0 0 1 1.548-.27 39 39 0 0 0 1.534-.184q.582-.093.845-.27t.263-.526v-.042q0-.675-.426-1.044-.42-.37-1.193-.37-.817 0-1.3.363a1.66 1.66 0 0 0-.639.894l-2.799-.227a3.8 3.8 0 0 1 .838-1.719q.625-.73 1.613-1.122.995-.397 2.301-.397.909 0 1.74.213a4.6 4.6 0 0 1 1.484.66q.654.447 1.03 1.151.376.696.376 1.669v7.358h-2.869v-1.513h-.085q-.263.511-.703.902a3.3 3.3 0 0 1-1.058.604q-.618.213-1.428.213m.866-2.088q.669 0 1.179-.263a2.1 2.1 0 0 0 .803-.725q.291-.455.291-1.029v-1.158a1.7 1.7 0 0 1-.39.17 7 7 0 0 1-.547.135q-.306.057-.611.107l-.554.078a3.7 3.7 0 0 0-.93.249 1.5 1.5 0 0 0-.618.461q-.22.284-.221.71 0 .618.448.945.454.32 1.15.32m7.625 1.882v-10.909h3.025v10.909zm1.52-12.316q-.675 0-1.158-.447a1.45 1.45 0 0 1-.476-1.087q0-.625.476-1.072a1.63 1.63 0 0 1 1.158-.455q.674 0 1.15.455.483.447.483 1.072 0 .633-.483 1.087a1.62 1.62 0 0 1-1.15.447m6.955-2.23v14.546h-3.026v-14.546zm823.112-15.043h3.08v9.446c0 1.06-.26 1.988-.76 2.784-.51.795-1.21 1.415-2.11 1.86-.91.441-1.96.661-3.16.661-1.21 0-2.27-.22-3.17-.661-.91-.445-1.61-1.065-2.11-1.86q-.75-1.194-.75-2.784v-9.446h3.07v9.183q0 .83.36 1.477c.25.431.6.769 1.04 1.016.45.246.96.369 1.56.369.59 0 1.11-.123 1.55-.369.45-.247.79-.585 1.03-1.016.25-.431.37-.923.37-1.477zm14.63 6.747-2.77.17c-.05-.237-.15-.45-.31-.639a1.6 1.6 0 0 0-.62-.462 2.1 2.1 0 0 0-.9-.177c-.47 0-.86.099-1.19.298q-.48.291-.48.781c0 .261.11.481.31.661q.315.27 1.08.433l1.97.398q1.59.327 2.37 1.051t.78 1.903q0 1.073-.63 1.882c-.41.54-.99.962-1.72 1.265-.72.298-1.56.447-2.5.447q-2.175 0-3.45-.902-1.29-.909-1.5-2.472l2.97-.156q.135.661.66 1.009.51.34 1.32.341c.53 0 .96-.102 1.28-.306.33-.208.49-.476.5-.802a.84.84 0 0 0-.35-.675q-.345-.27-1.05-.412l-1.89-.376c-1.06-.213-1.86-.583-2.38-1.108-.51-.526-.77-1.196-.77-2.01q0-1.052.57-1.811c.38-.507.92-.898 1.61-1.172.69-.275 1.51-.412 2.44-.412 1.38 0 2.46.291 3.25.873.8.583 1.26 1.376 1.4 2.38m7.12 8.011c-1.12 0-2.09-.227-2.9-.682a4.7 4.7 0 0 1-1.86-1.946c-.43-.843-.65-1.839-.65-2.99 0-1.122.22-2.107.65-2.954a4.87 4.87 0 0 1 1.84-1.982c.8-.473 1.73-.71 2.8-.71q1.08 0 2.01.348c.63.227 1.17.57 1.63 1.03.47.459.84 1.037 1.1 1.733q.39 1.037.39 2.429v.831h-9.21v-1.875h6.36c0-.436-.09-.822-.28-1.158a2.1 2.1 0 0 0-.79-.788c-.33-.195-.72-.292-1.16-.292a2.31 2.31 0 0 0-2.05 1.165c-.19.351-.3.741-.3 1.172v1.783q0 .809.3 1.399c.2.393.49.696.86.909s.8.32 1.31.32c.34 0 .65-.048.92-.143q.42-.141.72-.426c.2-.189.35-.421.46-.696l2.79.185a3.8 3.8 0 0 1-.87 1.761c-.43.498-1 .886-1.69 1.165-.69.275-1.48.412-2.38.412m6.98-.213v-10.909h2.94v1.903h.11c.2-.677.53-1.188 1-1.534a2.64 2.64 0 0 1 1.62-.525 4.5 4.5 0 0 1 .95.106v2.685a4 4 0 0 0-.59-.114q-.375-.05-.69-.05c-.44 0-.84.098-1.19.292-.34.189-.62.454-.82.795q-.3.511-.3 1.179V347zm12.82 0v-10.909h3.02V347zm1.52-12.315c-.45 0-.84-.149-1.16-.448a1.44 1.44 0 0 1-.48-1.086q0-.626.48-1.073c.32-.303.71-.454 1.16-.454s.83.151 1.15.454q.48.447.48 1.073 0 .632-.48 1.086c-.32.299-.7.448-1.15.448m6.95 6.008V347h-3.03v-10.909h2.89v1.925h.13c.24-.635.64-1.137 1.21-1.506q.855-.561 2.07-.561c.75 0 1.42.166 1.98.497s1 .805 1.31 1.42c.32.611.47 1.34.47 2.188V347h-3.02v-6.406c0-.668-.17-1.189-.52-1.563-.34-.379-.82-.568-1.42-.568q-.615 0-1.08.263a1.86 1.86 0 0 0-.73.767c-.17.331-.25.731-.26 1.2m9.47 6.307v-14.545h3.03v5.468h.09c.13-.293.33-.592.58-.895q.375-.46.99-.767.615-.312 1.53-.312c.8 0 1.53.208 2.21.625.67.412 1.21 1.034 1.61 1.868q.6 1.243.6 3.118c0 1.217-.19 2.244-.59 3.082q-.585 1.25-1.59 1.896c-.67.426-1.41.64-2.24.64q-.885 0-1.5-.292a3.1 3.1 0 0 1-1-.731 3.8 3.8 0 0 1-.6-.902h-.13V347zm2.96-5.455q0 .974.27 1.698c.18.483.44.859.79 1.129.34.265.75.398 1.24.398s.91-.135 1.25-.405c.34-.275.6-.653.77-1.136q.27-.732.27-1.684c0-.629-.08-1.183-.26-1.661-.18-.479-.43-.853-.77-1.123-.35-.27-.76-.404-1.26-.404-.49 0-.91.13-1.25.39q-.51.391-.78 1.108t-.27 1.69m14.63 5.668c-1.1 0-2.06-.234-2.86-.703a4.86 4.86 0 0 1-1.86-1.974c-.43-.848-.65-1.831-.65-2.948 0-1.127.22-2.112.65-2.954a4.8 4.8 0 0 1 1.86-1.975c.8-.473 1.76-.71 2.86-.71s2.05.237 2.86.71q1.2.703 1.86 1.975c.43.842.65 1.827.65 2.954 0 1.117-.22 2.1-.65 2.948q-.66 1.263-1.86 1.974c-.81.469-1.76.703-2.86.703m.01-2.344q.765 0 1.26-.426c.34-.289.59-.682.76-1.179.18-.497.26-1.063.26-1.697s-.08-1.201-.26-1.698c-.17-.497-.42-.89-.76-1.179q-.495-.433-1.26-.433c-.5 0-.93.145-1.27.433-.35.289-.6.682-.78 1.179-.17.497-.25 1.063-.25 1.698 0 .634.08 1.2.25 1.697.18.497.43.89.78 1.179.34.284.77.426 1.27.426m9.46-8.778 2.01 3.814 2.05-3.814h3.1l-3.16 5.454 3.25 5.455h-3.09l-2.15-3.771-2.12 3.771h-3.12l3.23-5.455-3.12-5.454zm-10.36 216.142v1.761h-9.64c-.99 0-1.88-.234-2.66-.703-.78-.464-1.39-1.12-1.84-1.967-.44-.848-.67-1.842-.67-2.983s.23-2.136.67-2.983c.45-.848 1.06-1.506 1.84-1.975.78-.464 1.67-.696 2.66-.696h9.64v1.762h-9.49c-.71 0-1.35.156-1.9.468s-.98.758-1.3 1.335c-.31.583-.47 1.279-.47 2.089 0 .809.16 1.505.47 2.088.32.582.75 1.027 1.3 1.335.55.312 1.19.469 1.9.469zm-6.08 12.778-.43-1.505c.25-.095.49-.235.73-.419q.36-.27.6-.739c.15-.312.23-.713.23-1.2 0-.668-.15-1.224-.46-1.669-.3-.441-.69-.661-1.16-.661-.41 0-.74.152-.98.455-.25.303-.45.776-.61 1.42l-.4 1.619q-.345 1.464-1.08 2.181c-.49.478-1.11.717-1.87.717-.63 0-1.18-.18-1.68-.54-.49-.355-.88-.852-1.16-1.491-.29-.639-.43-1.383-.43-2.23 0-1.113.24-2.034.73-2.763.48-.729 1.19-1.191 2.11-1.385l.4 1.591q-.885.228-1.32.859c-.29.427-.44.983-.44 1.669 0 .782.17 1.402.5 1.861.33.464.74.696 1.2.696q.57 0 .96-.397c.26-.266.45-.673.58-1.222l.42-1.818q.36-1.498 1.11-2.202c.5-.464 1.12-.696 1.88-.696.61 0 1.16.173 1.63.519.47.35.85.826 1.12 1.427.27.606.4 1.293.4 2.06 0 1.079-.24 1.927-.71 2.542-.47.621-1.1 1.061-1.87 1.321m-8.7 7.296c0-1.051.23-1.958.7-2.72a4.66 4.66 0 0 1 1.96-1.754q1.26-.61 2.94-.611c1.12 0 2.1.204 2.95.611q1.29.618 2.01 1.718.72 1.109.72 2.586a5.2 5.2 0 0 1-.28 1.683q-.285.83-.93 1.513c-.42.454-.98.817-1.67 1.086-.7.27-1.56.405-2.57.405h-.71v-8.409h1.45v6.705c.61 0 1.16-.123 1.64-.37.49-.241.87-.587 1.15-1.037q.42-.667.42-1.576c0-.668-.17-1.246-.5-1.733a3.26 3.26 0 0 0-1.28-1.115 3.8 3.8 0 0 0-1.69-.391h-.97c-.82 0-1.52.142-2.09.426-.57.289-1 .689-1.3 1.201-.29.511-.44 1.105-.44 1.782q0 .661.18 1.193.195.54.57.931c.26.26.57.461.95.603l-.45 1.62a3.6 3.6 0 0 1-1.45-.86c-.41-.402-.73-.899-.97-1.491a5.7 5.7 0 0 1-.34-1.996m.23 7.067h10.91v1.619h-1.65v.114q.81.299 1.32 1.079c.33.521.5 1.108.5 1.762 0 .123 0 .277-.01.461 0 .185-.01.325-.02.419h-1.7q.015-.085.06-.39c.03-.199.05-.41.05-.632q0-.796-.33-1.421a2.5 2.5 0 0 0-.91-.98 2.47 2.47 0 0 0-1.32-.355h-6.9zm-4.09 13.066h15v1.62h-1.73v.199q.285.184.72.511c.3.222.56.54.8.952.23.416.35.98.35 1.69q0 1.377-.69 2.429t-1.95 1.641c-.84.393-1.84.589-2.98.589-1.16 0-2.16-.196-3.01-.589-.84-.393-1.49-.938-1.96-1.634q-.69-1.044-.69-2.408c0-.7.12-1.261.35-1.683.24-.421.5-.746.8-.973.31-.227.56-.402.76-.525v-.143h-5.77zm9.54 1.648c-.82 0-1.55.121-2.18.362q-.93.363-1.47 1.059c-.35.464-.52 1.032-.52 1.704 0 .701.18 1.286.55 1.754.38.474.88.829 1.51 1.066.63.241 1.34.362 2.11.362s1.46-.118 2.08-.355q.93-.348 1.47-1.058c.36-.469.55-1.059.55-1.769 0-.682-.18-1.255-.52-1.719q-.51-.696-1.44-1.051c-.61-.237-1.32-.355-2.14-.355m1.11 12.216H1339v-1.676h14.55v1.676h-5.35v.142q.855.384 1.35 1.151c.33.516.5 1.202.5 2.059q0 1.116-.45 1.953-.435.838-1.35 1.3c-.61.313-1.38.469-2.32.469H1339v-1.676h6.82q1.29 0 2.01-.675.72-.668.72-1.854c0-.549-.12-1.041-.35-1.477a2.5 2.5 0 0 0-1.02-1.023q-.66-.369-1.62-.369m-6.56 10.14h10.91v1.676H1339zm12.73.853q0-.49.33-.846c.22-.232.49-.348.8-.348.32 0 .58.116.81.348q.33.355.33.846 0 .49-.33.838a1.08 1.08 0 0 1-.81.355c-.31 0-.58-.119-.8-.355a1.18 1.18 0 0 1-.33-.838m-4.26 11.621-.43-1.506c.25-.095.49-.234.73-.419q.36-.27.6-.739c.15-.312.23-.712.23-1.2 0-.668-.15-1.224-.46-1.669-.3-.44-.69-.661-1.16-.661-.41 0-.74.152-.98.455-.25.303-.45.776-.61 1.42l-.4 1.62q-.345 1.463-1.08 2.18c-.49.478-1.11.717-1.87.717-.63 0-1.18-.179-1.68-.539-.49-.355-.88-.853-1.16-1.492-.29-.639-.43-1.382-.43-2.23 0-1.113.24-2.034.73-2.763.48-.729 1.19-1.19 2.11-1.385l.4 1.591q-.885.228-1.32.86c-.29.426-.44.982-.44 1.669 0 .781.17 1.401.5 1.86.33.465.74.697 1.2.697q.57 0 .96-.398c.26-.265.45-.673.58-1.222l.42-1.818q.36-1.499 1.11-2.202c.5-.464 1.12-.696 1.88-.696.61 0 1.16.173 1.63.519.47.35.85.826 1.12 1.427.27.606.4 1.293.4 2.06 0 1.08-.24 1.927-.71 2.543-.47.62-1.1 1.06-1.87 1.321m-1.91 4.398H1339v-1.676h14.55v1.676h-5.35v.142q.855.383 1.35 1.15c.33.516.5 1.203.5 2.06q0 1.115-.45 1.953-.435.838-1.35 1.3c-.61.312-1.38.469-2.32.469H1339v-1.677h6.82q1.29 0 2.01-.674.72-.668.72-1.854c0-.549-.12-1.042-.35-1.477a2.5 2.5 0 0 0-1.02-1.023q-.66-.369-1.62-.369m-6.56 10.14h10.91v1.676H1339zm12.73.852q0-.49.33-.845c.22-.232.49-.348.8-.348.32 0 .58.116.81.348q.33.356.33.845 0 .49-.33.838c-.23.237-.49.355-.81.355-.31 0-.58-.118-.8-.355a1.17 1.17 0 0 1-.33-.838m-6.17 5.57H1339v-1.676h10.91v1.619h-1.71v.142c.56.256 1 .644 1.34 1.165q.51.781.51 2.017 0 1.108-.45 1.939c-.3.554-.76.985-1.37 1.293-.6.308-1.37.461-2.3.461H1339v-1.676h6.82c.86 0 1.52-.222 2-.667s.73-1.056.73-1.833c0-.535-.12-1.013-.35-1.434a2.46 2.46 0 0 0-1.02-.988q-.66-.362-1.62-.362m-10.88 14.427c0-.81.11-1.506.31-2.088q.315-.874.81-1.456c.34-.384.69-.689 1.07-.917l.94 1.336q-.3.227-.69.575c-.26.232-.48.549-.67.952-.19.407-.29.94-.29 1.598 0 .88.21 1.607.64 2.18.42.573 1.09.859 2 .859h2.22v-.142c-.2-.123-.45-.298-.74-.525q-.435-.335-.78-.966-.33-.625-.33-1.69 0-1.322.63-2.373c.41-.696 1.02-1.247 1.81-1.654.8-.403 1.76-.604 2.9-.604 1.12 0 2.09.196 2.92.589s1.48.94 1.93 1.641q.69 1.051.69 2.429c0 .71-.12 1.274-.35 1.69-.24.422-.5.744-.8.966q-.435.342-.72.526v.17h1.73v1.62h-11.22c-.94 0-1.7-.213-2.29-.64-.59-.421-1.02-.989-1.3-1.704q-.42-1.065-.42-2.372m6-.057c0 .672.15 1.24.46 1.704s.75.817 1.33 1.059q.855.362 2.07.362c.79 0 1.48-.119 2.08-.355q.9-.355 1.41-1.051c.34-.464.52-1.037.52-1.719q0-1.065-.54-1.776c-.36-.468-.85-.821-1.45-1.058a5.6 5.6 0 0 0-2.02-.348q-1.14 0-2.01.355c-.58.242-1.03.597-1.36 1.066-.33.473-.49 1.06-.49 1.761m-1.68 13.466h10.91v1.619h-1.65v.114q.81.298 1.32 1.079c.33.521.5 1.108.5 1.762 0 .123 0 .277-.01.461 0 .185-.01.325-.02.419h-1.7q.015-.085.06-.39c.03-.199.05-.41.05-.632q0-.796-.33-1.421a2.5 2.5 0 0 0-.91-.98 2.47 2.47 0 0 0-1.32-.355h-6.9zm-.23 11.683c0-1.051.23-1.958.7-2.72a4.66 4.66 0 0 1 1.96-1.754q1.26-.611 2.94-.611c1.12 0 2.1.203 2.95.611q1.29.618 2.01 1.718.72 1.108.72 2.586a5.2 5.2 0 0 1-.28 1.683q-.285.83-.93 1.513c-.42.454-.98.816-1.67 1.086-.7.27-1.56.405-2.57.405h-.71v-8.409h1.45v6.705c.61 0 1.16-.124 1.64-.37.49-.241.87-.587 1.15-1.037q.42-.667.42-1.576c0-.668-.17-1.246-.5-1.733a3.26 3.26 0 0 0-1.28-1.115 3.8 3.8 0 0 0-1.69-.391h-.97c-.82 0-1.52.142-2.09.426-.57.289-1 .689-1.3 1.2-.29.512-.44 1.106-.44 1.783q0 .66.18 1.193.195.54.57.931c.26.26.57.461.95.603l-.45 1.62a3.6 3.6 0 0 1-1.45-.86c-.41-.402-.73-.899-.97-1.491a5.7 5.7 0 0 1-.34-1.996m-3.86 7.067h15v1.619h-1.73v.199q.285.185.72.511c.3.223.56.54.8.952.23.417.35.98.35 1.69q0 1.379-.69 2.429-.69 1.052-1.95 1.641c-.84.393-1.84.589-2.98.589-1.16 0-2.16-.196-3.01-.589-.84-.393-1.49-.938-1.96-1.634q-.69-1.044-.69-2.407c0-.701.12-1.262.35-1.683.24-.422.5-.746.8-.973.31-.228.56-.403.76-.526v-.142h-5.77zm9.54 1.648c-.82 0-1.55.12-2.18.362q-.93.362-1.47 1.058c-.35.464-.52 1.032-.52 1.705 0 .7.18 1.285.55 1.754.38.473.88.828 1.51 1.065.63.242 1.34.362 2.11.362s1.46-.118 2.08-.355q.93-.348 1.47-1.058c.36-.469.55-1.058.55-1.768 0-.682-.18-1.255-.52-1.719q-.51-.697-1.44-1.051c-.61-.237-1.32-.355-2.14-.355m-5.68 14.971c0-.985.24-1.849.71-2.592.46-.739 1.12-1.317 1.96-1.733.85-.412 1.83-.618 2.96-.618s2.13.206 2.97.618q1.275.624 1.98 1.733c.47.743.7 1.607.7 2.592s-.23 1.847-.7 2.585q-.705 1.115-1.98 1.733c-.84.417-1.84.625-2.97.625s-2.11-.208-2.96-.625c-.84-.412-1.5-.989-1.96-1.733-.47-.738-.71-1.6-.71-2.585m1.51 0q0 1.122.57 1.847c.39.483.89.84 1.52 1.072.62.232 1.3.348 2.03.348q1.095 0 2.04-.348a3.4 3.4 0 0 0 1.52-1.072c.39-.483.59-1.099.59-1.847s-.2-1.364-.59-1.846a3.4 3.4 0 0 0-1.52-1.073 5.9 5.9 0 0 0-2.04-.348c-.73 0-1.41.116-2.03.348-.63.232-1.13.59-1.52 1.073q-.57.723-.57 1.846m-1.28 7.502h10.91v1.619h-1.65v.114q.81.299 1.32 1.079c.33.521.5 1.108.5 1.762 0 .123 0 .277-.01.461 0 .185-.01.325-.02.419h-1.7q.015-.085.06-.39c.03-.199.05-.41.05-.632q0-.796-.33-1.421a2.5 2.5 0 0 0-.91-.98 2.47 2.47 0 0 0-1.32-.355h-6.9zm10.91 12.869h-1.42v-5.653h1.42zm2.61-4.005v1.676h-10.4c-.47 0-.82.068-1.06.206-.23.142-.39.322-.47.539-.07.223-.11.457-.11.704q0 .277.03.454c.02.118.04.213.05.284l-1.5.341a2.4 2.4 0 0 1-.13-.476 3.4 3.4 0 0 1-.07-.774q0-.71.3-1.392.315-.675.93-1.122c.42-.294.95-.44 1.58-.44zm-13.52 6.526h10.91v1.677H1339zm12.73.853q0-.49.33-.845c.22-.232.49-.348.8-.348.32 0 .58.116.81.348q.33.354.33.845 0 .49-.33.838c-.23.237-.49.355-.81.355-.31 0-.58-.118-.8-.355a1.18 1.18 0 0 1-.33-.838m-6.17 5.57H1339v-1.676h10.91v1.619h-1.71v.142c.56.256 1 .644 1.34 1.165q.51.781.51 2.017 0 1.107-.45 1.939c-.3.554-.76.985-1.37 1.292-.6.308-1.37.462-2.3.462H1339v-1.676h6.82c.86 0 1.52-.223 2-.668s.73-1.056.73-1.832c0-.535-.12-1.013-.35-1.435a2.45 2.45 0 0 0-1.02-.987q-.66-.362-1.62-.362m-10.88 14.426c0-.809.11-1.505.31-2.088q.315-.874.81-1.456c.34-.383.69-.689 1.07-.916l.94 1.335q-.3.227-.69.576c-.26.232-.48.549-.67.951-.19.407-.29.94-.29 1.598 0 .881.21 1.608.64 2.181.42.573 1.09.859 2 .859h2.22v-.142c-.2-.123-.45-.298-.74-.526q-.435-.333-.78-.966-.33-.625-.33-1.69 0-1.321.63-2.372c.41-.696 1.02-1.248 1.81-1.655.8-.402 1.76-.604 2.9-.604 1.12 0 2.09.197 2.92.59s1.48.94 1.93 1.641q.69 1.05.69 2.429c0 .71-.12 1.273-.35 1.69-.24.421-.5.743-.8.966q-.435.34-.72.525v.171h1.73v1.619h-11.22c-.94 0-1.7-.213-2.29-.639-.59-.421-1.02-.99-1.3-1.705q-.42-1.065-.42-2.372m6-.057c0 .673.15 1.241.46 1.705s.75.817 1.33 1.058q.855.362 2.07.362c.79 0 1.48-.118 2.08-.355q.9-.354 1.41-1.051c.34-.464.52-1.037.52-1.719q0-1.065-.54-1.775c-.36-.469-.85-.822-1.45-1.058a5.6 5.6 0 0 0-2.02-.348q-1.14 0-2.01.355c-.58.241-1.03.596-1.36 1.065-.33.474-.49 1.061-.49 1.761"/><path fill="#0055dc" stroke="#0057e1" stroke-miterlimit="10" stroke-width=".541" d="M360.556 258v59.123h84.033V258zm41.939 34.573-38.881-32.933h77.917zm-7.015-3.801-33.279 25.826v-54.021zm1.285 1.093 5.73 4.869 5.834-4.921 33.048 25.644h-77.609l32.971-25.592zm12.849-1.145 33.356-28.143v54.021z"/><path stroke="#0053ed" stroke-miterlimit="10" stroke-width="2.072" d="M351.509 302.367h-15.367m15.369-14.764h-23.334m23.332-14.761h-15.367"/><path fill="#0053ed" stroke="#fff" stroke-miterlimit="10" d="m1353.31 279.54-1.29 2.192V254h-68.21v27.313l-1.4-1.773H1269V317h100v-37.46h-15.71zm-4 6.822-4.13 7.019h-1.83l-18.67-14.408 24.65-20.688v28.052zm-10.48 7.019h-41.81l16.25-12.56 4.57 3.842 4.64-3.916 16.32 12.61zm8.06-36.647-29.03 24.357-28.9-24.357h57.95zm-60.35 1.576 24.58 20.713-18.13 13.989-6.47-8.226V258.31zm79.77 55.981h-94.6v-32.017h9.43l10.87 13.841h54.68l8.16-13.841h11.49v32.017z"/><path fill="#000" d="M977.138 357v-14.545h9.801v2.535h-6.726v3.466h6.222v2.535h-6.222v3.473h6.754V357zm12.189 0v-10.909h2.884v1.925h.127a3.02 3.02 0 0 1 1.137-1.513q.795-.554 1.903-.554 1.122 0 1.911.561.788.554 1.051 1.506h.113a2.9 2.9 0 0 1 1.208-1.499c.589-.379 1.279-.568 2.079-.568 1.02 0 1.85.324 2.48.973q.96.966.96 2.741V357h-3.02v-6.74q0-.91-.48-1.364c-.32-.303-.73-.454-1.21-.454q-.823 0-1.285.525-.462.519-.462 1.371V357h-2.933v-6.804q0-.803-.462-1.278-.455-.476-1.2-.476a1.67 1.67 0 0 0-.909.255 1.76 1.76 0 0 0-.632.704q-.234.447-.234 1.051V357zm21.353.206q-1.05 0-1.86-.362a2.9 2.9 0 0 1-1.29-1.087c-.32-.483-.47-1.084-.47-1.804q0-.909.33-1.527c.22-.412.53-.743.91-.994a4.3 4.3 0 0 1 1.31-.568 10 10 0 0 1 1.55-.27q.945-.1 1.53-.185c.39-.061.67-.151.85-.27a.6.6 0 0 0 .26-.525v-.043c0-.45-.14-.798-.43-1.044-.28-.246-.68-.369-1.19-.369-.55 0-.98.12-1.3.362-.32.237-.54.535-.64.895l-2.8-.227q.21-.995.84-1.719c.42-.488.95-.862 1.61-1.122.66-.266 1.43-.398 2.3-.398q.915 0 1.74.213c.56.142 1.06.362 1.49.66s.78.682 1.03 1.151c.25.464.37 1.02.37 1.669V357h-2.87v-1.513h-.08c-.18.341-.41.642-.7.902-.3.256-.65.457-1.06.604-.41.142-.89.213-1.43.213m.87-2.088c.44 0 .83-.088 1.18-.263.34-.18.6-.421.8-.724.19-.303.29-.647.29-1.03v-1.158q-.15.093-.39.171a7 7 0 0 1-.55.135c-.2.037-.41.073-.61.106l-.55.078q-.54.078-.93.249a1.5 1.5 0 0 0-.62.461c-.15.19-.22.427-.22.711q0 .617.45.944c.3.213.68.32 1.15.32m7.62 1.882v-10.909h3.03V357zm1.52-12.315c-.45 0-.83-.149-1.16-.448a1.47 1.47 0 0 1-.47-1.086c0-.417.16-.775.47-1.073.33-.303.71-.454 1.16-.454s.83.151 1.15.454q.48.447.48 1.073 0 .631-.48 1.086c-.32.299-.7.448-1.15.448m6.96-2.23V357h-3.03v-14.545zm7.05 18.636v-15h2.98v1.832h.14q.195-.44.57-.895c.26-.307.59-.563 1-.767q.615-.312 1.53-.312c.8 0 1.53.208 2.2.625.67.412 1.21 1.034 1.61 1.868.41.828.61 1.868.61 3.118 0 1.217-.2 2.244-.59 3.082q-.585 1.25-1.59 1.896-1.005.64-2.25.64-.87 0-1.5-.292c-.4-.194-.74-.438-1-.731a3.5 3.5 0 0 1-.59-.902h-.1v5.838zm2.96-9.546q0 .974.27 1.698t.78 1.129c.34.265.76.398 1.24.398.5 0 .91-.135 1.25-.405q.51-.412.78-1.136.27-.732.27-1.684c0-.629-.09-1.183-.26-1.661q-.27-.718-.78-1.123-.51-.404-1.26-.404c-.49 0-.91.13-1.25.39-.33.261-.59.63-.77 1.108q-.27.717-.27 1.69m9.69 5.455v-10.909h2.94v1.903h.11c.2-.677.53-1.188 1-1.534a2.64 2.64 0 0 1 1.62-.525 4.5 4.5 0 0 1 .95.106v2.685a3.6 3.6 0 0 0-.59-.114c-.25-.033-.48-.05-.68-.05q-.675 0-1.2.292c-.34.189-.62.454-.82.795q-.3.511-.3 1.179V357zm12.61.213c-1.1 0-2.06-.234-2.86-.703a4.86 4.86 0 0 1-1.86-1.974c-.43-.848-.65-1.831-.65-2.948 0-1.127.22-2.112.65-2.954a4.8 4.8 0 0 1 1.86-1.975c.8-.473 1.76-.71 2.86-.71q1.65 0 2.85.71a4.76 4.76 0 0 1 1.87 1.975c.43.842.65 1.827.65 2.954 0 1.117-.22 2.1-.65 2.948-.44.842-1.06 1.5-1.87 1.974q-1.2.703-2.85.703m.01-2.344c.51 0 .92-.142 1.26-.426.34-.289.59-.682.76-1.179.18-.497.26-1.063.26-1.697s-.08-1.201-.26-1.698c-.17-.497-.42-.89-.76-1.179-.34-.288-.75-.433-1.26-.433-.5 0-.93.145-1.28.433-.34.289-.59.682-.77 1.179-.17.497-.25 1.063-.25 1.698 0 .634.08 1.2.25 1.697.18.497.43.89.77 1.179.35.284.78.426 1.28.426m17.14-8.778L1073.3 357h-3.41l-3.81-10.909h3.19l2.27 7.805h.11l2.26-7.805zm1.55 10.909v-10.909h3.03V357zm1.52-12.315c-.45 0-.83-.149-1.15-.448a1.44 1.44 0 0 1-.48-1.086q0-.626.48-1.073c.32-.303.7-.454 1.15-.454s.84.151 1.15.454c.33.298.49.656.49 1.073 0 .421-.16.783-.49 1.086-.31.299-.7.448-1.15.448m7.95 12.493q-1.245 0-2.25-.64-1.005-.646-1.59-1.896c-.39-.838-.58-1.865-.58-3.082q0-1.875.6-3.118c.4-.834.94-1.456 1.61-1.868.67-.417 1.4-.625 2.21-.625.61 0 1.11.104 1.52.312.41.204.75.46 1 .767.25.303.45.602.58.895h.09v-5.468h3.02V357h-2.98v-1.747h-.13q-.21.455-.6.902c-.26.293-.59.537-1.01.731-.4.194-.9.292-1.49.292m.96-2.408c.49 0 .9-.133 1.24-.398q.51-.405.78-1.129t.27-1.698c0-.648-.09-1.212-.26-1.69-.18-.478-.45-.847-.79-1.108-.34-.26-.75-.39-1.24-.39q-.75 0-1.26.404c-.34.27-.6.644-.77 1.123-.18.478-.26 1.032-.26 1.661 0 .635.08 1.196.26 1.684.18.483.44.861.77 1.136q.51.405 1.26.405m12.71 2.443c-1.12 0-2.09-.227-2.9-.682a4.7 4.7 0 0 1-1.86-1.946c-.44-.843-.65-1.839-.65-2.99 0-1.122.21-2.107.65-2.954a4.87 4.87 0 0 1 1.84-1.982c.8-.473 1.73-.71 2.8-.71q1.08 0 2.01.348c.62.227 1.17.57 1.63 1.03.47.459.83 1.037 1.1 1.733q.39 1.037.39 2.429v.831h-9.22v-1.875h6.37c0-.436-.1-.822-.29-1.158a2.06 2.06 0 0 0-.78-.788 2.27 2.27 0 0 0-1.16-.292 2.31 2.31 0 0 0-2.05 1.165q-.3.526-.3 1.172v1.783q0 .809.3 1.399c.2.393.49.696.85.909q.555.32 1.32.32c.33 0 .64-.048.92-.143q.42-.141.72-.426.3-.284.45-.696l2.8.185a3.8 3.8 0 0 1-.87 1.761c-.44.498-1 .886-1.69 1.165-.69.275-1.48.412-2.38.412m6.98-.213v-10.909h2.93v1.903h.12c.2-.677.53-1.188 1-1.534a2.64 2.64 0 0 1 1.62-.525c.15 0 .31.009.49.028.17.019.33.045.46.078v2.685a4 4 0 0 0-.59-.114q-.375-.05-.69-.05c-.44 0-.84.098-1.19.292a2.17 2.17 0 0 0-.83.795c-.19.341-.29.734-.29 1.179V357zm-114.113 16.727q0-2.67.703-4.915a14.6 14.6 0 0 1 2.053-4.14h1.946q-.526.703-.98 1.726a16 16 0 0 0-.796 2.244q-.341 1.215-.532 2.521a17.5 17.5 0 0 0-.192 2.564q0 1.69.334 3.424.333 1.732.902 3.217.567 1.484 1.264 2.422h-1.946a14.7 14.7 0 0 1-2.053-4.141q-.703-2.244-.703-4.922m8.343 7.273h-2.33l5.23-14.545h2.54l5.23 14.545h-2.33l-4.11-11.903h-.11zm.39-5.696h7.55v1.847h-7.55zm14.34-.781V381h-2.13v-10.909h2.04v1.775h.13c.26-.577.65-1.041 1.18-1.392q.81-.525 2.04-.525c.75 0 1.4.156 1.96.469.55.307.99.767 1.3 1.377.3.611.46 1.366.46 2.266V381h-2.13v-6.683c0-.791-.2-1.409-.61-1.854-.42-.45-.98-.675-1.7-.675q-.735 0-1.32.32c-.37.213-.68.526-.9.937-.22.408-.32.9-.32 1.478m10.78 10.568q-.48 0-.87-.078c-.26-.048-.45-.1-.58-.156l.51-1.741c.39.105.73.15 1.04.135.3-.014.57-.127.8-.34.24-.214.44-.562.62-1.045l.27-.724-4-11.051h2.28l2.76 8.466h.11l2.77-8.466h2.28l-4.5 12.365c-.21.568-.47 1.049-.79 1.442-.33.397-.71.696-1.16.895-.44.198-.96.298-1.54.298m23.38-14.815c-.08-.673-.39-1.194-.94-1.563q-.825-.561-2.07-.561c-.6 0-1.12.095-1.55.284-.44.185-.77.44-1.02.767-.23.322-.35.689-.35 1.101q0 .519.24.895c.17.251.38.462.65.632.27.166.56.305.86.419.31.109.61.199.89.27l1.42.369c.47.114.94.268 1.43.462s.94.45 1.36.767c.41.317.75.71 1 1.179q.39.703.39 1.683 0 1.236-.63 2.195c-.43.639-1.04 1.143-1.84 1.513q-1.2.553-2.91.553c-1.09 0-2.03-.172-2.83-.518q-1.185-.519-1.86-1.47-.675-.959-.75-2.273h2.2c.04.526.22.964.51 1.314a2.8 2.8 0 0 0 1.16.774q.705.249 1.56.249.93 0 1.65-.291c.49-.199.87-.474 1.15-.824q.42-.533.42-1.243c0-.431-.12-.784-.37-1.058q-.36-.412-.99-.682c-.41-.18-.87-.339-1.39-.476l-1.72-.469c-1.17-.317-2.09-.783-2.77-1.399q-1.02-.924-1.02-2.443c0-.838.23-1.57.68-2.195.46-.625 1.07-1.11 1.85-1.456.78-.35 1.65-.525 2.63-.525s1.85.173 2.6.518c.76.346 1.36.822 1.79 1.428q.66.901.69 2.074zm4.94-3.821h2.66l4.63 11.306h.17l4.63-11.306h2.67V381h-2.09v-10.526h-.14l-4.29 10.505h-1.73l-4.29-10.512h-.14V381h-2.08zm17.23 1.889v-1.889h11.26v1.889h-4.54V381h-2.19v-12.656zM1087.81 381v-14.545h5.19c1.13 0 2.07.206 2.81.617s1.3.976 1.67 1.691c.37.71.55 1.51.55 2.4 0 .895-.18 1.7-.56 2.415-.37.71-.93 1.274-1.67 1.69-.75.412-1.68.618-2.81.618h-3.56v-1.86h3.36q1.08 0 1.74-.37c.45-.251.77-.592.98-1.022s.31-.921.31-1.471c0-.549-.1-1.037-.31-1.463s-.54-.76-.98-1.001q-.675-.363-1.77-.362h-2.75V381zm-71.1 15.754-1.93.341c-.08-.246-.21-.48-.38-.703s-.4-.405-.7-.547c-.29-.142-.66-.213-1.1-.213q-.9 0-1.5.405c-.41.265-.61.608-.61 1.03 0 .364.14.658.41.88.27.223.7.405 1.3.547l1.74.398c1 .232 1.75.59 2.24 1.072s.74 1.111.74 1.883q0 .98-.57 1.747c-.37.506-.9.904-1.57 1.193s-1.44.433-2.32.433c-1.22 0-2.22-.26-2.99-.781-.77-.526-1.25-1.271-1.42-2.237l2.05-.313c.13.535.39.94.79 1.215.4.27.92.405 1.55.405.7 0 1.26-.145 1.67-.434q.63-.44.63-1.072c0-.341-.13-.628-.38-.86-.26-.232-.64-.407-1.16-.525l-1.85-.405c-1.02-.232-1.77-.601-2.26-1.108q-.72-.76-.72-1.925 0-.966.54-1.69c.36-.483.86-.859 1.49-1.129.63-.275 1.36-.412 2.18-.412 1.18 0 2.11.256 2.78.767q1.02.76 1.35 2.038m7.25 8.466c-1.08 0-2-.229-2.78-.689a4.7 4.7 0 0 1-1.79-1.953q-.63-1.264-.63-2.962 0-1.676.63-2.954c.42-.852 1.01-1.518 1.76-1.996.76-.478 1.64-.717 2.66-.717.61 0 1.21.102 1.79.305.57.204 1.09.523 1.55.959s.82 1.001 1.09 1.698c.26.691.4 1.531.4 2.521v.753h-8.68v-1.591h6.6c0-.559-.12-1.054-.35-1.485a2.5 2.5 0 0 0-.95-1.029q-.615-.377-1.44-.377-.9 0-1.56.44a2.94 2.94 0 0 0-1.02 1.137q-.36.696-.36 1.513v1.243c0 .729.13 1.349.38 1.86a2.8 2.8 0 0 0 1.09 1.172c.46.265 1.01.398 1.63.398.4 0 .77-.057 1.1-.171.33-.118.62-.293.86-.525s.42-.519.55-.859l2.01.362a3.6 3.6 0 0 1-.87 1.555c-.41.44-.93.784-1.55 1.03-.62.241-1.33.362-2.12.362m7.03-.22v-10.909h2.06v1.733h.11a2.65 2.65 0 0 1 1.05-1.385 3 3 0 0 1 1.72-.511 9 9 0 0 1 .9.049v2.032a4 4 0 0 0-.45-.079 4.4 4.4 0 0 0-.66-.049c-.5 0-.95.106-1.34.319-.39.209-.7.5-.92.874-.23.369-.34.791-.34 1.264V405zm17.34-10.909L1044.38 405h-2.28l-3.96-10.909h2.28l2.76 8.395h.12l2.75-8.395zm2 10.909v-10.909h2.12V405zm1.07-12.592c-.37 0-.69-.123-.95-.37a1.2 1.2 0 0 1-.39-.895q0-.525.39-.894c.26-.251.58-.377.95-.377s.69.126.95.377q.39.369.39.894 0 .519-.39.895c-.26.247-.58.37-.95.37m8.5 12.812c-1.05 0-1.96-.239-2.72-.717-.76-.483-1.34-1.148-1.75-1.996-.41-.847-.61-1.818-.61-2.912 0-1.108.21-2.086.62-2.933q.63-1.278 1.77-1.996c.75-.478 1.65-.717 2.67-.717q1.245 0 2.22.462c.65.303 1.17.729 1.57 1.278q.6.824.72 1.925h-2.07c-.11-.512-.38-.952-.78-1.321q-.6-.554-1.62-.554-.885 0-1.56.468c-.44.308-.78.748-1.03 1.321-.24.569-.37 1.241-.37 2.017 0 .796.12 1.482.37 2.06q.36.867 1.02 1.342c.44.318.97.476 1.57.476.4 0 .77-.073 1.09-.22.33-.151.61-.367.83-.646q.345-.42.48-1.009h2.07a4.1 4.1 0 0 1-.69 1.89c-.39.553-.9.989-1.54 1.306s-1.39.476-2.26.476m11.46 0c-1.08 0-2-.229-2.78-.689a4.7 4.7 0 0 1-1.79-1.953c-.42-.843-.62-1.83-.62-2.962 0-1.117.2-2.102.62-2.954s1.01-1.518 1.76-1.996c.76-.478 1.65-.717 2.66-.717.61 0 1.21.102 1.79.305s1.1.523 1.55.959c.46.436.83 1.001 1.09 1.698.27.691.4 1.531.4 2.521v.753h-8.67v-1.591h6.59c0-.559-.12-1.054-.34-1.485a2.6 2.6 0 0 0-.96-1.029q-.615-.377-1.44-.377-.885 0-1.56.44a2.94 2.94 0 0 0-1.02 1.137q-.36.696-.36 1.513v1.243q0 1.094.39 1.86.39.768 1.08 1.172c.47.265 1.01.398 1.63.398.4 0 .77-.057 1.1-.171.33-.118.62-.293.86-.525s.43-.519.55-.859l2.01.362c-.16.592-.45 1.11-.86 1.555q-.615.66-1.56 1.03c-.62.241-1.33.362-2.12.362m11.12-6.257c0 1.785-.24 3.426-.7 4.922a14.7 14.7 0 0 1-2.06 4.141h-1.94c.35-.469.67-1.044.98-1.726.3-.682.57-1.428.79-2.238q.345-1.221.54-2.528c.12-.871.19-1.728.19-2.571 0-1.122-.11-2.261-.34-3.416a18.7 18.7 0 0 0-.9-3.217q-.57-1.485-1.26-2.422h1.94c.9 1.264 1.59 2.644 2.06 4.14.46 1.497.7 3.135.7 4.915M662.232 354v-14.545h9.801v2.535h-6.726v3.466h6.222v2.535h-6.222v3.473h6.755V354zm14.718-10.909 2.003 3.814 2.052-3.814h3.104l-3.161 5.454 3.246 5.455h-3.089l-2.152-3.771-2.117 3.771h-3.125l3.239-5.455-3.125-5.454zM685.906 354v-10.909h3.025V354zm1.52-12.315q-.675 0-1.158-.448a1.45 1.45 0 0 1-.476-1.086q0-.626.476-1.073a1.63 1.63 0 0 1 1.158-.454q.674 0 1.15.454.483.447.483 1.073 0 .632-.483 1.086a1.62 1.62 0 0 1-1.15.448m13.006 4.517-2.77.17a1.4 1.4 0 0 0-.306-.639 1.6 1.6 0 0 0-.618-.462q-.375-.177-.902-.177-.702 0-1.186.298-.483.291-.483.781 0 .391.313.661.312.27 1.072.433l1.975.398q1.59.327 2.372 1.051t.781 1.903q0 1.073-.632 1.882-.625.81-1.719 1.265-1.086.447-2.507.447-2.166 0-3.451-.902-1.279-.909-1.499-2.472l2.976-.156q.135.661.653 1.009.52.34 1.328.341.796 0 1.279-.306.49-.312.497-.802a.84.84 0 0 0-.348-.675q-.341-.27-1.051-.412l-1.889-.376q-1.599-.32-2.38-1.108-.774-.789-.774-2.01 0-1.052.568-1.811.576-.76 1.613-1.172 1.044-.412 2.443-.412 2.067 0 3.253.873 1.192.874 1.392 2.38m7.956-3.111v2.273h-6.57v-2.273zm-5.078-2.614h3.025v10.171q0 .419.128.653a.7.7 0 0 0 .355.32q.236.092.54.092.213 0 .426-.035.213-.043.327-.064l.476 2.251a9 9 0 0 1-.639.163 5 5 0 0 1-1.002.121q-1.094.043-1.917-.291a2.68 2.68 0 0 1-1.272-1.037q-.454-.703-.447-1.776zM710.359 354v-10.909h3.025V354zm1.52-12.315q-.675 0-1.158-.448a1.45 1.45 0 0 1-.476-1.086q0-.626.476-1.073a1.63 1.63 0 0 1 1.158-.454q.675 0 1.15.454.483.447.483 1.073 0 .632-.483 1.086-.475.448-1.15.448m6.955 6.008V354h-3.026v-10.909h2.884v1.925h.127a3.05 3.05 0 0 1 1.215-1.506q.852-.561 2.067-.561 1.136 0 1.981.497a3.37 3.37 0 0 1 1.314 1.42q.47.916.469 2.188V354h-3.026v-6.406q.008-1.002-.511-1.563-.519-.568-1.428-.568a2.17 2.17 0 0 0-1.079.263 1.84 1.84 0 0 0-.725.767q-.255.497-.262 1.2m14.33 10.625q-1.47 0-2.521-.405-1.044-.398-1.662-1.086a3.36 3.36 0 0 1-.803-1.549l2.799-.376q.128.327.405.611.276.284.731.454.462.178 1.122.178.987 0 1.627-.483.646-.476.646-1.598v-1.996h-.128a2.9 2.9 0 0 1-.596.86q-.398.404-1.023.66t-1.492.256q-1.229 0-2.237-.568-1-.576-1.598-1.755-.59-1.185-.589-2.997 0-1.854.603-3.096.605-1.243 1.605-1.861a4.15 4.15 0 0 1 2.209-.618q.916 0 1.534.312.618.306.995.767.383.455.589.895h.114v-1.832h3.004v11.016q0 1.392-.682 2.329-.681.938-1.889 1.406-1.2.476-2.763.476m.064-6.747q.732 0 1.236-.362.511-.37.781-1.051.277-.69.277-1.648 0-.959-.27-1.662-.27-.71-.781-1.101-.511-.39-1.243-.39-.745 0-1.257.404-.512.399-.774 1.108-.263.711-.263 1.641 0 .945.263 1.633.27.682.774 1.059.512.369 1.257.369m17.278 2.642q-1.683 0-2.898-.682a4.67 4.67 0 0 1-1.86-1.946q-.654-1.264-.654-2.99 0-1.683.654-2.954a4.83 4.83 0 0 1 1.839-1.982q1.194-.71 2.798-.71 1.08 0 2.01.348.938.34 1.634 1.03.703.689 1.094 1.733.39 1.037.39 2.429v.831h-9.211v-1.875h6.363q0-.654-.284-1.158a2.03 2.03 0 0 0-.788-.788 2.24 2.24 0 0 0-1.158-.292q-.688 0-1.221.32-.526.312-.824.845a2.4 2.4 0 0 0-.306 1.172v1.783q0 .809.299 1.399.305.59.859.909.553.32 1.314.32.504 0 .923-.143.42-.141.718-.426.298-.284.454-.696l2.798.185a3.8 3.8 0 0 1-.873 1.761q-.654.747-1.691 1.165-1.029.412-2.379.412m6.982-.213v-10.909h2.883v1.925h.128a3.02 3.02 0 0 1 1.136-1.513q.796-.554 1.904-.554 1.122 0 1.91.561.788.554 1.052 1.506h.113a2.9 2.9 0 0 1 1.208-1.499q.88-.568 2.081-.568 1.527 0 2.478.973.959.966.959 2.741V354h-3.018v-6.74q0-.91-.483-1.364t-1.208-.454q-.824 0-1.285.525-.462.519-.462 1.371V354h-2.933v-6.804q0-.803-.462-1.278-.455-.476-1.2-.476a1.67 1.67 0 0 0-.909.255 1.76 1.76 0 0 0-.632.704q-.235.447-.235 1.051V354zm21.353.206q-1.044 0-1.861-.362a3 3 0 0 1-1.293-1.087q-.468-.724-.468-1.804 0-.909.333-1.527a2.7 2.7 0 0 1 .909-.994 4.4 4.4 0 0 1 1.307-.568 10 10 0 0 1 1.549-.27 40 40 0 0 0 1.534-.185q.582-.091.845-.27.263-.177.263-.525v-.043q0-.675-.426-1.044-.42-.369-1.194-.369-.816 0-1.299.362a1.67 1.67 0 0 0-.64.895l-2.798-.227a3.8 3.8 0 0 1 .838-1.719q.625-.732 1.612-1.122.994-.399 2.302-.398.909 0 1.74.213a4.6 4.6 0 0 1 1.484.66q.654.448 1.03 1.151.376.696.376 1.669V354h-2.869v-1.513h-.085q-.264.512-.703.902a3.3 3.3 0 0 1-1.059.604q-.617.213-1.427.213m.866-2.088q.668 0 1.179-.263.512-.27.803-.724a1.87 1.87 0 0 0 .291-1.03v-1.158a1.6 1.6 0 0 1-.391.171 7 7 0 0 1-.547.135q-.305.056-.61.106l-.554.078a3.7 3.7 0 0 0-.931.249 1.5 1.5 0 0 0-.618.461q-.22.285-.22.711 0 .617.448.944.454.32 1.15.32m7.625 1.882v-10.909h3.025V354zm1.519-12.315q-.674 0-1.157-.448a1.45 1.45 0 0 1-.476-1.086q0-.626.476-1.073a1.63 1.63 0 0 1 1.157-.454q.675 0 1.151.454.483.447.483 1.073 0 .632-.483 1.086a1.62 1.62 0 0 1-1.151.448m6.955-2.23V354h-3.025v-14.545zm-102.554 42.863q-1.47 0-2.521-.405-1.044-.398-1.662-1.086a3.35 3.35 0 0 1-.803-1.549l2.799-.376q.128.327.404.611.277.284.732.454.462.178 1.122.178.987 0 1.627-.483.645-.476.646-1.598v-1.996h-.128q-.199.455-.597.86t-1.022.66-1.492.256q-1.229 0-2.237-.568-1.002-.576-1.598-1.755-.59-1.185-.589-2.997 0-1.854.603-3.096.604-1.243 1.605-1.861a4.15 4.15 0 0 1 2.209-.618q.916 0 1.534.312.618.306.995.767.383.455.589.895h.114v-1.832h3.004v11.016q0 1.392-.682 2.329-.681.938-1.889 1.406-1.2.476-2.763.476m.064-6.747q.732 0 1.236-.362.511-.37.781-1.051.277-.69.277-1.648 0-.959-.27-1.662-.27-.71-.781-1.101-.511-.39-1.243-.39-.745 0-1.257.404-.512.399-.774 1.108-.263.711-.263 1.641 0 .945.263 1.633.27.682.774 1.059.512.369 1.257.369m10.788 2.635q-1.044 0-1.86-.362a3 3 0 0 1-1.293-1.087q-.469-.724-.469-1.804 0-.909.334-1.527a2.7 2.7 0 0 1 .909-.994 4.4 4.4 0 0 1 1.307-.568 10 10 0 0 1 1.548-.27 40 40 0 0 0 1.534-.185q.583-.091.846-.27.262-.177.262-.525v-.043q0-.675-.426-1.044-.419-.369-1.193-.369-.817 0-1.3.362a1.67 1.67 0 0 0-.639.895l-2.798-.227a3.8 3.8 0 0 1 .838-1.719q.625-.732 1.612-1.122.994-.399 2.301-.398.909 0 1.74.213a4.6 4.6 0 0 1 1.485.66 3.2 3.2 0 0 1 1.029 1.151q.377.696.377 1.669V378h-2.869v-1.513h-.086a3.1 3.1 0 0 1-.703.902 3.3 3.3 0 0 1-1.058.604q-.618.213-1.428.213m.867-2.088q.667 0 1.179-.263.511-.27.802-.724.292-.455.292-1.03v-1.158a1.6 1.6 0 0 1-.391.171 7 7 0 0 1-.547.135q-.305.056-.611.106l-.554.078a3.7 3.7 0 0 0-.93.249 1.5 1.5 0 0 0-.618.461q-.22.285-.22.711 0 .617.447.944.455.32 1.151.32m13.427-9.027v2.273h-6.57v-2.273zm-5.078-2.614h3.025v10.171q0 .419.128.653a.7.7 0 0 0 .355.32q.234.092.54.092.213 0 .426-.035.213-.043.327-.064l.476 2.251a9 9 0 0 1-.64.163 5 5 0 0 1-1.001.121q-1.093.043-1.918-.291a2.7 2.7 0 0 1-1.271-1.037q-.455-.703-.447-1.776zm11.903 13.736q-1.683 0-2.898-.682a4.67 4.67 0 0 1-1.861-1.946q-.653-1.264-.653-2.99 0-1.683.653-2.954a4.83 4.83 0 0 1 1.84-1.982q1.193-.71 2.798-.71 1.08 0 2.01.348.938.34 1.634 1.03.702.689 1.093 1.733.391 1.037.391 2.429v.831h-9.212v-1.875h6.364q0-.654-.284-1.158a2.03 2.03 0 0 0-.788-.788 2.24 2.24 0 0 0-1.158-.292q-.688 0-1.222.32-.525.312-.823.845a2.4 2.4 0 0 0-.306 1.172v1.783q0 .809.298 1.399.306.59.86.909t1.314.32q.504 0 .923-.143.419-.141.717-.426.299-.284.455-.696l2.798.185a3.8 3.8 0 0 1-.873 1.761q-.654.747-1.691 1.165-1.029.412-2.379.412m9.055-.213-2.968-10.909h3.061l1.69 7.329h.1l1.761-7.329h3.004l1.79 7.287h.092l1.662-7.287h3.054L744.563 378h-3.204l-1.875-6.861h-.135L737.474 378zm17.971.206q-1.044 0-1.861-.362a3 3 0 0 1-1.292-1.087q-.47-.724-.469-1.804 0-.909.334-1.527.333-.618.909-.994a4.4 4.4 0 0 1 1.307-.568 10 10 0 0 1 1.548-.27 40 40 0 0 0 1.534-.185q.582-.091.845-.27.263-.177.263-.525v-.043q0-.675-.426-1.044-.42-.369-1.193-.369-.817 0-1.3.362a1.67 1.67 0 0 0-.639.895l-2.799-.227a3.8 3.8 0 0 1 .838-1.719q.625-.732 1.613-1.122.994-.399 2.301-.398.909 0 1.74.213a4.6 4.6 0 0 1 1.484.66q.654.448 1.03 1.151.376.696.376 1.669V378h-2.869v-1.513h-.085q-.263.512-.703.902a3.3 3.3 0 0 1-1.058.604q-.618.213-1.428.213m.866-2.088q.668 0 1.179-.263.512-.27.803-.724a1.87 1.87 0 0 0 .291-1.03v-1.158a1.6 1.6 0 0 1-.39.171 8 8 0 0 1-.547.135 34 34 0 0 1-.611.106l-.554.078a3.7 3.7 0 0 0-.931.249 1.5 1.5 0 0 0-.617.461q-.22.285-.221.711 0 .617.448.944.454.32 1.15.32m9.102 5.973q-.575 0-1.08-.092a4 4 0 0 1-.823-.221l.681-2.258q.533.163.959.177.434.015.746-.198.32-.213.518-.725l.178-.462-3.913-11.221h3.181l2.259 8.011h.114l2.279-8.011h3.204l-4.241 12.088a5.1 5.1 0 0 1-.83 1.534q-.519.66-1.314 1.016-.796.362-1.918.362m-78.989 12.636q0-2.67.703-4.915a14.6 14.6 0 0 1 2.053-4.14h1.946q-.526.703-.98 1.726t-.796 2.244q-.341 1.215-.532 2.521a17.5 17.5 0 0 0-.192 2.564q0 1.69.334 3.424.333 1.732.902 3.217.567 1.484 1.264 2.422h-1.946a14.7 14.7 0 0 1-2.053-4.141q-.702-2.244-.703-4.922m19.746 0q0 2.33-.852 4.006-.852 1.67-2.337 2.571-1.477.895-3.359.895-1.89 0-3.374-.895-1.477-.902-2.329-2.578t-.852-3.999q0-2.33.852-3.998.852-1.677 2.329-2.571 1.485-.903 3.374-.902 1.882 0 3.359.902 1.485.894 2.337 2.571.852 1.668.852 3.998m-2.173 0q0-1.775-.575-2.99-.568-1.222-1.563-1.846-.987-.633-2.237-.632-1.257 0-2.244.632-.987.624-1.563 1.846-.568 1.215-.568 2.99t.568 2.997q.576 1.215 1.563 1.847.987.625 2.244.625 1.25 0 2.237-.625.995-.632 1.563-1.847.575-1.221.575-2.997m4.739 11.364v-15h2.074v1.768h.177a6 6 0 0 1 .533-.788q.348-.447.966-.781.618-.341 1.633-.341 1.322 0 2.358.667 1.038.669 1.627 1.925.597 1.257.596 3.026 0 1.769-.589 3.032-.59 1.258-1.619 1.939-1.03.675-2.351.675-.994 0-1.627-.334-.624-.333-.98-.781a6 6 0 0 1-.547-.795h-.127v5.788zm2.081-9.546q0 1.151.334 2.017.333.867.966 1.357.631.483 1.548.483.952 0 1.591-.504.639-.512.966-1.385.334-.874.334-1.968 0-1.08-.327-1.938-.32-.86-.966-1.357-.64-.497-1.598-.497-.923 0-1.563.476-.632.476-.958 1.328-.327.852-.327 1.988m15.355-5.454v1.704h-5.959v-1.704zm-4.361-2.614h2.124v10.32q0 .618.184.93a.96.96 0 0 0 .476.419q.299.107.647.107.255 0 .447-.036t.298-.056l.384 1.754a4 4 0 0 1-.526.142 4 4 0 0 1-.852.085 3.7 3.7 0 0 1-1.562-.298 2.7 2.7 0 0 1-1.172-.966q-.448-.654-.448-1.641zm6.71 13.523v-10.909h2.124V402zm1.073-12.592q-.555 0-.952-.37a1.2 1.2 0 0 1-.391-.895q0-.525.391-.894.397-.377.952-.377t.944.377q.398.369.398.894 0 .519-.398.895a1.32 1.32 0 0 1-.944.37m8.503 12.812q-1.534 0-2.678-.703t-1.775-1.967-.632-2.955q0-1.697.632-2.969.632-1.27 1.775-1.974 1.144-.703 2.678-.703t2.677.703 1.776 1.974.632 2.969q0 1.69-.632 2.955-.632 1.264-1.776 1.967-1.143.703-2.677.703m.007-1.782q.994 0 1.648-.526t.965-1.399q.32-.874.32-1.925 0-1.044-.32-1.918-.312-.88-.965-1.413-.654-.533-1.648-.533-1.002 0-1.662.533-.654.532-.973 1.413a5.7 5.7 0 0 0-.313 1.918q0 1.051.313 1.925.32.873.973 1.399.66.526 1.662.526m9.572-4.915V402h-2.124v-10.909h2.039v1.775h.135a3.13 3.13 0 0 1 1.179-1.392q.809-.525 2.038-.525 1.115 0 1.953.469.838.461 1.3 1.377.461.916.461 2.266V402h-2.123v-6.683q0-1.186-.618-1.854-.618-.675-1.697-.675-.74 0-1.314.32-.569.32-.902.937-.327.612-.327 1.478m13.004 6.718q-1.037 0-1.875-.383a3.16 3.16 0 0 1-1.328-1.129q-.483-.739-.483-1.811 0-.924.355-1.52.356-.597.959-.945a5 5 0 0 1 1.349-.525 13 13 0 0 1 1.52-.27l1.591-.185q.61-.078.888-.249.277-.17.277-.554v-.049q0-.931-.526-1.442-.517-.511-1.548-.511-1.072 0-1.69.475-.61.47-.845 1.045l-1.996-.455q.355-.994 1.037-1.605.689-.618 1.584-.895a6.2 6.2 0 0 1 1.882-.284q.653 0 1.385.156.738.15 1.378.554.645.405 1.058 1.158.412.745.412 1.939V402h-2.074v-1.491h-.085a3 3 0 0 1-.618.809 3.3 3.3 0 0 1-1.058.661q-.646.262-1.549.262m.462-1.704q.88 0 1.506-.348.632-.348.958-.909.334-.569.334-1.215v-1.406q-.114.114-.44.213a7 7 0 0 1-.732.164l-.802.12-.654.085q-.618.079-1.129.263a1.94 1.94 0 0 0-.81.533q-.298.34-.298.909 0 .788.582 1.193.583.398 1.485.398m9.874-13.082V402h-2.124v-14.545zm6.94 8.508q0 2.678-.703 4.922a14.7 14.7 0 0 1-2.052 4.141h-1.946q.525-.703.98-1.726t.795-2.238q.341-1.221.533-2.528t.192-2.571q0-1.683-.334-3.416a19 19 0 0 0-.902-3.217q-.568-1.485-1.264-2.422h1.946a14.6 14.6 0 0 1 2.052 4.14q.703 2.245.703 4.915m128.947-107.256a1 1 0 0 0 0-1.414l-6.364-6.364a.999.999 0 1 0-1.414 1.414l5.657 5.657-5.657 5.657a.999.999 0 1 0 1.414 1.414zM903 287h-60v2h60zm345.71 1.707a1 1 0 0 0 0-1.414l-6.37-6.364a.994.994 0 0 0-1.41 0 1 1 0 0 0 0 1.414l5.66 5.657-5.66 5.657a1 1 0 0 0 0 1.414.994.994 0 0 0 1.41 0zM1248 287h-60v2h60z"/><path fill="url(#paint0_radial_92_38)" d="m1090.42 238.682-.37.223c-.58.356-1.14.753-1.65 1.187l1.06-.749h9.04l1.64 12.439-8.21 8.213-8.22 5.709v6.584c0 4.598 2.41 8.862 6.34 11.243l8.65 5.233-18.27 10.657h-3.53l-6.56-3.975a13.13 13.13 0 0 1-6.34-11.242v-22.138c0-4.599 2.4-8.864 6.34-11.245l19.71-11.924c.13-.074.25-.145.37-.215"/><path fill="url(#paint1_linear_92_38)" d="m1090.42 238.682-.37.223c-.58.356-1.14.753-1.65 1.187l1.06-.749h9.04l1.64 12.439-8.21 8.213-8.22 5.709v6.584c0 4.598 2.41 8.862 6.34 11.243l8.65 5.233-18.27 10.657h-3.53l-6.56-3.975a13.13 13.13 0 0 1-6.34-11.242v-22.138c0-4.599 2.4-8.864 6.34-11.245l19.71-11.924c.13-.074.25-.145.37-.215"/><path fill="url(#paint2_radial_92_38)" d="M1110 264.923v7.36c0 4.598-2.41 8.862-6.34 11.243l-19.71 11.932a13.16 13.16 0 0 1-13.16.265l19.26 11.655a13.14 13.14 0 0 0 13.61 0l19.71-11.932a13.13 13.13 0 0 0 6.34-11.243v-5.316l-1.64-2.464z"/><path fill="url(#paint3_linear_92_38)" d="M1110 264.923v7.36c0 4.598-2.41 8.862-6.34 11.243l-19.71 11.932a13.16 13.16 0 0 1-13.16.265l19.26 11.655a13.14 13.14 0 0 0 13.61 0l19.71-11.932a13.13 13.13 0 0 0 6.34-11.243v-5.316l-1.64-2.464z"/><path fill="url(#paint4_radial_92_38)" d="m1123.37 250.821-19.71-11.924a13.16 13.16 0 0 0-13.22-.228l-.39.237a13.15 13.15 0 0 0-6.34 11.245v15.58l6.34-3.835c4.18-2.53 9.42-2.53 13.61 0l19.71 11.923a13.14 13.14 0 0 1 6.33 10.815c.01-.143.01-.287.01-.431v-22.137c0-4.6-2.4-8.865-6.34-11.245"/><path fill="url(#paint5_linear_92_38)" d="m1123.37 250.821-19.71-11.924a13.16 13.16 0 0 0-13.22-.228l-.39.237a13.15 13.15 0 0 0-6.34 11.245v15.58l6.34-3.835c4.18-2.53 9.42-2.53 13.61 0l19.71 11.923a13.14 13.14 0 0 1 6.33 10.815c.01-.143.01-.287.01-.431v-22.137c0-4.6-2.4-8.865-6.34-11.245"/><path fill="#4285f4" d="M967.526 303.798h12.893v-31.312L962 258.672v39.6a5.525 5.525 0 0 0 5.526 5.526"/><path fill="#34a853" d="M1024.62 303.798h12.9c3.05 0 5.52-2.478 5.52-5.526v-39.6l-18.42 13.814"/><path fill="#fbbc04" d="M1024.62 248.542v23.944l18.42-13.814v-7.368c0-6.833-7.8-10.729-13.26-6.63"/><path fill="#ea4335" d="M980.418 272.486v-23.944l22.102 16.576 22.1-16.576v23.944l-22.1 16.576"/><path fill="#c5221f" d="M962 251.304v7.368l18.419 13.813v-23.944l-5.158-3.868c-5.47-4.098-13.261-.202-13.261 6.631"/><path fill="#000" d="M485.812 306.455h3.792l4.006 9.772h.17l4.006-9.772h3.793V321h-2.983v-9.467h-.121l-3.764 9.396h-2.032l-3.764-9.432h-.121V321h-2.982zm21.184 0 2.933 4.957h.114l2.947-4.957h3.473l-4.439 7.272 4.539 7.273h-3.537l-2.983-4.964h-.114L506.946 321h-3.523l4.553-7.273-4.467-7.272zM522.981 321v-10.909h2.934v1.903h.113q.298-1.015 1.002-1.534a2.63 2.63 0 0 1 1.619-.525 4.6 4.6 0 0 1 .952.106v2.685a4 4 0 0 0-.59-.114 5 5 0 0 0-.689-.05 2.4 2.4 0 0 0-1.193.292 2.14 2.14 0 0 0-.824.795 2.3 2.3 0 0 0-.298 1.179V321zm12.648.213q-1.683 0-2.898-.682a4.67 4.67 0 0 1-1.861-1.946q-.653-1.264-.653-2.99 0-1.683.653-2.954a4.83 4.83 0 0 1 1.84-1.982q1.193-.71 2.798-.71 1.08 0 2.01.348.937.34 1.633 1.03.704.689 1.094 1.733.391 1.037.391 2.429v.831h-9.212v-1.875h6.364q0-.654-.284-1.158a2.04 2.04 0 0 0-.789-.788q-.497-.292-1.157-.292-.69 0-1.222.32-.525.312-.824.845a2.4 2.4 0 0 0-.305 1.172v1.783q0 .809.298 1.399.306.59.859.909.555.32 1.314.32.505 0 .924-.143.419-.141.717-.426.298-.284.455-.696l2.798.185a3.8 3.8 0 0 1-.874 1.761q-.653.747-1.69 1.165-1.03.412-2.379.412m11.91 0q-1.675 0-2.883-.71a4.8 4.8 0 0 1-1.847-1.989q-.639-1.271-.639-2.926 0-1.675.646-2.94a4.8 4.8 0 0 1 1.854-1.982q1.2-.717 2.855-.717 1.428 0 2.5.518a4.2 4.2 0 0 1 1.697 1.456q.626.938.689 2.202h-2.855q-.12-.817-.639-1.314-.511-.504-1.342-.504-.704 0-1.229.383-.519.376-.81 1.101t-.291 1.754q0 1.044.284 1.776.291.731.817 1.115.525.384 1.229.384.517 0 .93-.213.419-.214.689-.618.277-.412.362-.988h2.855q-.07 1.251-.681 2.202a4.1 4.1 0 0 1-1.67 1.477q-1.065.534-2.521.533m11.738 0q-1.654 0-2.862-.703a4.8 4.8 0 0 1-1.853-1.974q-.654-1.272-.654-2.948 0-1.69.654-2.954a4.75 4.75 0 0 1 1.853-1.975q1.207-.71 2.862-.71t2.856.71a4.74 4.74 0 0 1 1.86 1.975q.654 1.263.654 2.954 0 1.676-.654 2.948a4.8 4.8 0 0 1-1.86 1.974q-1.2.703-2.856.703m.015-2.344q.753 0 1.257-.426.504-.433.76-1.179.262-.746.262-1.697t-.262-1.698q-.256-.745-.76-1.179-.504-.433-1.257-.433-.76 0-1.279.433-.511.433-.774 1.179-.255.745-.256 1.698 0 .951.256 1.697.263.745.774 1.179.519.426 1.279.426m7.322 2.131v-10.909h2.933v1.903h.114q.299-1.015 1.001-1.534a2.64 2.64 0 0 1 1.62-.525q.227 0 .49.028.263.029.461.078v2.685a4 4 0 0 0-.589-.114 5 5 0 0 0-.689-.05 2.4 2.4 0 0 0-1.193.292 2.14 2.14 0 0 0-.824.795 2.3 2.3 0 0 0-.298 1.179V321zm11.696.178a4.1 4.1 0 0 1-2.252-.64q-1.001-.646-1.591-1.896-.582-1.257-.582-3.082 0-1.875.604-3.118.603-1.25 1.605-1.868a4.1 4.1 0 0 1 2.209-.625q.915 0 1.527.312.618.306.994.767.384.455.582.895h.093v-5.468h3.018V321h-2.983v-1.747h-.128a4 4 0 0 1-.603.902 3 3 0 0 1-1.002.731q-.61.291-1.491.292m.959-2.408q.73 0 1.235-.398.512-.405.782-1.129.276-.724.277-1.698 0-.973-.27-1.69t-.782-1.108q-.51-.39-1.242-.39-.747 0-1.258.404-.51.405-.774 1.123-.262.717-.262 1.661 0 .952.262 1.684.27.724.774 1.136.511.405 1.258.405"/><path stroke="#6ecce5" stroke-dasharray="10 10" stroke-width="2" d="M34 97h1382v1018H34z"/><g clip-path="url(#clip0_92_38)"><path fill="#6ecce5" d="M65.538 77.063H41.886A8.906 8.906 0 0 1 33 68.176a9.13 9.13 0 0 1 3.25-6.894 8.5 8.5 0 0 1 6.058-1.993 12.055 12.055 0 0 1 23.108 2.867 7.26 7.26 0 0 1 5 1.702 7.528 7.528 0 0 1-4.875 13.203zM41.746 61.77a5.97 5.97 0 0 0-3.889 1.426 6.6 6.6 0 0 0-2.357 4.98 6.397 6.397 0 0 0 6.368 6.386h23.67A4.97 4.97 0 0 0 70.5 69.6a5.07 5.07 0 0 0-1.705-3.838 5.18 5.18 0 0 0-4.321-1.011l-1.409.227-.04-1.426a9.553 9.553 0 0 0-18.678-2.538l-.324 1.054-1.086-.192a7 7 0 0 0-1.191-.105"/></g><path fill="#222" d="M88.34 57.455V72h-3.076V57.455zm5.278 8.238V72h-3.025V61.09h2.883v1.926h.128a3.04 3.04 0 0 1 1.215-1.506q.852-.561 2.066-.561 1.137 0 1.982.497a3.4 3.4 0 0 1 1.314 1.42q.469.916.469 2.188V72h-3.026v-6.406q.007-1.002-.511-1.563-.519-.568-1.428-.568a2.17 2.17 0 0 0-1.08.263q-.461.262-.724.767-.255.496-.263 1.2m14.999-4.602v2.273h-6.57V61.09zm-5.078-2.614h3.025v10.17q0 .42.128.654a.7.7 0 0 0 .355.32q.234.092.54.092.213 0 .426-.035.213-.043.327-.064l.476 2.251a9 9 0 0 1-.64.163 5 5 0 0 1-1.001.121q-1.093.043-1.918-.291a2.7 2.7 0 0 1-1.271-1.037q-.454-.703-.447-1.775zm11.683 13.736q-1.683 0-2.898-.682a4.66 4.66 0 0 1-1.86-1.946q-.654-1.265-.654-2.99 0-1.683.654-2.954a4.8 4.8 0 0 1 1.839-1.982q1.194-.71 2.798-.71 1.08 0 2.01.348a4.5 4.5 0 0 1 1.634 1.03q.703.689 1.094 1.733.39 1.035.39 2.429v.83h-9.211v-1.874h6.363q0-.654-.284-1.158a2.03 2.03 0 0 0-.788-.788 2.25 2.25 0 0 0-1.158-.292q-.688 0-1.222.32-.525.312-.823.845-.299.525-.306 1.172v1.783q0 .81.299 1.399.305.59.859.909t1.314.32q.504 0 .923-.142a1.9 1.9 0 0 0 .717-.427 1.85 1.85 0 0 0 .455-.696l2.798.185a3.8 3.8 0 0 1-.873 1.761q-.654.747-1.691 1.165-1.029.412-2.379.412m6.762-.213V61.09h2.933v1.904h.114q.297-1.015 1.001-1.534a2.63 2.63 0 0 1 1.619-.525 4.6 4.6 0 0 1 .952.106v2.685a4 4 0 0 0-.59-.114q-.376-.05-.688-.05-.668 0-1.194.292-.518.284-.824.795a2.3 2.3 0 0 0-.298 1.18V72zm10.989-6.307V72h-3.026V61.09h2.884v1.926h.128a3.04 3.04 0 0 1 1.214-1.506q.852-.561 2.067-.561 1.136 0 1.981.497a3.37 3.37 0 0 1 1.314 1.42q.47.916.469 2.188V72h-3.026v-6.406q.008-1.002-.511-1.563-.518-.568-1.427-.568a2.17 2.17 0 0 0-1.08.263q-.462.262-.724.767-.256.496-.263 1.2m14.167 6.52q-1.683 0-2.897-.682a4.67 4.67 0 0 1-1.861-1.946q-.654-1.265-.654-2.99 0-1.683.654-2.954a4.8 4.8 0 0 1 1.839-1.982q1.194-.71 2.798-.71 1.08 0 2.01.348a4.5 4.5 0 0 1 1.634 1.03q.703.689 1.094 1.733.39 1.035.39 2.429v.83h-9.211v-1.874h6.363q0-.654-.284-1.158a2.03 2.03 0 0 0-.788-.788 2.25 2.25 0 0 0-1.158-.292q-.689 0-1.221.32-.526.312-.824.845-.298.525-.306 1.172v1.783q0 .81.299 1.399.305.59.859.909t1.314.32q.504 0 .923-.142t.718-.427q.297-.284.454-.696l2.798.185a3.8 3.8 0 0 1-.873 1.761q-.654.747-1.691 1.165-1.029.412-2.379.412m12.564-11.122v2.273h-6.569V61.09zm-5.078-2.614h3.026v10.17q0 .42.128.654a.7.7 0 0 0 .355.32q.234.092.539.092.214 0 .427-.035.213-.043.326-.064l.476 2.251a8 8 0 0 1-.639.163 5 5 0 0 1-1.001.121q-1.095.043-1.918-.291a2.67 2.67 0 0 1-1.271-1.037q-.455-.703-.448-1.775z"/><path fill="#fff" stroke="#f6821f" stroke-width="2" d="M1077 594h139v146h-139z"/><path fill="#fff" stroke="#f6821f" stroke-miterlimit="10" stroke-width="2" d="M1094.21 676.09v4.315l96.42-.006v-4.314z"/><path fill="#fff3d2" stroke="#f6821f" stroke-miterlimit="10" stroke-width="2" d="M1196.54 647.623H1088.3v28.464h108.24z"/><path fill="#fff" d="M1191.86 671.743v-19.777h-98.89v19.777z"/><path fill="#f6821f" d="M1101 659.706a2.01 2.01 0 1 0 0-4.02 2.01 2.01 0 0 0 0 4.02"/><path stroke="#f6821f" stroke-miterlimit="10" stroke-width="2" d="M1109.1 664.199h-10.35m38.2 3.378h-38.2m51.9 0h-9.05"/><g clip-path="url(#clip1_92_38)"><path fill="#f6821f" d="M1184.22 668.074h-12.72a4.78 4.78 0 0 1-3.37-1.402 4.75 4.75 0 0 1-1.4-3.375c0-.707.16-1.405.46-2.044.31-.64.74-1.207 1.28-1.662a4.6 4.6 0 0 1 3.26-1.072 6.5 6.5 0 0 1 2.72-3.15 6.5 6.5 0 0 1 4.08-.842c1.42.176 2.74.813 3.75 1.814a6.4 6.4 0 0 1 1.87 3.72c.98-.044 1.94.283 2.69.914.62.54 1.06 1.254 1.26 2.05a4.03 4.03 0 0 1-1.59 4.312c-.67.472-1.47.729-2.29.737m-12.79-8.221c-.77-.002-1.51.27-2.09.767a3.6 3.6 0 0 0-.93 1.2c-.22.462-.33.966-.34 1.477 0 .908.36 1.779 1 2.423a3.47 3.47 0 0 0 2.42 1.01h12.73c.71 0 1.38-.282 1.88-.782s.79-1.179.79-1.886a2.76 2.76 0 0 0-.92-2.063 2.77 2.77 0 0 0-2.32-.544l-.76.122-.02-.767a5.13 5.13 0 0 0-1.32-3.285 5.124 5.124 0 0 0-6.58-.895 5.07 5.07 0 0 0-2.14 2.816l-.18.567-.58-.103a3.6 3.6 0 0 0-.64-.057"/></g><path fill="#fff" stroke="#f6821f" stroke-miterlimit="10" stroke-width="2" d="M1094.21 643.251v4.314l96.42-.005v-4.314z"/><path fill="#fff3d2" stroke="#f6821f" stroke-miterlimit="10" stroke-width="2" d="M1196.54 620.479H1088.3v22.769h108.24z"/><path fill="#fff" d="M1191.86 638.904v-14.081h-98.89v14.081z"/><path fill="#f6821f" d="M1101 633.231a1.34 1.34 0 1 0 0-2.68 1.34 1.34 0 0 0 0 2.68m4.86 0a1.34 1.34 0 1 0 0-2.68 1.34 1.34 0 0 0 0 2.68m6.91 1.675c1.66 0 3.01-1.35 3.01-3.015a3.014 3.014 0 1 0-6.03 0 3.016 3.016 0 0 0 3.02 3.015"/><path stroke="#f6821f" stroke-miterlimit="10" stroke-width="2" d="M1185.42 634.737h-31.5m-3.27 0h-9.05"/><path stroke="#fbad41" stroke-miterlimit="10" stroke-width="2" d="M1185.56 631.193h-9.05m9.05-2.986h-9.05"/><path fill="#222" d="M1121.62 707.638c-.06-.573-.3-1.018-.74-1.335-.43-.318-1.01-.476-1.75-.476-.5 0-.93.071-1.27.213-.35.137-.61.329-.8.575q-.27.37-.27.838c-.01.261.05.488.17.682s.29.362.5.504c.21.138.46.258.74.362.28.1.58.185.89.256l1.31.313c.64.142 1.22.331 1.75.568q.795.356 1.38.873c.38.346.69.753.9 1.222q.33.703.33 1.612c0 .89-.23 1.662-.68 2.316-.44.648-1.09 1.152-1.93 1.512q-1.26.533-3.03.533c-1.18 0-2.2-.18-3.07-.54s-1.55-.892-2.03-1.598c-.49-.71-.74-1.588-.76-2.635h2.97q.06.732.42 1.222c.25.322.59.566 1 .731.42.161.9.242 1.43.242.52 0 .97-.076 1.36-.227q.585-.228.9-.633c.21-.269.32-.58.32-.93 0-.327-.1-.601-.29-.824q-.285-.333-.84-.568a9 9 0 0 0-1.34-.426l-1.59-.398c-1.22-.298-2.19-.765-2.9-1.399s-1.06-1.489-1.06-2.564c0-.881.23-1.65.7-2.308.48-.658 1.14-1.172 1.97-1.541.83-.37 1.78-.554 2.84-.554 1.08 0 2.02.184 2.83.554q1.215.554 1.89 1.541t.69 2.287zm10.13 10.575c-1.13 0-2.09-.227-2.9-.682a4.6 4.6 0 0 1-1.86-1.946q-.66-1.264-.66-2.99 0-1.683.66-2.954a4.8 4.8 0 0 1 1.84-1.982q1.185-.71 2.79-.71 1.08 0 2.01.348c.63.227 1.17.57 1.64 1.03.47.459.83 1.037 1.09 1.733q.39 1.037.39 2.429v.831h-9.21v-1.875h6.36c0-.436-.09-.822-.28-1.158a2 2 0 0 0-.79-.788c-.33-.195-.72-.292-1.16-.292-.45 0-.86.107-1.22.32-.35.208-.62.49-.82.845-.2.351-.3.741-.31 1.172v1.783q0 .809.3 1.399c.21.393.49.696.86.909q.555.32 1.32.32c.33 0 .64-.048.92-.143q.42-.141.72-.426c.19-.189.35-.421.45-.696l2.8.185a3.7 3.7 0 0 1-.88 1.761c-.43.498-.99.886-1.69 1.165q-1.02.412-2.37.412m6.98-.213v-10.909h2.93v1.903h.11c.2-.677.54-1.188 1.01-1.534.46-.35 1-.525 1.61-.525a4.4 4.4 0 0 1 .96.106v2.685a4 4 0 0 0-.59-.114q-.375-.05-.69-.05c-.45 0-.84.098-1.2.292-.34.189-.62.454-.82.795q-.3.512-.3 1.179V718zm18.68-10.909L1153.6 718h-3.41l-3.81-10.909h3.19l2.27 7.805h.11l2.26-7.805zm6.17 11.122c-1.12 0-2.09-.227-2.9-.682a4.7 4.7 0 0 1-1.86-1.946c-.43-.843-.65-1.839-.65-2.99 0-1.122.22-2.107.65-2.954a4.87 4.87 0 0 1 1.84-1.982c.8-.473 1.73-.71 2.8-.71q1.08 0 2.01.348c.63.227 1.17.57 1.63 1.03.47.459.84 1.037 1.1 1.733q.39 1.037.39 2.429v.831h-9.21v-1.875h6.36c0-.436-.09-.822-.28-1.158a2.1 2.1 0 0 0-.79-.788c-.33-.195-.72-.292-1.16-.292a2.31 2.31 0 0 0-2.05 1.165c-.19.351-.3.741-.3 1.172v1.783q0 .809.3 1.399c.2.393.49.696.86.909s.8.32 1.31.32c.34 0 .64-.048.92-.143q.42-.141.72-.426c.2-.189.35-.421.46-.696l2.79.185a3.8 3.8 0 0 1-.87 1.761c-.43.498-1 .886-1.69 1.165-.69.275-1.48.412-2.38.412m6.98-.213v-10.909h2.94v1.903h.11c.2-.677.53-1.188 1-1.534a2.64 2.64 0 0 1 1.62-.525 4.5 4.5 0 0 1 .95.106v2.685a4 4 0 0 0-.59-.114q-.375-.05-.69-.05c-.44 0-.84.098-1.19.292-.35.189-.62.454-.82.795q-.3.512-.3 1.179V718z"/><path stroke="#ffa629" stroke-dasharray="10 10" stroke-width="2" d="M548 668h460v350H548z"/><path stroke="#ffa629" stroke-linecap="round" stroke-linejoin="bevel" stroke-width="3" d="M1319.39 356.963V1056c0 13.25-10.75 24-24 24H802c-13.255 0-24-10.75-24-24v-33"/><path fill="#fff" d="M498 527h322v48H498z"/><path fill="#222" d="M532.557 547.875h-4.977a4.9 4.9 0 0 0-.557-1.716 4.4 4.4 0 0 0-1.08-1.295 4.8 4.8 0 0 0-1.523-.819 5.8 5.8 0 0 0-1.852-.284q-1.806 0-3.148.898-1.34.887-2.079 2.591-.74 1.693-.739 4.114 0 2.489.739 4.181.75 1.694 2.091 2.557 1.341.864 3.102.864a6.2 6.2 0 0 0 1.83-.261 4.8 4.8 0 0 0 1.511-.762 4.4 4.4 0 0 0 1.091-1.238q.443-.727.614-1.66l4.977.023a9 9 0 0 1-.966 3.091 9.3 9.3 0 0 1-2.057 2.648q-1.284 1.159-3.068 1.841-1.773.67-4.011.67-3.114 0-5.569-1.409-2.442-1.409-3.863-4.079-1.41-2.671-1.409-6.466 0-3.807 1.431-6.478t3.887-4.068q2.454-1.409 5.523-1.409 2.022 0 3.75.568a9.5 9.5 0 0 1 3.079 1.659 8.55 8.55 0 0 1 2.182 2.648q.852 1.569 1.091 3.591m7.67-8.148V563h-4.841v-23.273zm11.156 23.614q-2.647 0-4.579-1.125a7.7 7.7 0 0 1-2.966-3.159q-1.045-2.034-1.045-4.716 0-2.705 1.045-4.727 1.046-2.034 2.966-3.159 1.932-1.137 4.579-1.137 2.648 0 4.569 1.137 1.931 1.125 2.977 3.159 1.045 2.022 1.045 4.727 0 2.682-1.045 4.716a7.7 7.7 0 0 1-2.977 3.159q-1.92 1.125-4.569 1.125m.023-3.75q1.205 0 2.012-.682.806-.693 1.215-1.886.421-1.194.421-2.716t-.421-2.716q-.409-1.193-1.215-1.886-.807-.694-2.012-.694-1.215 0-2.045.694-.819.693-1.239 1.886-.41 1.193-.409 2.716 0 1.522.409 2.716.42 1.193 1.239 1.886.83.682 2.045.682m22.301-4.023v-10.023h4.841V563H573.9v-3.17h-.181a5.16 5.16 0 0 1-1.966 2.465q-1.364.933-3.33.932-1.75 0-3.079-.795t-2.08-2.262q-.738-1.465-.75-3.511v-11.114h4.841v10.25q.012 1.546.83 2.444.817.897 2.193.897.874 0 1.636-.397a3.1 3.1 0 0 0 1.227-1.205q.478-.796.466-1.966m14.537 7.716q-1.989 0-3.602-1.023-1.602-1.033-2.546-3.034-.931-2.011-.931-4.932 0-3 .966-4.988.965-2 2.568-2.989a6.6 6.6 0 0 1 3.534-1q1.465 0 2.443.5.988.489 1.591 1.227.614.728.932 1.432h.147v-8.75h4.83V563h-4.773v-2.795h-.204q-.342.726-.966 1.443-.613.704-1.602 1.17-.977.466-2.387.466m1.534-3.852q1.171 0 1.978-.637.818-.647 1.25-1.806.443-1.16.443-2.716t-.432-2.705-1.25-1.773-1.989-.625q-1.193 0-2.011.648t-1.239 1.796q-.42 1.147-.42 2.659 0 1.523.42 2.693.432 1.16 1.239 1.818.818.648 2.011.648m21.156-13.887v3.637h-10.772v-3.637zM602.628 563v-18.716q0-1.897.738-3.148a4.75 4.75 0 0 1 2.046-1.875q1.295-.625 2.943-.625 1.113 0 2.034.171a14 14 0 0 1 1.386.307l-.863 3.636a6 6 0 0 0-.705-.17 4.4 4.4 0 0 0-.841-.08q-1.068 0-1.488.5-.421.489-.421 1.375V563zm15.497-23.273V563h-4.841v-23.273zm8.247 23.603q-1.67 0-2.977-.58a4.8 4.8 0 0 1-2.069-1.739q-.75-1.158-.75-2.886 0-1.455.534-2.443a4.3 4.3 0 0 1 1.455-1.591 7 7 0 0 1 2.091-.909 16 16 0 0 1 2.477-.432 65 65 0 0 0 2.455-.295q.932-.149 1.352-.432.42-.285.42-.841v-.068q0-1.08-.681-1.671-.671-.591-1.909-.591-1.308 0-2.08.58-.773.568-1.023 1.432l-4.477-.364q.34-1.591 1.341-2.75 1-1.17 2.579-1.795 1.591-.637 3.682-.637 1.455 0 2.784.341a7.3 7.3 0 0 1 2.375 1.057 5.1 5.1 0 0 1 1.648 1.841q.602 1.113.602 2.67V563h-4.591v-2.42h-.136a4.9 4.9 0 0 1-1.125 1.443 5.2 5.2 0 0 1-1.693.966q-.989.34-2.284.341m1.386-3.341q1.068 0 1.887-.421a3.35 3.35 0 0 0 1.284-1.159q.465-.727.466-1.648v-1.852a2.6 2.6 0 0 1-.625.273q-.387.114-.875.216-.489.09-.978.17l-.886.125a6 6 0 0 0-1.489.398q-.636.273-.988.739-.353.454-.353 1.136 0 .989.716 1.511.728.512 1.841.512M639.349 563v-17.455h4.693v3.046h.182q.477-1.625 1.602-2.455 1.125-.84 2.591-.841.364 0 .784.046.421.045.739.125v4.295a6.4 6.4 0 0 0-.943-.181 8.5 8.5 0 0 0-1.102-.08q-1.069 0-1.91.466a3.43 3.43 0 0 0-1.318 1.273q-.477.818-.477 1.886V563zm19.628.341q-2.694 0-4.637-1.091a7.5 7.5 0 0 1-2.977-3.114q-1.045-2.022-1.045-4.784 0-2.693 1.045-4.727t2.943-3.17q1.91-1.137 4.478-1.137 1.726 0 3.216.557 1.5.546 2.613 1.648 1.125 1.103 1.75 2.772.625 1.66.625 3.887v1.329H652.25v-3h10.181q0-1.045-.454-1.852a3.26 3.26 0 0 0-1.262-1.261q-.795-.466-1.852-.466-1.102 0-1.954.511-.841.5-1.319 1.352a3.8 3.8 0 0 0-.488 1.875v2.853q0 1.295.477 2.238a3.5 3.5 0 0 0 1.375 1.455q.887.511 2.102.511.807 0 1.478-.227a3.1 3.1 0 0 0 1.147-.682 2.96 2.96 0 0 0 .728-1.113l4.477.295a6.1 6.1 0 0 1-1.398 2.818q-1.045 1.194-2.704 1.864-1.649.659-3.807.659m36.917-23.614V563h-4.25l-10.125-14.648h-.17V563h-4.921v-23.273h4.319l10.045 14.637h.205v-14.637zm11.321 23.614q-2.693 0-4.636-1.091-1.932-1.102-2.977-3.114-1.046-2.022-1.046-4.784 0-2.693 1.046-4.727t2.943-3.17q1.91-1.137 4.477-1.137 1.728 0 3.216.557 1.5.546 2.614 1.648 1.125 1.103 1.75 2.772.625 1.66.625 3.887v1.329h-14.739v-3h10.182q0-1.045-.455-1.852a3.25 3.25 0 0 0-1.261-1.261q-.795-.466-1.852-.466-1.103 0-1.955.511-.84.5-1.318 1.352a3.8 3.8 0 0 0-.489 1.875v2.853q0 1.295.478 2.238a3.5 3.5 0 0 0 1.375 1.455q.886.511 2.102.511.807 0 1.477-.227.67-.228 1.148-.682t.727-1.113l4.477.295a6.1 6.1 0 0 1-1.397 2.818q-1.046 1.194-2.705 1.864-1.647.659-3.807.659m19.847-17.796v3.637h-10.511v-3.637zm-8.125-4.181h4.841v16.272q0 .67.204 1.046.205.363.569.511.375.148.863.148.341 0 .682-.057l.523-.102.761 3.602q-.363.114-1.023.261-.659.16-1.602.194-1.75.068-3.068-.466-1.306-.534-2.034-1.659t-.716-2.841zM733.051 563l-4.75-17.455h4.897l2.705 11.728h.159l2.818-11.728h4.807l2.864 11.66h.147l2.659-11.66h4.887L749.505 563h-5.125l-3-10.977h-.216l-3 10.977zm30.616.341q-2.648 0-4.58-1.125a7.7 7.7 0 0 1-2.966-3.159q-1.045-2.034-1.045-4.716 0-2.705 1.045-4.727 1.046-2.034 2.966-3.159 1.932-1.137 4.58-1.137t4.568 1.137q1.932 1.125 2.977 3.159 1.046 2.022 1.046 4.727 0 2.682-1.046 4.716a7.7 7.7 0 0 1-2.977 3.159q-1.92 1.125-4.568 1.125m.023-3.75q1.204 0 2.011-.682.807-.693 1.216-1.886.42-1.194.42-2.716t-.42-2.716q-.41-1.193-1.216-1.886-.807-.694-2.011-.694-1.216 0-2.046.694-.818.693-1.238 1.886-.41 1.193-.41 2.716 0 1.522.41 2.716.42 1.193 1.238 1.886.83.682 2.046.682M774.798 563v-17.455h4.693v3.046h.182q.477-1.625 1.602-2.455 1.125-.84 2.591-.841.363 0 .784.046.42.045.738.125v4.295a6 6 0 0 0-.943-.181 8.5 8.5 0 0 0-1.102-.08q-1.068 0-1.909.466a3.43 3.43 0 0 0-1.318 1.273q-.477.818-.478 1.886V563zm16.872-5.023.011-5.807h.705l5.591-6.625h5.556l-7.511 8.773h-1.148zM787.283 563v-23.273h4.841V563zm10.909 0-5.136-7.602 3.227-3.421 7.58 11.023z"/><path fill="#000" d="M548.264 648v-14.545h9.801v2.535h-6.726v3.466h6.222v2.535h-6.222v3.473h6.755V648zm12.189 0v-10.909h2.884v1.925h.128a3.02 3.02 0 0 1 1.136-1.513q.796-.554 1.904-.554 1.122 0 1.91.561.789.553 1.051 1.506h.114a2.9 2.9 0 0 1 1.207-1.499q.88-.568 2.081-.568 1.527 0 2.479.973.959.966.959 2.741V648h-3.019v-6.74q0-.91-.483-1.364t-1.207-.454q-.824 0-1.286.525-.46.519-.461 1.371V648h-2.933v-6.804q0-.803-.462-1.278-.454-.476-1.2-.476-.506 0-.909.255a1.76 1.76 0 0 0-.633.704q-.234.447-.234 1.051V648zm21.353.206q-1.044 0-1.86-.362a3 3 0 0 1-1.293-1.087q-.468-.724-.469-1.804 0-.909.334-1.527a2.7 2.7 0 0 1 .909-.994 4.4 4.4 0 0 1 1.307-.568 10 10 0 0 1 1.548-.27 40 40 0 0 0 1.534-.185q.583-.091.846-.27.262-.177.262-.525v-.043q0-.675-.426-1.044-.419-.369-1.193-.369-.816 0-1.3.362a1.67 1.67 0 0 0-.639.895l-2.798-.227a3.8 3.8 0 0 1 .838-1.719q.625-.732 1.612-1.122.995-.399 2.301-.398.909 0 1.74.213a4.6 4.6 0 0 1 1.485.66q.653.448 1.03 1.151.375.696.376 1.669V648h-2.869v-1.513h-.086a3.1 3.1 0 0 1-.703.902 3.3 3.3 0 0 1-1.058.604q-.618.213-1.428.213m.867-2.088q.668 0 1.179-.263.511-.27.802-.724.292-.455.292-1.03v-1.158a1.6 1.6 0 0 1-.391.171 7 7 0 0 1-.547.135q-.305.056-.611.106l-.554.078a3.7 3.7 0 0 0-.93.249 1.5 1.5 0 0 0-.618.461q-.22.285-.22.711 0 .618.447.944.455.32 1.151.32m7.624 1.882v-10.909h3.026V648zm1.52-12.315q-.675 0-1.158-.448a1.45 1.45 0 0 1-.475-1.086q0-.626.475-1.073a1.63 1.63 0 0 1 1.158-.454q.675 0 1.151.454.483.447.483 1.073 0 .632-.483 1.086a1.62 1.62 0 0 1-1.151.448m6.955-2.23V648h-3.026v-14.545zm16.129 6.747-2.77.17a1.4 1.4 0 0 0-.305-.639 1.6 1.6 0 0 0-.618-.462 2.1 2.1 0 0 0-.902-.177q-.703 0-1.186.298-.483.292-.483.781a.84.84 0 0 0 .313.661q.312.27 1.072.433l1.974.398q1.591.327 2.373 1.051.78.724.781 1.903 0 1.073-.632 1.882-.626.81-1.719 1.265-1.086.447-2.507.447-2.166 0-3.452-.902-1.278-.909-1.498-2.472l2.975-.156q.135.661.654 1.009.519.34 1.328.341.795 0 1.278-.306.49-.312.498-.802a.84.84 0 0 0-.348-.675q-.341-.27-1.052-.412l-1.889-.376q-1.597-.32-2.379-1.108-.774-.789-.774-2.01 0-1.052.568-1.811.576-.76 1.612-1.172 1.044-.412 2.443-.412 2.067 0 3.253.873 1.194.874 1.392 2.38m7.126 8.011q-1.684 0-2.898-.682a4.67 4.67 0 0 1-1.861-1.946q-.653-1.264-.653-2.99 0-1.683.653-2.954a4.83 4.83 0 0 1 1.84-1.982q1.193-.71 2.798-.71 1.08 0 2.01.348.937.34 1.633 1.03.704.689 1.094 1.733.391 1.037.391 2.429v.831h-9.212v-1.875h6.364q0-.654-.284-1.158a2.04 2.04 0 0 0-.789-.788q-.497-.292-1.157-.292-.69 0-1.222.32-.525.312-.824.845a2.4 2.4 0 0 0-.305 1.172v1.783q0 .809.298 1.399.306.59.859.909.555.32 1.314.32.505 0 .924-.143.418-.141.717-.426.298-.284.455-.696l2.798.185a3.8 3.8 0 0 1-.874 1.761q-.653.747-1.69 1.165-1.03.412-2.379.412m11.91 0q-1.675 0-2.883-.71a4.8 4.8 0 0 1-1.847-1.989q-.639-1.271-.639-2.926 0-1.675.646-2.94a4.8 4.8 0 0 1 1.854-1.982q1.2-.717 2.855-.717 1.428 0 2.5.518a4.2 4.2 0 0 1 1.697 1.456q.626.938.689 2.202h-2.855q-.12-.817-.639-1.314-.511-.504-1.342-.504-.704 0-1.229.383-.519.377-.81 1.101-.291.725-.291 1.754 0 1.044.284 1.776.291.732.817 1.115.525.384 1.229.384.517 0 .93-.213.419-.214.689-.618.277-.412.362-.988h2.855q-.07 1.251-.682 2.202a4.1 4.1 0 0 1-1.669 1.477q-1.065.534-2.521.533m13.805-4.858v-6.264h3.026V648h-2.905v-1.982h-.114a3.22 3.22 0 0 1-1.228 1.542q-.853.582-2.081.582-1.094 0-1.925-.497a3.43 3.43 0 0 1-1.3-1.413q-.462-.917-.469-2.195v-6.946h3.026v6.406q.008.966.518 1.527.512.561 1.371.561.548 0 1.023-.248a1.96 1.96 0 0 0 .767-.753q.298-.497.291-1.229m5.446 4.645v-10.909h2.933v1.903h.114q.298-1.015 1.001-1.534a2.64 2.64 0 0 1 1.619-.525q.228 0 .491.028.263.029.461.078v2.685a4 4 0 0 0-.589-.114 5 5 0 0 0-.689-.05 2.4 2.4 0 0 0-1.193.292 2.13 2.13 0 0 0-.824.795 2.3 2.3 0 0 0-.299 1.179V648zm8.183 0v-10.909h3.026V648zm1.52-12.315q-.674 0-1.157-.448a1.45 1.45 0 0 1-.476-1.086q0-.626.476-1.073a1.63 1.63 0 0 1 1.157-.454q.675 0 1.151.454.483.447.483 1.073 0 .632-.483 1.086a1.62 1.62 0 0 1-1.151.448m9.732 1.406v2.273h-6.569v-2.273zm-5.078-2.614h3.026v10.171q0 .419.128.653a.7.7 0 0 0 .355.32q.234.092.539.092.213 0 .427-.035.213-.043.326-.064l.476 2.251a8 8 0 0 1-.639.163 5 5 0 0 1-1.002.121q-1.094.043-1.917-.291a2.67 2.67 0 0 1-1.271-1.037q-.455-.703-.448-1.776zm8.917 17.614q-.575 0-1.08-.092a4 4 0 0 1-.823-.221l.681-2.258q.534.163.959.177.434.015.746-.198.32-.213.518-.725l.178-.462-3.913-11.221h3.181l2.259 8.011h.114l2.279-8.011h3.204l-4.24 12.088a5.1 5.1 0 0 1-.831 1.534q-.519.66-1.314 1.016-.796.362-1.918.362"/><path fill="#fff" stroke="#f6821f" stroke-width="2" d="M571 691h200v76H571z"/><path fill="#222" d="M638.318 733h-4.125v-11.636h4.159q1.756 0 3.023.698a4.7 4.7 0 0 1 1.949 1.995q.687 1.3.687 3.113 0 1.819-.687 3.125a4.7 4.7 0 0 1-1.96 2.006q-1.273.699-3.046.699m-1.665-2.108h1.563q1.09 0 1.835-.386a2.5 2.5 0 0 0 1.125-1.211q.381-.823.381-2.125 0-1.289-.381-2.108-.375-.817-1.119-1.204-.744-.386-1.835-.386h-1.569zm12.937 2.278q-1.347 0-2.319-.545a3.73 3.73 0 0 1-1.488-1.557q-.523-1.01-.523-2.392 0-1.346.523-2.364a3.86 3.86 0 0 1 1.471-1.585q.955-.568 2.239-.568.864 0 1.608.279.75.272 1.307.823.562.552.875 1.387.312.829.312 1.943v.665h-7.369v-1.5h5.091q0-.524-.227-.926a1.63 1.63 0 0 0-.631-.631 1.8 1.8 0 0 0-.926-.233 1.86 1.86 0 0 0-.978.256q-.42.25-.659.676-.238.42-.244.937v1.426q0 .648.239 1.12.245.471.687.727.444.255 1.051.256.403 0 .739-.114t.574-.341.363-.557l2.239.148a3.05 3.05 0 0 1-.699 1.409q-.522.596-1.352.932-.824.33-1.903.329m10.051-8.897v1.818h-5.256v-1.818zm-4.063-2.091h2.421v8.136q0 .336.102.523a.57.57 0 0 0 .284.256q.188.073.432.073.17 0 .341-.028l.261-.051.381 1.801a7 7 0 0 1-.511.131q-.33.08-.802.096-.874.034-1.534-.233a2.15 2.15 0 0 1-1.017-.829q-.363-.563-.358-1.421zm9.347 10.988q-1.347 0-2.318-.545a3.73 3.73 0 0 1-1.489-1.557q-.522-1.01-.522-2.392 0-1.346.522-2.364a3.87 3.87 0 0 1 1.472-1.585q.954-.568 2.238-.568.864 0 1.608.279.75.272 1.307.823.563.552.875 1.387.313.829.313 1.943v.665h-7.37v-1.5h5.091q0-.524-.227-.926a1.6 1.6 0 0 0-.631-.631 1.8 1.8 0 0 0-.926-.233q-.55 0-.977.256-.42.25-.659.676-.239.42-.244.937v1.426q0 .648.238 1.12.244.471.688.727.443.255 1.051.256.404 0 .738-.114.336-.114.574-.341.239-.227.364-.557l2.239.148a3.06 3.06 0 0 1-.699 1.409q-.524.596-1.353.932-.823.33-1.903.329m9.352 0q-1.34 0-2.306-.568a3.84 3.84 0 0 1-1.478-1.591q-.511-1.017-.511-2.341 0-1.34.517-2.352a3.85 3.85 0 0 1 1.483-1.585q.96-.574 2.284-.574 1.142 0 2 .415a3.34 3.34 0 0 1 1.358 1.165q.5.75.551 1.761h-2.284q-.096-.654-.511-1.051-.41-.404-1.074-.404-.563 0-.983.307-.415.302-.648.881-.233.58-.233 1.403 0 .836.228 1.421.233.585.653.892t.983.307q.414 0 .744-.171.336-.17.551-.494.222-.33.29-.79h2.284q-.057 1-.545 1.761a3.3 3.3 0 0 1-1.335 1.182q-.853.426-2.018.426m9.914-8.897v1.818h-5.256v-1.818zm-4.063-2.091h2.421v8.136q0 .336.102.523a.57.57 0 0 0 .284.256q.188.073.432.073.17 0 .341-.028l.261-.051.381 1.801a7 7 0 0 1-.511.131q-.33.08-.801.096-.875.034-1.535-.233a2.15 2.15 0 0 1-1.017-.829q-.363-.563-.358-1.421zM685.592 733v-8.727h2.42V733zm1.216-9.852q-.54 0-.927-.358a1.16 1.16 0 0 1-.38-.87q0-.5.38-.858.387-.363.927-.363.539 0 .92.363.386.359.386.858 0 .506-.386.87a1.3 1.3 0 0 1-.92.358m6.91 10.022q-1.323 0-2.29-.562a3.85 3.85 0 0 1-1.483-1.58q-.522-1.017-.522-2.358 0-1.352.522-2.363a3.8 3.8 0 0 1 1.483-1.58q.966-.568 2.29-.568t2.284.568q.966.563 1.489 1.58.522 1.011.523 2.363 0 1.341-.523 2.358a3.84 3.84 0 0 1-1.489 1.58q-.96.562-2.284.562m.012-1.875q.601 0 1.005-.34.404-.347.608-.944.21-.596.21-1.358 0-.76-.21-1.358-.204-.596-.608-.943-.404-.346-1.005-.346-.609 0-1.023.346-.41.347-.619.943a4.2 4.2 0 0 0-.205 1.358q0 .762.205 1.358.21.596.619.944.414.34 1.023.34m8.102-3.34V733h-2.42v-8.727h2.306v1.539h.103q.29-.761.971-1.204.682-.449 1.654-.449.909 0 1.585.398t1.051 1.136q.375.733.375 1.75V733h-2.42v-5.125q.005-.801-.41-1.25-.414-.455-1.142-.455-.488 0-.863.211-.37.21-.58.613-.204.398-.21.961"/><path fill="#fff" stroke="#f6821f" stroke-width="2" d="M571 798h200v76H571z"/><path stroke="#ffa629" stroke-linecap="round" stroke-linejoin="bevel" stroke-width="3" d="M670.79 793v-43.641"/><path fill="#222" d="M648.484 840v-11.636h4.591q1.323 0 2.255.505a3.43 3.43 0 0 1 1.421 1.392q.494.887.494 2.046t-.5 2.045a3.45 3.45 0 0 1-1.449 1.381q-.943.494-2.284.494h-2.926v-1.971h2.528q.71 0 1.171-.245.467-.249.693-.687a2.16 2.16 0 0 0 .233-1.017q0-.58-.233-1.012a1.55 1.55 0 0 0-.693-.676q-.467-.244-1.182-.244h-1.659V840zm13.94.17q-1.324 0-2.289-.562a3.84 3.84 0 0 1-1.483-1.58q-.523-1.017-.523-2.358 0-1.352.523-2.363a3.8 3.8 0 0 1 1.483-1.58q.965-.568 2.289-.568t2.284.568a3.8 3.8 0 0 1 1.489 1.58q.522 1.011.523 2.363 0 1.341-.523 2.358a3.83 3.83 0 0 1-1.489 1.58q-.96.562-2.284.562m.012-1.875q.601 0 1.005-.34.404-.347.608-.944.21-.596.211-1.358 0-.76-.211-1.358-.204-.596-.608-.943-.404-.346-1.005-.346-.609 0-1.023.346-.41.347-.619.943a4.2 4.2 0 0 0-.205 1.358q0 .762.205 1.358.21.596.619.944.414.34 1.023.34m8.102-9.931V840h-2.42v-11.636zM672.301 840v-8.727h2.42V840zm1.216-9.852q-.54 0-.926-.358a1.16 1.16 0 0 1-.381-.87q0-.5.381-.858.386-.363.926-.363t.92.363q.387.359.387.858 0 .506-.387.87-.38.357-.92.358m6.911 10.022q-1.341 0-2.307-.568a3.84 3.84 0 0 1-1.478-1.591q-.51-1.017-.511-2.341 0-1.34.517-2.352a3.85 3.85 0 0 1 1.483-1.585q.96-.574 2.284-.574 1.142 0 2 .415a3.34 3.34 0 0 1 1.358 1.165q.5.75.551 1.761h-2.284q-.096-.654-.511-1.051-.41-.404-1.074-.404-.563 0-.983.307-.415.302-.648.881-.233.58-.233 1.403 0 .836.228 1.421.233.585.653.892t.983.307q.415 0 .744-.171.336-.17.551-.494.222-.33.29-.79h2.284q-.057 1-.545 1.761a3.3 3.3 0 0 1-1.335 1.182q-.853.426-2.017.426m6.765 3.103q-.46 0-.863-.074a3.2 3.2 0 0 1-.659-.176l.545-1.807q.426.13.767.142a.97.97 0 0 0 .597-.159q.255-.17.414-.58l.142-.369-3.13-8.977h2.545l1.807 6.409h.091l1.824-6.409h2.562l-3.392 9.67q-.244.705-.664 1.227a2.7 2.7 0 0 1-1.052.813q-.636.29-1.534.29"/><path fill="#fff" stroke="#f6821f" stroke-width="2" d="M571 911h200v76H571z"/><path stroke="#ffa629" stroke-linecap="round" stroke-linejoin="bevel" stroke-width="3" d="M671 879v27"/><path fill="#222" d="M633.298 948.955h2.091l1.051 1.352 1.034 1.204 1.949 2.444h-2.295l-1.341-1.648-.688-.977zm6.301-1.773q0 1.903-.721 3.238-.716 1.337-1.955 2.04-1.233.699-2.773.699-1.551 0-2.784-.704-1.232-.705-1.949-2.04-.715-1.335-.715-3.233 0-1.904.715-3.239.716-1.335 1.949-2.034 1.233-.704 2.784-.704 1.54 0 2.773.704 1.238.699 1.955 2.034.721 1.335.721 3.239m-2.494 0q0-1.233-.369-2.08-.365-.846-1.029-1.284-.664-.437-1.557-.437-.891 0-1.556.437-.665.438-1.034 1.284-.364.847-.364 2.08t.364 2.079q.368.848 1.034 1.284.665.438 1.556.438.893 0 1.557-.438.664-.437 1.029-1.284.369-.846.369-2.079m9.692 2.102v-5.011h2.42V953h-2.324v-1.585h-.09a2.6 2.6 0 0 1-.983 1.233q-.683.465-1.665.466-.876 0-1.54-.398a2.73 2.73 0 0 1-1.04-1.131q-.369-.733-.375-1.755v-5.557h2.421v5.125q.006.772.415 1.221t1.096.449q.438 0 .818-.199.381-.204.614-.602.239-.398.233-.983m6.669 3.881q-.835 0-1.489-.29a2.4 2.4 0 0 1-1.034-.869q-.375-.58-.375-1.444 0-.727.267-1.221t.728-.796q.46-.3 1.045-.454a8 8 0 0 1 1.239-.216q.76-.08 1.227-.148.466-.073.676-.216a.47.47 0 0 0 .21-.42v-.034q0-.54-.341-.835-.335-.296-.954-.296-.654 0-1.04.29a1.33 1.33 0 0 0-.511.716l-2.239-.182a3.04 3.04 0 0 1 .671-1.375q.5-.585 1.289-.898.796-.318 1.841-.318.727 0 1.392.171.67.17 1.188.528.522.358.824.92.3.558.301 1.336V953h-2.296v-1.21h-.068q-.21.409-.562.721a2.6 2.6 0 0 1-.847.483q-.494.171-1.142.171m.693-1.671q.535 0 .943-.21a1.67 1.67 0 0 0 .642-.579q.233-.365.233-.824v-.926q-.113.073-.312.136a6 6 0 0 1-.438.108q-.243.045-.488.085l-.443.063a3 3 0 0 0-.745.198 1.2 1.2 0 0 0-.494.37.9.9 0 0 0-.176.568q0 .494.358.756.363.255.92.255m5.924 1.506v-8.727h2.346v1.522h.091q.239-.812.801-1.227.563-.42 1.296-.42.182 0 .392.022.21.023.369.063v2.148a3 3 0 0 0-.471-.091 4 4 0 0 0-.552-.04q-.534 0-.954.233a1.7 1.7 0 0 0-.659.636 1.84 1.84 0 0 0-.239.943V953zm8.609.165q-.836 0-1.488-.29a2.4 2.4 0 0 1-1.035-.869q-.375-.58-.375-1.444 0-.727.267-1.221a2.2 2.2 0 0 1 .728-.796 3.5 3.5 0 0 1 1.045-.454 8 8 0 0 1 1.239-.216q.761-.08 1.227-.148.466-.073.676-.216a.47.47 0 0 0 .21-.42v-.034q0-.54-.34-.835-.336-.296-.955-.296-.654 0-1.04.29a1.33 1.33 0 0 0-.511.716l-2.239-.182a3.04 3.04 0 0 1 .671-1.375q.5-.585 1.289-.898.796-.318 1.841-.318.727 0 1.392.171.67.17 1.188.528.522.358.824.92.301.558.301 1.336V953h-2.296v-1.21h-.068q-.21.409-.562.721a2.6 2.6 0 0 1-.847.483q-.494.171-1.142.171m.693-1.671q.534 0 .944-.21.408-.216.642-.579a1.5 1.5 0 0 0 .233-.824v-.926q-.114.073-.313.136a6 6 0 0 1-.437.108q-.245.045-.489.085l-.443.063a3 3 0 0 0-.745.198 1.2 1.2 0 0 0-.494.37.9.9 0 0 0-.176.568q0 .494.358.756.363.255.92.255m8.344-3.539V953h-2.42v-8.727h2.307v1.539h.102q.29-.761.971-1.204.682-.449 1.654-.449.909 0 1.585.398t1.051 1.136q.375.733.375 1.75V953h-2.42v-5.125q.005-.801-.409-1.25-.416-.455-1.142-.455-.489 0-.864.211a1.47 1.47 0 0 0-.58.613q-.204.398-.21.961m11.999-3.682v1.818h-5.256v-1.818zm-4.063-2.091h2.421v8.136q0 .336.102.523a.57.57 0 0 0 .284.256q.188.073.432.073.17 0 .341-.028l.261-.051.381 1.801a7 7 0 0 1-.511.131q-.33.08-.801.096-.875.034-1.535-.233a2.15 2.15 0 0 1-1.017-.829q-.363-.563-.358-1.421zM691.129 953v-8.727h2.42V953zm1.216-9.852q-.54 0-.927-.358a1.16 1.16 0 0 1-.38-.87q0-.5.38-.858.387-.363.927-.363.539 0 .92.363.387.359.386.858 0 .506-.386.87a1.3 1.3 0 0 1-.92.358m5.387 4.807V953h-2.42v-8.727h2.307v1.539h.102q.29-.761.972-1.204.681-.449 1.653-.449.91 0 1.585.398.676.398 1.051 1.136.375.733.375 1.75V953h-2.42v-5.125q.006-.801-.409-1.25-.415-.455-1.142-.455-.489 0-.864.211-.369.21-.579.613-.205.398-.211.961m11.334 5.215q-1.346 0-2.318-.545a3.73 3.73 0 0 1-1.488-1.557q-.523-1.01-.523-2.392 0-1.346.523-2.364a3.86 3.86 0 0 1 1.471-1.585q.955-.568 2.239-.568.864 0 1.608.279.75.272 1.307.823.562.552.875 1.387.312.829.312 1.943v.665h-7.369v-1.5h5.091q0-.524-.228-.926a1.6 1.6 0 0 0-.63-.631 1.8 1.8 0 0 0-.926-.233q-.552 0-.978.256-.42.25-.659.676-.238.42-.244.937v1.426q0 .648.239 1.12.244.471.687.727.444.255 1.051.256.403 0 .739-.114t.574-.341.363-.557l2.239.148a3.06 3.06 0 0 1-.699 1.409q-.522.596-1.352.932-.824.33-1.904.329"/><path stroke="#ffa629" stroke-linecap="round" stroke-linejoin="bevel" stroke-width="3" d="M775.581 837.179h230.529c13.26 0 24-10.745 24-24V691c0-13.255 10.75-24 24-24H1072"/><path fill="#cbe9f3" stroke="#000" d="M536 218.5c14.083 0 25.5 11.417 25.5 25.5s-11.417 25.5-25.5 25.5-25.5-11.417-25.5-25.5 11.417-25.5 25.5-25.5Z"/><path fill="#000" d="M538.615 235.455V250h-3.076v-11.626h-.085l-3.331 2.088v-2.728l3.601-2.279z"/><path fill="#cbe9f3" stroke="#000" d="M772 670.5c14.083 0 25.5 11.417 25.5 25.5s-11.417 25.5-25.5 25.5-25.5-11.417-25.5-25.5 11.417-25.5 25.5-25.5Z"/><path fill="#000" d="M766.88 702v-2.216l5.178-4.794q.66-.64 1.108-1.151.454-.51.689-1.001.234-.497.234-1.072 0-.64-.291-1.101a1.9 1.9 0 0 0-.796-.718 2.5 2.5 0 0 0-1.143-.255q-.667 0-1.165.27-.497.27-.767.774t-.27 1.2h-2.919q0-1.428.646-2.479a4.3 4.3 0 0 1 1.811-1.626q1.165-.576 2.685-.575 1.563 0 2.72.554 1.166.546 1.811 1.52.647.973.647 2.23 0 .823-.327 1.626-.32.802-1.143 1.783-.825.972-2.323 2.336l-2.123 2.081v.1h6.107V702z"/><path fill="#cbe9f3" stroke="#000" d="M772 775.5c14.083 0 25.5 11.417 25.5 25.5s-11.417 25.5-25.5 25.5-25.5-11.417-25.5-25.5 11.417-25.5 25.5-25.5Z"/><path fill="#000" d="M771.964 807.199q-1.592 0-2.834-.547-1.236-.554-1.953-1.52-.711-.974-.732-2.244h3.097q.029.532.348.937.327.397.866.618.54.22 1.215.22.702 0 1.243-.248.539-.25.845-.689.305-.44.305-1.016 0-.582-.327-1.03-.319-.454-.923-.71-.597-.255-1.42-.256h-1.357v-2.258h1.357q.696 0 1.228-.242.54-.24.838-.667.299-.433.299-1.009 0-.547-.263-.958a1.73 1.73 0 0 0-.724-.654 2.36 2.36 0 0 0-1.08-.234 2.8 2.8 0 0 0-1.143.227 2 2 0 0 0-.831.632 1.66 1.66 0 0 0-.334.966h-2.948q.022-1.257.718-2.216t1.875-1.498q1.186-.547 2.677-.547 1.506 0 2.635.547 1.13.547 1.754 1.477a3.54 3.54 0 0 1 .625 2.074q.008 1.221-.76 2.038-.76.817-1.981 1.037v.114q1.605.206 2.443 1.115.846.902.838 2.258a3.55 3.55 0 0 1-.717 2.209q-.717.966-1.982 1.52-1.263.554-2.897.554"/><path fill="#cbe9f3" stroke="#000" d="M772 891.5c14.083 0 25.5 11.417 25.5 25.5s-11.417 25.5-25.5 25.5-25.5-11.417-25.5-25.5 11.417-25.5 25.5-25.5Z"/><path fill="#000" d="M766.181 920.443v-2.422l6.073-9.566h2.088v3.352h-1.236l-3.828 6.058v.114h8.629v2.464zm6.982 2.557v-3.295l.057-1.073v-10.177h2.883V923z"/><path stroke="#ffa629" stroke-linecap="round" stroke-linejoin="bevel" stroke-width="3" d="M1045.81 440.565v20c0 13.255 10.75 24 24 24h52.69c13.25 0 24 10.745 24 24V589"/><path fill="#cbe9f3" stroke="#000" d="M1146 464.5c14.08 0 25.5 11.417 25.5 25.5s-11.42 25.5-25.5 25.5-25.5-11.417-25.5-25.5 11.42-25.5 25.5-25.5Z"/><path fill="#000" d="M1140.88 496v-2.216l5.18-4.794q.66-.64 1.11-1.151c.3-.34.53-.674.68-1.001q.24-.497.24-1.072c0-.427-.1-.793-.29-1.101-.2-.313-.46-.552-.8-.718-.33-.17-.72-.255-1.14-.255-.45 0-.83.09-1.17.27-.33.18-.58.438-.76.774q-.27.504-.27 1.2h-2.92c0-.952.21-1.778.64-2.479.44-.7 1.04-1.243 1.82-1.626.77-.384 1.67-.575 2.68-.575 1.04 0 1.95.184 2.72.554.78.364 1.38.871 1.81 1.52.43.648.65 1.392.65 2.23q0 .824-.33 1.626-.315.802-1.14 1.783c-.55.648-1.33 1.427-2.32 2.336l-2.13 2.081v.1h6.11V496z"/><defs><radialGradient id="paint0_radial_92_38" cx="0" cy="0" r="1" gradientTransform="rotate(110.528 455.938 502.103)scale(54.8113 95.6021)" gradientUnits="userSpaceOnUse"><stop offset=".064" stop-color="#ae7fe2"/><stop offset="1" stop-color="#0078d4"/></radialGradient><radialGradient id="paint2_radial_92_38" cx="0" cy="0" r="1" gradientTransform="rotate(-8.367 2543.005 -7198.458)scale(51.0077 33.694)" gradientUnits="userSpaceOnUse"><stop offset=".134" stop-color="#d59dff"/><stop offset="1" stop-color="#5e438f"/></radialGradient><radialGradient id="paint4_radial_92_38" cx="0" cy="0" r="1" gradientTransform="rotate(194.228 579.736 68.431)scale(40.9418 68.9216)" gradientUnits="userSpaceOnUse"><stop offset=".058" stop-color="#50e6ff"/><stop offset="1" stop-color="#436dcd"/></radialGradient><linearGradient id="paint1_linear_92_38" x1="1086.2" x2="1078.38" y1="295.92" y2="282.394" gradientUnits="userSpaceOnUse"><stop stop-color="#114a8b"/><stop offset="1" stop-color="#0078d4" stop-opacity="0"/></linearGradient><linearGradient id="paint3_linear_92_38" x1="1123.72" x2="1115.34" y1="275.399" y2="287.415" gradientUnits="userSpaceOnUse"><stop stop-color="#493474"/><stop offset="1" stop-color="#8c66ba" stop-opacity="0"/></linearGradient><linearGradient id="paint5_linear_92_38" x1="1085.32" x2="1097.65" y1="238.732" y2="238.732" gradientUnits="userSpaceOnUse"><stop stop-color="#2d3f80"/><stop offset="1" stop-color="#436dcd" stop-opacity="0"/></linearGradient><clipPath id="clip0_92_38"><path fill="#fff" d="M33 45h40v40H33z"/></clipPath><clipPath id="clip1_92_38"><path fill="#fff" d="M1166.73 650.837h21.504v21.504h-21.504z"/></clipPath></defs></svg>