<svg xmlns="http://www.w3.org/2000/svg" width="2226" height="861" fill="none" viewBox="0 0 2226 861"><path fill="#fff" d="M0 0h2226v861H0z"/><path stroke="#f6821f" stroke-width="2" d="M445 170h720v493H445z"/><path fill="#c5ebf5" d="M1430.88 298.235h34.344v19.625h-34.344zm-53.97-22.079h34.344v19.625h-34.344zm51.51-22.078h34.344v19.625h-34.344zm-17.17-19.625h34.344v19.625h-34.344z"/><path fill="#0055dc" stroke="#fff" stroke-width=".5" d="m1447.1 232.25 3.3 3.304v17.291h14.64l3.3 3.303v20.491l-3.3 3.303-14.39.104-.25.002v14.297h14.64l3.3 3.303v20.492l-3.3 3.303h-71.57l-3.3-3.303v-17.396h-14.62l-3.3-3.304v-20.49l3.3-3.304h14.62v-14.298h-14.62l-3.3-3.304v-20.49l3.3-3.304zm-50.53 82.794h29.48v-14.3h-29.48zm35.88 0h29.49v-14.3h-29.49zm-17.92-20.699h29.49v-.25l-.02-13.799v-.25h-29.47zm-35.88-.104h29.48v-14.299h-29.48zm17.92-20.595h29.48v-14.298h-29.48zm35.88-.103h29.49v-14.195h-29.49zm-53.8-20.595h29.48v-14.299h-29.48zm35.88 0H1444v-14.299h-29.47z"/><path stroke="#0055dc" stroke-dasharray="10 10" stroke-width="2" d="M1328 212h184v210h-184zm303 0h212v210h-212z"/><path fill="#000" d="M372.328 304.556a1 1 0 0 0 0-1.414l-6.364-6.364a1 1 0 0 0-1.415 1.414l5.657 5.657-5.657 5.657a1 1 0 0 0 1.415 1.414zm-.708-1.707H248.415v2H371.62zM87.211 380.044v-14.546h9.801v2.536h-6.726v3.466h6.222v2.535h-6.222v3.473h6.755v2.536zm14.718-10.909 2.003 3.814 2.052-3.814h3.104l-3.161 5.454 3.246 5.455h-3.089l-2.152-3.772-2.117 3.772H98.69l3.239-5.455-3.125-5.454zm14.758 0v2.272h-6.569v-2.272zm-5.078-2.614h3.026v10.17q0 .42.128.654a.7.7 0 0 0 .355.319q.234.093.539.093.213 0 .427-.036l.326-.064.476 2.252a8 8 0 0 1-.639.163 5 5 0 0 1-1.002.121q-1.094.042-1.917-.291a2.7 2.7 0 0 1-1.271-1.037q-.455-.703-.448-1.776zm11.904 13.736q-1.684 0-2.898-.682a4.67 4.67 0 0 1-1.861-1.946q-.654-1.265-.653-2.99 0-1.683.653-2.955a4.83 4.83 0 0 1 1.84-1.981q1.193-.71 2.798-.71 1.078 0 2.01.348.937.34 1.633 1.029.704.69 1.094 1.733.39 1.037.391 2.429v.831h-9.212v-1.875h6.364a2.3 2.3 0 0 0-.284-1.157 2.04 2.04 0 0 0-.789-.789 2.25 2.25 0 0 0-1.157-.291q-.69 0-1.222.32-.525.312-.824.845-.299.525-.305 1.172v1.782q0 .81.298 1.4.306.59.859.909.555.32 1.314.319.504 0 .924-.142.419-.142.717-.426t.454-.696l2.799.185a3.8 3.8 0 0 1-.874 1.761q-.653.745-1.69 1.165-1.03.411-2.379.412m6.981-.213v-10.909h2.933v1.903h.114q.299-1.015 1.001-1.534a2.64 2.64 0 0 1 1.62-.526 4.6 4.6 0 0 1 .951.107v2.685a4 4 0 0 0-.589-.114 5 5 0 0 0-.689-.05 2.4 2.4 0 0 0-1.193.291 2.15 2.15 0 0 0-.824.796 2.3 2.3 0 0 0-.298 1.179v6.172zm11.209-6.307v6.307h-3.025v-10.909h2.883v1.924h.128a3.04 3.04 0 0 1 1.215-1.505q.852-.561 2.066-.561 1.137 0 1.982.497a3.4 3.4 0 0 1 1.314 1.42q.468.916.468 2.188v6.946h-3.025v-6.407q.007-1-.511-1.562-.519-.568-1.428-.568-.61 0-1.08.263-.461.262-.724.767-.255.497-.263 1.2m12.527 6.513q-1.044 0-1.861-.363a3 3 0 0 1-1.293-1.086q-.468-.724-.468-1.804 0-.909.334-1.527.333-.619.909-.994a4.4 4.4 0 0 1 1.306-.569 10 10 0 0 1 1.549-.27 39 39 0 0 0 1.534-.184q.582-.093.845-.27t.263-.526v-.042q0-.675-.426-1.044-.42-.37-1.194-.37-.816 0-1.299.363a1.66 1.66 0 0 0-.639.894l-2.799-.227a3.8 3.8 0 0 1 .838-1.719q.625-.73 1.613-1.122.993-.397 2.301-.397.909 0 1.74.213a4.6 4.6 0 0 1 1.484.66q.654.447 1.03 1.151.376.696.376 1.669v7.358h-2.869v-1.513h-.085q-.263.511-.703.902a3.3 3.3 0 0 1-1.059.604q-.618.213-1.427.213m.866-2.088q.668 0 1.179-.263a2.1 2.1 0 0 0 .803-.725q.291-.455.291-1.029v-1.158a1.7 1.7 0 0 1-.391.17 7 7 0 0 1-.546.135q-.306.057-.611.107l-.554.078a3.7 3.7 0 0 0-.931.249 1.5 1.5 0 0 0-.617.461q-.22.284-.221.71 0 .618.448.945.454.32 1.15.32m10.65-12.664v14.546h-3.025v-14.546zm12.024 14.759q-1.683 0-2.897-.682a4.67 4.67 0 0 1-1.861-1.946q-.654-1.265-.654-2.99 0-1.683.654-2.955a4.83 4.83 0 0 1 1.839-1.981q1.194-.71 2.799-.71 1.079 0 2.01.348.937.34 1.633 1.029.703.69 1.094 1.733.39 1.037.39 2.429v.831h-9.211v-1.875h6.363a2.3 2.3 0 0 0-.284-1.157 2.03 2.03 0 0 0-.788-.789q-.496-.291-1.158-.291-.689 0-1.221.32-.526.312-.824.845-.298.525-.306 1.172v1.782q0 .81.299 1.4.305.59.859.909t1.314.319q.504 0 .923-.142a1.9 1.9 0 0 0 .718-.426q.298-.284.454-.696l2.799.185a3.84 3.84 0 0 1-.874 1.761q-.654.745-1.69 1.165-1.03.411-2.38.412m6.982-.213v-10.909h2.883v1.924h.128a3.03 3.03 0 0 1 1.137-1.512q.795-.554 1.903-.554 1.122 0 1.911.561.787.554 1.051 1.505h.113a2.9 2.9 0 0 1 1.208-1.498q.88-.568 2.081-.568 1.527 0 2.478.973.96.965.959 2.741v7.337h-3.018v-6.74q0-.91-.483-1.364t-1.208-.455q-.823 0-1.285.526-.462.519-.462 1.371v6.662h-2.933v-6.804q0-.802-.462-1.279-.454-.476-1.2-.476-.504 0-.909.256-.398.249-.632.703a2.24 2.24 0 0 0-.235 1.051v6.549zm21.353.206q-1.044 0-1.861-.363a3 3 0 0 1-1.293-1.086q-.468-.724-.468-1.804 0-.909.334-1.527.333-.619.909-.994a4.4 4.4 0 0 1 1.306-.569 10 10 0 0 1 1.549-.27 39 39 0 0 0 1.534-.184q.582-.093.845-.27t.263-.526v-.042q0-.675-.426-1.044-.42-.37-1.194-.37-.816 0-1.299.363a1.66 1.66 0 0 0-.639.894l-2.799-.227a3.8 3.8 0 0 1 .838-1.719q.625-.73 1.613-1.122.993-.397 2.301-.397.909 0 1.74.213a4.6 4.6 0 0 1 1.484.66q.654.447 1.03 1.151.376.696.376 1.669v7.358h-2.869v-1.513h-.085q-.263.511-.703.902a3.3 3.3 0 0 1-1.059.604q-.618.213-1.427.213m.866-2.088q.668 0 1.179-.263a2.1 2.1 0 0 0 .803-.725q.291-.455.291-1.029v-1.158a1.7 1.7 0 0 1-.391.17 7 7 0 0 1-.546.135q-.306.057-.611.107l-.554.078a3.7 3.7 0 0 0-.931.249 1.5 1.5 0 0 0-.617.461q-.22.284-.221.71 0 .618.448.945.454.32 1.15.32m7.625 1.882v-10.909h3.025v10.909zm1.52-12.316q-.675 0-1.158-.447a1.45 1.45 0 0 1-.476-1.087q0-.625.476-1.072a1.63 1.63 0 0 1 1.158-.455q.674 0 1.15.455.483.447.483 1.072 0 .633-.483 1.087a1.62 1.62 0 0 1-1.15.447m6.954-2.23v14.546h-3.025v-14.546zm1745.29-32.043h3.08v9.446c0 1.06-.26 1.988-.76 2.784-.51.795-1.21 1.415-2.11 1.86-.91.441-1.96.661-3.16.661-1.21 0-2.27-.22-3.17-.661-.91-.445-1.61-1.065-2.11-1.86q-.75-1.194-.75-2.784v-9.446h3.07v9.183q0 .83.36 1.477c.25.431.6.769 1.04 1.016.45.246.96.369 1.56.369.59 0 1.11-.123 1.55-.369.45-.247.79-.585 1.03-1.016.25-.431.37-.923.37-1.477zm14.63 6.747-2.77.17c-.05-.237-.15-.45-.31-.639a1.6 1.6 0 0 0-.62-.462 2.1 2.1 0 0 0-.9-.177c-.47 0-.86.099-1.19.298q-.48.291-.48.781c0 .261.11.481.31.661q.315.27 1.08.433l1.97.398q1.59.327 2.37 1.051t.78 1.903q0 1.073-.63 1.882c-.41.54-.99.962-1.72 1.265-.72.298-1.56.447-2.5.447q-2.175 0-3.45-.902-1.29-.909-1.5-2.472l2.97-.156q.135.661.66 1.009.51.34 1.32.341c.53 0 .96-.102 1.28-.306.33-.208.49-.476.5-.802a.84.84 0 0 0-.35-.675q-.345-.27-1.05-.412l-1.89-.376c-1.06-.213-1.86-.583-2.38-1.108-.51-.526-.77-1.196-.77-2.01q0-1.052.57-1.811c.38-.507.92-.898 1.61-1.172.69-.275 1.51-.412 2.44-.412 1.38 0 2.46.291 3.25.873.8.583 1.26 1.376 1.4 2.38m7.12 8.011c-1.12 0-2.09-.227-2.9-.682a4.7 4.7 0 0 1-1.86-1.946c-.43-.843-.65-1.839-.65-2.99 0-1.122.22-2.107.65-2.954a4.87 4.87 0 0 1 1.84-1.982c.8-.473 1.73-.71 2.8-.71q1.08 0 2.01.348c.63.227 1.17.57 1.63 1.03.47.459.84 1.037 1.1 1.733q.39 1.037.39 2.429v.831h-9.21v-1.875h6.36c0-.436-.09-.822-.28-1.158a2.1 2.1 0 0 0-.79-.788c-.33-.195-.72-.292-1.16-.292a2.31 2.31 0 0 0-2.05 1.165c-.19.351-.3.741-.3 1.172v1.783q0 .809.3 1.399c.2.393.49.696.86.909s.8.32 1.31.32c.34 0 .65-.048.92-.143q.42-.141.72-.426c.2-.189.35-.421.46-.696l2.79.185a3.8 3.8 0 0 1-.87 1.761c-.43.498-1 .886-1.69 1.165-.69.275-1.48.412-2.38.412m6.98-.213v-10.909h2.94v1.903h.11c.2-.677.53-1.188 1-1.534a2.64 2.64 0 0 1 1.62-.525 4.5 4.5 0 0 1 .95.106v2.685a4 4 0 0 0-.59-.114q-.375-.05-.69-.05c-.44 0-.84.098-1.19.292-.34.189-.62.454-.82.795q-.3.511-.3 1.179V348zm12.82 0v-10.909h3.02V348zm1.52-12.315c-.45 0-.84-.149-1.16-.448a1.44 1.44 0 0 1-.48-1.086q0-.626.48-1.073c.32-.303.71-.454 1.16-.454s.83.151 1.15.454q.48.447.48 1.073 0 .632-.48 1.086c-.32.299-.7.448-1.15.448m6.95 6.008V348h-3.03v-10.909h2.89v1.925h.13c.24-.635.64-1.137 1.21-1.506q.855-.561 2.07-.561c.75 0 1.42.166 1.98.497s1 .805 1.31 1.42c.32.611.47 1.34.47 2.188V348h-3.02v-6.406c0-.668-.17-1.189-.52-1.563-.34-.379-.82-.568-1.42-.568q-.615 0-1.08.263a1.86 1.86 0 0 0-.73.767c-.17.331-.25.731-.26 1.2m9.47 6.307v-14.545h3.03v5.468h.09c.13-.293.33-.592.58-.895q.375-.46.99-.767.615-.312 1.53-.312c.8 0 1.53.208 2.21.625.67.412 1.21 1.034 1.61 1.868q.6 1.243.6 3.118c0 1.217-.19 2.244-.59 3.082q-.585 1.25-1.59 1.896c-.67.426-1.41.64-2.24.64q-.885 0-1.5-.292a3.1 3.1 0 0 1-1-.731 3.8 3.8 0 0 1-.6-.902h-.13V348zm2.96-5.455q0 .974.27 1.698c.18.483.44.859.79 1.129.34.265.75.398 1.24.398s.91-.135 1.25-.405c.34-.275.6-.653.77-1.136q.27-.732.27-1.684c0-.629-.08-1.183-.26-1.661-.18-.479-.43-.853-.77-1.123-.35-.27-.76-.404-1.26-.404-.49 0-.91.13-1.25.39q-.51.391-.78 1.108t-.27 1.69m14.63 5.668c-1.1 0-2.06-.234-2.86-.703a4.86 4.86 0 0 1-1.86-1.974c-.43-.848-.65-1.831-.65-2.948 0-1.127.22-2.112.65-2.954a4.8 4.8 0 0 1 1.86-1.975c.8-.473 1.76-.71 2.86-.71s2.05.237 2.86.71q1.2.703 1.86 1.975c.43.842.65 1.827.65 2.954 0 1.117-.22 2.1-.65 2.948q-.66 1.263-1.86 1.974c-.81.469-1.76.703-2.86.703m.01-2.344q.765 0 1.26-.426c.34-.289.59-.682.76-1.179.18-.497.26-1.063.26-1.697s-.08-1.201-.26-1.698c-.17-.497-.42-.89-.76-1.179q-.495-.433-1.26-.433c-.5 0-.93.145-1.27.433-.35.289-.6.682-.78 1.179-.17.497-.25 1.063-.25 1.698 0 .634.08 1.2.25 1.697.18.497.43.89.78 1.179.34.284.77.426 1.27.426m9.46-8.778 2.01 3.814 2.05-3.814h3.1l-3.16 5.454 3.25 5.455h-3.09l-2.15-3.771-2.12 3.771h-3.12l3.23-5.455-3.12-5.454zm-549.68 318.364h1.76v9.63c0 .995-.23 1.882-.7 2.664-.46.776-1.12 1.389-1.97 1.839-.84.445-1.84.668-2.98.668s-2.13-.223-2.98-.668q-1.275-.675-1.98-1.839-.69-1.172-.69-2.664v-9.63h1.76v9.488c0 .71.15 1.343.47 1.896.31.55.75.983 1.33 1.3.58.313 1.28.469 2.09.469s1.51-.156 2.09-.469c.58-.317 1.03-.75 1.33-1.3.32-.553.47-1.186.47-1.896zm12.78 6.079-1.5.426q-.15-.377-.42-.731a2.05 2.05 0 0 0-.74-.597q-.465-.234-1.2-.234c-.67 0-1.23.154-1.67.461q-.66.454-.66 1.158 0 .626.45.987c.31.242.78.443 1.42.604l1.62.398c.98.236 1.7.599 2.18 1.086q.72.725.72 1.868 0 .938-.54 1.676c-.35.493-.85.881-1.49 1.165s-1.38.426-2.23.426q-1.665 0-2.76-.724c-.73-.483-1.19-1.189-1.39-2.117l1.59-.397c.15.587.44 1.027.86 1.321.43.293.98.44 1.67.44q1.17 0 1.86-.497c.47-.336.7-.739.7-1.208 0-.378-.14-.696-.4-.951-.27-.261-.67-.455-1.22-.583l-1.82-.426c-1-.237-1.73-.603-2.2-1.101-.47-.502-.7-1.129-.7-1.882 0-.615.17-1.16.52-1.633s.83-.845 1.43-1.115 1.29-.405 2.06-.405c1.08 0 1.92.237 2.54.71a3.83 3.83 0 0 1 1.32 1.875m7.3 8.693c-1.05 0-1.96-.232-2.72-.696a4.66 4.66 0 0 1-1.76-1.96c-.4-.843-.61-1.823-.61-2.94 0-1.118.21-2.103.61-2.955.41-.857.99-1.524 1.72-2.003.74-.483 1.6-.724 2.59-.724.56 0 1.13.095 1.68.284s1.06.497 1.51.923c.46.422.82.98 1.09 1.676s.4 1.553.4 2.571v.711h-8.4v-1.449h6.7c0-.616-.12-1.165-.37-1.648a2.8 2.8 0 0 0-1.04-1.143c-.44-.28-.97-.419-1.57-.419q-1.005 0-1.74.497-.72.49-1.11 1.278a3.76 3.76 0 0 0-.39 1.69v.966q0 1.236.42 2.096.435.852 1.2 1.299c.52.294 1.11.441 1.79.441.44 0 .84-.062 1.19-.185q.54-.192.93-.568.39-.384.6-.952l1.62.455a3.5 3.5 0 0 1-.86 1.448c-.4.412-.9.734-1.49.966-.59.228-1.25.341-1.99.341m7.06-.227v-10.909h1.62v1.648h.12q.3-.81 1.08-1.314c.52-.336 1.1-.505 1.76-.505.12 0 .27.003.46.008q.27.006.42.021v1.704a6 6 0 0 0-.39-.064q-.3-.05-.63-.049c-.53 0-1.01.111-1.42.334-.42.217-.74.52-.98.909q-.36.575-.36 1.314V670zm13.07 4.091v-15h1.62v1.733h.2q.18-.285.51-.725c.22-.298.54-.563.95-.795.42-.237.98-.355 1.69-.355q1.38 0 2.43.689c.7.459 1.25 1.11 1.64 1.953s.59 1.837.59 2.983c0 1.155-.2 2.157-.59 3.004-.39.843-.94 1.496-1.63 1.96-.7.46-1.5.689-2.41.689q-1.05 0-1.68-.348c-.42-.236-.75-.504-.98-.802-.22-.303-.4-.554-.52-.753h-.14v5.767zm1.65-9.546q0 1.236.36 2.181c.24.625.59 1.115 1.06 1.47.46.35 1.03.526 1.7.526.7 0 1.29-.185 1.76-.554.47-.374.83-.876 1.06-1.506q.36-.952.36-2.117c0-.767-.11-1.458-.35-2.073-.23-.621-.58-1.111-1.06-1.471q-.705-.546-1.77-.546c-.68 0-1.25.172-1.72.518q-.69.511-1.05 1.435c-.23.61-.35 1.323-.35 2.137m12.21-1.107V670h-1.67v-14.545h1.67v5.34h.15a3.06 3.06 0 0 1 1.15-1.342c.51-.336 1.2-.504 2.06-.504q1.11 0 1.95.447c.56.294.99.746 1.3 1.357.31.606.47 1.378.47 2.315V670h-1.68v-6.818c0-.867-.22-1.537-.67-2.01q-.675-.717-1.86-.717-.825 0-1.47.348c-.43.232-.78.57-1.03 1.015-.24.445-.37.985-.37 1.62m10.14 6.562v-10.909h1.68V670zm.86-12.727c-.33 0-.61-.112-.85-.334-.23-.223-.35-.49-.35-.803 0-.312.12-.58.35-.802.24-.223.52-.334.85-.334.32 0 .6.111.83.334q.36.333.36.802t-.36.803c-.23.222-.51.334-.83.334m11.62 4.261-1.51.426a2.5 2.5 0 0 0-.42-.731 2 2 0 0 0-.74-.597q-.465-.234-1.2-.234c-.66 0-1.22.154-1.67.461q-.66.454-.66 1.158c0 .417.16.746.46.987.3.242.78.443 1.42.604l1.62.398c.97.236 1.7.599 2.18 1.086q.72.725.72 1.868 0 .938-.54 1.676c-.36.493-.86.881-1.49 1.165-.64.284-1.39.426-2.23.426-1.12 0-2.04-.241-2.77-.724q-1.095-.725-1.38-2.117l1.59-.397c.15.587.44 1.027.86 1.321.42.293.98.44 1.67.44q1.17 0 1.86-.497.69-.504.69-1.208 0-.568-.39-.951-.405-.391-1.23-.583l-1.81-.426c-1-.237-1.74-.603-2.21-1.101q-.69-.753-.69-1.882c0-.615.17-1.16.52-1.633s.82-.845 1.42-1.115c.61-.27 1.3-.405 2.06-.405q1.62 0 2.55.71a3.83 3.83 0 0 1 1.32 1.875m4.4 1.904V670h-1.68v-14.545h1.68v5.34h.14a3.06 3.06 0 0 1 1.15-1.342c.51-.336 1.2-.504 2.06-.504q1.11 0 1.95.447c.56.294.99.746 1.3 1.357.31.606.47 1.378.47 2.315V670h-1.68v-6.818c0-.867-.22-1.537-.67-2.01-.45-.478-1.06-.717-1.85-.717-.55 0-1.05.116-1.48.348q-.645.348-1.02 1.015c-.25.445-.37.985-.37 1.62m10.14 6.562v-10.909h1.67V670zm.85-12.727c-.33 0-.61-.112-.85-.334-.23-.223-.34-.49-.34-.803 0-.312.11-.58.34-.802.24-.223.52-.334.85-.334q.48 0 .84.334c.23.222.35.49.35.802s-.12.58-.35.803a1.2 1.2 0 0 1-.84.334m5.57 6.165V670h-1.68v-10.909h1.62v1.704h.14a3.16 3.16 0 0 1 1.17-1.335c.52-.341 1.19-.511 2.02-.511.73 0 1.38.151 1.93.454.56.299.99.753 1.3 1.364.3.606.46 1.373.46 2.301V670h-1.68v-6.818c0-.857-.22-1.525-.67-2.003q-.66-.724-1.83-.724c-.53 0-1.01.116-1.43.348q-.63.348-.99 1.015-.36.668-.36 1.62m14.42 10.88c-.8 0-1.5-.104-2.08-.312-.59-.204-1.07-.474-1.46-.81a4.6 4.6 0 0 1-.92-1.065l1.34-.938q.225.298.57.682c.24.26.55.485.96.675.4.194.94.291 1.59.291.89 0 1.61-.213 2.19-.639.57-.426.85-1.094.85-2.003v-2.216h-.14c-.12.199-.3.445-.52.739-.23.288-.55.546-.97.774-.42.222-.98.334-1.69.334q-1.32 0-2.37-.625c-.7-.417-1.25-1.023-1.66-1.819q-.6-1.193-.6-2.897c0-1.118.2-2.091.59-2.919.39-.834.94-1.478 1.64-1.932q1.05-.689 2.43-.689c.71 0 1.27.118 1.69.355.42.232.74.497.97.795.22.294.4.535.52.725h.17v-1.733h1.62v11.221c0 .938-.21 1.7-.64 2.287a3.64 3.64 0 0 1-1.7 1.3c-.71.28-1.5.419-2.38.419m-.05-5.994c.67 0 1.24-.154 1.7-.462.47-.308.82-.75 1.06-1.328q.36-.867.36-2.074c0-.786-.12-1.479-.35-2.081q-.36-.902-1.05-1.413c-.47-.341-1.04-.511-1.72-.511-.71 0-1.3.179-1.78.539-.47.36-.82.843-1.06 1.449-.23.606-.34 1.279-.34 2.017 0 .758.11 1.428.35 2.01.24.578.6 1.032 1.07 1.364.47.327 1.06.49 1.76.49m13.46 1.676v-10.909h1.62v1.648h.12q.3-.81 1.08-1.314c.52-.336 1.1-.505 1.76-.505.12 0 .27.003.46.008q.27.006.42.021v1.704a6 6 0 0 0-.39-.064q-.3-.05-.63-.049c-.53 0-1.01.111-1.42.334-.42.217-.74.52-.98.909q-.36.575-.36 1.314V670zm11.69.227c-1.05 0-1.96-.232-2.72-.696a4.66 4.66 0 0 1-1.76-1.96c-.4-.843-.61-1.823-.61-2.94 0-1.118.21-2.103.61-2.955.41-.857.99-1.524 1.72-2.003.74-.483 1.6-.724 2.59-.724.56 0 1.13.095 1.68.284s1.06.497 1.51.923c.46.422.82.98 1.09 1.676s.4 1.553.4 2.571v.711h-8.41v-1.449h6.71c0-.616-.12-1.165-.37-1.648a2.8 2.8 0 0 0-1.04-1.143c-.44-.28-.97-.419-1.57-.419q-1.005 0-1.74.497-.72.49-1.11 1.278a3.76 3.76 0 0 0-.39 1.69v.966q0 1.236.42 2.096.435.852 1.2 1.299c.52.294 1.11.441 1.79.441.44 0 .84-.062 1.19-.185q.54-.192.93-.568.39-.384.6-.952l1.62.455a3.5 3.5 0 0 1-.86 1.448c-.4.412-.9.734-1.49.966-.59.228-1.25.341-1.99.341m7.06 3.864v-15h1.62v1.733h.2q.195-.285.51-.725c.23-.298.54-.563.96-.795.41-.237.98-.355 1.69-.355.91 0 1.72.23 2.42.689.71.459 1.25 1.11 1.64 1.953.4.843.59 1.837.59 2.983 0 1.155-.19 2.157-.59 3.004-.39.843-.93 1.496-1.63 1.96-.69.46-1.5.689-2.41.689q-1.05 0-1.68-.348c-.42-.236-.75-.504-.97-.802-.23-.303-.4-.554-.53-.753h-.14v5.767zm1.65-9.546q0 1.236.36 2.181c.25.625.6 1.115 1.06 1.47.47.35 1.03.526 1.71.526.7 0 1.28-.185 1.75-.554.47-.374.83-.876 1.07-1.506q.36-.952.36-2.117 0-1.15-.36-2.073c-.23-.621-.58-1.111-1.06-1.471-.46-.364-1.05-.546-1.76-.546-.69 0-1.26.172-1.72.518q-.705.511-1.05 1.435-.36.916-.36 2.137m14.97 5.682c-.98 0-1.85-.234-2.59-.703s-1.32-1.124-1.73-1.967-.62-1.828-.62-2.955c0-1.136.21-2.128.62-2.976s.99-1.505 1.73-1.974 1.61-.703 2.59-.703c.99 0 1.85.234 2.59.703s1.32 1.127 1.73 1.974q.63 1.272.63 2.976 0 1.69-.63 2.955c-.41.843-.99 1.498-1.73 1.967s-1.6.703-2.59.703m0-1.505c.75 0 1.37-.192 1.85-.576s.84-.887 1.07-1.512.35-1.303.35-2.032-.12-1.408-.35-2.038a3.44 3.44 0 0 0-1.07-1.527c-.48-.388-1.1-.582-1.85-.582s-1.36.194-1.84.582c-.49.388-.84.897-1.08 1.527-.23.63-.34 1.309-.34 2.038s.11 1.407.34 2.032c.24.625.59 1.129 1.08 1.512.48.384 1.09.576 1.84.576m7.5 1.278v-10.909h1.62v1.648h.12q.3-.81 1.08-1.314a3.2 3.2 0 0 1 1.76-.505c.12 0 .28.003.46.008.19.004.32.011.42.021v1.704a6 6 0 0 0-.39-.064q-.3-.05-.63-.049c-.53 0-1.01.111-1.42.334-.42.217-.74.52-.98.909q-.36.575-.36 1.314V670zm12.87-10.909v1.42h-5.65v-1.42zm-4-2.614h1.67v10.398q0 .71.21 1.065.21.348.54.469c.22.076.46.114.7.114.19 0 .34-.01.46-.029l.28-.056.34 1.505a3 3 0 0 1-.47.128c-.21.047-.46.071-.78.071-.47 0-.93-.102-1.39-.305a2.77 2.77 0 0 1-1.12-.931c-.29-.416-.44-.942-.44-1.576zm6.53 13.523v-10.909h1.67V670zm.85-12.727c-.33 0-.61-.112-.85-.334-.23-.223-.35-.49-.35-.803 0-.312.12-.58.35-.802.24-.223.52-.334.85-.334q.48 0 .84.334c.23.222.35.49.35.802s-.12.58-.35.803a1.2 1.2 0 0 1-.84.334m5.57 6.165V670h-1.68v-10.909h1.62v1.704h.14a3.16 3.16 0 0 1 1.17-1.335q.78-.511 2.01-.511c.74 0 1.39.151 1.94.454.56.299.99.753 1.3 1.364.3.606.46 1.373.46 2.301V670h-1.68v-6.818c0-.857-.22-1.525-.67-2.003q-.66-.724-1.83-.724c-.53 0-1.01.116-1.43.348q-.63.348-.99 1.015-.36.668-.36 1.62m14.42 10.88c-.81 0-1.5-.104-2.08-.312-.59-.204-1.07-.474-1.46-.81a4.6 4.6 0 0 1-.92-1.065l1.34-.938q.225.298.57.682c.24.26.55.485.96.675.4.194.94.291 1.59.291.88 0 1.61-.213 2.18-.639.58-.426.86-1.094.86-2.003v-2.216h-.14c-.12.199-.3.445-.52.739-.23.288-.55.546-.97.774-.42.222-.98.334-1.69.334q-1.32 0-2.37-.625c-.7-.417-1.25-1.023-1.66-1.819q-.6-1.193-.6-2.897c0-1.118.2-2.091.59-2.919.39-.834.94-1.478 1.64-1.932q1.05-.689 2.43-.689c.71 0 1.27.118 1.69.355q.63.348.96.795c.23.294.41.535.53.725h.17v-1.733h1.62v11.221c0 .938-.21 1.7-.64 2.287a3.64 3.64 0 0 1-1.7 1.3c-.71.28-1.5.419-2.38.419m-.05-5.994c.67 0 1.24-.154 1.7-.462.47-.308.82-.75 1.06-1.328q.36-.867.36-2.074c0-.786-.12-1.479-.35-2.081q-.36-.902-1.05-1.413c-.47-.341-1.04-.511-1.72-.511-.71 0-1.3.179-1.78.539-.47.36-.82.843-1.06 1.449-.23.606-.34 1.279-.34 2.017 0 .758.11 1.428.35 2.01.24.578.6 1.032 1.07 1.364.47.327 1.06.49 1.76.49"/><path fill="#0055dc" stroke="#0057e1" stroke-miterlimit="10" stroke-width=".541" d="M129.379 276v59.123h84.033V276zm41.939 34.573-38.881-32.933h77.917zm-7.015-3.801-33.28 25.826v-54.021zm1.285 1.093 5.73 4.869 5.834-4.921 33.048 25.644h-77.609l32.971-25.592zm12.849-1.145 33.356-28.143v54.021z"/><path stroke="#0053ed" stroke-miterlimit="10" stroke-width="2.072" d="M120.332 320.367h-15.367m15.369-14.764H97m23.332-14.761h-15.367"/><path fill="#0053ed" stroke="#fff" stroke-miterlimit="10" d="m2044.31 280.54-1.29 2.192V255h-68.21v27.313l-1.4-1.773H1960V318h100v-37.46h-15.71zm-4 6.822-4.13 7.019h-1.83l-18.67-14.408 24.65-20.688v28.052zm-10.48 7.019h-41.81l16.25-12.56 4.57 3.842 4.64-3.916 16.32 12.61zm8.06-36.647-29.03 24.357-28.9-24.357h57.95zm-60.35 1.576 24.58 20.713-18.13 13.989-6.47-8.226V259.31zm79.77 55.981h-94.6v-32.017h9.43l10.87 13.841h54.68l8.16-13.841h11.49v32.017z"/><path fill="#000" d="M1668.14 358v-14.545h9.8v2.535h-6.73v3.466h6.22v2.535h-6.22v3.473h6.76V358zm12.19 0v-10.909h2.88v1.925h.13c.23-.64.6-1.144 1.13-1.513.54-.369 1.17-.554 1.91-.554.75 0 1.38.187 1.91.561q.78.554 1.05 1.506h.11c.23-.625.63-1.125 1.21-1.499.59-.379 1.28-.568 2.08-.568 1.02 0 1.85.324 2.48.973q.96.966.96 2.741V358h-3.02v-6.74q0-.91-.48-1.364c-.32-.303-.73-.454-1.21-.454-.55 0-.98.175-1.28.525-.31.346-.47.803-.47 1.371V358h-2.93v-6.804c0-.535-.15-.961-.46-1.278q-.45-.476-1.2-.476c-.34 0-.64.085-.91.255a1.7 1.7 0 0 0-.63.704q-.24.447-.24 1.051V358zm21.35.206q-1.05 0-1.86-.362a2.9 2.9 0 0 1-1.29-1.087c-.32-.483-.47-1.084-.47-1.804q0-.909.33-1.527c.22-.412.53-.743.91-.994a4.3 4.3 0 0 1 1.31-.568 10 10 0 0 1 1.55-.27q.945-.1 1.53-.185c.39-.061.67-.151.85-.27a.6.6 0 0 0 .26-.525v-.043c0-.45-.14-.798-.43-1.044-.28-.246-.68-.369-1.19-.369-.55 0-.98.12-1.3.362-.32.237-.54.535-.64.895l-2.8-.227q.21-.995.84-1.719c.42-.488.95-.862 1.61-1.122.66-.266 1.43-.398 2.3-.398q.915 0 1.74.213c.56.142 1.06.362 1.49.66s.78.682 1.03 1.151c.25.464.37 1.02.37 1.669V358h-2.87v-1.513h-.08c-.18.341-.41.642-.7.902-.3.256-.65.457-1.06.604-.41.142-.89.213-1.43.213m.87-2.088c.44 0 .83-.088 1.18-.263.34-.18.6-.421.8-.724.19-.303.29-.647.29-1.03v-1.158q-.15.093-.39.171a7 7 0 0 1-.55.135c-.2.037-.41.073-.61.106l-.55.078q-.54.078-.93.249a1.5 1.5 0 0 0-.62.461c-.15.19-.22.427-.22.711q0 .617.45.944c.3.213.68.32 1.15.32m7.62 1.882v-10.909h3.03V358zm1.52-12.315c-.45 0-.83-.149-1.16-.448a1.47 1.47 0 0 1-.47-1.086c0-.417.16-.775.47-1.073.33-.303.71-.454 1.16-.454s.83.151 1.15.454q.48.447.48 1.073 0 .631-.48 1.086c-.32.299-.7.448-1.15.448m6.96-2.23V358h-3.03v-14.545zm7.05 18.636v-15h2.98v1.832h.14q.195-.44.57-.895c.26-.307.59-.563 1-.767q.615-.312 1.53-.312c.8 0 1.53.208 2.2.625.67.412 1.21 1.034 1.61 1.868.41.828.61 1.868.61 3.118 0 1.217-.2 2.244-.59 3.082q-.585 1.25-1.59 1.896-1.005.64-2.25.64-.87 0-1.5-.292c-.4-.194-.74-.438-1-.731a3.5 3.5 0 0 1-.59-.902h-.1v5.838zm2.96-9.546q0 .974.27 1.698t.78 1.129c.34.265.76.398 1.24.398.5 0 .91-.135 1.25-.405q.51-.412.78-1.136.27-.732.27-1.684c0-.629-.09-1.183-.26-1.661q-.27-.718-.78-1.123-.51-.404-1.26-.404c-.49 0-.91.13-1.25.39-.33.261-.59.63-.77 1.108q-.27.717-.27 1.69m9.69 5.455v-10.909h2.94v1.903h.11c.2-.677.53-1.188 1-1.534a2.64 2.64 0 0 1 1.62-.525 4.5 4.5 0 0 1 .95.106v2.685a3.6 3.6 0 0 0-.59-.114c-.25-.033-.48-.05-.68-.05q-.675 0-1.2.292c-.34.189-.62.454-.82.795q-.3.511-.3 1.179V358zm12.61.213c-1.1 0-2.06-.234-2.86-.703a4.86 4.86 0 0 1-1.86-1.974c-.43-.848-.65-1.831-.65-2.948 0-1.127.22-2.112.65-2.954a4.8 4.8 0 0 1 1.86-1.975c.8-.473 1.76-.71 2.86-.71q1.65 0 2.85.71a4.76 4.76 0 0 1 1.87 1.975c.43.842.65 1.827.65 2.954 0 1.117-.22 2.1-.65 2.948-.44.842-1.06 1.5-1.87 1.974q-1.2.703-2.85.703m.01-2.344c.51 0 .92-.142 1.26-.426.34-.289.59-.682.76-1.179.18-.497.26-1.063.26-1.697s-.08-1.201-.26-1.698c-.17-.497-.42-.89-.76-1.179-.34-.288-.75-.433-1.26-.433-.5 0-.93.145-1.28.433-.34.289-.59.682-.77 1.179-.17.497-.25 1.063-.25 1.698 0 .634.08 1.2.25 1.697.18.497.43.89.77 1.179.35.284.78.426 1.28.426m17.14-8.778L1764.3 358h-3.41l-3.81-10.909h3.19l2.27 7.805h.11l2.26-7.805zm1.55 10.909v-10.909h3.03V358zm1.52-12.315c-.45 0-.83-.149-1.15-.448a1.44 1.44 0 0 1-.48-1.086q0-.626.48-1.073c.32-.303.7-.454 1.15-.454s.84.151 1.15.454c.33.298.49.656.49 1.073 0 .421-.16.783-.49 1.086-.31.299-.7.448-1.15.448m7.95 12.493q-1.245 0-2.25-.64-1.005-.646-1.59-1.896c-.39-.838-.58-1.865-.58-3.082q0-1.875.6-3.118c.4-.834.94-1.456 1.61-1.868.67-.417 1.4-.625 2.21-.625.61 0 1.11.104 1.52.312.41.204.75.46 1 .767.25.303.45.602.58.895h.09v-5.468h3.02V358h-2.98v-1.747h-.13q-.21.455-.6.902c-.26.293-.59.537-1.01.731-.4.194-.9.292-1.49.292m.96-2.408c.49 0 .9-.133 1.24-.398q.51-.405.78-1.129t.27-1.698c0-.648-.09-1.212-.26-1.69-.18-.478-.45-.847-.79-1.108-.34-.26-.75-.39-1.24-.39q-.75 0-1.26.404c-.34.27-.6.644-.77 1.123-.18.478-.26 1.032-.26 1.661 0 .635.08 1.196.26 1.684.18.483.44.861.77 1.136q.51.405 1.26.405m12.71 2.443c-1.12 0-2.09-.227-2.9-.682a4.7 4.7 0 0 1-1.86-1.946c-.44-.843-.65-1.839-.65-2.99 0-1.122.21-2.107.65-2.954a4.87 4.87 0 0 1 1.84-1.982c.8-.473 1.73-.71 2.8-.71q1.08 0 2.01.348c.62.227 1.17.57 1.63 1.03.47.459.83 1.037 1.1 1.733q.39 1.037.39 2.429v.831h-9.22v-1.875h6.37c0-.436-.1-.822-.29-1.158a2.06 2.06 0 0 0-.78-.788 2.27 2.27 0 0 0-1.16-.292 2.31 2.31 0 0 0-2.05 1.165q-.3.526-.3 1.172v1.783q0 .809.3 1.399c.2.393.49.696.85.909q.555.32 1.32.32c.33 0 .64-.048.92-.143q.42-.141.72-.426.3-.284.45-.696l2.8.185a3.8 3.8 0 0 1-.87 1.761c-.44.498-1 .886-1.69 1.165-.69.275-1.48.412-2.38.412m6.98-.213v-10.909h2.93v1.903h.12c.2-.677.53-1.188 1-1.534a2.64 2.64 0 0 1 1.62-.525c.15 0 .31.009.49.028.17.019.33.045.46.078v2.685a4 4 0 0 0-.59-.114q-.375-.05-.69-.05c-.44 0-.84.098-1.19.292a2.17 2.17 0 0 0-.83.795c-.19.341-.29.734-.29 1.179V358zm-114.11 16.727c0-1.78.23-3.418.7-4.915a14.7 14.7 0 0 1 2.05-4.14h1.95a8.8 8.8 0 0 0-.98 1.726c-.3.682-.57 1.43-.8 2.244a22 22 0 0 0-.53 2.521c-.13.867-.19 1.721-.19 2.564q0 1.69.33 3.424.345 1.732.9 3.217c.38.989.8 1.797 1.27 2.422h-1.95a14.7 14.7 0 0 1-2.05-4.141c-.47-1.496-.7-3.137-.7-4.922m8.34 7.273h-2.33l5.23-14.545h2.54l5.23 14.545h-2.33l-4.11-11.903h-.11zm.39-5.696h7.55v1.847h-7.55zm14.34-.781V382h-2.13v-10.909h2.04v1.775h.13c.26-.577.65-1.041 1.18-1.392q.81-.525 2.04-.525c.75 0 1.4.156 1.96.469.55.307.99.767 1.3 1.377.3.611.46 1.366.46 2.266V382h-2.13v-6.683c0-.791-.2-1.409-.61-1.854-.42-.45-.98-.675-1.7-.675q-.735 0-1.32.32c-.37.213-.68.526-.9.937-.22.408-.32.9-.32 1.478m10.78 10.568q-.48 0-.87-.078c-.26-.048-.45-.1-.58-.156l.51-1.741c.39.105.73.15 1.04.135.3-.014.57-.127.8-.34.24-.214.44-.562.62-1.045l.27-.724-4-11.051h2.28l2.76 8.466h.11l2.77-8.466h2.28l-4.5 12.365c-.21.568-.47 1.049-.79 1.442-.33.397-.71.696-1.16.895-.44.198-.96.298-1.54.298m23.38-14.815c-.08-.673-.39-1.194-.94-1.563q-.825-.561-2.07-.561c-.6 0-1.12.095-1.55.284-.44.185-.77.44-1.02.767-.23.322-.35.689-.35 1.101q0 .519.24.895c.17.251.38.462.65.632.27.166.56.305.86.419.31.109.61.199.89.27l1.42.369c.47.114.94.268 1.43.462s.94.45 1.36.767c.41.317.75.71 1 1.179q.39.703.39 1.683 0 1.236-.63 2.195c-.43.639-1.04 1.143-1.84 1.513q-1.2.553-2.91.553c-1.09 0-2.03-.172-2.83-.518q-1.185-.519-1.86-1.47-.675-.959-.75-2.273h2.2c.04.526.22.964.51 1.314a2.8 2.8 0 0 0 1.16.774q.705.249 1.56.249.93 0 1.65-.291c.49-.199.87-.474 1.15-.824q.42-.533.42-1.243c0-.431-.12-.784-.37-1.058q-.36-.412-.99-.682c-.41-.18-.87-.339-1.39-.476l-1.72-.469c-1.17-.317-2.09-.783-2.77-1.399q-1.02-.924-1.02-2.443c0-.838.23-1.57.68-2.195.46-.625 1.07-1.11 1.85-1.456.78-.35 1.65-.525 2.63-.525s1.85.173 2.6.518c.76.346 1.36.822 1.79 1.428q.66.901.69 2.074zm4.94-3.821h2.66l4.63 11.306h.17l4.63-11.306h2.67V382h-2.09v-10.526h-.14l-4.29 10.505h-1.73l-4.29-10.512h-.14V382h-2.08zm17.23 1.889v-1.889h11.26v1.889h-4.54V382h-2.19v-12.656zM1778.81 382v-14.545h5.19c1.13 0 2.07.206 2.81.617s1.3.976 1.67 1.691c.37.71.55 1.51.55 2.4 0 .895-.18 1.7-.56 2.415-.37.71-.93 1.274-1.67 1.69-.75.412-1.68.618-2.81.618h-3.56v-1.86h3.36q1.08 0 1.74-.37c.45-.251.77-.592.98-1.022s.31-.921.31-1.471c0-.549-.1-1.037-.31-1.463s-.54-.76-.98-1.001q-.675-.363-1.77-.362h-2.75V382zm-71.1 15.754-1.93.341c-.08-.246-.21-.48-.38-.703s-.4-.405-.7-.547c-.29-.142-.66-.213-1.1-.213q-.9 0-1.5.405c-.41.265-.61.608-.61 1.03 0 .364.14.658.41.88.27.223.7.405 1.3.547l1.74.398c1 .232 1.75.59 2.24 1.072s.74 1.111.74 1.883q0 .98-.57 1.747c-.37.506-.9.904-1.57 1.193s-1.44.433-2.32.433c-1.22 0-2.22-.26-2.99-.781-.77-.526-1.25-1.271-1.42-2.237l2.05-.313c.13.535.39.94.79 1.215.4.27.92.405 1.55.405.7 0 1.26-.145 1.67-.434q.63-.44.63-1.072c0-.341-.13-.628-.38-.86-.26-.232-.64-.407-1.16-.525l-1.85-.405c-1.02-.232-1.77-.601-2.26-1.108q-.72-.76-.72-1.925 0-.966.54-1.69c.36-.483.86-.859 1.49-1.129.63-.275 1.36-.412 2.18-.412 1.18 0 2.11.256 2.78.767q1.02.76 1.35 2.038m7.25 8.466c-1.08 0-2-.229-2.78-.689a4.7 4.7 0 0 1-1.79-1.953q-.63-1.264-.63-2.962 0-1.676.63-2.954c.42-.852 1.01-1.518 1.76-1.996.76-.478 1.64-.717 2.66-.717.61 0 1.21.102 1.79.305.57.204 1.09.523 1.55.959s.82 1.001 1.09 1.698c.26.691.4 1.531.4 2.521v.753h-8.68v-1.591h6.6c0-.559-.12-1.054-.35-1.485a2.5 2.5 0 0 0-.95-1.029q-.615-.377-1.44-.377-.9 0-1.56.44a2.94 2.94 0 0 0-1.02 1.137q-.36.696-.36 1.513v1.243c0 .729.13 1.349.38 1.86a2.8 2.8 0 0 0 1.09 1.172c.46.265 1.01.398 1.63.398.4 0 .77-.057 1.1-.171.33-.118.62-.293.86-.525s.42-.519.55-.859l2.01.362a3.6 3.6 0 0 1-.87 1.555c-.41.44-.93.784-1.55 1.03-.62.241-1.33.362-2.12.362m7.03-.22v-10.909h2.06v1.733h.11a2.65 2.65 0 0 1 1.05-1.385 3 3 0 0 1 1.72-.511 9 9 0 0 1 .9.049v2.032a4 4 0 0 0-.45-.079 4.4 4.4 0 0 0-.66-.049c-.5 0-.95.106-1.34.319-.39.209-.7.5-.92.874-.23.369-.34.791-.34 1.264V406zm17.34-10.909L1735.38 406h-2.28l-3.96-10.909h2.28l2.76 8.395h.12l2.75-8.395zm2 10.909v-10.909h2.12V406zm1.07-12.592c-.37 0-.69-.123-.95-.37a1.2 1.2 0 0 1-.39-.895q0-.525.39-.894c.26-.251.58-.377.95-.377s.69.126.95.377q.39.369.39.894 0 .519-.39.895c-.26.247-.58.37-.95.37m8.5 12.812c-1.05 0-1.96-.239-2.72-.717-.76-.483-1.34-1.148-1.75-1.996-.41-.847-.61-1.818-.61-2.912 0-1.108.21-2.086.62-2.933q.63-1.278 1.77-1.996c.75-.478 1.65-.717 2.67-.717q1.245 0 2.22.462c.65.303 1.17.729 1.57 1.278q.6.824.72 1.925h-2.07c-.11-.512-.38-.952-.78-1.321q-.6-.554-1.62-.554-.885 0-1.56.468c-.44.308-.78.748-1.03 1.321-.24.569-.37 1.241-.37 2.017 0 .796.12 1.482.37 2.06q.36.867 1.02 1.342c.44.318.97.476 1.57.476.4 0 .77-.073 1.09-.22.33-.151.61-.367.83-.646q.345-.42.48-1.009h2.07a4.1 4.1 0 0 1-.69 1.89c-.39.553-.9.989-1.54 1.306s-1.39.476-2.26.476m11.46 0c-1.08 0-2-.229-2.78-.689a4.7 4.7 0 0 1-1.79-1.953c-.42-.843-.62-1.83-.62-2.962 0-1.117.2-2.102.62-2.954s1.01-1.518 1.76-1.996c.76-.478 1.65-.717 2.66-.717.61 0 1.21.102 1.79.305s1.1.523 1.55.959c.46.436.83 1.001 1.09 1.698.27.691.4 1.531.4 2.521v.753h-8.67v-1.591h6.59c0-.559-.12-1.054-.34-1.485a2.6 2.6 0 0 0-.96-1.029q-.615-.377-1.44-.377-.885 0-1.56.44a2.94 2.94 0 0 0-1.02 1.137q-.36.696-.36 1.513v1.243q0 1.094.39 1.86.39.768 1.08 1.172c.47.265 1.01.398 1.63.398.4 0 .77-.057 1.1-.171.33-.118.62-.293.86-.525s.43-.519.55-.859l2.01.362c-.16.592-.45 1.11-.86 1.555q-.615.66-1.56 1.03c-.62.241-1.33.362-2.12.362m11.12-6.257c0 1.785-.24 3.426-.7 4.922a14.7 14.7 0 0 1-2.06 4.141h-1.94c.35-.469.67-1.044.98-1.726.3-.682.57-1.428.79-2.238q.345-1.221.54-2.528c.12-.871.19-1.728.19-2.571 0-1.122-.11-2.261-.34-3.416a18.7 18.7 0 0 0-.9-3.217q-.57-1.485-1.26-2.422h1.94c.9 1.264 1.59 2.644 2.06 4.14.46 1.497.7 3.135.7 4.915M1353.23 355v-14.545h9.8v2.535h-6.72v3.466h6.22v2.535h-6.22v3.473h6.75V355zm14.72-10.909 2 3.814 2.06-3.814h3.1l-3.16 5.454 3.24 5.455h-3.09l-2.15-3.771-2.11 3.771h-3.13l3.24-5.455-3.13-5.454zm8.96 10.909v-10.909h3.02V355zm1.52-12.315c-.45 0-.84-.149-1.16-.448a1.44 1.44 0 0 1-.48-1.086q0-.626.48-1.073c.32-.303.71-.454 1.16-.454s.83.151 1.15.454q.48.447.48 1.073 0 .631-.48 1.086c-.32.299-.7.448-1.15.448m13 4.517-2.77.17q-.075-.356-.3-.639a1.7 1.7 0 0 0-.62-.462 2.1 2.1 0 0 0-.9-.177c-.47 0-.87.099-1.19.298q-.48.291-.48.781c0 .261.1.481.31.661s.57.324 1.07.433l1.98.398q1.59.327 2.37 1.051t.78 1.903q0 1.073-.63 1.882c-.42.54-.99.962-1.72 1.265-.73.298-1.56.447-2.51.447q-2.16 0-3.45-.902-1.275-.909-1.5-2.472l2.98-.156c.09.441.31.777.65 1.009.35.227.79.341 1.33.341.53 0 .96-.102 1.28-.306.32-.208.49-.476.49-.802 0-.275-.12-.5-.34-.675q-.345-.27-1.05-.412l-1.89-.376c-1.07-.213-1.86-.583-2.38-1.108q-.78-.789-.78-2.01 0-1.052.57-1.811c.38-.507.92-.898 1.61-1.172.7-.275 1.51-.412 2.45-.412 1.37 0 2.46.291 3.25.873.8.583 1.26 1.376 1.39 2.38m7.96-3.111v2.273h-6.57v-2.273zm-5.08-2.614h3.03v10.171q0 .419.12.653.135.228.36.32t.54.092q.21 0 .42-.035l.33-.064.48 2.251c-.15.047-.37.102-.64.163a5 5 0 0 1-1 .121q-1.095.043-1.92-.291a2.64 2.64 0 0 1-1.27-1.037c-.31-.469-.45-1.061-.45-1.776zm7.05 13.523v-10.909h3.02V355zm1.52-12.315c-.45 0-.84-.149-1.16-.448a1.43 1.43 0 0 1-.47-1.086c0-.417.15-.775.47-1.073.32-.303.71-.454 1.16-.454s.83.151 1.15.454q.48.447.48 1.073 0 .631-.48 1.086c-.32.299-.7.448-1.15.448m6.95 6.008V355h-3.02v-10.909h2.88v1.925h.13c.24-.635.65-1.137 1.21-1.506q.855-.561 2.07-.561 1.14 0 1.98.497c.57.331 1 .805 1.32 1.42.31.611.46 1.34.46 2.188V355h-3.02v-6.406q0-1.002-.51-1.563c-.35-.379-.82-.568-1.43-.568q-.615 0-1.08.263t-.72.767q-.255.497-.27 1.2m14.33 10.625q-1.47 0-2.52-.405c-.69-.265-1.25-.627-1.66-1.086a3.33 3.33 0 0 1-.8-1.549l2.8-.376c.08.218.22.421.4.611.19.189.43.341.73.454.31.119.68.178 1.13.178.65 0 1.2-.161 1.62-.483.43-.317.65-.85.65-1.598v-1.996h-.13q-.195.455-.6.86-.39.404-1.02.66c-.42.171-.91.256-1.49.256-.82 0-1.57-.19-2.24-.568-.67-.384-1.2-.969-1.6-1.755-.39-.79-.59-1.789-.59-2.997 0-1.236.21-2.268.61-3.096s.94-1.449 1.6-1.861a4.17 4.17 0 0 1 2.21-.618c.61 0 1.12.104 1.54.312q.615.306.99.767c.26.303.45.602.59.895h.11v-1.832h3.01v11.016c0 .928-.23 1.704-.68 2.329q-.69.938-1.89 1.406c-.8.318-1.72.476-2.77.476m.07-6.747q.735 0 1.23-.362c.34-.246.61-.597.79-1.051q.27-.69.27-1.648 0-.959-.27-1.662-.27-.71-.78-1.101c-.34-.26-.75-.39-1.24-.39q-.75 0-1.26.404c-.34.266-.6.635-.77 1.108q-.27.711-.27 1.641 0 .945.27 1.633c.18.455.43.808.77 1.059q.51.369 1.26.369m17.28 2.642c-1.13 0-2.09-.227-2.9-.682a4.6 4.6 0 0 1-1.86-1.946q-.66-1.264-.66-2.99 0-1.683.66-2.954a4.8 4.8 0 0 1 1.84-1.982c.79-.473 1.73-.71 2.8-.71q1.08 0 2.01.348c.62.227 1.16.57 1.63 1.03.47.459.83 1.037 1.09 1.733q.39 1.037.39 2.429v.831h-9.21v-1.875h6.37c0-.436-.1-.822-.29-1.158a2 2 0 0 0-.79-.788c-.33-.195-.71-.292-1.15-.292q-.69 0-1.23.32c-.35.208-.62.49-.82.845-.2.351-.3.741-.31 1.172v1.783q0 .809.3 1.399c.21.393.49.696.86.909q.555.32 1.32.32c.33 0 .64-.048.92-.143q.42-.141.72-.426.3-.284.45-.696l2.8.185a3.8 3.8 0 0 1-.87 1.761c-.44.498-1 .886-1.69 1.165-.69.275-1.48.412-2.38.412m6.98-.213v-10.909h2.88v1.925h.13q.345-.96 1.14-1.513c.53-.369 1.16-.554 1.9-.554.75 0 1.38.187 1.91.561.52.369.88.871 1.05 1.506h.11c.23-.625.63-1.125 1.21-1.499.59-.379 1.28-.568 2.08-.568 1.02 0 1.85.324 2.48.973q.96.966.96 2.741V355h-3.02v-6.74q0-.91-.48-1.364c-.32-.303-.73-.454-1.21-.454-.55 0-.98.175-1.28.525-.31.346-.47.803-.47 1.371V355h-2.93v-6.804c0-.535-.15-.961-.46-1.278q-.45-.476-1.2-.476c-.34 0-.64.085-.91.255a1.7 1.7 0 0 0-.63.704q-.24.447-.24 1.051V355zm21.35.206q-1.05 0-1.86-.362a2.97 2.97 0 0 1-1.29-1.087c-.32-.483-.47-1.084-.47-1.804q0-.909.33-1.527c.22-.412.53-.743.91-.994.39-.251.82-.441 1.31-.568a10 10 0 0 1 1.55-.27q.945-.1 1.53-.185c.39-.061.67-.151.85-.27a.6.6 0 0 0 .26-.525v-.043c0-.45-.14-.798-.43-1.044-.28-.246-.67-.369-1.19-.369-.55 0-.98.12-1.3.362-.32.237-.54.535-.64.895l-2.8-.227q.21-.995.84-1.719c.42-.488.95-.862 1.61-1.122.67-.266 1.43-.398 2.3-.398q.915 0 1.74.213c.56.142 1.06.362 1.49.66s.78.682 1.03 1.151c.25.464.37 1.02.37 1.669V355h-2.87v-1.513h-.08c-.18.341-.41.642-.7.902-.3.256-.65.457-1.06.604-.41.142-.89.213-1.43.213m.87-2.088c.44 0 .84-.088 1.18-.263.34-.18.6-.421.8-.724.19-.303.29-.647.29-1.03v-1.158a1.5 1.5 0 0 1-.39.171 7 7 0 0 1-.55.135c-.2.037-.4.073-.61.106l-.55.078q-.54.078-.93.249a1.5 1.5 0 0 0-.62.461c-.15.19-.22.427-.22.711q0 .617.45.944c.3.213.68.32 1.15.32m7.62 1.882v-10.909h3.03V355zm1.52-12.315c-.45 0-.83-.149-1.16-.448a1.47 1.47 0 0 1-.47-1.086c0-.417.16-.775.47-1.073.33-.303.71-.454 1.16-.454s.83.151 1.15.454q.48.447.48 1.073 0 .631-.48 1.086c-.32.299-.7.448-1.15.448m6.96-2.23V355h-3.03v-14.545zm-102.56 42.863q-1.47 0-2.52-.405c-.7-.265-1.25-.627-1.66-1.086a3.33 3.33 0 0 1-.8-1.549l2.79-.376c.09.218.22.421.41.611.18.189.43.341.73.454.31.119.68.178 1.12.178.66 0 1.2-.161 1.63-.483.43-.317.65-.85.65-1.598v-1.996h-.13q-.195.455-.6.86-.39.404-1.02.66c-.42.171-.92.256-1.49.256-.82 0-1.57-.19-2.24-.568-.67-.384-1.2-.969-1.6-1.755-.39-.79-.59-1.789-.59-2.997 0-1.236.2-2.268.61-3.096.4-.829.93-1.449 1.6-1.861a4.15 4.15 0 0 1 2.21-.618q.915 0 1.53.312c.42.204.75.46 1 .767.25.303.45.602.59.895h.11v-1.832h3.01v11.016q0 1.392-.69 2.329-.675.938-1.89 1.406-1.2.476-2.76.476m.07-6.747c.48 0 .9-.121 1.23-.362q.51-.37.78-1.051c.19-.46.28-1.009.28-1.648q0-.959-.27-1.662-.27-.71-.78-1.101c-.34-.26-.76-.39-1.24-.39q-.75 0-1.26.404-.51.399-.78 1.108c-.17.474-.26 1.021-.26 1.641 0 .63.09 1.174.26 1.633q.27.682.78 1.059.51.369 1.26.369m10.78 2.635q-1.035 0-1.86-.362a3.03 3.03 0 0 1-1.29-1.087c-.31-.483-.47-1.084-.47-1.804 0-.606.11-1.115.34-1.527.22-.412.52-.743.91-.994.38-.251.81-.441 1.3-.568a10 10 0 0 1 1.55-.27c.63-.067 1.15-.128 1.53-.185.39-.061.67-.151.85-.27a.6.6 0 0 0 .26-.525v-.043q0-.675-.42-1.044t-1.2-.369c-.54 0-.97.12-1.3.362a1.7 1.7 0 0 0-.64.895l-2.79-.227c.14-.663.42-1.236.83-1.719q.63-.732 1.62-1.122c.66-.266 1.43-.398 2.3-.398q.9 0 1.74.213c.56.142 1.05.362 1.48.66.44.299.78.682 1.03 1.151.25.464.38 1.02.38 1.669V379h-2.87v-1.513h-.09c-.17.341-.41.642-.7.902-.29.256-.65.457-1.06.604-.41.142-.89.213-1.43.213m.87-2.088c.45 0 .84-.088 1.18-.263.34-.18.61-.421.8-.724.2-.303.29-.647.29-1.03v-1.158a1.5 1.5 0 0 1-.39.171q-.24.07-.54.135c-.21.037-.41.073-.61.106l-.56.078a3.8 3.8 0 0 0-.93.249c-.26.113-.47.267-.62.461-.14.19-.22.427-.22.711q0 .617.45.944c.3.213.69.32 1.15.32m13.43-9.027v2.273h-6.57v-2.273zm-5.08-2.614h3.03v10.171q0 .419.12.653.135.228.36.32t.54.092q.21 0 .42-.035c.15-.029.25-.05.33-.064l.48 2.251c-.15.047-.37.102-.64.163a5 5 0 0 1-1 .121q-1.095.043-1.92-.291a2.64 2.64 0 0 1-1.27-1.037q-.465-.703-.45-1.776zm11.9 13.736c-1.12 0-2.09-.227-2.89-.682a4.7 4.7 0 0 1-1.87-1.946c-.43-.843-.65-1.839-.65-2.99 0-1.122.22-2.107.65-2.954a4.87 4.87 0 0 1 1.84-1.982c.8-.473 1.73-.71 2.8-.71q1.08 0 2.01.348c.63.227 1.17.57 1.64 1.03.46.459.83 1.037 1.09 1.733q.39 1.037.39 2.429v.831h-9.21v-1.875h6.36c0-.436-.09-.822-.28-1.158a2 2 0 0 0-.79-.788c-.33-.195-.72-.292-1.16-.292-.46 0-.86.107-1.22.32-.35.208-.62.49-.82.845-.2.351-.3.741-.31 1.172v1.783q0 .809.3 1.399c.2.393.49.696.86.909s.81.32 1.31.32q.51 0 .93-.143a1.87 1.87 0 0 0 1.17-1.122l2.8.185a3.9 3.9 0 0 1-.88 1.761c-.43.498-1 .886-1.69 1.165-.68.275-1.48.412-2.38.412m9.06-.213-2.97-10.909h3.06l1.69 7.329h.1l1.76-7.329h3.01l1.79 7.287h.09l1.66-7.287h3.05L1435.56 379h-3.2l-1.88-6.861h-.13l-1.88 6.861zm17.97.206q-1.05 0-1.86-.362a2.9 2.9 0 0 1-1.29-1.087c-.32-.483-.47-1.084-.47-1.804q0-.909.33-1.527c.22-.412.53-.743.91-.994a4.3 4.3 0 0 1 1.31-.568 10 10 0 0 1 1.54-.27c.64-.067 1.15-.128 1.54-.185q.585-.091.84-.27a.59.59 0 0 0 .27-.525v-.043c0-.45-.15-.798-.43-1.044s-.68-.369-1.19-.369c-.55 0-.98.12-1.3.362-.32.237-.54.535-.64.895l-2.8-.227q.21-.995.84-1.719c.42-.488.95-.862 1.61-1.122.66-.266 1.43-.398 2.3-.398q.915 0 1.74.213c.56.142 1.06.362 1.49.66s.78.682 1.03 1.151c.25.464.37 1.02.37 1.669V379h-2.87v-1.513h-.08c-.18.341-.41.642-.71.902q-.435.384-1.05.604c-.42.142-.89.213-1.43.213m.87-2.088q.66 0 1.17-.263c.35-.18.61-.421.81-.724.19-.303.29-.647.29-1.03v-1.158q-.15.093-.39.171c-.16.047-.35.092-.55.135-.2.037-.41.073-.61.106l-.55.078q-.54.078-.93.249c-.27.113-.48.267-.62.461-.15.19-.22.427-.22.711 0 .412.15.726.44.944.31.213.69.32 1.16.32m9.1 5.973q-.585 0-1.08-.092a4 4 0 0 1-.83-.221l.69-2.258c.35.109.67.168.95.177q.435.015.75-.198c.21-.142.39-.384.52-.725l.18-.462-3.92-11.221h3.18l2.26 8.011h.12l2.28-8.011h3.2l-4.24 12.088a5 5 0 0 1-.83 1.534q-.525.66-1.32 1.016c-.53.241-1.16.362-1.91.362m-78.99 12.636c0-1.78.23-3.418.7-4.915a14.7 14.7 0 0 1 2.05-4.14h1.95a8.8 8.8 0 0 0-.98 1.726c-.3.682-.57 1.43-.8 2.244a22 22 0 0 0-.53 2.521c-.13.867-.19 1.721-.19 2.564q0 1.69.33 3.424c.23 1.155.53 2.227.91 3.217.37.989.8 1.797 1.26 2.422h-1.95a14.7 14.7 0 0 1-2.05-4.141c-.47-1.496-.7-3.137-.7-4.922m19.74 0c0 1.553-.28 2.889-.85 4.006-.57 1.113-1.35 1.97-2.33 2.571q-1.485.895-3.36.895c-1.26 0-2.39-.298-3.38-.895-.98-.601-1.76-1.461-2.33-2.578-.57-1.118-.85-2.45-.85-3.999 0-1.553.28-2.886.85-3.998.57-1.118 1.35-1.975 2.33-2.571.99-.602 2.12-.902 3.38-.902q1.875 0 3.36.902c.98.596 1.76 1.453 2.33 2.571.57 1.112.85 2.445.85 3.998m-2.17 0q0-1.775-.57-2.99c-.38-.814-.9-1.43-1.57-1.846-.65-.422-1.4-.632-2.23-.632q-1.26 0-2.25.632-.99.624-1.56 1.846-.57 1.215-.57 2.99t.57 2.997q.57 1.215 1.56 1.847.99.625 2.25.625c.83 0 1.58-.208 2.23-.625.67-.421 1.19-1.037 1.57-1.847q.57-1.221.57-2.997m4.74 11.364v-15h2.07v1.768h.18c.12-.227.3-.49.53-.788.24-.298.56-.559.97-.781.41-.228.96-.341 1.63-.341.88 0 1.67.222 2.36.667s1.23 1.087 1.63 1.925.59 1.847.59 3.026-.19 2.19-.59 3.032c-.39.838-.93 1.485-1.61 1.939-.69.45-1.47.675-2.36.675q-.99 0-1.62-.334c-.42-.222-.75-.483-.98-.781a6 6 0 0 1-.55-.795h-.13v5.788zm2.08-9.546q0 1.151.33 2.017c.23.578.55 1.03.97 1.357.42.322.94.483 1.55.483q.945 0 1.59-.504c.43-.341.75-.803.97-1.385q.33-.874.33-1.968 0-1.08-.33-1.938-.315-.86-.96-1.357c-.43-.331-.96-.497-1.6-.497q-.93 0-1.56.476t-.96 1.328-.33 1.988m15.36-5.454v1.704h-5.96v-1.704zm-4.36-2.614h2.12v10.32q0 .618.18.93.195.306.48.419c.2.071.41.107.65.107.17 0 .32-.012.44-.036q.195-.035.3-.056l.38 1.754a4.2 4.2 0 0 1-1.37.227c-.56.01-1.08-.09-1.57-.298a2.7 2.7 0 0 1-1.17-.966c-.3-.436-.44-.983-.44-1.641zm6.71 13.523v-10.909h2.12V403zm1.07-12.592c-.37 0-.69-.123-.95-.37a1.2 1.2 0 0 1-.39-.895q0-.525.39-.894c.26-.251.58-.377.95-.377s.68.126.94.377c.27.246.4.544.4.894 0 .346-.13.644-.4.895-.26.247-.57.37-.94.37m8.5 12.812c-1.02 0-1.91-.234-2.68-.703q-1.14-.703-1.77-1.967t-.63-2.955q0-1.697.63-2.969.63-1.27 1.77-1.974c.77-.469 1.66-.703 2.68-.703s1.92.234 2.68.703q1.14.703 1.77 1.974c.43.848.64 1.838.64 2.969 0 1.127-.21 2.112-.64 2.955q-.63 1.264-1.77 1.967c-.76.469-1.66.703-2.68.703m.01-1.782q.99 0 1.65-.526.645-.526.96-1.399c.21-.583.32-1.224.32-1.925 0-.696-.11-1.335-.32-1.918q-.315-.88-.96-1.413-.66-.533-1.65-.533c-.67 0-1.22.178-1.66.533s-.76.826-.98 1.413a5.6 5.6 0 0 0-.31 1.918c0 .701.1 1.342.31 1.925.22.582.54 1.049.98 1.399s.99.526 1.66.526m9.57-4.915V403h-2.12v-10.909h2.03v1.775h.14a3.1 3.1 0 0 1 1.18-1.392q.81-.525 2.04-.525 1.11 0 1.95.469c.56.307.99.767 1.3 1.377.31.611.46 1.366.46 2.266V403h-2.12v-6.683c0-.791-.21-1.409-.62-1.854-.41-.45-.98-.675-1.7-.675-.49 0-.93.107-1.31.32q-.57.32-.9.937-.33.612-.33 1.478m13 6.718c-.69 0-1.31-.127-1.87-.383-.56-.26-1-.637-1.33-1.129q-.48-.739-.48-1.811c0-.616.12-1.123.35-1.52q.36-.597.96-.945t1.35-.525c.5-.119 1.01-.209 1.52-.27l1.59-.185c.41-.052.71-.135.89-.249s.28-.298.28-.554v-.049c0-.621-.18-1.101-.53-1.442-.34-.341-.86-.511-1.55-.511-.71 0-1.28.158-1.69.475-.4.313-.69.661-.84 1.045l-2-.455c.24-.663.58-1.198 1.04-1.605.46-.412.99-.71 1.58-.895.6-.189 1.23-.284 1.88-.284.44 0 .9.052 1.39.156q.735.15 1.38.554c.43.27.78.656 1.06 1.158.27.497.41 1.143.41 1.939V403h-2.08v-1.491h-.08c-.14.274-.34.544-.62.809-.27.265-.63.486-1.06.661s-.94.262-1.55.262m.47-1.704q.87 0 1.5-.348t.96-.909q.33-.569.33-1.215v-1.406c-.07.076-.22.147-.44.213-.21.062-.45.116-.73.164-.27.042-.54.082-.8.12l-.65.085c-.42.053-.79.14-1.13.263q-.51.185-.81.533-.3.34-.3.909c0 .526.19.923.58 1.193.39.265.88.398 1.49.398m9.87-13.082V403h-2.12v-14.545zm6.94 8.508c0 1.785-.23 3.426-.7 4.922a14.7 14.7 0 0 1-2.06 4.141h-1.94a8.8 8.8 0 0 0 .98-1.726c.3-.682.57-1.428.79-2.238q.345-1.221.54-2.528c.12-.871.19-1.728.19-2.571 0-1.122-.11-2.261-.34-3.416a18.7 18.7 0 0 0-.9-3.217q-.57-1.485-1.26-2.422h1.94c.9 1.264 1.59 2.644 2.06 4.14.47 1.497.7 3.135.7 4.915m-157.05-107.256a1 1 0 0 0 0-1.414l-6.37-6.364a.994.994 0 0 0-1.41 0 1 1 0 0 0 0 1.414l5.66 5.657-5.66 5.657a1 1 0 0 0 0 1.414.994.994 0 0 0 1.41 0zM1308 288h-60v2h60zm286.71 1.707a1 1 0 0 0 0-1.414l-6.37-6.364a.994.994 0 0 0-1.41 0 1 1 0 0 0 0 1.414l5.66 5.657-5.66 5.657a1 1 0 0 0 0 1.414.994.994 0 0 0 1.41 0zM1594 288h-60v2h60zm345.71 1.707a1 1 0 0 0 0-1.414l-6.37-6.364a.994.994 0 0 0-1.41 0 1 1 0 0 0 0 1.414l5.66 5.657-5.66 5.657a1 1 0 0 0 0 1.414.994.994 0 0 0 1.41 0zM1939 288h-60v2h60z"/><path fill="url(#paint0_radial_91_37)" d="m1781.42 239.682-.37.223c-.58.356-1.14.753-1.65 1.187l1.06-.749h9.04l1.64 12.439-8.21 8.213-8.22 5.709v6.584c0 4.598 2.41 8.862 6.34 11.243l8.65 5.233-18.27 10.657h-3.53l-6.56-3.975a13.13 13.13 0 0 1-6.34-11.242v-22.138c0-4.599 2.4-8.864 6.34-11.245l19.71-11.924c.13-.074.25-.145.37-.215"/><path fill="url(#paint1_linear_91_37)" d="m1781.42 239.682-.37.223c-.58.356-1.14.753-1.65 1.187l1.06-.749h9.04l1.64 12.439-8.21 8.213-8.22 5.709v6.584c0 4.598 2.41 8.862 6.34 11.243l8.65 5.233-18.27 10.657h-3.53l-6.56-3.975a13.13 13.13 0 0 1-6.34-11.242v-22.138c0-4.599 2.4-8.864 6.34-11.245l19.71-11.924c.13-.074.25-.145.37-.215"/><path fill="url(#paint2_radial_91_37)" d="M1801 265.923v7.36c0 4.598-2.41 8.862-6.34 11.243l-19.71 11.932a13.16 13.16 0 0 1-13.16.265l19.26 11.656a13.14 13.14 0 0 0 13.61 0l19.71-11.933a13.13 13.13 0 0 0 6.34-11.243v-5.316l-1.64-2.464z"/><path fill="url(#paint3_linear_91_37)" d="M1801 265.923v7.36c0 4.598-2.41 8.862-6.34 11.243l-19.71 11.932a13.16 13.16 0 0 1-13.16.265l19.26 11.656a13.14 13.14 0 0 0 13.61 0l19.71-11.933a13.13 13.13 0 0 0 6.34-11.243v-5.316l-1.64-2.464z"/><path fill="url(#paint4_radial_91_37)" d="m1814.37 251.821-19.71-11.924a13.16 13.16 0 0 0-13.22-.228l-.39.237a13.15 13.15 0 0 0-6.34 11.245v15.58l6.34-3.835c4.18-2.53 9.42-2.53 13.61 0l19.71 11.923a13.14 13.14 0 0 1 6.33 10.815c.01-.143.01-.287.01-.431v-22.137c0-4.6-2.4-8.865-6.34-11.245"/><path fill="url(#paint5_linear_91_37)" d="m1814.37 251.821-19.71-11.924a13.16 13.16 0 0 0-13.22-.228l-.39.237a13.15 13.15 0 0 0-6.34 11.245v15.58l6.34-3.835c4.18-2.53 9.42-2.53 13.61 0l19.71 11.923a13.14 13.14 0 0 1 6.33 10.815c.01-.143.01-.287.01-.431v-22.137c0-4.6-2.4-8.865-6.34-11.245"/><path fill="#4285f4" d="M1658.53 304.797h12.89v-31.311L1653 259.672v39.6a5.527 5.527 0 0 0 5.53 5.525"/><path fill="#34a853" d="M1715.62 304.797h12.9c3.05 0 5.52-2.477 5.52-5.525v-39.6l-18.42 13.814"/><path fill="#fbbc04" d="M1715.62 249.542v23.944l18.42-13.814v-7.368c0-6.833-7.8-10.729-13.26-6.63"/><path fill="#ea4335" d="M1671.42 273.486v-23.944l22.1 16.576 22.1-16.576v23.944l-22.1 16.576"/><path fill="#c5221f" d="M1653 252.304v7.368l18.42 13.813v-23.944l-5.16-3.868c-5.47-4.098-13.26-.202-13.26 6.631"/><path fill="#000" d="M254.634 324.455h3.793l4.006 9.772h.17l4.006-9.772h3.792V339h-2.982v-9.467h-.121l-3.764 9.396h-2.032l-3.764-9.432h-.121V339h-2.983zm21.185 0 2.933 4.957h.114l2.947-4.957h3.473l-4.439 7.272 4.538 7.273h-3.536l-2.983-4.964h-.114L275.769 339h-3.523l4.553-7.273-4.467-7.272zM291.804 339v-10.909h2.933v1.903h.114q.299-1.015 1.001-1.534a2.64 2.64 0 0 1 1.62-.525q.227 0 .49.028.263.029.461.078v2.685a4 4 0 0 0-.589-.114 5 5 0 0 0-.689-.05 2.4 2.4 0 0 0-1.193.292 2.14 2.14 0 0 0-.824.795 2.3 2.3 0 0 0-.298 1.179V339zm12.648.213q-1.684 0-2.898-.682a4.67 4.67 0 0 1-1.861-1.946q-.654-1.264-.653-2.99 0-1.683.653-2.954a4.83 4.83 0 0 1 1.84-1.982q1.193-.71 2.798-.71 1.079 0 2.01.348.937.34 1.633 1.03.704.689 1.094 1.733.39 1.037.391 2.429v.831h-9.212v-1.875h6.364q0-.654-.284-1.158a2.04 2.04 0 0 0-.789-.788q-.497-.292-1.157-.292-.69 0-1.222.32-.525.312-.824.845a2.4 2.4 0 0 0-.305 1.172v1.783q0 .809.298 1.399.306.59.859.909.555.32 1.314.32.504 0 .924-.143.418-.141.717-.426.298-.284.454-.696l2.799.185a3.8 3.8 0 0 1-.874 1.761q-.653.747-1.69 1.165-1.03.412-2.379.412m11.91 0q-1.676 0-2.883-.71a4.8 4.8 0 0 1-1.847-1.989q-.639-1.271-.639-2.926 0-1.675.646-2.94a4.8 4.8 0 0 1 1.854-1.982q1.2-.717 2.855-.717 1.428 0 2.5.518a4.2 4.2 0 0 1 1.697 1.456q.626.938.689 2.202h-2.855q-.12-.817-.639-1.314-.511-.504-1.342-.504-.704 0-1.229.383-.519.376-.81 1.101t-.291 1.754q0 1.044.284 1.776.29.731.817 1.115.525.384 1.229.384.517 0 .93-.213.419-.214.689-.618.277-.412.362-.988h2.855q-.07 1.251-.682 2.202a4.1 4.1 0 0 1-1.669 1.477q-1.065.534-2.521.533m11.738 0q-1.654 0-2.862-.703a4.8 4.8 0 0 1-1.854-1.974q-.653-1.272-.653-2.948 0-1.69.653-2.954a4.76 4.76 0 0 1 1.854-1.975q1.208-.71 2.862-.71 1.656 0 2.855.71a4.74 4.74 0 0 1 1.861 1.975q.654 1.263.654 2.954 0 1.676-.654 2.948a4.8 4.8 0 0 1-1.861 1.974q-1.2.703-2.855.703m.015-2.344q.751 0 1.257-.426.504-.433.76-1.179.262-.746.262-1.697t-.262-1.698q-.256-.745-.76-1.179-.505-.433-1.257-.433-.76 0-1.279.433-.512.433-.774 1.179-.255.745-.256 1.698 0 .951.256 1.697.262.745.774 1.179.519.426 1.279.426m7.322 2.131v-10.909h2.933v1.903h.114q.299-1.015 1.001-1.534a2.64 2.64 0 0 1 1.62-.525q.226 0 .49.028.263.029.461.078v2.685a4 4 0 0 0-.589-.114 5 5 0 0 0-.689-.05 2.4 2.4 0 0 0-1.193.292 2.13 2.13 0 0 0-.824.795 2.3 2.3 0 0 0-.298 1.179V339zm11.696.178a4.1 4.1 0 0 1-2.252-.64q-1.001-.646-1.591-1.896-.582-1.257-.582-3.082 0-1.875.604-3.118.603-1.25 1.605-1.868a4.1 4.1 0 0 1 2.209-.625q.915 0 1.527.312.617.306.994.767.384.455.582.895h.093v-5.468h3.018V339h-2.983v-1.747h-.128a4 4 0 0 1-.603.902 3 3 0 0 1-1.002.731q-.61.291-1.491.292m.958-2.408q.732 0 1.236-.398.512-.405.781-1.129.277-.724.277-1.698 0-.973-.269-1.69-.27-.717-.782-1.108-.511-.39-1.243-.39-.745 0-1.257.404-.512.405-.774 1.123-.263.717-.263 1.661 0 .952.263 1.684.27.724.774 1.136.512.405 1.257.405"/><path stroke="#6ecce5" stroke-dasharray="10 10" stroke-width="2" d="M49 98h2055v632H49z"/><g clip-path="url(#clip0_91_37)"><path fill="#6ecce5" d="M80.538 78.063H56.886A8.906 8.906 0 0 1 48 69.176a9.13 9.13 0 0 1 3.25-6.894 8.5 8.5 0 0 1 6.058-1.993 12.056 12.056 0 0 1 23.108 2.867 7.26 7.26 0 0 1 5 1.702 7.527 7.527 0 0 1-4.875 13.203zM56.746 62.77a5.97 5.97 0 0 0-3.889 1.426 6.6 6.6 0 0 0-2.357 4.98 6.397 6.397 0 0 0 6.368 6.386h23.67A4.97 4.97 0 0 0 85.5 70.6a5.07 5.07 0 0 0-1.705-3.838 5.18 5.18 0 0 0-4.321-1.011l-1.409.227-.04-1.426a9.553 9.553 0 0 0-18.678-2.538l-.324 1.054-1.086-.192a7 7 0 0 0-1.191-.105"/></g><path fill="#222" d="M103.339 58.455V73h-3.075V58.455zm5.279 8.238V73h-3.025V62.09h2.883v1.926h.128a3.05 3.05 0 0 1 1.215-1.506q.852-.561 2.066-.561 1.137 0 1.982.497a3.4 3.4 0 0 1 1.314 1.42q.469.916.469 2.188V73h-3.026v-6.406q.007-1.002-.511-1.563-.519-.568-1.428-.568-.61 0-1.079.263a1.83 1.83 0 0 0-.725.767q-.255.496-.263 1.2m14.999-4.602v2.273h-6.57V62.09zm-5.078-2.614h3.025v10.17q0 .42.128.654a.7.7 0 0 0 .355.32q.234.092.54.092.213 0 .426-.035.213-.043.327-.064l.476 2.251a9 9 0 0 1-.64.163 5 5 0 0 1-1.001.121q-1.093.043-1.918-.291a2.7 2.7 0 0 1-1.271-1.037q-.454-.703-.447-1.775zm11.683 13.736q-1.683 0-2.898-.682a4.66 4.66 0 0 1-1.86-1.946q-.654-1.265-.654-2.99 0-1.683.654-2.954a4.8 4.8 0 0 1 1.839-1.982q1.194-.71 2.798-.71 1.08 0 2.01.348a4.5 4.5 0 0 1 1.634 1.03q.703.689 1.094 1.733.39 1.035.39 2.429v.83h-9.211v-1.874h6.363q0-.654-.284-1.158a2.03 2.03 0 0 0-.788-.788 2.25 2.25 0 0 0-1.158-.292q-.688 0-1.222.32-.525.312-.823.845-.299.525-.306 1.172v1.783q0 .81.299 1.399.305.59.859.909t1.314.32q.504 0 .923-.142a1.9 1.9 0 0 0 .717-.427 1.85 1.85 0 0 0 .455-.696l2.798.185a3.8 3.8 0 0 1-.873 1.761q-.654.747-1.691 1.165-1.029.412-2.379.412m6.762-.213V62.09h2.933v1.904h.114q.297-1.015 1.001-1.534a2.63 2.63 0 0 1 1.619-.525 4.6 4.6 0 0 1 .952.106v2.685a4 4 0 0 0-.59-.114q-.376-.05-.688-.05-.668 0-1.194.292-.518.284-.824.795a2.3 2.3 0 0 0-.298 1.18V73zm10.989-6.307V73h-3.026V62.09h2.884v1.926h.128a3.04 3.04 0 0 1 1.214-1.506q.852-.561 2.067-.561 1.136 0 1.981.497a3.37 3.37 0 0 1 1.314 1.42q.47.916.469 2.188V73h-3.026v-6.406q.008-1.002-.511-1.563-.518-.568-1.427-.568a2.17 2.17 0 0 0-1.08.263q-.462.262-.724.767-.256.496-.263 1.2m14.167 6.52q-1.683 0-2.897-.682a4.67 4.67 0 0 1-1.861-1.946q-.654-1.265-.654-2.99 0-1.683.654-2.954a4.8 4.8 0 0 1 1.839-1.982q1.194-.71 2.798-.71 1.08 0 2.01.348a4.5 4.5 0 0 1 1.634 1.03q.703.689 1.094 1.733.39 1.035.39 2.429v.83h-9.211v-1.874h6.363q0-.654-.284-1.158a2.03 2.03 0 0 0-.788-.788 2.25 2.25 0 0 0-1.158-.292q-.689 0-1.221.32-.526.312-.824.845-.298.525-.306 1.172v1.783q0 .81.299 1.399.305.59.859.909t1.314.32q.504 0 .923-.142t.718-.427q.297-.284.454-.696l2.798.185a3.8 3.8 0 0 1-.873 1.761q-.654.747-1.691 1.165-1.029.412-2.379.412m12.564-11.122v2.273h-6.569V62.09zm-5.078-2.614h3.026v10.17q0 .42.128.654a.7.7 0 0 0 .355.32q.234.092.539.092.214 0 .427-.035.213-.043.326-.064l.476 2.251a8 8 0 0 1-.639.163 5 5 0 0 1-1.001.121q-1.095.043-1.918-.291a2.67 2.67 0 0 1-1.271-1.037q-.455-.703-.448-1.775z"/><path fill="#fff" stroke="#f6821f" stroke-width="2" d="M1092 212h139v146h-139z"/><path fill="#fff" stroke="#f6821f" stroke-miterlimit="10" stroke-width="2" d="M1109.21 294.091v4.314l96.42-.005v-4.314z"/><path fill="#fff3d2" stroke="#f6821f" stroke-miterlimit="10" stroke-width="2" d="M1211.54 265.623H1103.3v28.464h108.24z"/><path fill="#fff" d="M1206.86 289.743v-19.776h-98.89v19.776z"/><path fill="#f6821f" d="M1116 277.706a2.01 2.01 0 1 0 0-4.02 2.01 2.01 0 0 0 0 4.02"/><path stroke="#f6821f" stroke-miterlimit="10" stroke-width="2" d="M1124.1 282.199h-10.35m38.2 3.378h-38.2m51.9 0h-9.05"/><g clip-path="url(#clip1_91_37)"><path fill="#f6821f" d="M1199.22 286.075h-12.72a4.78 4.78 0 0 1-3.37-1.403 4.75 4.75 0 0 1-1.4-3.375c0-.707.16-1.405.46-2.044.31-.64.74-1.207 1.28-1.662a4.6 4.6 0 0 1 3.26-1.072 6.5 6.5 0 0 1 2.72-3.15 6.5 6.5 0 0 1 4.08-.842c1.42.176 2.74.813 3.75 1.814a6.4 6.4 0 0 1 1.87 3.72c.98-.044 1.94.283 2.69.915a4 4 0 0 1 1.26 2.049 4.03 4.03 0 0 1-1.59 4.312c-.67.472-1.47.729-2.29.737zm-12.79-8.222c-.77-.002-1.51.27-2.09.767a3.6 3.6 0 0 0-.93 1.2c-.22.462-.33.966-.34 1.477 0 .908.36 1.779 1 2.423a3.47 3.47 0 0 0 2.42 1.011h12.73a2.66 2.66 0 0 0 1.88-.783c.5-.5.79-1.179.79-1.886a2.76 2.76 0 0 0-.92-2.063 2.77 2.77 0 0 0-2.32-.544l-.76.122-.02-.766a5.13 5.13 0 0 0-1.32-3.286 5.124 5.124 0 0 0-6.58-.895 5.07 5.07 0 0 0-2.14 2.816l-.18.567-.58-.103a4 4 0 0 0-.64-.057"/></g><path fill="#fff" stroke="#f6821f" stroke-miterlimit="10" stroke-width="2" d="M1109.21 261.251v4.314l96.42-.005v-4.314z"/><path fill="#fff3d2" stroke="#f6821f" stroke-miterlimit="10" stroke-width="2" d="M1211.54 238.479H1103.3v22.769h108.24z"/><path fill="#fff" d="M1206.86 256.904v-14.081h-98.89v14.081z"/><path fill="#f6821f" d="M1116 251.231a1.34 1.34 0 1 0 0-2.68 1.34 1.34 0 0 0 0 2.68m4.86 0a1.34 1.34 0 1 0 0-2.68 1.34 1.34 0 0 0 0 2.68m6.91 1.675c1.66 0 3.01-1.349 3.01-3.015a3.014 3.014 0 1 0-6.03 0 3.016 3.016 0 0 0 3.02 3.015"/><path stroke="#f6821f" stroke-miterlimit="10" stroke-width="2" d="M1200.42 252.737h-31.5m-3.27 0h-9.05"/><path stroke="#fbad41" stroke-miterlimit="10" stroke-width="2" d="M1200.56 249.193h-9.05m9.05-2.986h-9.05"/><path fill="#222" d="M1136.62 325.638c-.06-.573-.3-1.018-.74-1.335-.43-.318-1.01-.476-1.75-.476-.5 0-.93.071-1.27.213-.35.137-.61.329-.8.575q-.27.37-.27.838c-.01.261.05.488.17.682s.29.362.5.504c.21.138.46.258.74.362.28.1.58.185.89.256l1.31.313c.64.142 1.22.331 1.75.568q.795.356 1.38.873c.38.346.69.753.9 1.222q.33.703.33 1.612c0 .89-.23 1.662-.68 2.316-.44.648-1.09 1.152-1.93 1.512q-1.26.533-3.03.533c-1.18 0-2.2-.18-3.07-.54s-1.55-.892-2.03-1.598c-.49-.71-.74-1.588-.76-2.635h2.97q.06.732.42 1.222c.25.322.59.566 1 .731.42.161.9.242 1.43.242.52 0 .97-.076 1.36-.227q.585-.228.9-.633c.21-.269.32-.58.32-.93 0-.327-.1-.601-.29-.824q-.285-.333-.84-.568a9 9 0 0 0-1.34-.426l-1.59-.398c-1.22-.298-2.19-.765-2.9-1.399s-1.06-1.489-1.06-2.564c0-.881.23-1.65.7-2.308.48-.658 1.14-1.172 1.97-1.541.83-.37 1.78-.554 2.84-.554 1.08 0 2.02.184 2.83.554q1.215.554 1.89 1.541t.69 2.287zm10.13 10.575c-1.13 0-2.09-.227-2.9-.682a4.6 4.6 0 0 1-1.86-1.946q-.66-1.264-.66-2.99 0-1.683.66-2.954a4.8 4.8 0 0 1 1.84-1.982q1.185-.71 2.79-.71 1.08 0 2.01.348c.63.227 1.17.57 1.64 1.03.47.459.83 1.037 1.09 1.733q.39 1.037.39 2.429v.831h-9.21v-1.875h6.36c0-.436-.09-.822-.28-1.158a2 2 0 0 0-.79-.788c-.33-.195-.72-.292-1.16-.292-.45 0-.86.107-1.22.32-.35.208-.62.49-.82.845-.2.351-.3.741-.31 1.172v1.783q0 .809.3 1.399c.21.393.49.696.86.909q.555.32 1.32.32c.33 0 .64-.048.92-.143q.42-.141.72-.426c.19-.189.35-.421.45-.696l2.8.185a3.7 3.7 0 0 1-.88 1.761c-.43.498-.99.886-1.69 1.165q-1.02.412-2.37.412m6.98-.213v-10.909h2.93v1.903h.11c.2-.677.54-1.188 1.01-1.534.46-.35 1-.525 1.61-.525a4.4 4.4 0 0 1 .96.106v2.685a4 4 0 0 0-.59-.114q-.375-.05-.69-.05c-.45 0-.84.098-1.2.292-.34.189-.62.454-.82.795q-.3.511-.3 1.179V336zm18.68-10.909L1168.6 336h-3.41l-3.81-10.909h3.19l2.27 7.805h.11l2.26-7.805zm6.17 11.122c-1.12 0-2.09-.227-2.9-.682a4.7 4.7 0 0 1-1.86-1.946c-.43-.843-.65-1.839-.65-2.99 0-1.122.22-2.107.65-2.954a4.87 4.87 0 0 1 1.84-1.982c.8-.473 1.73-.71 2.8-.71q1.08 0 2.01.348c.63.227 1.17.57 1.63 1.03.47.459.84 1.037 1.1 1.733q.39 1.037.39 2.429v.831h-9.21v-1.875h6.36c0-.436-.09-.822-.28-1.158a2.1 2.1 0 0 0-.79-.788c-.33-.195-.72-.292-1.16-.292a2.31 2.31 0 0 0-2.05 1.165c-.19.351-.3.741-.3 1.172v1.783q0 .809.3 1.399c.2.393.49.696.86.909s.8.32 1.31.32c.34 0 .64-.048.92-.143q.42-.141.72-.426c.2-.189.35-.421.46-.696l2.79.185a3.8 3.8 0 0 1-.87 1.761c-.43.498-1 .886-1.69 1.165-.69.275-1.48.412-2.38.412m6.98-.213v-10.909h2.94v1.903h.11c.2-.677.53-1.188 1-1.534a2.64 2.64 0 0 1 1.62-.525 4.5 4.5 0 0 1 .95.106v2.685a4 4 0 0 0-.59-.114q-.375-.05-.69-.05c-.44 0-.84.098-1.19.292-.35.189-.62.454-.82.795q-.3.511-.3 1.179V336z"/><path fill="#fff" stroke="#f6821f" stroke-width="2" d="M379 243h140v146H379z"/><path fill="#fff" stroke="#f6821f" stroke-miterlimit="10" stroke-width="2" d="m397.038 325.715.001 4.314 96.419-.005-.001-4.314z"/><path fill="#fff3d2" stroke="#f6821f" stroke-miterlimit="10" stroke-width="2" d="M499.367 297.247H391.128v28.464h108.239z"/><path fill="#fff" d="M494.692 321.367V301.59h-98.888v19.777z"/><path fill="#f6821f" d="M403.83 309.33a2.01 2.01 0 1 0 0-4.02 2.01 2.01 0 0 0 0 4.02"/><path stroke="#f6821f" stroke-miterlimit="10" stroke-width="2" d="M411.929 313.823h-10.35m38.201 3.378h-38.201m51.904 0h-9.051"/><g clip-path="url(#clip2_91_37)"><path fill="#f6821f" d="M487.048 317.699h-12.715a4.79 4.79 0 0 1-4.777-4.778 4.9 4.9 0 0 1 1.747-3.706 4.58 4.58 0 0 1 3.257-1.072 6.48 6.48 0 0 1 6.802-3.992 6.48 6.48 0 0 1 5.621 5.534 3.9 3.9 0 0 1 2.688.914 4.045 4.045 0 0 1-.329 6.362 4.06 4.06 0 0 1-2.292.737zm-12.791-8.222a3.2 3.2 0 0 0-2.09.767 3.54 3.54 0 0 0-1.267 2.677 3.44 3.44 0 0 0 3.423 3.434h12.725a2.674 2.674 0 0 0 2.668-2.669 2.74 2.74 0 0 0-.917-2.063 2.77 2.77 0 0 0-2.323-.544l-.757.122-.021-.767a5.135 5.135 0 0 0-10.042-1.364l-.174.567-.584-.103a3.6 3.6 0 0 0-.641-.057"/></g><path fill="#fff" stroke="#f6821f" stroke-miterlimit="10" stroke-width="2" d="m397.038 292.875.001 4.314 96.419-.005-.001-4.314z"/><path fill="#fff3d2" stroke="#f6821f" stroke-miterlimit="10" stroke-width="2" d="M499.367 270.103H391.128v22.769h108.239z"/><path fill="#fff" d="M494.692 288.528v-14.081h-98.888v14.081z"/><path fill="#f6821f" d="M403.83 282.855a1.34 1.34 0 1 0 0-2.68 1.34 1.34 0 0 0 0 2.68m4.858 0a1.34 1.34 0 1 0 0-2.678 1.34 1.34 0 0 0 0 2.678m6.906 1.675a3.015 3.015 0 1 0 0-6.03 3.015 3.015 0 0 0 0 6.03"/><path stroke="#f6821f" stroke-miterlimit="10" stroke-width="2" d="M488.249 284.361h-31.501m-3.265 0h-9.051"/><path stroke="#fbad41" stroke-miterlimit="10" stroke-width="2" d="M488.388 280.817h-9.05m9.05-2.986h-9.05"/><path fill="#222" d="M424.616 356.638q-.086-.86-.732-1.335-.646-.476-1.754-.476-.753 0-1.271.213-.519.206-.796.575-.27.37-.27.838-.014.391.164.682.184.291.504.504.32.207.739.362.418.15.894.256l1.307.313a9 9 0 0 1 1.747.568q.796.356 1.378.873.583.519.902 1.222.327.703.334 1.612-.007 1.335-.682 2.316-.667.972-1.932 1.512-1.257.533-3.032.533-1.761 0-3.068-.54-1.3-.54-2.032-1.598-.724-1.065-.76-2.635h2.976q.05.732.419 1.222.376.483 1.002.731.632.242 1.427.242.781 0 1.357-.227.582-.228.902-.633.32-.404.319-.93a1.2 1.2 0 0 0-.291-.824q-.284-.333-.838-.568a8.6 8.6 0 0 0-1.342-.426l-1.584-.398q-1.84-.447-2.905-1.399-1.065-.951-1.058-2.564-.007-1.321.703-2.308.717-.987 1.967-1.541 1.251-.555 2.841-.554 1.62 0 2.827.554 1.215.554 1.889 1.541.675.987.696 2.287zm10.129 10.575q-1.683 0-2.897-.682a4.67 4.67 0 0 1-1.861-1.946q-.654-1.264-.654-2.99 0-1.683.654-2.954a4.83 4.83 0 0 1 1.839-1.982q1.194-.71 2.799-.71 1.078 0 2.01.348.937.34 1.633 1.03.703.689 1.094 1.733.39 1.037.39 2.429v.831h-9.211v-1.875h6.363q0-.654-.284-1.158a2.03 2.03 0 0 0-.788-.788q-.496-.292-1.158-.292-.688 0-1.221.32-.526.312-.824.845a2.4 2.4 0 0 0-.305 1.172v1.783q0 .809.298 1.399.305.59.859.909t1.314.32q.504 0 .923-.143.42-.141.718-.426.298-.284.454-.696l2.799.185a3.8 3.8 0 0 1-.874 1.761q-.654.747-1.69 1.165-1.03.412-2.38.412m6.982-.213v-10.909h2.933v1.903h.114q.298-1.015 1.001-1.534a2.64 2.64 0 0 1 1.62-.525q.226 0 .49.028.263.029.461.078v2.685a4 4 0 0 0-.589-.114 5 5 0 0 0-.689-.05 2.4 2.4 0 0 0-1.193.292 2.13 2.13 0 0 0-.824.795 2.3 2.3 0 0 0-.299 1.179V367zm18.686-10.909L456.599 367h-3.409l-3.814-10.909h3.196l2.266 7.805h.113l2.259-7.805zm6.168 11.122q-1.683 0-2.897-.682a4.67 4.67 0 0 1-1.861-1.946q-.654-1.264-.654-2.99 0-1.683.654-2.954a4.83 4.83 0 0 1 1.839-1.982q1.194-.71 2.799-.71 1.079 0 2.01.348.937.34 1.633 1.03.703.689 1.094 1.733.39 1.037.39 2.429v.831h-9.211v-1.875h6.363q0-.654-.284-1.158a2.03 2.03 0 0 0-.788-.788q-.496-.292-1.158-.292-.688 0-1.221.32-.526.312-.824.845a2.4 2.4 0 0 0-.306 1.172v1.783q0 .809.299 1.399.305.59.859.909.553.32 1.314.32.504 0 .923-.143.42-.141.718-.426.298-.284.454-.696l2.799.185a3.84 3.84 0 0 1-.874 1.761q-.654.747-1.69 1.165-1.03.412-2.38.412m6.982-.213v-10.909h2.933v1.903h.114q.298-1.015 1.001-1.534a2.64 2.64 0 0 1 1.619-.525q.227 0 .491.028.263.029.461.078v2.685a4 4 0 0 0-.589-.114 5 5 0 0 0-.689-.05 2.4 2.4 0 0 0-1.193.292 2.13 2.13 0 0 0-.824.795 2.3 2.3 0 0 0-.299 1.179V367z"/><path stroke="#ffa629" stroke-dasharray="10 10" stroke-width="2" d="M563 286h460v350H563z"/><path stroke="#ffa629" stroke-linecap="round" stroke-linejoin="bevel" stroke-width="3" d="M2010.39 357.963V674c0 13.255-10.75 24-24 24H817c-13.255 0-24-10.745-24-24v-33"/><path fill="#fff" d="M513 145h322v48H513z"/><path fill="#222" d="M547.557 165.875h-4.977a4.9 4.9 0 0 0-.557-1.716 4.4 4.4 0 0 0-1.08-1.295 4.8 4.8 0 0 0-1.523-.819 5.8 5.8 0 0 0-1.852-.284q-1.806 0-3.148.898-1.34.887-2.079 2.591-.74 1.693-.739 4.114 0 2.489.739 4.181.75 1.694 2.091 2.557 1.341.864 3.102.864a6.2 6.2 0 0 0 1.83-.261 4.8 4.8 0 0 0 1.511-.762 4.4 4.4 0 0 0 1.091-1.238q.443-.727.614-1.66l4.977.023a9 9 0 0 1-.966 3.091 9.3 9.3 0 0 1-2.057 2.648q-1.284 1.159-3.068 1.841-1.773.67-4.011.67-3.114 0-5.569-1.409-2.442-1.409-3.863-4.079-1.41-2.671-1.409-6.466 0-3.807 1.431-6.478t3.887-4.068q2.454-1.409 5.523-1.409 2.022 0 3.75.568a9.5 9.5 0 0 1 3.079 1.659 8.55 8.55 0 0 1 2.182 2.648q.852 1.569 1.091 3.591m7.67-8.148V181h-4.841v-23.273zm11.156 23.614q-2.647 0-4.579-1.125a7.7 7.7 0 0 1-2.966-3.159q-1.045-2.034-1.045-4.716 0-2.705 1.045-4.727 1.046-2.034 2.966-3.159 1.932-1.137 4.579-1.137 2.648 0 4.569 1.137 1.931 1.125 2.977 3.159 1.045 2.022 1.045 4.727 0 2.682-1.045 4.716a7.7 7.7 0 0 1-2.977 3.159q-1.92 1.125-4.569 1.125m.023-3.75q1.205 0 2.012-.682.806-.693 1.215-1.886.421-1.194.421-2.716t-.421-2.716q-.409-1.194-1.215-1.886-.807-.694-2.012-.694-1.215 0-2.045.694-.819.692-1.239 1.886-.41 1.193-.409 2.716 0 1.522.409 2.716.42 1.193 1.239 1.886.83.682 2.045.682m22.301-4.023v-10.023h4.841V181H588.9v-3.17h-.181a5.16 5.16 0 0 1-1.966 2.465q-1.364.933-3.33.932-1.75 0-3.079-.795t-2.08-2.262q-.738-1.465-.75-3.511v-11.114h4.841v10.25q.012 1.546.83 2.444.817.897 2.193.897.874 0 1.636-.397a3.1 3.1 0 0 0 1.227-1.205q.478-.796.466-1.966m14.537 7.716q-1.989 0-3.602-1.023-1.602-1.033-2.546-3.034-.931-2.011-.931-4.932 0-3 .966-4.988.965-2 2.568-2.989a6.6 6.6 0 0 1 3.534-1q1.465 0 2.443.5.988.489 1.591 1.227.614.728.932 1.432h.147v-8.75h4.83V181h-4.773v-2.795h-.204q-.342.726-.966 1.443-.613.704-1.602 1.17-.977.466-2.387.466m1.534-3.852q1.171 0 1.978-.637.818-.647 1.25-1.806.443-1.16.443-2.716t-.432-2.705q-.432-1.147-1.25-1.773-.818-.624-1.989-.625-1.193 0-2.011.648t-1.239 1.796q-.42 1.147-.42 2.659 0 1.523.42 2.693.432 1.16 1.239 1.818.818.648 2.011.648m21.156-13.887v3.637h-10.772v-3.637zM617.628 181v-18.716q0-1.897.738-3.148a4.75 4.75 0 0 1 2.046-1.875q1.295-.624 2.943-.625 1.113 0 2.034.171a14 14 0 0 1 1.386.307l-.863 3.636a6 6 0 0 0-.705-.17 4.4 4.4 0 0 0-.841-.08q-1.068 0-1.488.5-.421.489-.421 1.375V181zm15.497-23.273V181h-4.841v-23.273zm8.247 23.603q-1.67 0-2.977-.58a4.8 4.8 0 0 1-2.069-1.739q-.75-1.158-.75-2.886 0-1.455.534-2.443a4.3 4.3 0 0 1 1.455-1.591 7 7 0 0 1 2.091-.909 16 16 0 0 1 2.477-.432 65 65 0 0 0 2.455-.295q.932-.148 1.352-.432t.42-.841v-.068q0-1.08-.681-1.671-.671-.591-1.909-.591-1.308 0-2.08.58-.773.568-1.023 1.432l-4.477-.364q.34-1.591 1.341-2.75 1-1.17 2.579-1.795 1.591-.637 3.682-.637 1.455 0 2.784.341a7.3 7.3 0 0 1 2.375 1.057 5.1 5.1 0 0 1 1.648 1.841q.602 1.113.602 2.67V181h-4.591v-2.42h-.136a4.9 4.9 0 0 1-1.125 1.443 5.2 5.2 0 0 1-1.693.966q-.989.34-2.284.341m1.386-3.341q1.068 0 1.887-.421a3.35 3.35 0 0 0 1.284-1.159q.465-.727.466-1.648v-1.852a2.6 2.6 0 0 1-.625.273q-.387.114-.875.216-.489.09-.978.17l-.886.125a6 6 0 0 0-1.489.398q-.636.273-.988.739-.353.454-.353 1.136 0 .989.716 1.511.728.512 1.841.512M654.349 181v-17.455h4.693v3.046h.182q.477-1.625 1.602-2.455 1.125-.84 2.591-.841.364 0 .784.046.421.045.739.125v4.295a6.4 6.4 0 0 0-.943-.181 8.5 8.5 0 0 0-1.102-.08q-1.069 0-1.91.466a3.43 3.43 0 0 0-1.318 1.273q-.477.818-.477 1.886V181zm19.628.341q-2.694 0-4.637-1.091a7.5 7.5 0 0 1-2.977-3.114q-1.045-2.022-1.045-4.784 0-2.693 1.045-4.727t2.943-3.17q1.91-1.137 4.478-1.137 1.726 0 3.216.557 1.5.546 2.613 1.648 1.125 1.102 1.75 2.772.625 1.66.625 3.887v1.329H667.25v-3h10.181q0-1.045-.454-1.852a3.26 3.26 0 0 0-1.262-1.261q-.795-.466-1.852-.466-1.102 0-1.954.511-.841.5-1.319 1.352a3.8 3.8 0 0 0-.488 1.875v2.853q0 1.295.477 2.238a3.5 3.5 0 0 0 1.375 1.455q.887.511 2.102.511.807 0 1.478-.227a3.1 3.1 0 0 0 1.147-.682 2.96 2.96 0 0 0 .728-1.113l4.477.295a6.1 6.1 0 0 1-1.398 2.818q-1.045 1.194-2.704 1.864-1.649.659-3.807.659m36.917-23.614V181h-4.25l-10.125-14.648h-.17V181h-4.921v-23.273h4.319l10.045 14.637h.205v-14.637zm11.321 23.614q-2.693 0-4.636-1.091-1.932-1.102-2.977-3.114-1.046-2.022-1.046-4.784 0-2.693 1.046-4.727t2.943-3.17q1.91-1.137 4.477-1.137 1.728 0 3.216.557 1.5.546 2.614 1.648 1.125 1.102 1.75 2.772.625 1.66.625 3.887v1.329h-14.739v-3h10.182q0-1.045-.455-1.852a3.25 3.25 0 0 0-1.261-1.261q-.795-.466-1.852-.466-1.103 0-1.955.511-.84.5-1.318 1.352a3.8 3.8 0 0 0-.489 1.875v2.853q0 1.295.478 2.238a3.5 3.5 0 0 0 1.375 1.455q.886.511 2.102.511.807 0 1.477-.227.67-.228 1.148-.682t.727-1.113l4.477.295a6.1 6.1 0 0 1-1.397 2.818q-1.046 1.194-2.705 1.864-1.647.659-3.807.659m19.847-17.796v3.637h-10.511v-3.637zm-8.125-4.181h4.841v16.272q0 .67.204 1.046.205.363.569.511.375.148.863.148.341 0 .682-.057l.523-.102.761 3.602q-.363.114-1.023.261-.659.16-1.602.194-1.75.068-3.068-.466-1.306-.534-2.034-1.659t-.716-2.841zM748.051 181l-4.75-17.455h4.897l2.705 11.728h.159l2.818-11.728h4.807l2.864 11.66h.147l2.659-11.66h4.887L764.505 181h-5.125l-3-10.977h-.216l-3 10.977zm30.616.341q-2.648 0-4.58-1.125a7.7 7.7 0 0 1-2.966-3.159q-1.045-2.034-1.045-4.716 0-2.705 1.045-4.727 1.046-2.034 2.966-3.159 1.932-1.137 4.58-1.137t4.568 1.137q1.932 1.125 2.977 3.159 1.046 2.022 1.046 4.727 0 2.682-1.046 4.716a7.7 7.7 0 0 1-2.977 3.159q-1.92 1.125-4.568 1.125m.023-3.75q1.204 0 2.011-.682.807-.693 1.216-1.886.42-1.194.42-2.716t-.42-2.716q-.41-1.194-1.216-1.886-.807-.694-2.011-.694-1.216 0-2.046.694-.818.692-1.238 1.886-.41 1.193-.41 2.716 0 1.522.41 2.716.42 1.193 1.238 1.886.83.682 2.046.682M789.798 181v-17.455h4.693v3.046h.182q.477-1.625 1.602-2.455 1.125-.84 2.591-.841.363 0 .784.046.42.045.738.125v4.295a6 6 0 0 0-.943-.181 8.5 8.5 0 0 0-1.102-.08q-1.068 0-1.909.466a3.43 3.43 0 0 0-1.318 1.273q-.477.818-.478 1.886V181zm16.872-5.023.011-5.807h.705l5.591-6.625h5.556l-7.511 8.773h-1.148zM802.283 181v-23.273h4.841V181zm10.909 0-5.136-7.602 3.227-3.421 7.58 11.023z"/><path fill="#000" d="M563.264 266v-14.545h9.801v2.535h-6.726v3.466h6.222v2.535h-6.222v3.473h6.755V266zm12.189 0v-10.909h2.884v1.925h.128a3.02 3.02 0 0 1 1.136-1.513q.796-.554 1.904-.554 1.122 0 1.91.561.789.553 1.051 1.506h.114a2.9 2.9 0 0 1 1.207-1.499q.88-.568 2.081-.568 1.527 0 2.479.973.959.966.959 2.741V266h-3.019v-6.74q0-.91-.483-1.364t-1.207-.454q-.824 0-1.286.525-.46.519-.461 1.371V266h-2.933v-6.804q0-.803-.462-1.278-.454-.476-1.2-.476-.506 0-.909.255a1.76 1.76 0 0 0-.633.704q-.234.447-.234 1.051V266zm21.353.206q-1.044 0-1.86-.362a3 3 0 0 1-1.293-1.087q-.468-.724-.469-1.804 0-.909.334-1.527a2.7 2.7 0 0 1 .909-.994 4.4 4.4 0 0 1 1.307-.568 10 10 0 0 1 1.548-.27 40 40 0 0 0 1.534-.185q.583-.091.846-.27.262-.177.262-.525v-.043q0-.675-.426-1.044-.419-.369-1.193-.369-.816 0-1.3.362a1.67 1.67 0 0 0-.639.895l-2.798-.227a3.8 3.8 0 0 1 .838-1.719q.625-.732 1.612-1.122.995-.398 2.301-.398.909 0 1.74.213a4.6 4.6 0 0 1 1.485.66q.653.448 1.03 1.151.375.696.376 1.669V266h-2.869v-1.513h-.086a3.1 3.1 0 0 1-.703.902 3.3 3.3 0 0 1-1.058.604q-.618.213-1.428.213m.867-2.088q.668 0 1.179-.263.511-.27.802-.724.292-.455.292-1.03v-1.158a1.6 1.6 0 0 1-.391.171 7 7 0 0 1-.547.135q-.305.056-.611.106l-.554.078a3.7 3.7 0 0 0-.93.249 1.5 1.5 0 0 0-.618.461q-.22.285-.22.711 0 .618.447.944.455.32 1.151.32m7.624 1.882v-10.909h3.026V266zm1.52-12.315q-.675 0-1.158-.448a1.45 1.45 0 0 1-.475-1.086q0-.626.475-1.073a1.63 1.63 0 0 1 1.158-.454q.675 0 1.151.454.483.447.483 1.073 0 .631-.483 1.086a1.62 1.62 0 0 1-1.151.448m6.955-2.23V266h-3.026v-14.545zm16.129 6.747-2.77.17a1.4 1.4 0 0 0-.305-.639 1.6 1.6 0 0 0-.618-.462 2.1 2.1 0 0 0-.902-.177q-.703 0-1.186.298-.483.291-.483.781a.84.84 0 0 0 .313.661q.312.27 1.072.433l1.974.398q1.591.327 2.373 1.051.78.724.781 1.903 0 1.073-.632 1.882-.626.81-1.719 1.265-1.086.447-2.507.447-2.166 0-3.452-.902-1.278-.909-1.498-2.472l2.975-.156q.135.661.654 1.009.519.34 1.328.341.795 0 1.278-.306.49-.312.498-.802a.84.84 0 0 0-.348-.675q-.341-.27-1.052-.412l-1.889-.376q-1.597-.32-2.379-1.108-.774-.789-.774-2.01 0-1.052.568-1.811.576-.76 1.612-1.172 1.044-.412 2.443-.412 2.067 0 3.253.873 1.194.874 1.392 2.38m7.126 8.011q-1.684 0-2.898-.682a4.67 4.67 0 0 1-1.861-1.946q-.653-1.264-.653-2.99 0-1.683.653-2.954a4.83 4.83 0 0 1 1.84-1.982q1.193-.71 2.798-.71 1.08 0 2.01.348.937.34 1.633 1.03.704.689 1.094 1.733.391 1.037.391 2.429v.831h-9.212v-1.875h6.364q0-.654-.284-1.158a2.04 2.04 0 0 0-.789-.788q-.497-.292-1.157-.292-.69 0-1.222.32-.525.312-.824.845a2.4 2.4 0 0 0-.305 1.172v1.783q0 .809.298 1.399.306.59.859.909.555.32 1.314.32.505 0 .924-.143.418-.141.717-.426.298-.284.455-.696l2.798.185a3.8 3.8 0 0 1-.874 1.761q-.653.747-1.69 1.165-1.03.412-2.379.412m11.91 0q-1.675 0-2.883-.71a4.8 4.8 0 0 1-1.847-1.989q-.639-1.271-.639-2.926 0-1.675.646-2.94a4.8 4.8 0 0 1 1.854-1.982q1.2-.717 2.855-.717 1.428 0 2.5.518a4.2 4.2 0 0 1 1.697 1.456q.626.938.689 2.202h-2.855q-.12-.817-.639-1.314-.511-.504-1.342-.504-.704 0-1.229.383-.519.376-.81 1.101t-.291 1.754q0 1.044.284 1.776.291.731.817 1.115.525.384 1.229.384.517 0 .93-.213.419-.214.689-.618.277-.412.362-.988h2.855q-.07 1.251-.682 2.202a4.1 4.1 0 0 1-1.669 1.477q-1.065.534-2.521.533m13.805-4.858v-6.264h3.026V266h-2.905v-1.982h-.114a3.22 3.22 0 0 1-1.228 1.542q-.853.582-2.081.582-1.094 0-1.925-.497a3.43 3.43 0 0 1-1.3-1.413q-.462-.917-.469-2.195v-6.946h3.026v6.406q.008.966.518 1.527.512.561 1.371.561.548 0 1.023-.248a1.96 1.96 0 0 0 .767-.753q.298-.498.291-1.229m5.446 4.645v-10.909h2.933v1.903h.114q.298-1.015 1.001-1.534a2.64 2.64 0 0 1 1.619-.525q.228 0 .491.028t.461.078v2.685a4 4 0 0 0-.589-.114 5 5 0 0 0-.689-.05 2.4 2.4 0 0 0-1.193.292 2.13 2.13 0 0 0-.824.795 2.3 2.3 0 0 0-.299 1.179V266zm8.183 0v-10.909h3.026V266zm1.52-12.315q-.674 0-1.157-.448a1.45 1.45 0 0 1-.476-1.086q0-.626.476-1.073a1.63 1.63 0 0 1 1.157-.454q.675 0 1.151.454.483.447.483 1.073 0 .631-.483 1.086a1.62 1.62 0 0 1-1.151.448m9.732 1.406v2.273h-6.569v-2.273zm-5.078-2.614h3.026v10.171q0 .419.128.653a.7.7 0 0 0 .355.32q.234.092.539.092.213 0 .427-.035.212-.043.326-.064l.476 2.251a8 8 0 0 1-.639.163 5 5 0 0 1-1.002.121q-1.094.043-1.917-.291a2.67 2.67 0 0 1-1.271-1.037q-.455-.703-.448-1.776zm8.917 17.614q-.575 0-1.08-.092a4 4 0 0 1-.823-.221l.681-2.258q.534.163.959.177.434.015.746-.198.32-.213.518-.725l.178-.462-3.913-11.221h3.181l2.259 8.011h.114l2.279-8.011h3.204l-4.24 12.088a5.1 5.1 0 0 1-.831 1.534q-.519.66-1.314 1.016-.796.362-1.918.362"/><path fill="#fff" stroke="#f6821f" stroke-width="2" d="M586 309h200v76H586z"/><path fill="#222" d="M653.318 351h-4.125v-11.636h4.159q1.756 0 3.023.698a4.7 4.7 0 0 1 1.949 1.995q.687 1.3.687 3.113 0 1.819-.687 3.125a4.7 4.7 0 0 1-1.96 2.006q-1.273.699-3.046.699m-1.665-2.108h1.563q1.09 0 1.835-.386a2.5 2.5 0 0 0 1.125-1.211q.381-.823.381-2.125 0-1.289-.381-2.108-.375-.817-1.119-1.204-.744-.386-1.835-.386h-1.569zm12.937 2.278q-1.347 0-2.319-.545a3.73 3.73 0 0 1-1.488-1.557q-.523-1.01-.523-2.392 0-1.346.523-2.364a3.86 3.86 0 0 1 1.471-1.585q.955-.568 2.239-.568.864 0 1.608.279.75.272 1.307.823.562.552.875 1.387.312.829.312 1.943v.665h-7.369v-1.5h5.091q0-.524-.227-.926a1.63 1.63 0 0 0-.631-.631 1.8 1.8 0 0 0-.926-.233 1.86 1.86 0 0 0-.978.256q-.42.25-.659.676-.238.42-.244.937v1.426q0 .648.239 1.12.245.471.687.727.444.255 1.051.256.403 0 .739-.114t.574-.341.363-.557l2.239.148a3.05 3.05 0 0 1-.699 1.409q-.522.597-1.352.932-.824.33-1.903.329m10.051-8.897v1.818h-5.256v-1.818zm-4.063-2.091h2.421v8.136q0 .336.102.523a.57.57 0 0 0 .284.256q.188.073.432.073.17 0 .341-.028l.261-.051.381 1.801a7 7 0 0 1-.511.131q-.33.08-.802.096-.874.034-1.534-.233a2.15 2.15 0 0 1-1.017-.829q-.363-.563-.358-1.421zm9.347 10.988q-1.347 0-2.318-.545a3.73 3.73 0 0 1-1.489-1.557q-.522-1.01-.522-2.392 0-1.346.522-2.364a3.87 3.87 0 0 1 1.472-1.585q.954-.568 2.238-.568.864 0 1.608.279.75.272 1.307.823.563.552.875 1.387.313.829.313 1.943v.665h-7.37v-1.5h5.091q0-.524-.227-.926a1.6 1.6 0 0 0-.631-.631 1.8 1.8 0 0 0-.926-.233q-.55 0-.977.256-.42.25-.659.676-.239.42-.244.937v1.426q0 .648.238 1.12.244.471.688.727.443.255 1.051.256.404 0 .738-.114.336-.114.574-.341.239-.227.364-.557l2.239.148a3.06 3.06 0 0 1-.699 1.409q-.524.597-1.353.932-.823.33-1.903.329m9.352 0q-1.34 0-2.306-.568a3.84 3.84 0 0 1-1.478-1.591q-.511-1.017-.511-2.341 0-1.34.517-2.352a3.85 3.85 0 0 1 1.483-1.585q.96-.574 2.284-.574 1.142 0 2 .415a3.34 3.34 0 0 1 1.358 1.165q.5.75.551 1.761h-2.284q-.097-.654-.511-1.051-.41-.404-1.074-.404-.563 0-.983.307-.415.302-.648.881-.233.58-.233 1.403 0 .836.228 1.421.233.585.653.892.42.306.983.307.414 0 .744-.171.336-.17.551-.494.222-.33.29-.79h2.284q-.057 1-.545 1.761a3.3 3.3 0 0 1-1.335 1.182q-.853.426-2.018.426m9.914-8.897v1.818h-5.256v-1.818zm-4.063-2.091h2.421v8.136q0 .336.102.523a.57.57 0 0 0 .284.256q.188.073.432.073.17 0 .341-.028l.261-.051.381 1.801a7 7 0 0 1-.511.131q-.33.08-.801.096-.876.034-1.535-.233a2.15 2.15 0 0 1-1.017-.829q-.363-.563-.358-1.421zM700.592 351v-8.727h2.42V351zm1.216-9.852q-.54 0-.927-.358a1.16 1.16 0 0 1-.38-.87q0-.5.38-.858.387-.363.927-.363.539 0 .92.363.386.358.386.858 0 .506-.386.87a1.3 1.3 0 0 1-.92.358m6.91 10.022q-1.323 0-2.29-.562a3.85 3.85 0 0 1-1.483-1.58q-.522-1.017-.522-2.358 0-1.352.522-2.363a3.8 3.8 0 0 1 1.483-1.58q.966-.568 2.29-.568t2.284.568q.966.563 1.489 1.58.522 1.011.523 2.363 0 1.341-.523 2.358a3.84 3.84 0 0 1-1.489 1.58q-.96.562-2.284.562m.012-1.875q.601 0 1.005-.34.404-.348.608-.944.21-.596.21-1.358 0-.76-.21-1.358-.204-.596-.608-.943-.404-.346-1.005-.346-.609 0-1.023.346-.41.347-.619.943a4.2 4.2 0 0 0-.205 1.358q0 .762.205 1.358.21.597.619.944.414.34 1.023.34m8.102-3.34V351h-2.42v-8.727h2.306v1.539h.103q.29-.761.971-1.204.682-.449 1.654-.449.909 0 1.585.398t1.051 1.136q.375.733.375 1.75V351h-2.42v-5.125q.005-.801-.41-1.25-.414-.455-1.142-.455-.488 0-.863.211-.37.21-.58.613-.204.398-.21.961"/><path stroke="#ffa629" stroke-linecap="round" stroke-linejoin="bevel" stroke-width="3" d="M581 348.179h-12.41c-8.886 0-16.09-7.203-16.09-16.089S545.296 316 536.41 316H524"/><path fill="#fff" stroke="#f6821f" stroke-width="2" d="M586 416h200v76H586z"/><path stroke="#ffa629" stroke-linecap="round" stroke-linejoin="bevel" stroke-width="3" d="M685.79 411v-43.641"/><path fill="#222" d="M663.484 458v-11.636h4.591q1.323 0 2.255.505a3.43 3.43 0 0 1 1.421 1.392q.494.887.494 2.046t-.5 2.045a3.45 3.45 0 0 1-1.449 1.381q-.943.494-2.284.494h-2.926v-1.971h2.528q.71 0 1.171-.245.467-.249.693-.687a2.16 2.16 0 0 0 .233-1.017q0-.58-.233-1.012a1.55 1.55 0 0 0-.693-.676q-.467-.244-1.182-.244h-1.659V458zm13.94.17q-1.324 0-2.289-.562a3.84 3.84 0 0 1-1.483-1.58q-.523-1.017-.523-2.358 0-1.352.523-2.363a3.8 3.8 0 0 1 1.483-1.58q.965-.568 2.289-.568t2.284.568a3.8 3.8 0 0 1 1.489 1.58q.522 1.011.523 2.363 0 1.341-.523 2.358a3.83 3.83 0 0 1-1.489 1.58q-.96.562-2.284.562m.012-1.875q.601 0 1.005-.34.404-.348.608-.944.21-.596.211-1.358 0-.76-.211-1.358-.204-.596-.608-.943-.404-.346-1.005-.346-.609 0-1.023.346-.41.347-.619.943a4.2 4.2 0 0 0-.205 1.358q0 .762.205 1.358.21.597.619.944.414.34 1.023.34m8.102-9.931V458h-2.42v-11.636zM687.301 458v-8.727h2.42V458zm1.216-9.852q-.54 0-.926-.358a1.16 1.16 0 0 1-.381-.87q0-.5.381-.858.386-.363.926-.363t.92.363q.387.358.387.858 0 .506-.387.87-.38.358-.92.358m6.911 10.022q-1.341 0-2.307-.568a3.84 3.84 0 0 1-1.478-1.591q-.51-1.017-.511-2.341 0-1.34.517-2.352a3.85 3.85 0 0 1 1.483-1.585q.96-.574 2.284-.574 1.142 0 2 .415a3.34 3.34 0 0 1 1.358 1.165q.5.75.551 1.761h-2.284q-.096-.654-.511-1.051-.41-.404-1.074-.404-.563 0-.983.307-.415.302-.648.881-.233.58-.233 1.403 0 .836.228 1.421.233.585.653.892.42.306.983.307.415 0 .744-.171.336-.17.551-.494.222-.33.29-.79h2.284q-.057 1-.545 1.761a3.3 3.3 0 0 1-1.335 1.182q-.853.426-2.017.426m6.765 3.103q-.46 0-.863-.074a3.2 3.2 0 0 1-.659-.176l.545-1.807q.426.13.767.142a.97.97 0 0 0 .597-.159q.255-.17.414-.58l.142-.369-3.13-8.977h2.545l1.807 6.409h.091l1.824-6.409h2.562l-3.392 9.67q-.244.705-.664 1.227a2.7 2.7 0 0 1-1.052.813q-.636.29-1.534.29"/><path fill="#fff" stroke="#f6821f" stroke-width="2" d="M586 529h200v76H586z"/><path stroke="#ffa629" stroke-linecap="round" stroke-linejoin="bevel" stroke-width="3" d="M686 497v27"/><path fill="#222" d="M648.298 566.955h2.091l1.051 1.352 1.034 1.204 1.949 2.444h-2.295l-1.341-1.648-.688-.977zm6.301-1.773q0 1.903-.721 3.238-.716 1.337-1.955 2.04-1.233.699-2.773.699-1.551 0-2.784-.704-1.232-.705-1.949-2.04-.715-1.335-.715-3.233 0-1.904.715-3.239.716-1.335 1.949-2.034 1.233-.704 2.784-.704 1.54 0 2.773.704 1.238.699 1.955 2.034.721 1.335.721 3.239m-2.494 0q0-1.233-.369-2.08-.365-.846-1.029-1.284-.664-.437-1.557-.437-.891 0-1.556.437-.665.438-1.034 1.284-.364.847-.364 2.08t.364 2.079q.368.848 1.034 1.284.665.438 1.556.438.893 0 1.557-.438.664-.437 1.029-1.284.369-.846.369-2.079m9.692 2.102v-5.011h2.42V571h-2.324v-1.585h-.09a2.6 2.6 0 0 1-.983 1.233q-.683.465-1.665.466-.876 0-1.54-.398a2.73 2.73 0 0 1-1.04-1.131q-.369-.733-.375-1.755v-5.557h2.421v5.125q.006.772.415 1.221t1.096.449q.438 0 .818-.199.381-.204.614-.602.239-.398.233-.983m6.669 3.881q-.835 0-1.489-.29a2.4 2.4 0 0 1-1.034-.869q-.375-.58-.375-1.444 0-.727.267-1.221t.728-.796q.46-.3 1.045-.454a8 8 0 0 1 1.239-.216q.76-.08 1.227-.148.466-.073.676-.216a.47.47 0 0 0 .21-.42v-.034q0-.54-.341-.835-.335-.296-.954-.296-.654 0-1.04.29a1.33 1.33 0 0 0-.511.716l-2.239-.182a3.04 3.04 0 0 1 .671-1.375q.5-.585 1.289-.898.796-.318 1.841-.318.727 0 1.392.171.67.17 1.188.528.522.358.824.92.3.558.301 1.336V571h-2.296v-1.21h-.068q-.21.409-.562.721a2.6 2.6 0 0 1-.847.483q-.494.171-1.142.171m.693-1.671q.535 0 .943-.21a1.67 1.67 0 0 0 .642-.579q.233-.365.233-.824v-.926q-.113.073-.312.136a6 6 0 0 1-.438.108q-.243.045-.488.085l-.443.063a3 3 0 0 0-.745.198 1.2 1.2 0 0 0-.494.37.9.9 0 0 0-.176.568q0 .494.358.756.363.255.92.255m5.924 1.506v-8.727h2.346v1.522h.091q.239-.812.801-1.227.563-.42 1.296-.42.182 0 .392.022.21.023.369.063v2.148a3 3 0 0 0-.471-.091 4 4 0 0 0-.552-.04q-.534 0-.954.233a1.7 1.7 0 0 0-.659.636 1.84 1.84 0 0 0-.239.943V571zm8.609.165q-.836 0-1.488-.29a2.4 2.4 0 0 1-1.035-.869q-.375-.58-.375-1.444 0-.727.267-1.221a2.2 2.2 0 0 1 .728-.796 3.5 3.5 0 0 1 1.045-.454 8 8 0 0 1 1.239-.216q.761-.08 1.227-.148.466-.073.676-.216a.47.47 0 0 0 .21-.42v-.034q0-.54-.34-.835-.336-.296-.955-.296-.654 0-1.04.29a1.33 1.33 0 0 0-.511.716l-2.239-.182a3.04 3.04 0 0 1 .671-1.375q.5-.585 1.289-.898.796-.318 1.841-.318.727 0 1.392.171.67.17 1.188.528.522.358.824.92.301.558.301 1.336V571h-2.296v-1.21h-.068q-.21.409-.562.721a2.6 2.6 0 0 1-.847.483q-.494.171-1.142.171m.693-1.671q.534 0 .944-.21.408-.216.642-.579a1.5 1.5 0 0 0 .233-.824v-.926q-.114.073-.313.136a6 6 0 0 1-.437.108q-.245.045-.489.085l-.443.063a3 3 0 0 0-.745.198 1.2 1.2 0 0 0-.494.37.9.9 0 0 0-.176.568q0 .494.358.756.363.255.92.255m8.344-3.539V571h-2.42v-8.727h2.307v1.539h.102q.29-.761.971-1.204.682-.449 1.654-.449.909 0 1.585.398t1.051 1.136q.375.733.375 1.75V571h-2.42v-5.125q.005-.801-.409-1.25-.416-.455-1.142-.455-.489 0-.864.211a1.47 1.47 0 0 0-.58.613q-.204.398-.21.961m11.999-3.682v1.818h-5.256v-1.818zm-4.063-2.091h2.421v8.136q0 .336.102.523a.57.57 0 0 0 .284.256q.188.073.432.073.17 0 .341-.028l.261-.051.381 1.801a7 7 0 0 1-.511.131q-.33.08-.801.096-.875.034-1.535-.233a2.15 2.15 0 0 1-1.017-.829q-.363-.563-.358-1.421zM706.129 571v-8.727h2.42V571zm1.216-9.852q-.54 0-.927-.358a1.16 1.16 0 0 1-.38-.87q0-.5.38-.858.387-.363.927-.363.539 0 .92.363.387.359.386.858 0 .506-.386.87a1.3 1.3 0 0 1-.92.358m5.387 4.807V571h-2.42v-8.727h2.307v1.539h.102q.29-.761.972-1.204.681-.449 1.653-.449.91 0 1.585.398.676.398 1.051 1.136.375.733.375 1.75V571h-2.42v-5.125q.006-.801-.409-1.25-.415-.455-1.142-.455-.489 0-.864.211-.369.21-.579.613-.205.398-.211.961m11.334 5.215q-1.346 0-2.318-.545a3.73 3.73 0 0 1-1.488-1.557q-.523-1.01-.523-2.392 0-1.346.523-2.364a3.86 3.86 0 0 1 1.471-1.585q.955-.568 2.239-.568.864 0 1.608.279.75.272 1.307.823.562.552.875 1.387.312.829.312 1.943v.665h-7.369v-1.5h5.091q0-.524-.228-.926a1.6 1.6 0 0 0-.63-.631 1.8 1.8 0 0 0-.926-.233q-.552 0-.978.256-.42.25-.659.676-.238.42-.244.937v1.426q0 .648.239 1.12.244.471.687.727.444.255 1.051.256.403 0 .739-.114t.574-.341.363-.557l2.239.148a3.06 3.06 0 0 1-.699 1.409q-.522.596-1.352.932-.824.33-1.904.329"/><path stroke="#ffa629" stroke-linecap="round" stroke-linejoin="bevel" stroke-width="3" d="M790.581 455.179h230.529c13.26 0 24-10.745 24-24V309c0-13.255 10.75-24 24-24H1087"/><path fill="#cbe9f3" stroke="#000" d="M302 238.5c14.083 0 25.5 11.417 25.5 25.5s-11.417 25.5-25.5 25.5-25.5-11.417-25.5-25.5 11.417-25.5 25.5-25.5Z"/><path fill="#000" d="M304.615 255.455V270h-3.076v-11.626h-.085l-3.331 2.088v-2.728l3.601-2.279z"/><path fill="#cbe9f3" stroke="#000" d="M787 288.5c14.083 0 25.5 11.417 25.5 25.5s-11.417 25.5-25.5 25.5-25.5-11.417-25.5-25.5 11.417-25.5 25.5-25.5Z"/><path fill="#000" d="M781.88 320v-2.216l5.178-4.794q.66-.64 1.108-1.151.454-.51.689-1.001.234-.497.234-1.072 0-.64-.291-1.101a1.9 1.9 0 0 0-.796-.718 2.5 2.5 0 0 0-1.143-.255q-.667 0-1.165.27-.497.27-.767.774t-.27 1.2h-2.919q0-1.428.646-2.479a4.3 4.3 0 0 1 1.811-1.626q1.165-.576 2.685-.575 1.563 0 2.72.554 1.166.546 1.811 1.52.647.973.647 2.23 0 .824-.327 1.626-.32.802-1.143 1.783-.825.972-2.323 2.336l-2.123 2.081v.1h6.107V320z"/><path fill="#cbe9f3" stroke="#000" d="M787 288.5c14.083 0 25.5 11.417 25.5 25.5s-11.417 25.5-25.5 25.5-25.5-11.417-25.5-25.5 11.417-25.5 25.5-25.5Z"/><path fill="#000" d="M781.88 320v-2.216l5.178-4.794q.66-.64 1.108-1.151.454-.51.689-1.001.234-.497.234-1.072 0-.64-.291-1.101a1.9 1.9 0 0 0-.796-.718 2.5 2.5 0 0 0-1.143-.255q-.667 0-1.165.27-.497.27-.767.774t-.27 1.2h-2.919q0-1.428.646-2.479a4.3 4.3 0 0 1 1.811-1.626q1.165-.576 2.685-.575 1.563 0 2.72.554 1.166.546 1.811 1.52.647.973.647 2.23 0 .824-.327 1.626-.32.802-1.143 1.783-.825.972-2.323 2.336l-2.123 2.081v.1h6.107V320z"/><path fill="#cbe9f3" stroke="#000" d="M1243 264.5c14.08 0 25.5 11.417 25.5 25.5s-11.42 25.5-25.5 25.5-25.5-11.417-25.5-25.5 11.42-25.5 25.5-25.5Z"/><path fill="#000" d="M1243.05 296.199c-1.01 0-1.9-.185-2.69-.554q-1.17-.553-1.86-1.527t-.72-2.23h2.99c.03.563.27 1.02.71 1.371.44.35.96.525 1.57.525.48 0 .91-.106 1.27-.32.38-.217.67-.518.88-.902.21-.388.32-.833.32-1.335q0-.767-.33-1.349a2.3 2.3 0 0 0-.89-.909 2.6 2.6 0 0 0-1.3-.334c-.42 0-.84.088-1.24.263q-.6.262-.93.717l-2.73-.49.68-7.67h8.9v2.514h-6.36l-.38 3.643h.09c.25-.36.64-.658 1.16-.895.51-.236 1.09-.355 1.73-.355q1.32 0 2.34.618a4.45 4.45 0 0 1 1.63 1.698c.4.715.59 1.538.59 2.471 0 .98-.22 1.851-.68 2.614a4.84 4.84 0 0 1-1.91 1.79c-.82.43-1.76.646-2.84.646"/><path fill="#cbe9f3" stroke="#000" d="M787 393.5c14.083 0 25.5 11.417 25.5 25.5s-11.417 25.5-25.5 25.5-25.5-11.417-25.5-25.5 11.417-25.5 25.5-25.5Z"/><path fill="#000" d="M786.964 425.199q-1.592 0-2.834-.547-1.236-.554-1.953-1.52-.711-.974-.732-2.244h3.097q.029.532.348.937.327.397.866.618.54.22 1.215.22.702 0 1.243-.248.539-.25.845-.689.305-.44.305-1.016 0-.582-.327-1.03-.319-.454-.923-.71-.597-.255-1.42-.256h-1.357v-2.258h1.357q.696 0 1.228-.242.54-.24.838-.667.299-.433.299-1.009 0-.546-.263-.958a1.73 1.73 0 0 0-.724-.654 2.36 2.36 0 0 0-1.08-.234 2.8 2.8 0 0 0-1.143.227 2 2 0 0 0-.831.632 1.66 1.66 0 0 0-.334.966h-2.948q.022-1.257.718-2.216t1.875-1.498q1.186-.547 2.677-.547 1.506 0 2.635.547 1.13.547 1.754 1.477a3.54 3.54 0 0 1 .625 2.074q.008 1.221-.76 2.038-.76.817-1.981 1.037v.114q1.605.206 2.443 1.115.846.902.838 2.258a3.55 3.55 0 0 1-.717 2.209q-.717.966-1.982 1.52-1.263.554-2.897.554"/><path fill="#cbe9f3" stroke="#000" d="M787 509.5c14.083 0 25.5 11.417 25.5 25.5s-11.417 25.5-25.5 25.5-25.5-11.417-25.5-25.5 11.417-25.5 25.5-25.5Z"/><path fill="#000" d="M781.181 538.443v-2.422l6.073-9.566h2.088v3.352h-1.236l-3.828 6.058v.114h8.629v2.464zm6.982 2.557v-3.295l.057-1.073v-10.177h2.883V541z"/><defs><radialGradient id="paint0_radial_91_37" cx="0" cy="0" r="1" gradientTransform="rotate(110.528 801.091 742.16)scale(54.8113 95.6021)" gradientUnits="userSpaceOnUse"><stop offset=".064" stop-color="#ae7fe2"/><stop offset="1" stop-color="#0078d4"/></radialGradient><radialGradient id="paint2_radial_91_37" cx="0" cy="0" r="1" gradientTransform="rotate(-8.367 2895.34 -11921.299)scale(51.0077 33.694)" gradientUnits="userSpaceOnUse"><stop offset=".134" stop-color="#d59dff"/><stop offset="1" stop-color="#5e438f"/></radialGradient><radialGradient id="paint4_radial_91_37" cx="0" cy="0" r="1" gradientTransform="rotate(194.228 925.299 25.81)scale(40.9418 68.9216)" gradientUnits="userSpaceOnUse"><stop offset=".058" stop-color="#50e6ff"/><stop offset="1" stop-color="#436dcd"/></radialGradient><linearGradient id="paint1_linear_91_37" x1="1777.2" x2="1769.38" y1="296.92" y2="283.394" gradientUnits="userSpaceOnUse"><stop stop-color="#114a8b"/><stop offset="1" stop-color="#0078d4" stop-opacity="0"/></linearGradient><linearGradient id="paint3_linear_91_37" x1="1814.72" x2="1806.34" y1="276.399" y2="288.415" gradientUnits="userSpaceOnUse"><stop stop-color="#493474"/><stop offset="1" stop-color="#8c66ba" stop-opacity="0"/></linearGradient><linearGradient id="paint5_linear_91_37" x1="1776.32" x2="1788.65" y1="239.732" y2="239.732" gradientUnits="userSpaceOnUse"><stop stop-color="#2d3f80"/><stop offset="1" stop-color="#436dcd" stop-opacity="0"/></linearGradient><clipPath id="clip0_91_37"><path fill="#fff" d="M48 46h40v40H48z"/></clipPath><clipPath id="clip1_91_37"><path fill="#fff" d="M1181.73 268.838h21.504v21.504h-21.504z"/></clipPath><clipPath id="clip2_91_37"><path fill="#fff" d="M469.556 300.462h21.504v21.504h-21.504z"/></clipPath></defs></svg>