<svg xmlns="http://www.w3.org/2000/svg" width="1920" height="1080" fill="none" viewBox="0 0 1920 1080"><g clip-path="url(#clip0_1_579)"><path fill="#fff" d="M1920 0H0v1080h1920z"/><text xml:space="preserve" fill="#000" font-family="Inter" font-size="32.05" font-weight="600" letter-spacing="0em" style="white-space:pre"><tspan x="765.58" y="73.534">2. Unified threat hunting</tspan></text><path stroke="#f26733" stroke-miterlimit="10" stroke-width="5" d="M1577.64 788.84h-84.08"/><path stroke="#239b7f" stroke-miterlimit="10" stroke-width="5" d="M1493.56 892.65h84.08"/><path stroke="#004dc8" stroke-miterlimit="10" stroke-width="5" d="M1493.56 839.01h84.08"/><path fill="#fff" stroke="#fc0000" stroke-width="2.54" d="M1394.28 649.59H516.73V1017h877.55z"/><path fill="#fff" d="M784.11 1038.61h343.13v-48H784.11z"/><path fill="#fc0000" fill-rule="evenodd" d="M1365.65 674.41v297.15H545.7V674.41z" clip-rule="evenodd" opacity=".1"/><path fill="#fff" stroke="#fc0000" stroke-width="2.78" d="M803.34 712.52H575.62v224.8h227.72zm266.19 0H841.81v224.8h227.72zm266.19 0H1108v224.8h227.72z"/><path fill="#000" fill-rule="evenodd" d="M862.84 1015.8v.5a12.35 12.35 0 0 1-6.13 3.98 96 96 0 0 0-7.79-5.64c-.83-.5-1.49-.99-2.49-1.66-1.49-.99-3.32-2.16-5.14-3.48v-.83c0-6.8 5.31-11.77 12.27-11.77 3.65 0 6.96 1.66 9.28 4.31v.5l-4.14 3.48h-.5c-1.16-1.33-2.98-2.16-4.81-2.16-1.49 0-2.82.5-3.81 1.66-.99.99-1.49 2.49-1.49 3.98s.5 2.82 1.49 3.98c.99.99 2.32 1.66 3.81 1.66 1.82 0 3.48-.83 4.81-2.16h.5zm-12.44 4.47c-2.65-.5-4.97-1.99-6.63-4.14.17 0 .33.17.5.33.33.17.5.33.83.5 1.66 1.16 3.48 2.16 5.31 3.15v.17zm36.31-5.97.99 4.48v.5c-.99.66-1.99.99-3.15.99-2.82 0-4.31-.66-6.3-3.65-.99-1.49-2.82-4.64-4.48-4.64h-.66v7.96h-6.96v-22.71h10.61c6.13 0 9.45 2.98 9.45 7.63 0 2.82-1.66 5.31-4.31 6.3.66.5 1.33 1.16 1.82 1.82.5.66.83 1.49 1.66 1.49.33 0 .66 0 .99-.17zm-7.79-9.28c0 .66-.17 1.16-.66 1.66-.5.5-1.16.66-1.82.66h-3.32v-4.64h3.32c.66 0 1.33.17 1.82.66.5.5.66 1.16.66 1.66m21.22-7.96c7.13 0 12.43 4.97 12.43 11.6s-5.31 11.6-12.43 11.6-12.43-4.97-12.43-11.6 5.31-11.6 12.43-11.6m2.82 16.58c1.66-.99 2.82-2.82 2.65-4.97 0-1.99-.99-3.81-2.65-4.97-1.66-.99-3.81-.99-5.64 0-1.66.99-2.82 2.82-2.65 4.97 0 1.99.99 3.81 2.65 4.97 1.66.99 3.81.99 5.64 0" clip-rule="evenodd"/><path fill="#000" d="M945.4 997.06h-6.3l-3.81 12.93-4.14-12.93h-3.98l-4.14 12.77-3.81-12.77h-6.3l-.33.5 8.12 22.71h3.98l4.48-12.6 4.64 12.6h3.98l8.12-22.71-.33-.5z"/><path fill="#000" fill-rule="evenodd" d="M959.16 997.06c7.13 0 11.44 4.64 11.44 11.6s-4.31 11.6-11.44 11.6h-10.11v-23.21h10.11zm-.34 17.58c2.82 0 4.97-2.16 4.97-5.97s-2.16-5.97-4.97-5.97h-3.32v11.77h3.32z" clip-rule="evenodd"/><path fill="#000" d="M1008.23 1002.86h7.13v-5.64h-21.55v5.64h7.13v17.57h7.13v-17.57h.17z"/><path fill="#000" fill-rule="evenodd" d="M1027.29 997.06c5.97 0 9.12 2.98 9.12 7.79 0 2.98-1.66 5.14-4.14 6.3l4.64 8.62-.33.5h-6.8l-4.31-8.12h-1.66v8.12h-6.8v-23.21zm2.16 8.13c0 .66-.17 1.33-.66 1.66-.5.5-1.16.66-1.66.66h-3.15v-4.64h3.15c.66 0 1.33.17 1.66.66.5.5.66 1.16.66 1.82v-.17z" clip-rule="evenodd"/><path fill="#000" d="M1040.22 997.06h6.63v23.21h-6.63zm23.05 10.45 7.79-9.78-.33-.5h-7.29l-6.47 8.29v-8.29h-6.96v23.21h6.96v-7.13l1.33-1.49 5.8 8.62h7.29l.33-.5-8.45-12.27v-.17zm28.18-4.65v-5.64h-16.41v23.21h16.58v-5.64h-9.95v-3.15h7.46v-5.31h-7.46v-3.15h9.95l-.17-.33zm-108.92 17.41c5.14 0 9.62-2.49 9.62-7.13s-4.48-6.3-8.45-7.46c-1.49-.5-3.15-.99-3.15-1.99s.83-1.33 2.32-1.33c2.32 0 4.31 1.33 5.31 2.32h.5l3.32-3.81v-.5c-1.82-1.82-5.31-3.32-9.28-3.32s-9.28 2.82-9.28 6.96 4.14 6.3 7.79 7.29c2.32.66 3.81.66 3.81 1.99s-1.16 1.33-2.82 1.33-4.81-1.33-6.13-2.49h-.5l-3.32 3.98v.5c2.16 2.32 5.8 3.81 10.28 3.81m-116.4 21.4c-1.66-3.65-4.97-8.45-17.9-15.25-5.97-3.32-16.08-8.29-25.2-17.9.83 3.48 5.14 11.11 23.38 20.56 4.97 2.65 13.59 5.31 19.73 12.6m-1.67-6.64c-1.49-4.48-4.14-10.11-17.08-18.4-6.3-4.14-15.58-9.45-27.69-23.04.83 3.65 4.64 13.1 24.04 25.36 6.3 4.48 14.59 7.13 20.72 16.08"/><mask id="mask0_1_579" width="62" height="62" x="1191" y="737" maskUnits="userSpaceOnUse" style="mask-type:luminance"><path fill="#fff" d="M1252.31 737.39h-60.89v60.89h60.89z"/></mask><g fill="#ec0000" mask="url(#mask0_1_579)"><path d="M1243.51 775.03v-14.42c.75-.15 1.45-.47 2.05-.94s1.07-1.08 1.39-1.77a4.8 4.8 0 0 0 .43-2.21c-.04-.76-.25-1.5-.63-2.16s-.91-1.22-1.55-1.63-1.37-.67-2.13-.74-1.52.03-2.23.31-1.34.73-1.84 1.3l-12.61-7.25c.17-.48.26-.99.27-1.5 0-.63-.12-1.25-.36-1.83s-.59-1.11-1.04-1.55c-.44-.44-.97-.8-1.55-1.04s-1.2-.36-1.83-.36-1.25.12-1.83.36-1.11.59-1.55 1.04c-.44.44-.8.97-1.04 1.55s-.36 1.2-.36 1.83c0 .51.1 1.02.27 1.5l-12.61 7.25c-.44-.51-.99-.92-1.61-1.21a4.76 4.76 0 0 0-5.18.81 4.8 4.8 0 0 0-.64 6.4c.7.96 1.74 1.62 2.9 1.86v14.42c-.75.15-1.45.47-2.05.94s-1.08 1.08-1.39 1.78c-.32.69-.46 1.45-.43 2.22.04.76.25 1.5.64 2.17.38.66.91 1.22 1.56 1.63a4.77 4.77 0 0 0 4.36.42c.71-.28 1.34-.73 1.84-1.31l12.61 7.25c-.17.48-.26.99-.27 1.5 0 .63.12 1.25.36 1.83s.59 1.11 1.04 1.55c.44.44.97.8 1.55 1.04s1.2.36 1.83.36 1.25-.12 1.83-.36 1.11-.59 1.55-1.04c.44-.44.8-.97 1.04-1.55s.36-1.2.36-1.83c0-.51-.1-1.02-.27-1.5l12.61-7.25c.5.57 1.13 1.01 1.84 1.29s1.47.38 2.22.31c.75-.08 1.48-.33 2.12-.74s1.17-.97 1.55-1.63.6-1.39.63-2.15c.04-.76-.11-1.51-.42-2.2s-.78-1.3-1.38-1.77c-.59-.47-1.29-.8-2.03-.95zm-.95-22.02c.57 0 1.13.17 1.61.48.48.32.85.77 1.07 1.3s.28 1.11.17 1.67-.39 1.08-.79 1.48c-.4.41-.92.68-1.48.79s-1.14.06-1.67-.16a2.9 2.9 0 0 1-1.3-1.07c-.32-.48-.49-1.04-.49-1.61a2.884 2.884 0 0 1 2.88-2.89zm-20.7-11.9c.57 0 1.13.17 1.61.48.48.32.85.77 1.07 1.3s.28 1.11.17 1.67-.39 1.08-.79 1.48c-.4.41-.92.68-1.48.79s-1.14.06-1.67-.16a2.9 2.9 0 0 1-1.3-1.07c-.32-.48-.49-1.04-.49-1.61a2.884 2.884 0 0 1 2.88-2.89zm-23.59 14.79c0-.57.17-1.13.49-1.6s.77-.84 1.3-1.06a2.87 2.87 0 0 1 3.13.63c.4.4.68.92.79 1.48s.05 1.14-.17 1.66c-.22.53-.59.98-1.06 1.29-.47.32-1.03.49-1.6.49a2.884 2.884 0 0 1-2.88-2.89m2.88 26.71c-.57 0-1.13-.17-1.61-.48a2.9 2.9 0 0 1-1.07-1.3c-.22-.53-.28-1.11-.17-1.67s.39-1.08.79-1.48c.4-.41.92-.68 1.48-.79s1.14-.06 1.67.16.98.59 1.3 1.07.49 1.04.49 1.61a2.884 2.884 0 0 1-2.88 2.89zm20.71 11.91c-.57 0-1.13-.17-1.61-.48a2.9 2.9 0 0 1-1.07-1.3c-.22-.53-.28-1.11-.17-1.67s.39-1.08.79-1.48c.4-.41.92-.68 1.48-.79s1.14-.06 1.67.16.98.59 1.3 1.07.49 1.04.49 1.61a2.884 2.884 0 0 1-2.88 2.89zm3.56-6.05c-.44-.51-.99-.93-1.61-1.21s-1.29-.43-1.97-.43-1.35.15-1.97.43-1.17.69-1.61 1.21l-12.61-7.25c.17-.48.26-.99.27-1.5 0-1.11-.38-2.18-1.08-3.03-.7-.86-1.67-1.45-2.75-1.67V760.6c1.08-.22 2.06-.81 2.75-1.67a4.8 4.8 0 0 0 1.08-3.03c0-.51-.1-1.02-.27-1.5l12.61-7.25c.44.51.99.92 1.61 1.21a4.7 4.7 0 0 0 3.93 0c.62-.28 1.17-.69 1.61-1.2l12.61 7.25c-.17.48-.26.99-.27 1.5 0 1.11.38 2.18 1.08 3.03.7.86 1.67 1.45 2.75 1.67v14.42c-1.08.22-2.06.81-2.75 1.67a4.8 4.8 0 0 0-1.08 3.03c0 .51.1 1.02.27 1.5l-12.61 7.25zm17.14-5.86c-.57 0-1.13-.17-1.61-.48a2.9 2.9 0 0 1-1.07-1.3c-.22-.53-.28-1.11-.17-1.67s.39-1.08.79-1.48c.4-.41.92-.68 1.48-.79s1.14-.06 1.67.16.98.59 1.3 1.07.49 1.04.49 1.61a2.884 2.884 0 0 1-2.88 2.89z"/><path d="M1233.45 769c-.54 0-1.07.17-1.51.47-.45.31-.79.74-.98 1.25h-16.48v-9.69h6.42v2.91c0 .25.1.49.28.67s.42.28.67.28h3.61a2.68 2.68 0 0 0 2.98 1.68 2.674 2.674 0 0 0 0-5.26c-.61-.11-1.25 0-1.79.3-.54.31-.96.79-1.19 1.38h-2.65v-5.83h2.65a2.68 2.68 0 0 0 2.98 1.68 2.674 2.674 0 0 0 0-5.26c-.61-.11-1.25 0-1.79.3-.54.31-.96.79-1.19 1.38h-3.61c-.25 0-.49.1-.67.28s-.28.42-.28.67v2.91h-7.37c-.25 0-.49.1-.67.28s-.28.42-.28.67v10.65h-4.11c-.25 0-.49.1-.67.28s-.28.42-.28.67.1.49.28.67.42.28.67.28h4.11v6.78c0 .25.1.49.28.67s.42.28.67.28h11.93a2.68 2.68 0 0 0 2.98 1.68 2.674 2.674 0 0 0 0-5.26c-.61-.11-1.25 0-1.79.3-.54.31-.96.79-1.19 1.38h-10.98v-5.83h16.48c.17.46.47.85.85 1.15a2.67 2.67 0 0 0 2.75.33c.44-.2.82-.52 1.1-.92s.44-.87.47-1.36-.08-.97-.3-1.4c-.23-.43-.57-.79-.98-1.04a2.7 2.7 0 0 0-1.38-.38z"/></g><mask id="mask1_1_579" width="65" height="65" x="921" y="735" maskUnits="userSpaceOnUse" style="mask-type:luminance"><path fill="#fff" d="M985.51 735.83h-64v64h64z"/></mask><g fill="#ec0000" mask="url(#mask1_1_579)"><path d="m982.51 784.42.11-28.48-.03-12.11h-55.72v16.38h-1.1c-1.25 0-2.26 1.01-2.26 2.26v24.68c0 1.25 1.01 2.26 2.26 2.26h12.74c1.25 0 2.26-1.01 2.26-2.26v-2.74h7.88v6.46h-7.31c-.55 0-1 .45-1 1s.45 1 1 1h26.82c.55 0 1-.45 1-1s-.45-1-1-1h-7.31v-6.46h21.66zm-43.73 2.73c0 .14-.12.26-.26.26h-12.74c-.14 0-.26-.12-.26-.26v-2.9h13.26zm0-4.9h-13.26v-14.43h13.26zm0-16.43h-13.26v-3.35c0-.14.12-.26.26-.26h12.74c.14 0 .26.12.26.26zm20.07 25.05h-8.2v-6.46h8.2zm-15.12-8.45h-2.95v-19.95c0-1.25-1.01-2.26-2.26-2.26h-9.65v-14.38h51.72l.02 10.11-.11 26.48z"/><path d="M946.13 758.1v4.51c0 5.41 3.23 10.22 8.24 12.26l.38.15.38-.15c5.01-2.04 8.24-6.86 8.24-12.26v-4.51l-8.62-3.58zm15.24 4.52c0 4.45-2.58 8.43-6.62 10.25-4.03-1.82-6.62-5.8-6.62-10.25v-3.18l6.62-2.75 6.62 2.75zm-26.69.35h-5.06c-.55 0-1 .45-1 1v.2c0 .55.45 1 1 1h5.06c.55 0 1-.45 1-1v-.2c0-.55-.45-1-1-1"/></g><mask id="mask2_1_579" width="59" height="58" x="657" y="739" maskUnits="userSpaceOnUse" style="mask-type:luminance"><path fill="#fff" d="M715.88 739.52h-58.31v56.84h58.31z"/></mask><g fill="#ec0000" mask="url(#mask2_1_579)"><path d="m686.88 780.81-11.15-6.44V761.5l11.15-6.44 11.15 6.44v12.87zm-9.26-7.52 9.26 5.34 9.26-5.34V762.6l-9.26-5.34-9.26 5.34z"/><path d="M708.34 775.03v-3.61h-1.89v3.61a4.86 4.86 0 0 0-3.91 4.76c0 .54.11 1.06.28 1.55l-12.23 7.06c-.89-1.07-2.21-1.76-3.71-1.76s-2.82.69-3.71 1.76l-11.86-6.85-.35-.2c.16-.48.26-.98.26-1.51 0-2.36-1.69-4.32-3.91-4.77v-3.65h-1.89v3.65a4.862 4.862 0 0 0 .95 9.63c1.47 0 2.77-.67 3.66-1.7l.27.15 11.97 6.91c-.14.46-.24.94-.24 1.44 0 2.68 2.18 4.86 4.86 4.86s4.86-2.18 4.86-4.86c0-.51-.1-.98-.24-1.44l12.26-7.08a4.8 4.8 0 0 0 3.64 1.67c2.68 0 4.86-2.18 4.86-4.86a4.86 4.86 0 0 0-3.91-4.76m-42 7.78a2.97 2.97 0 1 1 0-5.94 2.97 2.97 0 0 1 0 5.94m20.52 11.66a2.97 2.97 0 0 1-2.97-2.97c0-.16.02-.31.05-.46.1-.66.42-1.24.88-1.68a2.94 2.94 0 0 1 2.04-.83 2.986 2.986 0 0 1 2.92 2.51c.02.15.05.3.05.46a2.97 2.97 0 0 1-2.97 2.97m20.52-11.71c-.75 0-1.43-.29-1.95-.75-.48-.42-.83-.99-.96-1.63-.04-.19-.06-.38-.06-.58 0-1.3.85-2.4 2.02-2.8.3-.1.61-.17.95-.17s.65.07.95.17c1.17.4 2.02 1.49 2.02 2.8a2.97 2.97 0 0 1-2.97 2.97m0-31.5c-1.44 0-2.73.64-3.62 1.65l-12.28-7.09c.14-.46.24-.94.24-1.44 0-2.68-2.18-4.86-4.86-4.86s-4.86 2.18-4.86 4.86c0 .51.1.98.24 1.44l-12.28 7.09c-.89-1-2.17-1.65-3.62-1.65-2.68 0-4.86 2.18-4.86 4.86a4.86 4.86 0 0 0 3.91 4.76v3.57h1.89v-3.57a4.86 4.86 0 0 0 3.91-4.76c0-.56-.11-1.08-.29-1.58l12.23-7.06a4.82 4.82 0 0 0 3.71 1.76c1.49 0 2.82-.69 3.71-1.76l12.24 7.06c-.17.5-.29 1.02-.29 1.58a4.86 4.86 0 0 0 3.91 4.76v3.57h1.89v-3.57a4.86 4.86 0 0 0 3.91-4.76c0-2.68-2.18-4.86-4.86-4.86m-40.06 7.65c-.3.1-.61.17-.95.17s-.65-.07-.95-.17c-1.17-.4-2.02-1.49-2.02-2.8a2.97 2.97 0 0 1 2.97-2.97c.74 0 1.41.28 1.93.73.48.42.84.98.97 1.62.04.2.06.4.06.61 0 1.3-.85 2.4-2.02 2.8zm22.49-14.08c-.1.66-.42 1.24-.88 1.68-.53.51-1.25.83-2.04.83s-1.51-.32-2.04-.83c-.46-.44-.77-1.02-.88-1.68-.02-.15-.05-.3-.05-.46a2.97 2.97 0 0 1 5.94 0c0 .16-.02.31-.05.46m18.54 14.08c-.3.1-.61.17-.95.17s-.65-.07-.95-.17c-1.17-.4-2.02-1.49-2.02-2.8 0-.21.02-.42.07-.61.14-.65.49-1.21.97-1.62.52-.45 1.19-.73 1.93-.73a2.97 2.97 0 0 1 2.97 2.97c0 1.3-.85 2.4-2.02 2.8"/><path d="M675.73 763.52h-18.16v1.89h18.16zm0 3.47h-18.16v1.89h18.16zm0 3.48h-18.16v1.89h18.16zm40.14-6.95h-18.16v1.89h18.16zm0 3.47h-18.16v1.89h18.16zm0 3.48h-18.16v1.89h18.16z"/></g><path fill="#fff" stroke="#f6821f" stroke-width="2.31" d="M1394.28 166.9H516.73v304.84h877.55z"/><path fill="#fff" d="M1158.59 146.37H752.42v48h406.17z"/><path fill="#f78100" d="m857.57 179.08.57-1.99c.68-2.36.43-4.56-.72-6.15-1.06-1.47-2.82-2.35-4.96-2.45l-40.51-.51a.81.81 0 0 1-.64-.33.83.83 0 0 1-.08-.74c.14-.4.53-.69.94-.72l40.9-.51c4.85-.22 10.1-4.15 11.95-8.96l2.33-6.1a1.36 1.36 0 0 0 .07-.8c-2.68-11.92-13.31-20.83-26.02-20.83-11.7 0-21.65 7.56-25.22 18.06a12.03 12.03 0 0 0-8.41-2.33c-5.61.56-10.13 5.09-10.7 10.7-.15 1.46-.03 2.86.31 4.18-9.17.29-16.53 7.81-16.53 17.05 0 .83.07 1.65.18 2.46.06.39.39.68.78.68h74.8s.01.01.03.01c.43-.01.81-.29.93-.71z"/><path fill="#fbac42" d="M871.06 151.05c-.38 0-.75.01-1.13.03-.06 0-.13.01-.18.04-.19.07-.35.22-.4.43l-1.58 5.49c-.68 2.36-.43 4.54.72 6.15 1.06 1.49 2.82 2.35 4.96 2.45l8.64.51a.8.8 0 0 1 .61.33c.14.21.18.47.1.74-.14.4-.53.69-.94.72l-8.98.51c-4.88.22-10.13 4.15-11.96 8.96l-.65 1.7c-.11.31.1.64.43.65h30.91c.38 0 .69-.24.79-.6.54-1.9.82-3.92.82-6-.01-12.21-9.92-22.12-22.16-22.12z"/><path fill="#000" d="M927.28 160.97h5.11v13.98h8.93v4.47h-14.04zm19.35 9.28v-.06c0-5.29 4.27-9.6 9.96-9.6s9.91 4.25 9.91 9.55v.06c0 5.29-4.27 9.6-9.96 9.6s-9.91-4.25-9.91-9.55m14.66 0v-.06c0-2.67-1.92-4.99-4.74-4.99s-4.67 2.26-4.67 4.93v.06c0 2.67 1.92 4.99 4.72 4.99s4.68-2.26 4.68-4.93m11.48 1.09v-10.36h5.2v10.25c0 2.67 1.35 3.93 3.4 3.93s3.4-1.21 3.4-3.79v-10.39h5.2v10.23c0 5.96-3.4 8.57-8.64 8.57-5.27 0-8.56-2.67-8.56-8.43m25.01-10.38h7.11c6.59 0 10.42 3.79 10.42 9.11v.06c0 5.32-3.88 9.28-10.52 9.28h-7.02v-18.45zm7.21 13.92c3.06 0 5.09-1.68 5.09-4.67v-.06c0-2.95-2.03-4.67-5.09-4.67h-2.08v9.39h2.08zm17.76-13.92h14.77v4.49h-9.66v3.13h8.74v4.25h-8.74v6.58h-5.11zm21.88 0h5.12v13.98h8.94v4.47h-14.06zm27.43-.14h4.93l7.86 18.59h-5.49l-1.35-3.29h-7.11l-1.32 3.29h-5.38l7.85-18.59zm4.47 11.33-2.06-5.25-2.08 5.25zm14.9-11.19h8.73c2.82 0 4.77.74 6.02 2 1.08 1.06 1.64 2.47 1.64 4.29v.06c0 2.82-1.5 4.7-3.79 5.67l4.4 6.43h-5.92l-3.71-5.59h-2.24v5.59h-5.11v-18.45zm8.49 8.85c1.74 0 2.74-.85 2.74-2.18v-.06c0-1.44-1.06-2.18-2.76-2.18h-3.35v4.42h3.38zm-183.83 2.6c-.72 1.61-2.22 2.76-4.22 2.76-2.79 0-4.72-2.32-4.72-4.99v-.06c0-2.67 1.88-4.93 4.67-4.93 2.11 0 3.71 1.29 4.39 3.06h5.39c-.86-4.39-4.72-7.67-9.73-7.67-5.7 0-9.96 4.29-9.96 9.6v.06c0 5.29 4.22 9.55 9.91 9.55 4.88 0 8.68-3.15 9.68-7.38zm199.08-11.46h14.87v4.36h-9.8v2.79h8.88v4.05h-8.88v2.93h9.94v4.36h-15.01z"/><path fill="#fff1df" fill-rule="evenodd" d="M1365.48 210.83v245.01H545.53V210.83z" clip-rule="evenodd"/><path fill="#fff" stroke="#f63" stroke-width="2" d="M803.29 333.64H575.57v84.09h227.72z"/><path fill="#f63" d="m624.01 358.22-2.07 2.12 13.29 13.03H601.7v2.97h33.53l-13.29 13.03 2.07 2.13L641 374.86z"/><path fill="#fff" stroke="#f63" stroke-width="2" d="M1069.37 333.64H841.65v84.09h227.72z"/><mask id="mask3_1_579" width="51" height="51" x="874" y="349" maskUnits="userSpaceOnUse" style="mask-type:luminance"><path fill="#fff" d="M924.44 349.81h-50.1v50.1h50.1z"/></mask><g fill="#f63" mask="url(#mask3_1_579)"><path d="M903.15 358.25c-3.5 0-6.92 1.11-9.75 3.16a16.55 16.55 0 0 0-6.03 8.29l-.11.34h3.05l.07-.16c1.13-2.86 3.19-5.26 5.85-6.81a13.69 13.69 0 0 1 16.8 2.37 13.68 13.68 0 0 1 1.62 16.88 13.7 13.7 0 0 1-7.07 5.54 13.706 13.706 0 0 1-16.01-5.61c-.08-.12-.15-.23-.22-.36l-.16-.27h-3.2l.19.38q.435.93.99 1.8c1.55 2.43 3.71 4.41 6.26 5.75s5.41 1.99 8.29 1.9c2.88-.1 5.69-.95 8.14-2.46s4.47-3.64 5.86-6.17a16.64 16.64 0 0 0 2.04-8.26 16.6 16.6 0 0 0-8.39-14.14 16.6 16.6 0 0 0-8.22-2.18z"/><path d="m903.93 372.58-5.82-5.82-1.93 1.93 3.38 3.39h-25.21l1.63 2.73H903l.93-2.24zm-.04 12.34-1.93-1.93 3.38-3.39h-26.53l-1.62-2.74h31.59l.93 2.25-5.82 5.82z"/></g><path fill="#fff" stroke="#f63" stroke-width="2" d="M1335.45 333.64h-227.72v84.09h227.72z"/><path fill="#f63" d="M1206.59 359.07h-28.95l-1.32 1.32v28.95l1.32 1.32h28.95l1.32-1.32v-28.95zm-1.32 28.95h-26.32V361.7h26.32z"/><path fill="#f63" d="M1183.3 377.82h3.65l.75 2.3h2.29l-3.49-10.11h-2.75l-3.49 10.11h2.29zm1.79-5.5h.08l1.24 3.83h-2.57zm8.12 4.52h1.8c.69.02 1.37-.13 1.99-.43.53-.27.97-.69 1.26-1.2.3-.54.45-1.16.43-1.78.01-.62-.13-1.23-.43-1.78-.29-.51-.72-.93-1.24-1.21a4.05 4.05 0 0 0-1.96-.44h-3.99v10.11h2.14v-3.28zm0-5.08h1.44c.35-.01.71.06 1.03.21.26.13.47.33.6.59.13.28.2.58.2.88s-.07.61-.2.88c-.13.26-.35.47-.6.6-.32.15-.67.23-1.02.22h-1.45zm9.43-1.75h-2.14v10.11h2.14z"/><path stroke="#f63" stroke-width="2" d="M575.57 234.32v-6h6"/><path stroke="#f63" stroke-dasharray="11.35 11.35" stroke-width="2" d="M592.92 228.32h198.69"/><path stroke="#f63" stroke-width="2" d="M797.29 228.32h6v6"/><path stroke="#f63" stroke-dasharray="10.3 10.3" stroke-width="2" d="M803.29 244.62v56.64"/><path stroke="#f63" stroke-width="2" d="M803.29 306.41v6h-6"/><path stroke="#f63" stroke-dasharray="11.35 11.35" stroke-width="2" d="M785.93 312.41H587.24"/><path stroke="#f63" stroke-width="2" d="M581.57 312.41h-6v-6"/><path stroke="#f63" stroke-dasharray="10.3 10.3" stroke-width="2" d="M575.57 296.11v-56.64"/><path fill="#f2f7ff" stroke="#3e74ff" stroke-width="2.11" d="M317.7 698.82H58.07v312.09H317.7z"/><text xml:space="preserve" fill="#000" font-family="Inter" font-size="30" font-weight="600" letter-spacing="0em" style="white-space:pre"><tspan x="66.88" y="983.939">[Threat hunting]</tspan></text><path fill="#000" d="M138.09 729.71c-.11-.99-.55-1.77-1.34-2.32s-1.8-.83-3.06-.83c-.88 0-1.64.13-2.27.4s-1.11.63-1.45 1.08q-.495.69-.51 1.56c0 .49.11.91.34 1.26.22.36.53.66.92.91s.82.45 1.29.62.94.31 1.42.42l2.19.55c.88.21 1.73.48 2.54.83.82.35 1.55.79 2.2 1.32s1.16 1.17 1.54 1.92q.57 1.125.57 2.64 0 2.055-1.05 3.6c-.7 1.04-1.71 1.84-3.02 2.42-1.32.58-2.91.87-4.78.87s-3.39-.28-4.72-.84q-1.995-.84-3.12-2.46c-.75-1.08-1.15-2.39-1.21-3.94h4.15c.06.81.31 1.49.75 2.03s1.01.94 1.72 1.21 1.5.4 2.38.4 1.72-.14 2.42-.42c.69-.28 1.24-.66 1.63-1.16s.6-1.08.6-1.75c0-.61-.19-1.11-.53-1.51-.35-.4-.84-.73-1.46-1s-1.36-.51-2.19-.72l-2.65-.68c-1.92-.49-3.44-1.24-4.55-2.25s-1.67-2.34-1.67-4.01c0-1.37.37-2.58 1.12-3.61s1.77-1.83 3.06-2.41c1.29-.57 2.75-.86 4.38-.86s3.11.29 4.35.86c1.25.57 2.23 1.37 2.94 2.38s1.08 2.18 1.1 3.49h-4.06zm15.7 17.24c-1.75 0-3.27-.37-4.54-1.1s-2.25-1.77-2.93-3.12-1.02-2.94-1.02-4.76.34-3.38 1.03-4.74 1.65-2.42 2.89-3.19 2.69-1.14 4.36-1.14c1.08 0 2.1.17 3.06.52a7.1 7.1 0 0 1 2.55 1.6c.74.72 1.32 1.64 1.75 2.75.42 1.11.64 2.43.64 3.97V739h-14.33v-2.78h10.38c0-.79-.18-1.49-.51-2.11s-.8-1.11-1.39-1.46c-.6-.36-1.29-.54-2.08-.54-.84 0-1.58.2-2.22.61s-1.13.94-1.49 1.59-.53 1.38-.54 2.16v2.42c0 1.02.19 1.89.56 2.61.37.73.89 1.28 1.56 1.66q1.005.57 2.34.57c.6 0 1.14-.09 1.63-.26s.91-.42 1.26-.76c.36-.33.63-.75.81-1.24l3.85.43c-.24 1.02-.7 1.9-1.38 2.66-.68.75-1.55 1.34-2.6 1.75s-2.26.62-3.62.62zm18.88 0c-1.75 0-3.24-.38-4.49-1.15q-1.875-1.155-2.88-3.18c-.67-1.35-1.01-2.92-1.01-4.68s.34-3.34 1.02-4.71c.68-1.36 1.65-2.42 2.9-3.19 1.25-.76 2.73-1.14 4.43-1.14 1.42 0 2.68.26 3.77.78 1.1.52 1.97 1.25 2.62 2.2.65.94 1.02 2.05 1.12 3.31h-3.94c-.16-.84-.54-1.55-1.13-2.11s-1.39-.85-2.38-.85c-.84 0-1.58.23-2.22.68s-1.13 1.1-1.49 1.94c-.35.84-.53 1.85-.53 3.03s.17 2.21.52 3.07c.35.85.84 1.51 1.47 1.97s1.38.69 2.24.69c.61 0 1.15-.12 1.63-.35s.89-.57 1.21-1.01c.33-.44.55-.98.67-1.6h3.94c-.1 1.24-.46 2.33-1.09 3.28s-1.49 1.7-2.57 2.23c-1.09.54-2.36.8-3.82.8zm22.03-7.69v-10.13h4.12v17.48h-4v-3.11h-.18c-.4.98-1.04 1.78-1.94 2.4s-2.01.93-3.32.93c-1.15 0-2.16-.26-3.03-.77s-1.56-1.26-2.05-2.24-.74-2.17-.74-3.57v-11.13h4.12v10.5c0 1.11.3 1.99.91 2.64s1.4.98 2.39.98c.61 0 1.2-.15 1.76-.44.57-.3 1.04-.74 1.41-1.33s.55-1.33.55-2.21m8.35 7.35v-17.48h4v2.91h.18c.32-1.01.87-1.79 1.64-2.34.78-.55 1.67-.83 2.67-.83.23 0 .48 0 .77.03.28.02.52.05.71.09v3.79c-.17-.06-.45-.12-.83-.17s-.74-.07-1.09-.07c-.75 0-1.42.16-2.02.48s-1.06.77-1.41 1.34c-.34.57-.51 1.23-.51 1.97v10.28h-4.12zm14.79-19.96q-.975 0-1.68-.66c-.47-.44-.71-.97-.71-1.58s.24-1.14.71-1.58 1.03-.65 1.68-.65 1.22.22 1.69.66.7.97.7 1.58-.23 1.14-.7 1.58-1.03.65-1.69.65m-2.07 19.96v-17.48h4.12v17.48zm17.08-17.48v3.19H222.8v-3.19zm-7.57-4.19h4.12v16.41c0 .55.09.98.26 1.27s.4.49.68.6.59.16.93.16c.26 0 .5-.02.71-.06s.38-.07.5-.1l.69 3.22c-.22.08-.53.16-.94.25s-.9.14-1.49.16c-1.03.03-1.96-.13-2.79-.47s-1.48-.88-1.96-1.61-.72-1.64-.71-2.73zm13.58 28.23c-.56 0-1.08-.04-1.55-.13s-.85-.19-1.13-.3l.96-3.21c.6.17 1.13.26 1.6.25.47 0 .89-.15 1.25-.44.36-.28.67-.76.92-1.42l.35-.94-6.34-17.85h4.37l4.03 13.2h.18l4.04-13.2h4.38l-7 19.6c-.33.93-.76 1.72-1.3 2.38q-.81.99-1.98 1.53c-.78.36-1.71.53-2.78.53M134.3 785.08h-4.51l8.21-23.31h5.21l8.22 23.31h-4.51l-6.23-18.53h-.18l-6.22 18.53zm.15-9.14h12.29v3.39h-12.29zm23.99-1.11v10.24h-4.12v-17.48h3.94v2.97h.21c.4-.98 1.05-1.76 1.93-2.33.88-.58 1.98-.86 3.28-.86 1.21 0 2.26.26 3.16.77.9.52 1.6 1.26 2.09 2.24.5.98.74 2.17.73 3.56v11.13h-4.12v-10.5c0-1.17-.3-2.08-.9-2.74s-1.44-.99-2.5-.99c-.72 0-1.36.16-1.92.47s-.99.77-1.31 1.36c-.31.59-.47 1.31-.47 2.15zm20.46 10.6c-1.11 0-2.1-.2-2.99-.6-.88-.4-1.58-.99-2.09-1.77s-.77-1.75-.77-2.89c0-.99.18-1.8.55-2.45s.86-1.16 1.49-1.55a7.5 7.5 0 0 1 2.13-.88c.79-.2 1.61-.35 2.46-.44 1.02-.11 1.86-.2 2.49-.29.64-.09 1.1-.22 1.39-.41s.44-.48.44-.87v-.07c0-.86-.25-1.52-.76-1.99s-1.24-.71-2.2-.71q-1.515 0-2.4.66c-.59.44-.98.96-1.19 1.56l-3.85-.55q.45-1.59 1.5-2.67c.7-.72 1.55-1.26 2.56-1.62s2.12-.54 3.35-.54q1.26 0 2.52.3c.83.2 1.6.52 2.29.97s1.25 1.06 1.67 1.84c.42.77.63 1.74.63 2.9v11.7h-3.96v-2.4h-.14c-.25.49-.6.94-1.05 1.36s-1.02.76-1.7 1.01-1.47.38-2.38.38zm1.07-3.03c.83 0 1.54-.17 2.15-.5s1.08-.77 1.41-1.31.5-1.14.5-1.79v-2.06c-.13.11-.35.21-.65.3-.31.09-.65.17-1.03.24s-.76.13-1.13.18-.69.1-.97.14c-.61.08-1.17.22-1.65.41-.49.19-.87.45-1.15.79s-.42.77-.42 1.3c0 .76.28 1.33.83 1.72s1.26.58 2.12.58zm16.44-20.63v23.31h-4.12v-23.31zm6.79 29.86c-.56 0-1.08-.04-1.55-.13s-.85-.19-1.13-.3l.96-3.21c.6.17 1.13.26 1.6.25.47 0 .89-.15 1.25-.44.36-.28.67-.76.92-1.42l.35-.94-6.34-17.85h4.37l4.03 13.2h.18l4.04-13.2h4.38l-7 19.6c-.33.93-.76 1.72-1.3 2.38q-.81.99-1.98 1.53c-.78.36-1.71.53-2.78.53m29.72-19.41-3.76.41c-.11-.38-.29-.74-.55-1.07q-.39-.495-1.05-.81c-.44-.21-.98-.31-1.62-.31-.86 0-1.58.19-2.16.56s-.87.85-.86 1.45c0 .51.18.92.56 1.24s1.02.58 1.91.79l2.98.64c1.65.36 2.89.92 3.69 1.7s1.22 1.79 1.22 3.04c0 1.1-.33 2.07-.96 2.91s-1.51 1.49-2.64 1.96-2.41.71-3.87.71c-2.14 0-3.86-.45-5.17-1.35s-2.08-2.15-2.33-3.76l4.02-.39c.18.79.57 1.39 1.16 1.79q.885.6 2.31.6c.95 0 1.77-.2 2.36-.6.6-.4.89-.9.89-1.49 0-.5-.19-.91-.57-1.24s-.98-.58-1.78-.75l-2.98-.63q-2.52-.525-3.72-1.77c-.8-.83-1.2-1.88-1.2-3.16 0-1.08.29-2.01.88-2.81s1.43-1.41 2.49-1.84c1.07-.44 2.3-.65 3.69-.65 2.05 0 3.66.44 4.84 1.31q1.77 1.305 2.19 3.54zm12.51-4.63v3.19h-10.05v-3.19zm-7.57-4.19h4.12v16.41c0 .55.09.98.26 1.27s.4.49.68.6.59.16.93.16c.26 0 .5-.02.71-.06s.38-.07.5-.1l.69 3.22c-.22.08-.53.16-.94.25s-.9.14-1.49.16c-1.03.03-1.96-.13-2.79-.47s-1.48-.88-1.96-1.61-.72-1.64-.71-2.73z"/><path fill="#3e74ff" d="M187.88 784.02c.41 0 .74-.33.74-.74s-.33-.74-.74-.74-.74.33-.74.74.33.74.74.74"/><path stroke="#f26733" stroke-miterlimit="10" stroke-width="3" d="M689.43 428.39V696.2"/><path fill="#f26733" d="m677.16 686.26 2.2-2.05 10.07 10.84 10.07-10.84 2.19 2.05-12.26 13.19z"/><path stroke="#9e9e9e" stroke-miterlimit="10" stroke-width="3" d="M572.31 270.37H185.67v42.04"/><path fill="#9e9e9e" d="m562.37 258.1-2.04 2.19 10.83 10.07-10.83 10.07 2.04 2.2 13.2-12.27z"/><path stroke="#9e9e9e" stroke-miterlimit="10" stroke-width="3" d="M513.64 674.41H188.98v-82.03"/><path fill="#9e9e9e" d="m503.7 662.14-2.04 2.2 10.83 10.07-10.83 10.07 2.04 2.2 13.2-12.27z"/><text xml:space="preserve" fill="#000" font-family="Inter" font-size="22" font-weight="500" letter-spacing="0em" style="white-space:pre"><tspan x="358.8" y="1032.22">4. Investigate</tspan></text><text xml:space="preserve" fill="#000" font-family="Inter" font-size="22" font-weight="500" letter-spacing="0em" style="white-space:pre"><tspan x="718.39" y="569.41">3. Logs [Logpush]</tspan></text><text xml:space="preserve" fill="#000" font-family="Inter" font-size="22" font-weight="500" letter-spacing="0em" style="white-space:pre"><tspan x="292.19" y="246.82">2. Internet traffic</tspan></text><path fill="#3e74ff" d="M136.49 866.11c.41 0 .74-.33.74-.74s-.33-.74-.74-.74-.74.33-.74.74.33.74.74.74"/><path stroke="#9e9e9e" stroke-miterlimit="10" stroke-width="3" d="M204.54 1020.25v28.34h484.89V942.84"/><path fill="#9e9e9e" d="m192.27 1030.19 2.19 2.05 10.07-10.84 10.07 10.84 2.2-2.05-12.27-13.19zm509.43-77.41-2.2 2.04-10.07-10.83-10.07 10.83-2.2-2.04 12.27-13.2z"/><path fill="#f2f7ff" stroke="#3e74ff" stroke-width="2.06" d="M318.01 289.2H58.38v363.87h259.63z"/><path fill="#3e74ff" d="M188.19 374.4c.41 0 .74-.33.74-.74s-.33-.74-.74-.74-.74.33-.74.74.33.74.74.74"/><path fill="#e0ecff" fill-rule="evenodd" stroke="#3e74ff" stroke-miterlimit="10" stroke-width="1.5" d="M249.36 375.89H127.02c-3.24 0-6.14 2.73-6.14 6.14v80.36H255.5v-80.36c0-3.41-2.9-6.14-6.14-6.14Z" clip-rule="evenodd"/><path fill="#fff" d="M260.96 468.54H115.59c-7.51 0-12.63-1.19-12.63-2.22v-3.41c0-.34.34-.68.68-.68h169.09c.34 0 .68.34.68.68v3.41c.17 1.02-3.75 2.22-12.46 2.22z"/><path stroke="#3e74ff" stroke-miterlimit="10" stroke-width="1.5" d="M260.96 468.54H115.59c-7.51 0-12.63-1.19-12.63-2.22v-3.41c0-.34.34-.68.68-.68h169.09c.34 0 .68.34.68.68v3.41c.17 1.02-3.75 2.22-12.46 2.22z"/><path fill="#e0ecff" d="M273.33 462.9c0-.34-.34-.68-.68-.68H103.56c-.34 0-.68.34-.68.68v3.24H273.5v-3.24z"/><path stroke="#3e74ff" stroke-miterlimit="10" stroke-width="1.5" d="M260.96 468.54H115.59c-7.51 0-12.63-1.19-12.63-2.22v-3.41c0-.34.34-.68.68-.68h169.09c.34 0 .68.34.68.68v3.41c.17 1.02-3.75 2.22-12.46 2.22z"/><path fill="#fff" d="M249.96 385.44H126.43v72h123.53z"/><path fill="#3e74ff" fill-rule="evenodd" d="M206.7 462.56v.68c0 .51-1.02.68-1.88.68h-33.27c-.85 0-1.88-.17-1.88-.68v-.68" clip-rule="evenodd"/><path fill="#fff" stroke="#3e74ff" stroke-miterlimit="10" stroke-width="1.5" d="M188.19 452.68c17.25 0 31.24-13.99 31.24-31.24s-13.99-31.24-31.24-31.24-31.24 13.99-31.24 31.24 13.99 31.24 31.24 31.24Z"/><path fill="#0f006b" d="M187.03 409.72c.55-.84 1.78-.84 2.33 0l.44.68c.43.66 1.33.83 1.98.37l.65-.47c.82-.58 1.96-.14 2.17.84l.17.8c.17.77.94 1.25 1.71 1.06l.78-.2c.97-.25 1.88.58 1.72 1.57l-.13.82c-.12.78.43 1.51 1.21 1.6l.81.1c.99.12 1.54 1.22 1.04 2.08l-.42.72c-.4.68-.15 1.56.55 1.93l.73.39c.88.47.99 1.69.21 2.31l-.65.52c-.61.49-.7 1.4-.18 1.99l.54.63c.65.76.32 1.94-.64 2.24l-.79.25c-.75.24-1.16 1.05-.89 1.79l.28.78c.34.94-.4 1.92-1.4 1.86l-.81-.05c-.79-.05-1.46.56-1.48 1.35l-.02.82c-.03 1-1.07 1.65-1.98 1.22l-.73-.34c-.72-.33-1.57 0-1.87.73l-.31.75c-.39.93-1.6 1.15-2.29.43l-.56-.58c-.55-.57-1.46-.57-2.01 0l-.56.58c-.69.72-1.9.5-2.29-.43l-.31-.75c-.3-.73-1.16-1.06-1.87-.73l-.73.34c-.91.42-1.95-.22-1.98-1.22l-.02-.82c-.02-.79-.7-1.4-1.48-1.35l-.81.05c-1 .07-1.74-.91-1.4-1.86l.28-.78a1.39 1.39 0 0 0-.89-1.79l-.79-.25c-.95-.3-1.29-1.48-.64-2.24l.54-.63c.51-.6.43-1.5-.18-1.99l-.65-.52c-.78-.63-.67-1.84.21-2.31l.73-.39c.7-.37.94-1.25.55-1.93l-.42-.72c-.5-.87.05-1.96 1.04-2.08l.81-.1c.78-.09 1.33-.82 1.21-1.6l-.13-.82c-.16-.99.75-1.82 1.72-1.57l.78.2c.77.2 1.54-.28 1.71-1.06l.17-.8c.21-.98 1.36-1.43 2.17-.84l.65.47c.64.46 1.54.29 1.98-.37z"/><path fill="#e0edff" stroke="#0f006b" stroke-miterlimit="10" stroke-width="1.5" d="M178.09 437.72c1.63-.89 3.13-1.99 4.48-3.26v-8.24l10.86.13v7.75c.5.96 2.37 2.15 4.87 3.55 0 0-4.65 6.93-10.48 6.93s-9.73-6.86-9.73-6.86Z"/><path fill="#3e74ff" stroke="#0f006b" stroke-miterlimit="10" stroke-width="1.5" d="M188.29 452.68c7.75.01 15.23-2.87 20.97-8.09-3.2-2.75-6.75-5.07-10.56-6.9 0 0-4.71 6.88-10.54 6.88s-9.76-6.79-9.76-6.79c-3.58 2.02-7.98 3.92-11.27 6.63a31.13 31.13 0 0 0 21.16 8.26z"/><path fill="#e0edff" stroke="#0f006b" stroke-miterlimit="10" stroke-width="1.5" d="M187.23 415.79c.06-.23.17-.45.31-.64s.33-.34.54-.46c.21-.11.44-.18.68-.2s.48.01.7.09c1.36.41.59 5.34-3.2 5.16q.585-1.95.96-3.96z"/><path fill="#e0edff" stroke="#0f006b" stroke-miterlimit="10" stroke-width="1.5" d="M189.18 415.79a1.77 1.77 0 0 0-.89-1.11c-.22-.11-.46-.18-.7-.2s-.49.02-.72.1c-1.18.48-.59 5.34 3.2 5.16-.38-1.3-.68-2.62-.88-3.96z"/><path fill="#e0edff" stroke="#0f006b" stroke-miterlimit="10" stroke-width="1.5" d="M198.99 411.26c0 2.82-1.03 8.55-2.84 12.01-1.34 2.57-4.81 5.43-7.95 5.43s-6.25-2.86-7.95-5.43c-2.16-3.26-2.84-9.2-2.84-12.01s1.14-5.61 3.16-7.63 4.77-3.16 7.63-3.16 5.61 1.14 7.63 3.16 3.16 4.77 3.16 7.63Z"/><path fill="#0f006b" stroke="#0f006b" stroke-linejoin="round" stroke-width="1.5" d="M198.43 414.81c-.51-4.29-4.67-10-9.31-10l-.77-3.56 1.44 3.6c0 7.78-11.53 5.7-12.01 10.84l-.18-.18c-.24-1.5-.37-3.01-.38-4.53 0-5.96 5.02-10.61 10.98-10.61 2.88 0 5.65 1.12 7.71 3.14a10.92 10.92 0 0 1 3.27 7.65c-.06 1.48-.26 2.95-.61 4.4l-.13-.75z"/><path stroke="#3e74ff" stroke-miterlimit="10" stroke-width="1.5" d="M188.19 452.68c17.25 0 31.24-13.99 31.24-31.24s-13.99-31.24-31.24-31.24-31.24 13.99-31.24 31.24 13.99 31.24 31.24 31.24Z"/><text xml:space="preserve" fill="#000" font-family="Inter" font-size="24" font-weight="600" letter-spacing="0em" style="white-space:pre"><tspan x="84.77" y="542.859">[Cloudflare One</tspan><tspan x="84.77" y="567.859">Client]</tspan></text><text xml:space="preserve" fill="#000" font-family="Inter" font-size="24" font-weight="600" letter-spacing="0em" style="white-space:pre"><tspan x="84.77" y="592.859">[Falcon agent]</tspan></text><text xml:space="preserve" fill="#000" font-family="Inter" font-size="30" font-weight="600" letter-spacing="0em" style="white-space:pre"><tspan x="123.4" y="331.489">Endpoint</tspan></text><text xml:space="preserve" fill="#000" font-family="Inter" font-size="30" font-weight="600" letter-spacing="0em" style="white-space:pre"><tspan x="662.45" y="386.309">Logs </tspan></text><text xml:space="preserve" fill="#000" font-family="Inter" font-size="30" font-weight="600" letter-spacing="0em" style="white-space:pre"><tspan x="603.021" y="262.909">HTTP, DNS,
</tspan><tspan x="610.521" y="298.909">FW events</tspan></text><text xml:space="preserve" fill="#000" font-family="Inter" font-size="30" font-weight="600" letter-spacing="0em" style="white-space:pre"><tspan x="938.64" y="386.309">Access</tspan></text><text xml:space="preserve" fill="#000" font-family="Inter" font-size="30" font-weight="600" letter-spacing="0em" style="white-space:pre"><tspan x="1224.17" y="386.309">API</tspan></text><path stroke="#004dc8" stroke-miterlimit="10" stroke-width="3" d="M1224.77 699.96v-267.8"/><path fill="#004dc8" d="m1237.04 442.1-2.19 2.04-10.07-10.83-10.08 10.83-2.19-2.04 12.27-13.2z"/><path fill="#e0ecff" fill-rule="evenodd" d="M249.21 818.33h-121.7c-3.23 0-6.11 2.72-6.11 6.11v79.95h133.93v-79.95c0-3.39-2.89-6.11-6.11-6.11z" clip-rule="evenodd"/><path fill="#3e74ff" d="M256.36 905.42h-136v-80.99c0-3.88 3.27-7.15 7.15-7.15h121.7c3.88 0 7.15 3.27 7.15 7.15zm-133.93-2.07h131.85v-78.91c0-2.75-2.32-5.07-5.07-5.07h-121.7c-2.75 0-5.07 2.32-5.07 5.07v78.91z"/><path fill="#fff" d="M260.58 910.5H115.96c-7.47 0-12.56-1.19-12.56-2.21v-3.39c0-.34.34-.68.68-.68h168.21c.34 0 .68.34.68.68v3.39c.17 1.02-3.74 2.21-12.39 2.21"/><path fill="#3e74ff" d="M260.58 911.53H115.96c-2.27 0-13.6-.16-13.6-3.25v-3.39c0-.92.8-1.72 1.72-1.72h168.21c.92 0 1.72.8 1.72 1.72v3.34c.03.4-.1.79-.38 1.13-1.67 1.97-9.68 2.18-13.05 2.18zm-156.14-3.55c.93.55 4.96 1.48 11.52 1.48h144.62c7.64 0 10.67-.93 11.35-1.36v-2.84H104.44v2.73z"/><path fill="#e0ecff" d="M273.14 904.89c0-.34-.34-.68-.68-.68H104.25c-.34 0-.68.34-.68.68v3.23h169.74v-3.23z"/><path fill="#3e74ff" d="M260.58 911.53H115.96c-2.27 0-13.6-.16-13.6-3.25v-3.39c0-.92.8-1.72 1.72-1.72h168.21c.92 0 1.72.8 1.72 1.72v3.34c.03.4-.1.79-.38 1.13-1.67 1.97-9.68 2.18-13.05 2.18zm-156.14-3.55c.93.55 4.96 1.48 11.52 1.48h144.62c7.64 0 10.67-.93 11.35-1.36v-2.84H104.44v2.73z"/><path fill="#fff" d="M249.72 827.83H126.83v71.63h122.89z"/><path fill="#3e74ff" fill-rule="evenodd" d="M206.78 904.56v.68c0 .51-1.02.68-1.87.68h-33.1c-.85 0-1.87-.17-1.87-.68v-.68" clip-rule="evenodd"/><path fill="#fff" stroke="#3e74ff" stroke-miterlimit="10" stroke-width=".25" d="M188.35 894.22c17.16 0 31.08-13.91 31.08-31.08s-13.91-31.08-31.08-31.08-31.08 13.91-31.08 31.08 13.91 31.08 31.08 31.08Z"/><path fill="#3e74ff" stroke="#3e74ff" stroke-miterlimit="10" stroke-width=".26" d="M188.35 895.61c-17.9 0-32.46-14.56-32.46-32.46s14.56-32.46 32.46-32.46 32.46 14.56 32.46 32.46-14.56 32.46-32.46 32.46Zm0-63.54c-17.14 0-31.08 13.94-31.08 31.08s13.94 31.08 31.08 31.08 31.08-13.94 31.08-31.08-13.94-31.08-31.08-31.08Z"/><path fill="#e0ecff" d="M178.54 879.34c1.62-.89 3.12-1.98 4.46-3.25v-8.2l10.8.13v7.71c.49.96 2.36 2.14 4.84 3.53 0 0-4.62 6.9-10.43 6.9s-9.68-6.82-9.68-6.82z"/><path fill="#0f006b" d="M188.22 886.85c-6.14 0-10.11-6.88-10.28-7.17l-.35-.61.61-.34c1.48-.81 2.86-1.8 4.1-2.94v-8.6l12.19.14v8.21c.66.97 3.32 2.46 4.49 3.12l.65.37-.42.62c-.2.29-4.9 7.2-11.01 7.2zm-8.71-7.27c1.06 1.59 4.34 5.89 8.7 5.89s8.15-4.36 9.41-5.98c-2.36-1.35-3.92-2.42-4.44-3.43l-.08-.15v-7.2l-9.42-.11v7.8l-.22.21a22.4 22.4 0 0 1-3.96 2.98z"/><path fill="#3e74ff" d="M188.35 894.23c7.71.01 15.15-2.86 20.86-8.05a48.6 48.6 0 0 0-10.5-6.86s-4.68 6.84-10.49 6.84-9.71-6.75-9.71-6.75c-3.56 2.01-7.94 3.9-11.21 6.6 5.73 5.3 13.25 8.23 21.05 8.22"/><path fill="#0f006b" d="M188.39 894.92h-.08c-7.99 0-15.62-2.98-21.48-8.41l-.58-.54.61-.5c2.41-1.98 5.34-3.51 8.18-4.99a91 91 0 0 0 3.14-1.68l.6-.34.34.59c.04.06 3.78 6.41 9.11 6.41s9.87-6.47 9.92-6.54l.34-.49.54.26c3.84 1.85 7.42 4.19 10.66 6.96l.6.51-.58.53a31.58 31.58 0 0 1-21.29 8.23zm-.04-1.39c7.23.02 14.3-2.59 19.8-7.34a47.6 47.6 0 0 0-9.23-6c-1.23 1.62-5.47 6.66-10.71 6.66s-8.81-4.82-9.94-6.52c-.84.46-1.71.91-2.6 1.38-2.52 1.32-5.12 2.67-7.31 4.33 5.53 4.84 12.57 7.5 19.94 7.5h.04zm10.57-51.34c0 .46-1.37.82-1.43 1.26s1.15 1.18 1.02 1.62c-.13.43-1.54.39-1.72.8-.19.41.77 1.46.53 1.84s-1.58-.06-1.88.28c-.29.34.33 1.62 0 1.92-.34.3-1.5-.51-1.88-.26s-.13 1.65-.54 1.84-1.3-.92-1.73-.79-.58 1.54-1.03 1.61c-.45.06-.98-1.25-1.44-1.25s-1 1.31-1.44 1.25-.61-1.48-1.03-1.61c-.43-.13-1.32.98-1.73.79s-.16-1.59-.54-1.84c-.38-.24-1.54.56-1.88.26s.29-1.57 0-1.92c-.29-.34-1.63.1-1.88-.28-.24-.38.71-1.43.53-1.84s-1.6-.36-1.72-.8c-.13-.44 1.08-1.16 1.02-1.62s-1.43-.8-1.43-1.26 1.36-.82 1.43-1.26c.06-.44-1.15-1.18-1.02-1.62.13-.43 1.54-.39 1.72-.8.19-.41-.77-1.46-.53-1.84s1.58.06 1.88-.28c.29-.34-.33-1.62 0-1.92.34-.3 1.5.51 1.88.26s.13-1.65.54-1.84 1.29.92 1.73.79.58-1.54 1.03-1.61.98 1.25 1.44 1.25 1-1.31 1.44-1.25.61 1.48 1.03 1.61c.43.13 1.32-.98 1.73-.79s.16 1.59.54 1.84c.38.24 1.54-.56 1.88-.26s-.29 1.57 0 1.92c.3.34 1.63-.1 1.88.28s-.71 1.43-.53 1.84c.19.42 1.6.36 1.72.8.13.44-1.08 1.16-1.02 1.62.06.45 1.43.8 1.43 1.26"/><path fill="#0f006b" d="M190.21 853c-.55 0-.93-.49-1.24-.9-.04-.06-.1-.13-.16-.2-.06.07-.12.15-.16.21-.33.43-.75.97-1.37.88s-.86-.7-1.07-1.24c-.03-.07-.06-.16-.1-.24-.07.05-.14.1-.2.14-.45.32-1 .72-1.58.46s-.64-.95-.69-1.5c0-.07-.01-.17-.03-.26-.08.03-.17.06-.24.08-.52.18-1.16.41-1.64-.01-.47-.41-.35-1.06-.24-1.62.01-.07.03-.17.05-.26-.09 0-.18 0-.25.01-.55.03-1.23.06-1.57-.47s-.03-1.14.22-1.62c.03-.07.08-.16.12-.24-.09-.02-.18-.05-.25-.06-.53-.13-1.19-.29-1.37-.9s.29-1.1.67-1.5c.05-.05.12-.13.18-.2-.08-.05-.16-.1-.23-.13-.47-.27-1.06-.61-1.06-1.25s.59-.98 1.07-1.26c.06-.04.14-.08.22-.13-.06-.07-.13-.14-.18-.19-.4-.42-.85-.89-.67-1.5.18-.6.84-.77 1.37-.9.07-.02.17-.04.25-.06-.04-.08-.09-.17-.12-.24-.26-.51-.56-1.1-.22-1.63s1.02-.5 1.57-.47c.07 0 .16 0 .25.01-.02-.09-.03-.19-.05-.26-.11-.57-.23-1.21.24-1.62.48-.42 1.12-.19 1.64-.01.07.02.15.05.24.08l.03-.26c.05-.55.11-1.23.68-1.5.58-.27 1.13.13 1.58.46.06.04.13.1.2.15.03-.08.07-.17.09-.24.2-.51.45-1.15 1.08-1.24.63-.1 1.05.45 1.38.89.04.06.1.13.16.2.06-.07.12-.15.16-.21.33-.43.75-.96 1.37-.88.62.09.86.7 1.08 1.24.03.07.06.15.1.24.07-.05.14-.1.2-.14.45-.32 1-.72 1.58-.46s.64.95.69 1.5c0 .07.02.17.03.26.08-.03.17-.06.24-.08.52-.18 1.16-.41 1.64.01.47.41.35 1.05.24 1.62-.01.07-.03.17-.05.26.09 0 .18 0 .25-.01.55-.03 1.23-.06 1.57.47s.03 1.14-.22 1.62c-.03.07-.08.16-.12.24.09.02.18.05.25.06.53.13 1.19.29 1.37.9s-.29 1.1-.67 1.5c-.05.05-.12.13-.18.19.08.05.16.09.22.13.47.27 1.06.61 1.06 1.25s-.59.98-1.07 1.26c-.06.04-.14.08-.21.13.06.07.13.14.18.19.4.42.85.89.67 1.5s-.84.77-1.37.9c-.07.02-.16.04-.25.06.04.08.09.17.12.24.26.51.56 1.09.22 1.62s-1.02.5-1.57.47c-.07 0-.17 0-.26-.01.02.09.03.19.05.26.11.57.23 1.21-.24 1.62-.48.42-1.12.19-1.64.01-.07-.02-.15-.05-.24-.08-.01.09-.02.19-.03.26-.05.55-.11 1.23-.68 1.5-.58.27-1.13-.13-1.58-.46-.06-.04-.13-.09-.2-.14-.03.08-.07.17-.09.24-.2.51-.45 1.15-1.08 1.24h-.14zm-1.4-2.64c.56 0 .93.48 1.25.9.01.02.03.04.05.06.01-.03.02-.05.03-.07.19-.49.41-1.05.95-1.21s1.03.19 1.46.5c.02.01.04.03.06.04v-.08c.05-.53.1-1.13.57-1.43.47-.31 1.04-.11 1.53.07.02 0 .05.02.08.03 0-.03-.01-.06-.02-.09-.1-.52-.21-1.11.15-1.53.36-.43.96-.4 1.49-.37h.08c-.02-.03-.03-.06-.04-.09-.24-.47-.51-1-.28-1.51s.81-.65 1.32-.77c.03 0 .06-.01.09-.02-.02-.03-.05-.05-.07-.07-.36-.38-.77-.82-.7-1.36.08-.55.59-.85 1.04-1.11.03-.02.06-.04.1-.05a.4.4 0 0 0-.09-.05c-.46-.26-.98-.56-1.05-1.13-.07-.55.34-.98.7-1.36.02-.02.04-.05.07-.07-.03 0-.06-.01-.09-.02-.51-.12-1.09-.26-1.32-.77s.04-1.04.29-1.51c.01-.03.03-.05.04-.08h-.09c-.52.03-1.12.06-1.49-.36-.36-.42-.25-1.01-.15-1.53 0-.03.01-.06.02-.09-.03 0-.05.02-.08.03-.5.17-1.06.37-1.53.07s-.52-.9-.57-1.43v-.09c-.02.02-.05.03-.07.05-.43.31-.91.66-1.45.5-.53-.16-.74-.69-.95-1.21 0-.02-.02-.05-.03-.07-.01.02-.03.03-.04.05-.33.42-.7.9-1.26.9s-.93-.48-1.25-.9c-.01-.02-.03-.04-.04-.06-.01.03-.02.05-.03.07-.19.49-.41 1.05-.95 1.21s-1.03-.19-1.45-.5c-.02-.01-.04-.03-.06-.04v.09c-.05.53-.1 1.12-.57 1.43s-1.04.11-1.54-.07c-.02 0-.05-.02-.08-.03 0 .03.01.06.02.09.1.52.21 1.11-.15 1.53-.37.42-.96.39-1.49.37h-.09c.02.03.03.06.04.09.24.47.51 1 .28 1.51s-.81.65-1.32.77c-.03 0-.06.01-.09.02.02.03.05.05.07.07.36.38.77.82.7 1.37-.08.55-.59.85-1.04 1.11-.03.02-.06.04-.09.05.03.02.06.03.08.05.46.26.98.56 1.06 1.13.07.55-.34.98-.7 1.36l-.07.07c.03 0 .06.01.09.02.51.12 1.09.26 1.32.77s-.04 1.04-.29 1.51c-.01.03-.03.05-.04.08h.09c.53-.03 1.12-.06 1.49.37.36.42.25 1.01.15 1.53 0 .03-.01.06-.02.09.03 0 .05-.02.08-.03.5-.18 1.06-.37 1.53-.07s.52.9.57 1.42v.09c.03-.02.05-.04.07-.05.43-.31.91-.66 1.44-.5s.75.72.95 1.21c0 .02.02.05.03.07.01-.02.03-.03.04-.05.33-.42.7-.9 1.26-.9z"/><path fill="#e0ecff" d="M198.65 857.52c.06-.23.16-.45.31-.63.15-.19.33-.34.54-.46.21-.11.44-.18.68-.2s.48.01.7.09c1.35.41.59 5.31-3.18 5.14.39-1.29.71-2.61.95-3.94"/><path fill="#0f006b" d="M197.89 862.16h-.22l-.89-.04.26-.85c.38-1.27.7-2.57.93-3.87v-.05c.09-.33.24-.63.45-.89.21-.27.46-.48.76-.64s.62-.25.95-.28c.34-.03.67.02.98.13.85.26 1.26 1.32 1.02 2.71-.32 1.84-1.77 3.78-4.24 3.78m1.44-4.49c-.18 1.01-.41 2.02-.68 3.01 1.2-.31 1.74-1.34 1.93-1.83.38-.97.23-1.75.09-1.87-.14-.05-.28-.07-.42-.05-.14.01-.28.05-.4.12-.13.07-.24.16-.32.27q-.12.165-.18.36z"/><path fill="#e0ecff" d="M178.04 857.52a1.7 1.7 0 0 0-.33-.65c-.15-.19-.34-.35-.56-.46a1.7 1.7 0 0 0-.7-.19c-.25-.01-.49.02-.72.1-1.18.48-.59 5.31 3.19 5.14-.38-1.29-.67-2.61-.88-3.94"/><path fill="#0f006b" d="M178.72 862.16c-2.47 0-3.75-1.86-4.11-3.49-.26-1.2-.1-2.59.86-2.98.35-.13.68-.17 1.02-.15s.67.11.97.27.57.37.78.64c.21.26.37.57.46.9l.02.08c.2 1.3.49 2.6.86 3.86l.25.85-.88.04h-.23zm-2.38-5.25c-.12 0-.25.02-.37.06-.09.12-.23 1.06.22 2.09.23.53.75 1.35 1.8 1.62-.26-.99-.47-2-.63-3.02-.04-.13-.1-.25-.19-.36-.09-.12-.21-.21-.34-.28s-.28-.11-.43-.12h-.07z"/><path fill="#e0ecff" d="M199.14 853.02c0 2.8-1.03 8.51-2.83 11.95-1.34 2.56-4.78 5.4-7.91 5.4s-6.22-2.85-7.91-5.4c-2.14-3.24-2.83-9.15-2.83-11.95s1.13-5.58 3.15-7.59a10.76 10.76 0 0 1 7.59-3.15c2.84 0 5.58 1.13 7.59 3.15a10.76 10.76 0 0 1 3.15 7.59"/><path fill="#0f006b" d="M188.4 871.07c-3.48 0-6.75-3.08-8.49-5.71-2.16-3.26-2.94-9.16-2.94-12.33s1.19-5.93 3.35-8.08c2.16-2.16 5.03-3.35 8.08-3.35s5.93 1.19 8.08 3.35c2.16 2.16 3.35 5.03 3.35 8.08 0 2.82-1.01 8.65-2.91 12.27-1.45 2.78-5.13 5.78-8.53 5.78zm0-28.1c-2.68 0-5.21 1.05-7.11 2.94a9.96 9.96 0 0 0-2.94 7.11c0 2.89.74 8.58 2.71 11.57 1.68 2.53 4.6 5.09 7.34 5.09s6.03-2.6 7.3-5.03c1.77-3.38 2.75-9.02 2.75-11.63s-1.05-5.21-2.94-7.11a9.97 9.97 0 0 0-7.1-2.94z"/><path fill="#0f006b" d="M198.59 856.55c-.5-4.27-9.78-3.63-11.56-8.41 0 0 0 3.01-2.38 4.78-1.83 1.36-4.17.58-4.17.58s2.34.19 3.57-1.79c1.13-1.82.6-3.57.6-3.57-4.06.61-6.12 4.17-6.6 9.28l-.18-.18c-.24-1.49-.36-2.99-.38-4.5 0-5.93 4.99-10.56 10.92-10.56 2.87 0 5.62 1.12 7.67 3.13 2.04 2.01 3.21 4.75 3.26 7.61-.06 1.47-.26 2.94-.6 4.37l-.13-.74z"/><path fill="#0f006b" d="M178.04 857.77c-.09 0-.18-.04-.25-.1l-.18-.18a.35.35 0 0 1-.1-.19c-.24-1.5-.37-3.03-.38-4.55 0-6.02 5.06-10.91 11.27-10.91h.03c2.97 0 5.77 1.15 7.89 3.23a11.2 11.2 0 0 1 3.36 7.86c-.06 1.51-.26 3.01-.61 4.46-.04.16-.2.27-.35.27-.17 0-.3-.12-.33-.29l-.13-.74v-.02c-.23-1.92-2.57-2.79-5.06-3.72-2.21-.82-4.68-1.74-5.94-3.57-.23 1.1-.82 2.74-2.38 3.9-1.95 1.45-4.38.66-4.48.63a.344.344 0 0 1-.23-.4.35.35 0 0 1 .37-.28c.09.01 2.15.14 3.25-1.62.77-1.23.7-2.44.62-2.98-4.32.85-5.64 5.29-5.98 8.91-.01.14-.1.25-.23.3-.04.01-.08.02-.12.02zm8.98-9.98c.14 0 .28.09.33.23.84 2.24 3.5 3.23 6.07 4.19 2.33.87 4.54 1.69 5.28 3.41.15-.9.24-1.81.27-2.72-.04-2.77-1.16-5.39-3.15-7.35a10.5 10.5 0 0 0-7.4-3.03h-.03c-5.83 0-10.58 4.58-10.58 10.21.01.88.06 1.77.15 2.66.86-4.46 3.13-7.08 6.62-7.6.17-.03.34.08.39.24.02.08.57 1.93-.63 3.86-.42.67-.95 1.11-1.48 1.4a3.7 3.7 0 0 0 1.57-.66c2.2-1.64 2.24-4.47 2.24-4.5 0-.17.12-.31.29-.34z"/><path stroke="#3e74ff" stroke-miterlimit="10" stroke-width="1.99" d="M188.19 894.22c17.27 0 31.27-14 31.27-31.27s-14-31.27-31.27-31.27-31.27 14-31.27 31.27 14 31.27 31.27 31.27Z"/><text xml:space="preserve" fill="#000" font-family="Inter" font-size="16.5" font-weight="bold" letter-spacing="0em" style="white-space:pre"><tspan x="167.043" y="498">User</tspan></text><text xml:space="preserve" fill="#000" font-family="Inter" font-size="16.5" font-weight="bold" letter-spacing="0em" style="white-space:pre"><tspan x="167.043" y="940">User</tspan></text><text xml:space="preserve" fill="#000" font-family="Inter" font-size="32.05" font-weight="600" letter-spacing="0em" style="white-space:pre"><tspan x="638.545" y="834.155">Falcon
</tspan><tspan x="622.348" y="873.155">Next-Gen
</tspan><tspan x="650.939" y="912.155">SIEM</tspan></text><text xml:space="preserve" fill="#000" font-family="Inter" font-size="32.05" font-weight="600" letter-spacing="0em" style="white-space:pre"><tspan x="905" y="834.155">Falcon
</tspan><tspan x="905" y="873.155">device
</tspan><tspan x="905" y="912.155">posture</tspan></text><text xml:space="preserve" fill="#000" font-family="Inter" font-size="32.05" font-weight="600" letter-spacing="0em" style="white-space:pre"><tspan x="1170.92" y="834.155">Fusion
</tspan><tspan x="1177.79" y="873.155">SOAR</tspan></text><text xml:space="preserve" fill="#000" font-family="Inter" font-size="22" font-weight="500" letter-spacing="0em" style="white-space:pre"><tspan x="372" y="652.5">1. Telemetry</tspan></text><text xml:space="preserve" fill="#000" font-family="Inter" font-size="20" letter-spacing="0em" style="white-space:pre"><tspan x="1604" y="791.273">Logs [via Logpush]</tspan></text><text xml:space="preserve" fill="#000" font-family="Inter" font-size="20" letter-spacing="0em" style="white-space:pre"><tspan x="1604" y="844.273">Automation [via API]</tspan></text><text xml:space="preserve" fill="#000" font-family="Inter" font-size="20" letter-spacing="0em" style="white-space:pre"><tspan x="1604" y="898.273">Device posture 
</tspan><tspan x="1604" y="922.273">[service-to-service API]</tspan></text></g><defs><clipPath id="clip0_1_579"><path fill="#fff" d="M0 0h1920v1080H0z"/></clipPath></defs></svg>