<svg xmlns="http://www.w3.org/2000/svg" width="1920" height="1080" fill="none" viewBox="0 0 1920 1080"><g clip-path="url(#clip0_1_1955)"><path fill="#fff" d="M1920 0H0v1080h1920z"/><path fill="#fff" stroke="#b0291c" stroke-miterlimit="10" stroke-width="2" d="M301.33 179.66H85.59v220.25h215.74z"/><path fill="#fff" stroke="#f6821f" stroke-width="2.31" d="M1394.28 166.9H516.73v304.84h877.55z"/><path fill="#fff" d="M1158.59 146.37H752.42v48h406.17z"/><path fill="#f78100" d="m857.57 179.08.57-1.99c.68-2.36.43-4.56-.72-6.15-1.06-1.47-2.82-2.35-4.96-2.45l-40.51-.51a.81.81 0 0 1-.64-.33.83.83 0 0 1-.08-.74c.14-.4.53-.69.94-.72l40.9-.51c4.85-.22 10.1-4.15 11.95-8.96l2.33-6.1a1.36 1.36 0 0 0 .07-.8c-2.68-11.92-13.31-20.83-26.02-20.83-11.7 0-21.65 7.56-25.22 18.06a12.03 12.03 0 0 0-8.41-2.33c-5.61.56-10.13 5.09-10.7 10.7-.15 1.46-.03 2.86.31 4.18-9.17.29-16.53 7.81-16.53 17.05 0 .83.07 1.65.18 2.46.06.39.39.68.78.68h74.8s.01.01.03.01c.43-.01.81-.29.93-.71z"/><path fill="#fbac42" d="M871.06 151.05c-.38 0-.75.01-1.13.03-.06 0-.13.01-.18.04-.19.07-.35.22-.4.43l-1.58 5.49c-.68 2.36-.43 4.54.72 6.15 1.06 1.49 2.82 2.35 4.96 2.45l8.64.51a.8.8 0 0 1 .61.33c.14.21.18.47.1.74-.14.4-.53.69-.94.72l-8.98.51c-4.88.22-10.13 4.15-11.96 8.96l-.65 1.7c-.11.31.1.64.43.65h30.91c.38 0 .69-.24.79-.6.54-1.9.82-3.92.82-6-.01-12.21-9.92-22.12-22.16-22.12z"/><path fill="#000" d="M927.28 160.97h5.11v13.98h8.93v4.47h-14.04zm19.35 9.28v-.06c0-5.29 4.27-9.6 9.96-9.6s9.91 4.25 9.91 9.55v.06c0 5.29-4.27 9.6-9.96 9.6s-9.91-4.25-9.91-9.55m14.66 0v-.06c0-2.67-1.92-4.99-4.74-4.99s-4.67 2.26-4.67 4.93v.06c0 2.67 1.92 4.99 4.72 4.99s4.68-2.26 4.68-4.93m11.48 1.09v-10.36h5.2v10.25c0 2.67 1.35 3.93 3.4 3.93s3.4-1.21 3.4-3.79v-10.39h5.2v10.23c0 5.96-3.4 8.57-8.64 8.57-5.27 0-8.56-2.67-8.56-8.43m25.01-10.38h7.11c6.59 0 10.42 3.79 10.42 9.11v.06c0 5.32-3.88 9.28-10.52 9.28h-7.02v-18.45zm7.21 13.92c3.06 0 5.09-1.68 5.09-4.67v-.06c0-2.95-2.03-4.67-5.09-4.67h-2.08v9.39h2.08zm17.76-13.92h14.77v4.49h-9.66v3.13h8.74v4.25h-8.74v6.58h-5.11zm21.88 0h5.12v13.98h8.94v4.47h-14.06zm27.43-.14h4.93l7.86 18.59h-5.49l-1.35-3.29h-7.11l-1.32 3.29h-5.38l7.85-18.59zm4.47 11.33-2.06-5.25-2.08 5.25zm14.9-11.19h8.73c2.82 0 4.77.74 6.02 2 1.08 1.06 1.64 2.47 1.64 4.29v.06c0 2.82-1.5 4.7-3.79 5.67l4.4 6.43h-5.92l-3.71-5.59h-2.24v5.59h-5.11v-18.45zm8.49 8.85c1.74 0 2.74-.85 2.74-2.18v-.06c0-1.44-1.06-2.18-2.76-2.18h-3.35v4.42h3.38zm-183.83 2.6c-.72 1.61-2.22 2.76-4.22 2.76-2.79 0-4.72-2.32-4.72-4.99v-.06c0-2.67 1.88-4.93 4.67-4.93 2.11 0 3.71 1.29 4.39 3.06h5.39c-.86-4.39-4.72-7.67-9.73-7.67-5.7 0-9.96 4.29-9.96 9.6v.06c0 5.29 4.22 9.55 9.91 9.55 4.88 0 8.68-3.15 9.68-7.38zm199.08-11.46h14.87v4.36h-9.8v2.79h8.88v4.05h-8.88v2.93h9.94v4.36h-15.01z"/><path fill="#fff1df" fill-rule="evenodd" d="M1365.48 210.83v245.01H545.53V210.83z" clip-rule="evenodd"/><path fill="#fff" stroke="#f63" stroke-width="2" d="M803.29 333.64H575.57v84.09h227.72z"/><path fill="#f63" d="m624.01 358.22-2.07 2.12 13.29 13.03H601.7v2.97h33.53l-13.29 13.03 2.07 2.13L641 374.86z"/><path fill="#fff" stroke="#f63" stroke-width="2" d="M1069.37 333.64H841.65v84.09h227.72z"/><mask id="mask0_1_1955" width="51" height="51" x="874" y="349" maskUnits="userSpaceOnUse" style="mask-type:luminance"><path fill="#fff" d="M924.44 349.81h-50.1v50.1h50.1z"/></mask><g fill="#f63" mask="url(#mask0_1_1955)"><path d="M903.15 358.25c-3.5 0-6.92 1.11-9.75 3.16a16.55 16.55 0 0 0-6.03 8.29l-.11.34h3.05l.07-.16c1.13-2.86 3.19-5.26 5.85-6.81a13.69 13.69 0 0 1 16.8 2.37 13.68 13.68 0 0 1 1.62 16.88 13.7 13.7 0 0 1-7.07 5.54 13.706 13.706 0 0 1-16.01-5.61c-.08-.12-.15-.23-.22-.36l-.16-.27h-3.2l.19.38q.435.93.99 1.8c1.55 2.43 3.71 4.41 6.26 5.75s5.41 1.99 8.29 1.9c2.88-.1 5.69-.95 8.14-2.46s4.47-3.64 5.86-6.17a16.64 16.64 0 0 0 2.04-8.26 16.6 16.6 0 0 0-8.39-14.14 16.6 16.6 0 0 0-8.22-2.18z"/><path d="m903.93 372.58-5.82-5.82-1.93 1.93 3.38 3.39h-25.21l1.63 2.73H903l.93-2.24zm-.04 12.34-1.93-1.93 3.38-3.39h-26.53l-1.62-2.74h31.59l.93 2.25-5.82 5.82z"/></g><path fill="#fff" stroke="#f63" stroke-width="2" d="M1335.45 333.64h-227.72v84.09h227.72z"/><path fill="#f63" d="M1206.59 359.07h-28.95l-1.32 1.32v28.95l1.32 1.32h28.95l1.32-1.32v-28.95zm-1.32 28.95h-26.32V361.7h26.32z"/><path fill="#f63" d="M1183.3 377.82h3.65l.75 2.3h2.29l-3.49-10.11h-2.75l-3.49 10.11h2.29zm1.79-5.5h.08l1.24 3.83h-2.57zm8.12 4.52h1.8c.69.02 1.37-.13 1.99-.43.53-.27.97-.69 1.26-1.2.3-.54.45-1.16.43-1.78.01-.62-.13-1.23-.43-1.78-.29-.51-.72-.93-1.24-1.21a4.05 4.05 0 0 0-1.96-.44h-3.99v10.11h2.14v-3.28zm0-5.08h1.44c.35-.01.71.06 1.03.21.26.13.47.33.6.59.13.28.2.58.2.88s-.07.61-.2.88c-.13.26-.35.47-.6.6-.32.15-.67.23-1.02.22h-1.45zm9.43-1.75h-2.14v10.11h2.14z"/><path stroke="#f63" stroke-width="2" d="M575.79 234.32v-6h6"/><path stroke="#f63" stroke-dasharray="11.35 11.35" stroke-width="2" d="M593.14 228.32h198.69"/><path stroke="#f63" stroke-width="2" d="M797.51 228.32h6v6"/><path stroke="#f63" stroke-dasharray="10.3 10.3" stroke-width="2" d="M803.51 244.62v56.64"/><path stroke="#f63" stroke-width="2" d="M803.51 306.41v6h-6"/><path stroke="#f63" stroke-dasharray="11.35 11.35" stroke-width="2" d="M786.15 312.41H587.46"/><path stroke="#f63" stroke-width="2" d="M581.79 312.41h-6v-6"/><path stroke="#f63" stroke-dasharray="10.3 10.3" stroke-width="2" d="M575.79 296.11v-56.64"/><path stroke="#004dc8" stroke-miterlimit="10" stroke-width="3" d="M1224.17 699.45v-267.8"/><path fill="#004dc8" d="m1236.44 441.59-2.2 2.04-10.07-10.83-10.07 10.83-2.2-2.04 12.27-13.2z"/><path stroke="#9e9e9e" stroke-miterlimit="10" stroke-width="3" d="M513.48 270.37H301.33"/><path fill="#9e9e9e" d="m503.54 258.1-2.05 2.19 10.84 10.07-10.84 10.07 2.05 2.2 13.19-12.27z"/><text xml:space="preserve" fill="#000" font-family="Inter" font-size="22" font-weight="500" letter-spacing="0em" style="white-space:pre"><tspan x="714.88" y="514.51">2. Sends HTTP logs</tspan></text><text xml:space="preserve" fill="#000" font-family="Inter" font-size="22" font-weight="500" letter-spacing="0em" style="white-space:pre"><tspan x="1250" y="514.51">4. Hardens rules:
</tspan><tspan x="1275" y="540">- Increases Bot sensitivity</tspan><tspan x="1275" y="565">- Creates rule to block a specific ASN</tspan></text><path fill="#fff" fill-rule="evenodd" d="M241.72 272.63H145.2c-2.56 0-4.85 2.15-4.85 4.85v63.41h106.22v-63.41c0-2.69-2.29-4.85-4.85-4.85" clip-rule="evenodd"/><path fill="#b0291c" d="M247.32 341.64H139.6v-64.16c0-3.03 2.56-5.6 5.6-5.6h96.52c3.03 0 5.6 2.56 5.6 5.6zm-106.22-1.5h104.72v-62.66c0-2.22-1.88-4.1-4.1-4.1H145.2c-2.22 0-4.1 1.88-4.1 4.1z"/><path fill="#fff" d="M250.87 345.73h-114.7c-5.92 0-9.96-.94-9.96-1.75v-2.69c0-.27.27-.54.54-.54h133.41c.27 0 .54.27.54.54v2.69c.13.81-2.96 1.75-9.83 1.75"/><path fill="#3e74ff" d="M250.87 346.48h-114.7c-1.1 0-10.71-.07-10.71-2.5v-2.69c0-.69.6-1.29 1.29-1.29h133.41c.69 0 1.29.6 1.29 1.29v2.65c.03.3-.07.59-.29.84-1.3 1.54-7.63 1.7-10.29 1.7m-123.91-2.7c.68.45 3.89 1.2 9.21 1.2h114.7c6.21 0 8.59-.77 9.08-1.11v-2.37H126.96z"/><path fill="#feedeb" d="M260.64 341.29c0-.27-.27-.54-.54-.54H126.69c-.27 0-.54.27-.54.54v2.56h134.62v-2.56z"/><path fill="#b0291c" d="M250.87 346.48h-114.7c-1.1 0-10.71-.07-10.71-2.5v-2.69c0-.69.6-1.29 1.29-1.29h133.41c.69 0 1.29.6 1.29 1.29v2.65c.03.3-.07.59-.29.84-1.3 1.54-7.63 1.7-10.29 1.7m-123.91-2.7c.68.45 3.89 1.2 9.21 1.2h114.7c6.21 0 8.59-.77 9.08-1.11v-2.37H126.96z"/><path fill="#feedeb" d="M242.19 280.17h-97.47v56.81h97.47z"/><path fill="#fc3d2e" fill-rule="evenodd" d="M208.07 341.02v.54c0 .4-.81.54-1.48.54h-26.25c-.67 0-1.48-.13-1.48-.54v-.54" clip-rule="evenodd"/><path fill="#fff" stroke="#b0291c" stroke-miterlimit="10" stroke-width="2" d="M193.71 333.75c14.02 0 25.39-11.37 25.39-25.39s-11.37-25.39-25.39-25.39-25.39 11.37-25.39 25.39 11.37 25.39 25.39 25.39Z"/><path fill="#f2d6f4" d="M210.27 327.59C205.4 325 200 324.31 199 321.95c-.76-1.79 0-7.77 0-7.77l-11.77-.12s.74 6.07 0 7.9c-.9 2.22-5.81 2.93-10.31 5.45"/><path stroke="#4d1470" stroke-miterlimit="10" stroke-width="1.06" d="M210.27 327.59C205.4 325 200 324.31 199 321.95c-.76-1.79 0-7.77 0-7.77l-11.77-.12s.74 6.07 0 7.9c-.9 2.22-5.81 2.93-10.31 5.45"/><path fill="#fc3d2e" stroke="#b0291c" d="M203.37 309.61c2.41 1.2 4.26 3.31 5.17 5.88l2.86 9.33c.16.5.34.75.37.81 0 0 .01.01.01.06 0 .06 0 .18-.04.41 0 0 0 .02-.01.04-.01.03-.04.06-.07.11-.07.09-.17.2-.31.32-.28.24-.65.5-1.03.73s-.75.44-1.04.59l-.34.17c-.04.02-.07.04-.09.05-.01 0-.02 0-.02.01l-.08.04-.06.06c-.39.39-1.03.97-1.69 1.45-.33.24-.65.45-.94.6-.3.15-.5.21-.62.21h-.11l-12.33 2.8c-.23 0-.89-.08-1.84-.24-1-.17-2.31-.44-3.72-.82-2.85-.78-6.11-2.02-8.39-3.88-.43-.35-1.26-.99-1.97-1.54-.36-.28-.69-.53-.93-.71a1 1 0 0 1-.15-.12c0-.03.01-.06.02-.1.05-.25.14-.61.28-1.04l2.84-9.31c.46-1.3 1.16-2.49 2.07-3.51.89-1 1.96-1.81 3.15-2.39h19.03z"/><path fill="#fc3d2e" stroke="#b0291c" stroke-miterlimit="10" d="M185.7 296.31c-.31.88-1.29 3.93-3.05 5.87l22.4-.4c-1.2-2.4-1.71-2.72-2-3.6-1.17-3.6-2.92-9.6-8.82-9.6-5.47 0-7.66 5.12-8.53 7.73Z"/><path fill="#b0291c" stroke="#b0291c" stroke-miterlimit="10" d="M206.64 303.84c0 1.11-.31 2.74-1.74 4.33l-.02.03-9.81 11.21c-.2.23-.45.35-.7.36-.05 0-.09 0-.14-.03q-.3-.045-.54-.33l-4.9-5.45-5.09-5.65h-.02l-.02-.03v-.03c-1.52-1.6-1.83-3.26-1.83-4.4.01-1.03.25-2.01.68-2.8 1.2-2.32 4.12-4.47 11.72-4.47 8.35 0 10.6 2.18 11.77 4.53.4.79.62 1.75.63 2.74z"/><path fill="#fca39c" stroke="#b0291c" d="M201.03 297.95v3.98c.21 2.91-3.3 8.8-7.18 8.8s-7.21-5.63-7.21-8.74v-4.03c4.74-1.1 9.65-1.1 14.39 0z"/><path fill="#b0291c" d="M205.4 318.18h-23.11c-.33 0-.64.1-.88.27-.23.18-.36.41-.36.66v11.53l12.8 3.54 12.7-3.15.1-11.92c0-.12-.03-.25-.1-.36a.85.85 0 0 0-.27-.3c-.12-.09-.25-.16-.4-.2-.15-.05-.31-.07-.48-.07"/><path stroke="#b0291c" stroke-miterlimit="10" stroke-width="2" d="M193.71 333.75c14.02 0 25.39-11.37 25.39-25.39s-11.37-25.39-25.39-25.39-25.39 11.37-25.39 25.39 11.37 25.39 25.39 25.39Z"/><text xml:space="preserve" fill="#000" font-family="Inter" font-size="30" font-weight="600" letter-spacing="0em" style="white-space:pre"><tspan x="131.4" y="228.399">Attacker</tspan></text><text xml:space="preserve" fill="#000" font-family="Inter" font-size="30" font-weight="600" letter-spacing="0em" style="white-space:pre"><tspan x="139" y="471.689">Endpoint</tspan></text><text xml:space="preserve" fill="#000" font-family="Inter" font-size="30" font-weight="600" letter-spacing="0em" style="white-space:pre"><tspan x="662.45" y="386.309">Logs </tspan></text><text xml:space="preserve" fill="#000" font-family="Inter" font-size="30" font-weight="600" letter-spacing="0em" style="white-space:pre"><tspan x="938.64" y="386.309">Access</tspan></text><text xml:space="preserve" fill="#000" font-family="Inter" font-size="30" font-weight="600" letter-spacing="0em" style="white-space:pre"><tspan x="1224.17" y="386.309">API</tspan></text><path stroke="#9e9e9e" stroke-miterlimit="10" stroke-width="3" d="M806.76 270.37h419.07v62.89"/><path fill="#9e9e9e" d="m816.7 282.63 2.05-2.19-10.84-10.07 10.84-10.07-2.05-2.2-13.19 12.27z"/><text xml:space="preserve" fill="#000" font-family="Inter" font-size="32.05" font-weight="600" letter-spacing="0em" style="white-space:pre"><tspan x="708.06" y="73.534">6. Proactive application defense</tspan></text><path stroke="#f26733" stroke-miterlimit="10" stroke-width="5" d="M1577.64 788.84h-84.08"/><path stroke="#239b7f" stroke-miterlimit="10" stroke-width="5" d="M1493.56 892.65h84.08"/><path stroke="#004dc8" stroke-miterlimit="10" stroke-width="5" d="M1493.56 839.01h84.08"/><path fill="#fff" stroke="#fc0000" stroke-width="2.54" d="M1394.28 592.72H516.73v367.41h877.55z"/><path fill="#fff" d="M784.11 981.74h343.13v-48H784.11z"/><path fill="#fc0000" fill-rule="evenodd" d="M1365.65 617.54v297.15H545.7V617.54z" clip-rule="evenodd" opacity=".1"/><path fill="#fff" stroke="#fc0000" stroke-width="2.78" d="M803.34 655.65H575.62v224.8h227.72zm266.19 0H841.81v224.8h227.72zm266.19 0H1108v224.8h227.72z"/><path fill="#000" fill-rule="evenodd" d="M862.84 958.92v.5a12.35 12.35 0 0 1-6.13 3.98 96 96 0 0 0-7.79-5.64c-.83-.5-1.49-.99-2.49-1.66-1.49-.99-3.32-2.16-5.14-3.48v-.83c0-6.8 5.31-11.77 12.27-11.77 3.65 0 6.96 1.66 9.28 4.31v.5l-4.14 3.48h-.5c-1.16-1.33-2.98-2.16-4.81-2.16-1.49 0-2.82.5-3.81 1.66-.99.99-1.49 2.49-1.49 3.98s.5 2.82 1.49 3.98c.99.99 2.32 1.66 3.81 1.66 1.82 0 3.48-.83 4.81-2.16h.5zm-12.44 4.48c-2.65-.5-4.97-1.99-6.63-4.14.17 0 .33.17.5.33.33.17.5.33.83.5 1.66 1.16 3.48 2.16 5.31 3.15v.17zm36.31-5.97.99 4.48v.5c-.99.66-1.99.99-3.15.99-2.82 0-4.31-.66-6.3-3.65-.99-1.49-2.82-4.64-4.48-4.64h-.66v7.96h-6.96v-22.71h10.61c6.13 0 9.45 2.98 9.45 7.63 0 2.82-1.66 5.31-4.31 6.3.66.5 1.33 1.16 1.82 1.82.5.66.83 1.49 1.66 1.49.33 0 .66 0 .99-.17zm-7.79-9.28c0 .66-.17 1.16-.66 1.66-.5.5-1.16.66-1.82.66h-3.32v-4.64h3.32c.66 0 1.33.17 1.82.66.5.5.66 1.16.66 1.66m21.22-7.96c7.13 0 12.43 4.97 12.43 11.6s-5.31 11.6-12.43 11.6-12.43-4.97-12.43-11.6 5.31-11.6 12.43-11.6m2.82 16.58c1.66-.99 2.82-2.82 2.65-4.97 0-1.99-.99-3.81-2.65-4.97-1.66-.99-3.81-.99-5.64 0-1.66.99-2.82 2.82-2.65 4.97 0 1.99.99 3.81 2.65 4.97 1.66.99 3.81.99 5.64 0" clip-rule="evenodd"/><path fill="#000" d="M945.4 940.19h-6.3l-3.81 12.93-4.14-12.93h-3.98l-4.14 12.77-3.81-12.77h-6.3l-.33.5 8.12 22.71h3.98l4.48-12.6 4.64 12.6h3.98l8.12-22.71-.33-.5z"/><path fill="#000" fill-rule="evenodd" d="M959.16 940.19c7.13 0 11.44 4.64 11.44 11.6s-4.31 11.6-11.44 11.6h-10.11v-23.21h10.11zm-.34 17.57c2.82 0 4.97-2.16 4.97-5.97s-2.16-5.97-4.97-5.97h-3.32v11.77h3.32z" clip-rule="evenodd"/><path fill="#000" d="M1008.23 945.99h7.13v-5.64h-21.55v5.64h7.13v17.57h7.13v-17.57h.17z"/><path fill="#000" fill-rule="evenodd" d="M1027.29 940.19c5.97 0 9.12 2.98 9.12 7.79 0 2.98-1.66 5.14-4.14 6.3l4.64 8.62-.33.5h-6.8l-4.31-8.12h-1.66v8.12h-6.8v-23.21zm2.16 8.12c0 .66-.17 1.33-.66 1.66-.5.5-1.16.66-1.66.66h-3.15v-4.64h3.15c.66 0 1.33.17 1.66.66.5.5.66 1.16.66 1.82v-.17z" clip-rule="evenodd"/><path fill="#000" d="M1040.22 940.19h6.63v23.21h-6.63zm23.05 10.45 7.79-9.78-.33-.5h-7.29l-6.47 8.29v-8.29h-6.96v23.21h6.96v-7.13l1.33-1.49 5.8 8.62h7.29l.33-.5-8.45-12.27v-.17zm28.18-4.65v-5.64h-16.41v23.21h16.58v-5.64h-9.95v-3.15h7.46v-5.31h-7.46v-3.15h9.95l-.17-.33zM982.53 963.4c5.14 0 9.62-2.49 9.62-7.13s-4.48-6.3-8.45-7.46c-1.49-.5-3.15-.99-3.15-1.99s.83-1.33 2.32-1.33c2.32 0 4.31 1.33 5.31 2.32h.5L992 944v-.5c-1.82-1.82-5.31-3.32-9.28-3.32s-9.28 2.82-9.28 6.96 4.14 6.3 7.79 7.29c2.32.66 3.81.66 3.81 1.99s-1.16 1.33-2.82 1.33-4.81-1.33-6.13-2.49h-.5l-3.32 3.98v.5c2.16 2.32 5.8 3.81 10.28 3.81m-116.4 21.4c-1.66-3.65-4.97-8.45-17.9-15.25-5.97-3.32-16.08-8.29-25.2-17.9.83 3.48 5.14 11.11 23.38 20.56 4.97 2.65 13.59 5.31 19.73 12.6m-1.67-6.64c-1.49-4.48-4.14-10.11-17.08-18.4-6.3-4.14-15.58-9.45-27.69-23.04.83 3.65 4.64 13.1 24.04 25.36 6.3 4.48 14.59 7.13 20.72 16.08"/><mask id="mask1_1_1955" width="62" height="62" x="1191" y="680" maskUnits="userSpaceOnUse" style="mask-type:luminance"><path fill="#fff" d="M1252.31 680.52h-60.89v60.89h60.89z"/></mask><g fill="#ec0000" mask="url(#mask1_1_1955)"><path d="M1243.51 718.15v-14.42c.75-.15 1.45-.47 2.05-.94s1.07-1.08 1.39-1.77a4.8 4.8 0 0 0 .43-2.21c-.04-.76-.25-1.5-.63-2.16s-.91-1.22-1.55-1.63-1.37-.67-2.13-.74-1.52.03-2.23.31-1.34.73-1.84 1.3l-12.61-7.25c.17-.48.26-.99.27-1.5 0-.63-.12-1.25-.36-1.83s-.59-1.11-1.04-1.55c-.44-.44-.97-.8-1.55-1.04s-1.2-.36-1.83-.36-1.25.12-1.83.36-1.11.59-1.55 1.04c-.44.44-.8.97-1.04 1.55s-.36 1.2-.36 1.83c0 .51.1 1.02.27 1.5l-12.61 7.25c-.44-.51-.99-.92-1.61-1.21a4.76 4.76 0 0 0-5.18.81 4.8 4.8 0 0 0-.64 6.4c.7.96 1.74 1.62 2.9 1.86v14.42c-.75.15-1.45.47-2.05.94s-1.08 1.08-1.39 1.78c-.32.69-.46 1.45-.43 2.22.04.76.25 1.5.64 2.17.38.66.91 1.22 1.56 1.63a4.77 4.77 0 0 0 4.36.42c.71-.28 1.34-.73 1.84-1.31l12.61 7.25c-.17.48-.26.99-.27 1.5 0 .63.12 1.25.36 1.83s.59 1.11 1.04 1.55c.44.44.97.8 1.55 1.04s1.2.36 1.83.36 1.25-.12 1.83-.36 1.11-.59 1.55-1.04c.44-.44.8-.97 1.04-1.55s.36-1.2.36-1.83c0-.51-.1-1.02-.27-1.5l12.61-7.25c.5.57 1.13 1.01 1.84 1.29s1.47.38 2.22.31c.75-.08 1.48-.33 2.12-.74s1.17-.97 1.55-1.63.6-1.39.63-2.15c.04-.76-.11-1.51-.42-2.2s-.78-1.3-1.38-1.77c-.59-.47-1.29-.8-2.03-.95zm-.95-22.01c.57 0 1.13.17 1.61.48.48.32.85.77 1.07 1.3s.28 1.11.17 1.67-.39 1.08-.79 1.48c-.4.41-.92.68-1.48.79s-1.14.06-1.67-.16a2.9 2.9 0 0 1-1.3-1.07c-.32-.48-.49-1.04-.49-1.61a2.884 2.884 0 0 1 2.88-2.89zm-20.7-11.9c.57 0 1.13.17 1.61.48.48.32.85.77 1.07 1.3s.28 1.11.17 1.67-.39 1.08-.79 1.48c-.4.41-.92.68-1.48.79s-1.14.06-1.67-.16a2.9 2.9 0 0 1-1.3-1.07c-.32-.48-.49-1.04-.49-1.61a2.884 2.884 0 0 1 2.88-2.89zm-23.59 14.79c0-.57.17-1.13.49-1.6s.77-.84 1.3-1.06a2.87 2.87 0 0 1 3.13.63c.4.4.68.92.79 1.48s.05 1.14-.17 1.66c-.22.53-.59.98-1.06 1.29-.47.32-1.03.49-1.6.49a2.884 2.884 0 0 1-2.88-2.89m2.88 26.71c-.57 0-1.13-.17-1.61-.48a2.9 2.9 0 0 1-1.07-1.3c-.22-.53-.28-1.11-.17-1.67s.39-1.08.79-1.48c.4-.41.92-.68 1.48-.79s1.14-.06 1.67.16.98.59 1.3 1.07.49 1.04.49 1.61a2.884 2.884 0 0 1-2.88 2.89zm20.71 11.91c-.57 0-1.13-.17-1.61-.48a2.9 2.9 0 0 1-1.07-1.3c-.22-.53-.28-1.11-.17-1.67s.39-1.08.79-1.48c.4-.41.92-.68 1.48-.79s1.14-.06 1.67.16.98.59 1.3 1.07.49 1.04.49 1.61a2.884 2.884 0 0 1-2.88 2.89zm3.56-6.05c-.44-.51-.99-.93-1.61-1.21s-1.29-.43-1.97-.43-1.35.15-1.97.43-1.17.69-1.61 1.21l-12.61-7.25c.17-.48.26-.99.27-1.5 0-1.11-.38-2.18-1.08-3.03-.7-.86-1.67-1.45-2.75-1.67v-14.42c1.08-.22 2.06-.81 2.75-1.67a4.8 4.8 0 0 0 1.08-3.03c0-.51-.1-1.02-.27-1.5l12.61-7.25c.44.51.99.92 1.61 1.21a4.7 4.7 0 0 0 3.93 0c.62-.28 1.17-.69 1.61-1.2l12.61 7.25c-.17.48-.26.99-.27 1.5 0 1.11.38 2.18 1.08 3.03.7.86 1.67 1.45 2.75 1.67v14.42c-1.08.22-2.06.81-2.75 1.67a4.8 4.8 0 0 0-1.08 3.03c0 .51.1 1.02.27 1.5l-12.61 7.25zm17.14-5.86c-.57 0-1.13-.17-1.61-.48a2.9 2.9 0 0 1-1.07-1.3c-.22-.53-.28-1.11-.17-1.67s.39-1.08.79-1.48c.4-.41.92-.68 1.48-.79s1.14-.06 1.67.16.98.59 1.3 1.07.49 1.04.49 1.61a2.884 2.884 0 0 1-2.88 2.89z"/><path d="M1233.45 712.13c-.54 0-1.07.17-1.51.47-.45.31-.79.74-.98 1.25h-16.48v-9.69h6.42v2.91c0 .25.1.49.28.67s.42.28.67.28h3.61a2.68 2.68 0 0 0 2.98 1.68 2.674 2.674 0 0 0 0-5.26c-.61-.11-1.25 0-1.79.3-.54.31-.96.79-1.19 1.38h-2.65v-5.83h2.65a2.68 2.68 0 0 0 2.98 1.68 2.674 2.674 0 0 0 0-5.26c-.61-.11-1.25 0-1.79.3-.54.31-.96.79-1.19 1.38h-3.61c-.25 0-.49.1-.67.28s-.28.42-.28.67v2.91h-7.37c-.25 0-.49.1-.67.28s-.28.42-.28.67v10.65h-4.11c-.25 0-.49.1-.67.28s-.28.42-.28.67.1.49.28.67.42.28.67.28h4.11v6.78c0 .25.1.49.28.67s.42.28.67.28h11.93a2.68 2.68 0 0 0 2.98 1.68 2.674 2.674 0 0 0 0-5.26c-.61-.11-1.25 0-1.79.3-.54.31-.96.79-1.19 1.38h-10.98v-5.83h16.48c.17.46.47.85.85 1.15a2.67 2.67 0 0 0 2.75.33c.44-.2.82-.52 1.1-.92s.44-.87.47-1.36-.08-.97-.3-1.4c-.23-.43-.57-.79-.98-1.04a2.7 2.7 0 0 0-1.38-.38z"/></g><mask id="mask2_1_1955" width="65" height="65" x="921" y="678" maskUnits="userSpaceOnUse" style="mask-type:luminance"><path fill="#fff" d="M985.51 678.96h-64v64h64z"/></mask><g fill="#ec0000" mask="url(#mask2_1_1955)"><path d="m982.51 727.55.11-28.48-.03-12.11h-55.72v16.38h-1.1c-1.25 0-2.26 1.01-2.26 2.26v24.68c0 1.25 1.01 2.26 2.26 2.26h12.74c1.25 0 2.26-1.01 2.26-2.26v-2.74h7.88V734h-7.31c-.55 0-1 .45-1 1s.45 1 1 1h26.82c.55 0 1-.45 1-1s-.45-1-1-1h-7.31v-6.46h21.66zm-43.73 2.73c0 .14-.12.26-.26.26h-12.74c-.14 0-.26-.12-.26-.26v-2.9h13.26zm0-4.9h-13.26v-14.43h13.26zm0-16.43h-13.26v-3.35c0-.14.12-.26.26-.26h12.74c.14 0 .26.12.26.26zM958.85 734h-8.2v-6.46h8.2zm-15.12-8.45h-2.95V705.6c0-1.25-1.01-2.26-2.26-2.26h-9.65v-14.38h51.72l.02 10.11-.11 26.48z"/><path d="M946.13 701.23v4.51c0 5.41 3.23 10.22 8.24 12.26l.38.15.38-.15c5.01-2.04 8.24-6.86 8.24-12.26v-4.51l-8.62-3.58zm15.24 4.52c0 4.45-2.58 8.43-6.62 10.25-4.03-1.82-6.62-5.8-6.62-10.25v-3.18l6.62-2.75 6.62 2.75zm-26.69.35h-5.06c-.55 0-1 .45-1 1v.2c0 .55.45 1 1 1h5.06c.55 0 1-.45 1-1v-.2c0-.55-.45-1-1-1"/></g><mask id="mask3_1_1955" width="59" height="58" x="657" y="682" maskUnits="userSpaceOnUse" style="mask-type:luminance"><path fill="#fff" d="M715.88 682.65h-58.31v56.84h58.31z"/></mask><g fill="#ec0000" mask="url(#mask3_1_1955)"><path d="m686.88 723.94-11.15-6.44v-12.87l11.15-6.44 11.15 6.44v12.87zm-9.26-7.53 9.26 5.34 9.26-5.34v-10.69l-9.26-5.34-9.26 5.34z"/><path d="M708.34 718.15v-3.61h-1.89v3.61a4.86 4.86 0 0 0-3.91 4.76c0 .54.11 1.06.28 1.55l-12.23 7.06c-.89-1.07-2.21-1.76-3.71-1.76s-2.82.69-3.71 1.76l-11.86-6.85-.35-.2c.16-.48.26-.98.26-1.51 0-2.36-1.69-4.32-3.91-4.77v-3.65h-1.89v3.65a4.862 4.862 0 0 0 .95 9.63c1.47 0 2.77-.67 3.66-1.7l.27.15 11.97 6.91c-.14.46-.24.94-.24 1.44 0 2.68 2.18 4.86 4.86 4.86s4.86-2.18 4.86-4.86c0-.51-.1-.98-.24-1.44l12.26-7.08a4.8 4.8 0 0 0 3.64 1.67c2.68 0 4.86-2.18 4.86-4.86a4.86 4.86 0 0 0-3.91-4.76m-42 7.78a2.97 2.97 0 1 1 0-5.94 2.97 2.97 0 0 1 0 5.94m20.52 11.67a2.97 2.97 0 0 1-2.97-2.97c0-.16.02-.31.05-.46.1-.66.42-1.24.88-1.68a2.94 2.94 0 0 1 2.04-.83 2.986 2.986 0 0 1 2.92 2.51c.02.15.05.3.05.46a2.97 2.97 0 0 1-2.97 2.97m20.52-11.71c-.75 0-1.43-.29-1.95-.75-.48-.42-.83-.99-.96-1.63-.04-.19-.06-.38-.06-.58 0-1.3.85-2.4 2.02-2.8.3-.1.61-.17.95-.17s.65.07.95.17c1.17.4 2.02 1.49 2.02 2.8a2.97 2.97 0 0 1-2.97 2.97m0-31.51c-1.44 0-2.73.64-3.62 1.65l-12.28-7.09c.14-.46.24-.94.24-1.44 0-2.68-2.18-4.86-4.86-4.86s-4.86 2.18-4.86 4.86c0 .51.1.98.24 1.44l-12.28 7.09c-.89-1-2.17-1.65-3.62-1.65-2.68 0-4.86 2.18-4.86 4.86a4.86 4.86 0 0 0 3.91 4.76v3.57h1.89v-3.57a4.86 4.86 0 0 0 3.91-4.76c0-.56-.11-1.08-.29-1.58l12.23-7.06a4.82 4.82 0 0 0 3.71 1.76c1.49 0 2.82-.69 3.71-1.76l12.24 7.06c-.17.5-.29 1.02-.29 1.58a4.86 4.86 0 0 0 3.91 4.76v3.57h1.89v-3.57a4.86 4.86 0 0 0 3.91-4.76c0-2.68-2.18-4.86-4.86-4.86m-40.06 7.66c-.3.1-.61.17-.95.17s-.65-.07-.95-.17c-1.17-.4-2.02-1.49-2.02-2.8a2.97 2.97 0 0 1 2.97-2.97c.74 0 1.41.28 1.93.73.48.42.84.98.97 1.62.04.2.06.4.06.61 0 1.3-.85 2.4-2.02 2.8zm22.49-14.08c-.1.66-.42 1.24-.88 1.68-.53.51-1.25.83-2.04.83s-1.51-.32-2.04-.83c-.46-.44-.77-1.02-.88-1.68-.02-.15-.05-.3-.05-.46a2.97 2.97 0 0 1 5.94 0c0 .16-.02.31-.05.46m18.54 14.08c-.3.1-.61.17-.95.17s-.65-.07-.95-.17c-1.17-.4-2.02-1.49-2.02-2.8 0-.21.02-.42.07-.61.14-.65.49-1.21.97-1.62.52-.45 1.19-.73 1.93-.73a2.97 2.97 0 0 1 2.97 2.97c0 1.3-.85 2.4-2.02 2.8"/><path d="M675.73 706.64h-18.16v1.89h18.16zm0 3.48h-18.16v1.89h18.16zm0 3.48h-18.16v1.89h18.16zm40.14-6.96h-18.16v1.89h18.16zm0 3.48h-18.16v1.89h18.16zm0 3.48h-18.16v1.89h18.16z"/></g><path stroke="#f26733" stroke-miterlimit="10" stroke-width="3" d="M689.43 428.39v215.16"/><path fill="#f26733" d="m677.16 633.61 2.2-2.05 10.07 10.83 10.07-10.83 2.19 2.05-12.26 13.19z"/><path stroke="#004dc8" stroke-miterlimit="10" stroke-width="3" d="M1224.77 646.8V432.16"/><path fill="#004dc8" d="m1237.04 442.1-2.19 2.04-10.07-10.83-10.08 10.83-2.19-2.04 12.27-13.2z"/><text xml:space="preserve" fill="#000" font-family="Inter" font-size="16.5" font-weight="bold" letter-spacing="0em" style="white-space:pre"><tspan x="170.043" y="374">User</tspan></text><text xml:space="preserve" fill="#000" font-family="Inter" font-size="32.05" font-weight="600" letter-spacing="0em" style="white-space:pre"><tspan x="638.545" y="781.155">Falcon
</tspan><tspan x="622.348" y="820.155">Next-Gen
</tspan><tspan x="650.939" y="859.155">SIEM</tspan></text><text xml:space="preserve" fill="#000" font-family="Inter" font-size="32.05" font-weight="600" letter-spacing="0em" style="white-space:pre"><tspan x="905" y="781.155">Falcon
</tspan><tspan x="905" y="820.155">device
</tspan><tspan x="905" y="859.155">posture</tspan></text><text xml:space="preserve" fill="#000" font-family="Inter" font-size="32.05" font-weight="600" letter-spacing="0em" style="white-space:pre"><tspan x="1170.92" y="781.155">Fusion
</tspan><tspan x="1177.79" y="820.155">SOAR</tspan></text><text xml:space="preserve" fill="#000" font-family="Inter" font-size="28" font-weight="600" letter-spacing="0em" style="white-space:pre"><tspan x="611.238" y="264.182">WAF rules:
</tspan><tspan x="650.08" y="298.182">Block</tspan></text><text xml:space="preserve" fill="#000" font-family="Inter" font-size="22" font-weight="500" letter-spacing="0em" style="white-space:pre"><tspan x="346" y="307.5">1. Inspects and
</tspan><tspan x="346" y="334.5">blocks attacks</tspan></text><text xml:space="preserve" fill="#000" font-family="Inter" font-size="22" font-weight="500" letter-spacing="0em" style="white-space:pre"><tspan x="686" y="1017.5">3. Next-Gen SIEM correlates with threat intel data:
</tspan><tspan x="708" y="1044.5">Detects known targeted ransomware group and triggers Fusion SOAR</tspan></text><text xml:space="preserve" fill="#000" font-family="Inter" font-size="20" letter-spacing="0em" style="white-space:pre"><tspan x="1604" y="791.273">Logs [via Logpush]</tspan></text><text xml:space="preserve" fill="#000" font-family="Inter" font-size="20" letter-spacing="0em" style="white-space:pre"><tspan x="1604" y="844.273">Automation [via API]</tspan></text><text xml:space="preserve" fill="#000" font-family="Inter" font-size="20" letter-spacing="0em" style="white-space:pre"><tspan x="1604" y="898.273">Device posture 
</tspan><tspan x="1604" y="922.273">[service-to-service API]</tspan></text></g><defs><clipPath id="clip0_1_1955"><path fill="#fff" d="M0 0h1920v1080H0z"/></clipPath></defs></svg>