<svg xmlns="http://www.w3.org/2000/svg" viewBox="0 0 820 260" fill="none">
  <style>
    text { font-family: -apple-system, BlinkMacSystemFont, 'Segoe UI', sans-serif; }
    .label { font-size: 12px; font-weight: 600; fill: #1a1a1a; }
    .sublabel { font-size: 11px; fill: #6b7280; }
    .phase { font-size: 11px; font-weight: 600; fill: #fff; }
    .phase-body { font-size: 11px; fill: #6b7280; }
    .annotation { font-size: 10px; fill: #6b7280; }
  </style>
  <defs>
    <marker id="time-arrow" markerWidth="8" markerHeight="6" refX="7" refY="3" orient="auto">
      <polygon points="0 0, 8 3, 0 6" fill="#d1d5db"/>
    </marker>
  </defs>

  <!-- Background -->
  <rect width="820" height="260" fill="#fafafa" rx="8"/>

  <!-- Time axis -->
  <line x1="40" y1="30" x2="720" y2="30" stroke="#d1d5db" stroke-width="1.5" marker-end="url(#time-arrow)"/>
  <text x="735" y="34" class="sublabel">time</text>

  <!-- Connection bar: headers phase -->
  <path d="M44,52 h76 v36 h-76 q-4,0 -4,-4 v-28 q0,-4 4,-4z" fill="#f97316" stroke="#ea580c" stroke-width="1"/>
  <text x="80" y="75" text-anchor="middle" class="phase">headers</text>

  <!-- Body: alternating read/gap/read/gap pattern -->
  <!-- read 1 -->
  <rect x="120" y="52" width="60" height="36" fill="#fff7ed" stroke="#fdba74" stroke-width="1"/>
  <text x="150" y="75" text-anchor="middle" class="phase-body">body</text>
  <!-- gap 1 -->
  <rect x="180" y="52" width="30" height="36" fill="#f3f4f6" stroke="#d1d5db" stroke-width="1" stroke-dasharray="3 2"/>
  <!-- read 2 -->
  <rect x="210" y="52" width="70" height="36" fill="#fff7ed" stroke="#fdba74" stroke-width="1"/>
  <text x="245" y="75" text-anchor="middle" class="phase-body">body</text>
  <!-- gap 2 -->
  <rect x="280" y="52" width="30" height="36" fill="#f3f4f6" stroke="#d1d5db" stroke-width="1" stroke-dasharray="3 2"/>
  <!-- read 3 -->
  <rect x="310" y="52" width="60" height="36" fill="#fff7ed" stroke="#fdba74" stroke-width="1"/>
  <text x="340" y="75" text-anchor="middle" class="phase-body">body</text>
  <!-- gap 3 -->
  <rect x="370" y="52" width="30" height="36" fill="#f3f4f6" stroke="#d1d5db" stroke-width="1" stroke-dasharray="3 2"/>
  <!-- read 4 -->
  <rect x="400" y="52" width="70" height="36" fill="#fff7ed" stroke="#fdba74" stroke-width="1"/>
  <text x="435" y="75" text-anchor="middle" class="phase-body">body</text>
  <!-- gap 4 — this is where cancellation happens -->
  <rect x="470" y="52" width="30" height="36" fill="#fef2f2" stroke="#dc2626" stroke-width="1.5" stroke-dasharray="3 2"/>

  <!-- Canceled marker -->
  <text x="520" y="68" class="label" style="fill: #dc2626;">✗</text>
  <text x="538" y="68" class="sublabel" style="fill: #dc2626;">canceled</text>

  <!-- Annotation arrow pointing to a gap -->
  <line x1="295" y1="100" x2="295" y2="90" stroke="#9ca3af" stroke-width="1"/>
  <text x="295" y="115" text-anchor="middle" class="annotation">brief gaps from gzip decompression</text>
  <text x="295" y="128" text-anchor="middle" class="annotation">or internal buffering</text>

  <!-- Explanation -->
  <text x="40" y="165" class="sublabel">When a 7th connection is opened, a brief gap where there is no I/O makes</text>
  <text x="40" y="180" class="sublabel">the connection appear idle — so it gets canceled, even though the Worker</text>
  <text x="40" y="195" class="sublabel">is still using it.</text>

  <!-- Legend -->
  <rect x="40" y="215" width="740" height="32" rx="6" fill="#f9fafb" stroke="#e5e7eb" stroke-width="1"/>
  <rect x="58" y="224" width="24" height="14" rx="3" fill="#fff7ed" stroke="#fdba74" stroke-width="1"/>
  <text x="89" y="235" class="sublabel">Bytes flowing</text>
  <rect x="200" y="224" width="24" height="14" rx="3" fill="#f3f4f6" stroke="#d1d5db" stroke-width="1" stroke-dasharray="3 2"/>
  <text x="231" y="235" class="sublabel">Brief pause (appears idle)</text>
  <rect x="420" y="224" width="24" height="14" rx="3" fill="#fef2f2" stroke="#dc2626" stroke-width="1" stroke-dasharray="3 2"/>
  <text x="451" y="235" class="sublabel">Canceled by runtime</text>
</svg>
