<svg xmlns="http://www.w3.org/2000/svg" width="400" height="300" fill="none" viewBox="0 0 400 300"><path fill="#fff" d="M0 0h400v300H0z"/><rect width="362" height="239" x="19" y="30" fill="#050505" rx="8"/><path fill="#212121" fill-rule="evenodd" d="M200 177.062a7.062 7.062 0 1 0 0-14.125 7.062 7.062 0 0 0 0 14.125m0 1.938a9 9 0 1 0-.001-18.001A9 9 0 0 0 200 179" clip-rule="evenodd"/><path fill="#2160fd" fill-rule="evenodd" d="M200 162.936a7.065 7.065 0 1 1-6.048 3.414l-1.657-1.001a9 9 0 0 0 1.249 10.921A9 9 0 1 0 200 161z" clip-rule="evenodd"/><rect width="100.365" height="30.85" x="149.704" y="113.765" fill="#2160fd" fill-opacity=".5" rx="15.425"/><rect width="100.365" height="30.85" x="149.704" y="113.765" stroke="#2160fd" stroke-width="1.407" rx="15.425"/><path fill="#fff" d="M166.246 124.456h1.419l2.839 4.778h.119l2.839-4.778h1.419l-3.698 6.017v4.217h-1.239v-4.217zm12.11 10.394q-1.038 0-1.824-.494a3.37 3.37 0 0 1-1.219-1.385q-.435-.889-.435-2.078 0-1.2.435-2.094a3.36 3.36 0 0 1 1.219-1.389q.786-.495 1.824-.495 1.04 0 1.819.495.785.495 1.22 1.389.44.894.439 2.094 0 1.189-.439 2.078a3.3 3.3 0 0 1-1.22 1.385q-.779.494-1.819.494m0-1.059q.79 0 1.3-.405.509-.405.754-1.064a4.1 4.1 0 0 0 .245-1.429 4.1 4.1 0 0 0-.245-1.435 2.4 2.4 0 0 0-.754-1.074q-.51-.41-1.3-.41-.789 0-1.299.41t-.754 1.074a4.1 4.1 0 0 0-.245 1.435q0 .77.245 1.429.244.66.754 1.064.51.405 1.299.405m10.116-2.239v-4.537h1.179v7.675h-1.179v-1.299h-.08q-.27.585-.84.995-.569.404-1.439.404a2.57 2.57 0 0 1-1.279-.314 2.2 2.2 0 0 1-.88-.96q-.32-.645-.319-1.624v-4.877h1.179v4.797q0 .84.47 1.339.474.5 1.209.5.44 0 .894-.225.46-.225.77-.689.315-.465.315-1.185m3.339 3.138v-7.675h1.139v1.159h.08q.21-.57.76-.924a2.23 2.23 0 0 1 1.239-.355q.13 0 .325.005.195.004.295.015v1.199a4 4 0 0 0-.275-.045 3 3 0 0 0-.445-.035q-.56 0-.999.235-.435.23-.69.64-.25.405-.25.924v4.857zm9.353 0v-10.234h1.24v9.135h4.757v1.099zm10.874.16q-1.04 0-1.824-.494a3.36 3.36 0 0 1-1.219-1.385q-.435-.889-.435-2.078 0-1.2.435-2.094a3.35 3.35 0 0 1 1.219-1.389q.784-.495 1.824-.495t1.819.495q.784.495 1.219 1.389.44.894.44 2.094 0 1.189-.44 2.078a3.3 3.3 0 0 1-1.219 1.385q-.78.494-1.819.494m0-1.059q.789 0 1.299-.405t.755-1.064a4.1 4.1 0 0 0 .245-1.429 4.1 4.1 0 0 0-.245-1.435 2.4 2.4 0 0 0-.755-1.074q-.51-.41-1.299-.41t-1.299.41-.755 1.074a4.1 4.1 0 0 0-.245 1.435q0 .77.245 1.429.245.66.755 1.064.51.405 1.299.405m8.376 3.938q-.854 0-1.469-.22a3.1 3.1 0 0 1-1.669-1.319l.94-.66q.16.21.404.48.246.274.67.474.43.205 1.124.205.93 0 1.534-.449.605-.45.605-1.41v-1.559h-.1q-.13.21-.37.52-.235.305-.679.545-.44.234-1.19.234a3.2 3.2 0 0 1-1.669-.439q-.734-.44-1.164-1.279-.425-.84-.425-2.039 0-1.18.415-2.054.415-.879 1.154-1.359.74-.485 1.709-.485.75 0 1.19.25.444.245.679.56.24.31.37.509h.12v-1.219h1.139v7.895q0 .99-.449 1.609a2.56 2.56 0 0 1-1.2.915 4.5 4.5 0 0 1-1.669.295m-.04-4.218q.71 0 1.2-.325.489-.325.744-.934.255-.61.255-1.459 0-.83-.25-1.464a2.2 2.2 0 0 0-.739-.995q-.49-.36-1.21-.36-.749 0-1.249.38-.495.38-.745 1.02a4 4 0 0 0-.244 1.419q0 .8.249 1.414.255.61.75.959.5.345 1.239.345m8.635 1.339q-1.04 0-1.824-.494a3.37 3.37 0 0 1-1.219-1.385q-.435-.889-.435-2.078 0-1.2.435-2.094a3.36 3.36 0 0 1 1.219-1.389q.784-.495 1.824-.495t1.819.495q.785.495 1.219 1.389.44.894.44 2.094 0 1.189-.44 2.078a3.3 3.3 0 0 1-1.219 1.385q-.779.494-1.819.494m0-1.059q.79 0 1.3-.405.509-.405.754-1.064a4.1 4.1 0 0 0 .245-1.429 4.1 4.1 0 0 0-.245-1.435 2.4 2.4 0 0 0-.754-1.074q-.51-.41-1.3-.41-.789 0-1.299.41a2.4 2.4 0 0 0-.755 1.074 4.1 4.1 0 0 0-.244 1.435q0 .77.244 1.429.245.66.755 1.064.51.405 1.299.405"/></svg>