<svg xmlns="http://www.w3.org/2000/svg" width="400" height="300" fill="none" viewBox="0 0 400 300"><g clip-path="url(#clip0_10148_144526)"><g fill="#959595" fill-opacity=".3" clip-path="url(#clip1_10148_144526)"><g clip-path="url(#clip2_10148_144526)"><circle cx="10.891" cy="6.024" r=".99"/><circle cx="26.071" cy="6.024" r=".99"/><circle cx="41.252" cy="6.024" r=".99"/><circle cx="56.431" cy="6.024" r=".99"/><circle cx="71.612" cy="6.024" r=".99"/><circle cx="86.792" cy="6.024" r=".99"/><circle cx="101.972" cy="6.024" r=".99"/><circle cx="117.153" cy="6.024" r=".99"/><circle cx="132.332" cy="6.024" r=".99"/><circle cx="147.513" cy="6.024" r=".99"/><circle cx="162.693" cy="6.024" r=".99"/><circle cx="177.873" cy="6.024" r=".99"/><circle cx="193.054" cy="6.024" r=".99"/><circle cx="208.233" cy="6.024" r=".99"/><circle cx="223.413" cy="6.024" r=".99"/><circle cx="238.594" cy="6.024" r=".99"/><circle cx="253.774" cy="6.024" r=".99"/><circle cx="268.955" cy="6.024" r=".99"/><circle cx="284.134" cy="6.024" r=".99"/><circle cx="299.314" cy="6.024" r=".99"/><circle cx="314.495" cy="6.024" r=".99"/><circle cx="329.675" cy="6.024" r=".99"/><circle cx="344.856" cy="6.024" r=".99"/><circle cx="360.035" cy="6.024" r=".99"/><circle cx="375.215" cy="6.024" r=".99"/><circle cx="390.396" cy="6.024" r=".99"/></g><g clip-path="url(#clip3_10148_144526)"><circle cx="10.891" cy="21.024" r=".99"/><circle cx="26.071" cy="21.024" r=".99"/><circle cx="41.252" cy="21.024" r=".99"/><circle cx="56.431" cy="21.024" r=".99"/><circle cx="71.612" cy="21.024" r=".99"/><circle cx="86.792" cy="21.024" r=".99"/><circle cx="101.972" cy="21.024" r=".99"/><circle cx="117.153" cy="21.024" r=".99"/><circle cx="132.332" cy="21.024" r=".99"/><circle cx="147.513" cy="21.024" r=".99"/><circle cx="162.693" cy="21.024" r=".99"/><circle cx="177.873" cy="21.024" r=".99"/><circle cx="193.054" cy="21.024" r=".99"/><circle cx="208.233" cy="21.024" r=".99"/><circle cx="223.413" cy="21.024" r=".99"/><circle cx="238.594" cy="21.024" r=".99"/><circle cx="253.774" cy="21.024" r=".99"/><circle cx="268.955" cy="21.024" r=".99"/><circle cx="284.134" cy="21.024" r=".99"/><circle cx="299.314" cy="21.024" r=".99"/><circle cx="314.495" cy="21.024" r=".99"/><circle cx="329.675" cy="21.024" r=".99"/><circle cx="344.856" cy="21.024" r=".99"/><circle cx="360.035" cy="21.024" r=".99"/><circle cx="375.215" cy="21.024" r=".99"/><circle cx="390.396" cy="21.024" r=".99"/></g><g clip-path="url(#clip4_10148_144526)"><circle cx="10.891" cy="36.024" r=".99"/><circle cx="26.071" cy="36.024" r=".99"/><circle cx="41.252" cy="36.024" r=".99"/><circle cx="56.431" cy="36.024" r=".99"/><circle cx="71.612" cy="36.024" r=".99"/><circle cx="86.792" cy="36.024" r=".99"/><circle cx="101.972" cy="36.024" r=".99"/><circle cx="117.153" cy="36.024" r=".99"/><circle cx="132.332" cy="36.024" r=".99"/><circle cx="147.513" cy="36.024" r=".99"/><circle cx="162.693" cy="36.024" r=".99"/><circle cx="177.873" cy="36.024" r=".99"/><circle cx="193.054" cy="36.024" r=".99"/><circle cx="208.233" cy="36.024" r=".99"/><circle cx="223.413" cy="36.024" r=".99"/><circle cx="238.594" cy="36.024" r=".99"/><circle cx="253.774" cy="36.024" r=".99"/><circle cx="268.955" cy="36.024" r=".99"/><circle cx="284.134" cy="36.024" r=".99"/><circle cx="299.314" cy="36.024" r=".99"/><circle cx="314.495" cy="36.024" r=".99"/><circle cx="329.675" cy="36.024" r=".99"/><circle cx="344.856" cy="36.024" r=".99"/><circle cx="360.035" cy="36.024" r=".99"/><circle cx="375.215" cy="36.024" r=".99"/><circle cx="390.396" cy="36.024" r=".99"/></g><g clip-path="url(#clip5_10148_144526)"><circle cx="10.891" cy="51.024" r=".99"/><circle cx="26.071" cy="51.024" r=".99"/><circle cx="41.252" cy="51.024" r=".99"/><circle cx="56.431" cy="51.024" r=".99"/><circle cx="71.612" cy="51.024" r=".99"/><circle cx="86.792" cy="51.024" r=".99"/><circle cx="101.972" cy="51.024" r=".99"/><circle cx="117.153" cy="51.024" r=".99"/><circle cx="132.332" cy="51.024" r=".99"/><circle cx="147.513" cy="51.024" r=".99"/><circle cx="162.693" cy="51.024" r=".99"/><circle cx="177.873" cy="51.024" r=".99"/><circle cx="193.054" cy="51.024" r=".99"/><circle cx="208.233" cy="51.024" r=".99"/><circle cx="223.413" cy="51.024" r=".99"/><circle cx="238.594" cy="51.024" r=".99"/><circle cx="253.774" cy="51.024" r=".99"/><circle cx="268.955" cy="51.024" r=".99"/><circle cx="284.134" cy="51.024" r=".99"/><circle cx="299.314" cy="51.024" r=".99"/><circle cx="314.495" cy="51.024" r=".99"/><circle cx="329.675" cy="51.024" r=".99"/><circle cx="344.856" cy="51.024" r=".99"/><circle cx="360.035" cy="51.024" r=".99"/><circle cx="375.215" cy="51.024" r=".99"/><circle cx="390.396" cy="51.024" r=".99"/></g><g clip-path="url(#clip6_10148_144526)"><circle cx="10.891" cy="66.024" r=".99"/><circle cx="26.071" cy="66.024" r=".99"/><circle cx="41.252" cy="66.024" r=".99"/><circle cx="56.431" cy="66.024" r=".99"/><circle cx="71.612" cy="66.024" r=".99"/><circle cx="86.792" cy="66.024" r=".99"/><circle cx="101.972" cy="66.024" r=".99"/><circle cx="117.153" cy="66.024" r=".99"/><circle cx="132.332" cy="66.024" r=".99"/><circle cx="147.513" cy="66.024" r=".99"/><circle cx="162.693" cy="66.024" r=".99"/><circle cx="177.873" cy="66.024" r=".99"/><circle cx="193.054" cy="66.024" r=".99"/><circle cx="208.233" cy="66.024" r=".99"/><circle cx="223.413" cy="66.024" r=".99"/><circle cx="238.594" cy="66.024" r=".99"/><circle cx="253.774" cy="66.024" r=".99"/><circle cx="268.955" cy="66.024" r=".99"/><circle cx="284.134" cy="66.024" r=".99"/><circle cx="299.314" cy="66.024" r=".99"/><circle cx="314.495" cy="66.024" r=".99"/><circle cx="329.675" cy="66.024" r=".99"/><circle cx="344.856" cy="66.024" r=".99"/><circle cx="360.035" cy="66.024" r=".99"/><circle cx="375.215" cy="66.024" r=".99"/><circle cx="390.396" cy="66.024" r=".99"/></g><g clip-path="url(#clip7_10148_144526)"><circle cx="10.891" cy="81.024" r=".99"/><circle cx="26.071" cy="81.024" r=".99"/><circle cx="41.252" cy="81.024" r=".99"/><circle cx="56.431" cy="81.024" r=".99"/><circle cx="71.612" cy="81.024" r=".99"/><circle cx="86.792" cy="81.024" r=".99"/><circle cx="101.972" cy="81.024" r=".99"/><circle cx="117.153" cy="81.024" r=".99"/><circle cx="132.332" cy="81.024" r=".99"/><circle cx="147.513" cy="81.024" r=".99"/><circle cx="162.693" cy="81.024" r=".99"/><circle cx="177.873" cy="81.024" r=".99"/><circle cx="193.054" cy="81.024" r=".99"/><circle cx="208.233" cy="81.024" r=".99"/><circle cx="223.413" cy="81.024" r=".99"/><circle cx="238.594" cy="81.024" r=".99"/><circle cx="253.774" cy="81.024" r=".99"/><circle cx="268.955" cy="81.024" r=".99"/><circle cx="284.134" cy="81.024" r=".99"/><circle cx="299.314" cy="81.024" r=".99"/><circle cx="314.495" cy="81.024" r=".99"/><circle cx="329.675" cy="81.024" r=".99"/><circle cx="344.856" cy="81.024" r=".99"/><circle cx="360.035" cy="81.024" r=".99"/><circle cx="375.215" cy="81.024" r=".99"/><circle cx="390.396" cy="81.024" r=".99"/></g><g clip-path="url(#clip8_10148_144526)"><circle cx="10.891" cy="96.024" r=".99"/><circle cx="26.071" cy="96.024" r=".99"/><circle cx="41.252" cy="96.024" r=".99"/><circle cx="56.431" cy="96.024" r=".99"/><circle cx="71.612" cy="96.024" r=".99"/><circle cx="86.792" cy="96.024" r=".99"/><circle cx="101.972" cy="96.024" r=".99"/><circle cx="117.153" cy="96.024" r=".99"/><circle cx="132.332" cy="96.024" r=".99"/><circle cx="147.513" cy="96.024" r=".99"/><circle cx="162.693" cy="96.024" r=".99"/><circle cx="177.873" cy="96.024" r=".99"/><circle cx="193.054" cy="96.024" r=".99"/><circle cx="208.233" cy="96.024" r=".99"/><circle cx="223.413" cy="96.024" r=".99"/><circle cx="238.594" cy="96.024" r=".99"/><circle cx="253.774" cy="96.024" r=".99"/><circle cx="268.955" cy="96.024" r=".99"/><circle cx="284.134" cy="96.024" r=".99"/><circle cx="299.314" cy="96.024" r=".99"/><circle cx="314.495" cy="96.024" r=".99"/><circle cx="329.675" cy="96.024" r=".99"/><circle cx="344.856" cy="96.024" r=".99"/><circle cx="360.035" cy="96.024" r=".99"/><circle cx="375.215" cy="96.024" r=".99"/><circle cx="390.396" cy="96.024" r=".99"/></g><g clip-path="url(#clip9_10148_144526)"><circle cx="10.891" cy="111.024" r=".99"/><circle cx="26.071" cy="111.024" r=".99"/><circle cx="41.252" cy="111.024" r=".99"/><circle cx="56.431" cy="111.024" r=".99"/><circle cx="71.612" cy="111.024" r=".99"/><circle cx="86.792" cy="111.024" r=".99"/><circle cx="101.972" cy="111.024" r=".99"/><circle cx="117.153" cy="111.024" r=".99"/><circle cx="132.332" cy="111.024" r=".99"/><circle cx="147.513" cy="111.024" r=".99"/><circle cx="162.693" cy="111.024" r=".99"/><circle cx="177.873" cy="111.024" r=".99"/><circle cx="193.054" cy="111.024" r=".99"/><circle cx="208.233" cy="111.024" r=".99"/><circle cx="223.413" cy="111.024" r=".99"/><circle cx="238.594" cy="111.024" r=".99"/><circle cx="253.774" cy="111.024" r=".99"/><circle cx="268.955" cy="111.024" r=".99"/><circle cx="284.134" cy="111.024" r=".99"/><circle cx="299.314" cy="111.024" r=".99"/><circle cx="314.495" cy="111.024" r=".99"/><circle cx="329.675" cy="111.024" r=".99"/><circle cx="344.856" cy="111.024" r=".99"/><circle cx="360.035" cy="111.024" r=".99"/><circle cx="375.215" cy="111.024" r=".99"/><circle cx="390.396" cy="111.024" r=".99"/></g><g clip-path="url(#clip10_10148_144526)"><circle cx="10.891" cy="126.024" r=".99"/><circle cx="26.071" cy="126.024" r=".99"/><circle cx="41.252" cy="126.024" r=".99"/><circle cx="56.431" cy="126.024" r=".99"/><circle cx="71.612" cy="126.024" r=".99"/><circle cx="86.792" cy="126.024" r=".99"/><circle cx="101.972" cy="126.024" r=".99"/><circle cx="117.153" cy="126.024" r=".99"/><circle cx="132.332" cy="126.024" r=".99"/><circle cx="147.513" cy="126.024" r=".99"/><circle cx="162.693" cy="126.024" r=".99"/><circle cx="177.873" cy="126.024" r=".99"/><circle cx="193.054" cy="126.024" r=".99"/><circle cx="208.233" cy="126.024" r=".99"/><circle cx="223.413" cy="126.024" r=".99"/><circle cx="238.594" cy="126.024" r=".99"/><circle cx="253.774" cy="126.024" r=".99"/><circle cx="268.955" cy="126.024" r=".99"/><circle cx="284.134" cy="126.024" r=".99"/><circle cx="299.314" cy="126.024" r=".99"/><circle cx="314.495" cy="126.024" r=".99"/><circle cx="329.675" cy="126.024" r=".99"/><circle cx="344.856" cy="126.024" r=".99"/><circle cx="360.035" cy="126.024" r=".99"/><circle cx="375.215" cy="126.024" r=".99"/><circle cx="390.396" cy="126.024" r=".99"/></g><g clip-path="url(#clip11_10148_144526)"><circle cx="10.891" cy="141.024" r=".99"/><circle cx="26.071" cy="141.024" r=".99"/><circle cx="41.252" cy="141.024" r=".99"/><circle cx="56.431" cy="141.024" r=".99"/><circle cx="71.612" cy="141.024" r=".99"/><circle cx="86.792" cy="141.024" r=".99"/><circle cx="101.972" cy="141.024" r=".99"/><circle cx="117.153" cy="141.024" r=".99"/><circle cx="132.332" cy="141.024" r=".99"/><circle cx="147.513" cy="141.024" r=".99"/><circle cx="162.693" cy="141.024" r=".99"/><circle cx="177.873" cy="141.024" r=".99"/><circle cx="193.054" cy="141.024" r=".99"/><circle cx="208.233" cy="141.024" r=".99"/><circle cx="223.413" cy="141.024" r=".99"/><circle cx="238.594" cy="141.024" r=".99"/><circle cx="253.774" cy="141.024" r=".99"/><circle cx="268.955" cy="141.024" r=".99"/><circle cx="284.134" cy="141.024" r=".99"/><circle cx="299.314" cy="141.024" r=".99"/><circle cx="314.495" cy="141.024" r=".99"/><circle cx="329.675" cy="141.024" r=".99"/><circle cx="344.856" cy="141.024" r=".99"/><circle cx="360.035" cy="141.024" r=".99"/><circle cx="375.215" cy="141.024" r=".99"/><circle cx="390.396" cy="141.024" r=".99"/></g><g clip-path="url(#clip12_10148_144526)"><circle cx="10.891" cy="156.024" r=".99"/><circle cx="26.071" cy="156.024" r=".99"/><circle cx="41.252" cy="156.024" r=".99"/><circle cx="56.431" cy="156.024" r=".99"/><circle cx="71.612" cy="156.024" r=".99"/><circle cx="86.792" cy="156.024" r=".99"/><circle cx="101.972" cy="156.024" r=".99"/><circle cx="117.153" cy="156.024" r=".99"/><circle cx="132.332" cy="156.024" r=".99"/><circle cx="147.513" cy="156.024" r=".99"/><circle cx="162.693" cy="156.024" r=".99"/><circle cx="177.873" cy="156.024" r=".99"/><circle cx="193.054" cy="156.024" r=".99"/><circle cx="208.233" cy="156.024" r=".99"/><circle cx="223.413" cy="156.024" r=".99"/><circle cx="238.594" cy="156.024" r=".99"/><circle cx="253.774" cy="156.024" r=".99"/><circle cx="268.955" cy="156.024" r=".99"/><circle cx="284.134" cy="156.024" r=".99"/><circle cx="299.314" cy="156.024" r=".99"/><circle cx="314.495" cy="156.024" r=".99"/><circle cx="329.675" cy="156.024" r=".99"/><circle cx="344.856" cy="156.024" r=".99"/><circle cx="360.035" cy="156.024" r=".99"/><circle cx="375.215" cy="156.024" r=".99"/><circle cx="390.396" cy="156.024" r=".99"/></g><g clip-path="url(#clip13_10148_144526)"><circle cx="10.891" cy="171.024" r=".99"/><circle cx="26.071" cy="171.024" r=".99"/><circle cx="41.252" cy="171.024" r=".99"/><circle cx="56.431" cy="171.024" r=".99"/><circle cx="71.612" cy="171.024" r=".99"/><circle cx="86.792" cy="171.024" r=".99"/><circle cx="101.972" cy="171.024" r=".99"/><circle cx="117.153" cy="171.024" r=".99"/><circle cx="132.332" cy="171.024" r=".99"/><circle cx="147.513" cy="171.024" r=".99"/><circle cx="162.693" cy="171.024" r=".99"/><circle cx="177.873" cy="171.024" r=".99"/><circle cx="193.054" cy="171.024" r=".99"/><circle cx="208.233" cy="171.024" r=".99"/><circle cx="223.413" cy="171.024" r=".99"/><circle cx="238.594" cy="171.024" r=".99"/><circle cx="253.774" cy="171.024" r=".99"/><circle cx="268.955" cy="171.024" r=".99"/><circle cx="284.134" cy="171.024" r=".99"/><circle cx="299.314" cy="171.024" r=".99"/><circle cx="314.495" cy="171.024" r=".99"/><circle cx="329.675" cy="171.024" r=".99"/><circle cx="344.856" cy="171.024" r=".99"/><circle cx="360.035" cy="171.024" r=".99"/><circle cx="375.215" cy="171.024" r=".99"/><circle cx="390.396" cy="171.024" r=".99"/></g><g clip-path="url(#clip14_10148_144526)"><circle cx="10.891" cy="186.024" r=".99"/><circle cx="26.071" cy="186.024" r=".99"/><circle cx="41.252" cy="186.024" r=".99"/><circle cx="56.431" cy="186.024" r=".99"/><circle cx="71.612" cy="186.024" r=".99"/><circle cx="86.792" cy="186.024" r=".99"/><circle cx="101.972" cy="186.024" r=".99"/><circle cx="117.153" cy="186.024" r=".99"/><circle cx="132.332" cy="186.024" r=".99"/><circle cx="147.513" cy="186.024" r=".99"/><circle cx="162.693" cy="186.024" r=".99"/><circle cx="177.873" cy="186.024" r=".99"/><circle cx="193.054" cy="186.024" r=".99"/><circle cx="208.233" cy="186.024" r=".99"/><circle cx="223.413" cy="186.024" r=".99"/><circle cx="238.594" cy="186.024" r=".99"/><circle cx="253.774" cy="186.024" r=".99"/><circle cx="268.955" cy="186.024" r=".99"/><circle cx="284.134" cy="186.024" r=".99"/><circle cx="299.314" cy="186.024" r=".99"/><circle cx="314.495" cy="186.024" r=".99"/><circle cx="329.675" cy="186.024" r=".99"/><circle cx="344.856" cy="186.024" r=".99"/><circle cx="360.035" cy="186.024" r=".99"/><circle cx="375.215" cy="186.024" r=".99"/><circle cx="390.396" cy="186.024" r=".99"/></g><g clip-path="url(#clip15_10148_144526)"><circle cx="10.891" cy="201.024" r=".99"/><circle cx="26.071" cy="201.024" r=".99"/><circle cx="41.252" cy="201.024" r=".99"/><circle cx="56.431" cy="201.024" r=".99"/><circle cx="71.612" cy="201.024" r=".99"/><circle cx="86.792" cy="201.024" r=".99"/><circle cx="101.972" cy="201.024" r=".99"/><circle cx="117.153" cy="201.024" r=".99"/><circle cx="132.332" cy="201.024" r=".99"/><circle cx="147.513" cy="201.024" r=".99"/><circle cx="162.693" cy="201.024" r=".99"/><circle cx="177.873" cy="201.024" r=".99"/><circle cx="193.054" cy="201.024" r=".99"/><circle cx="208.233" cy="201.024" r=".99"/><circle cx="223.413" cy="201.024" r=".99"/><circle cx="238.594" cy="201.024" r=".99"/><circle cx="253.774" cy="201.024" r=".99"/><circle cx="268.955" cy="201.024" r=".99"/><circle cx="284.134" cy="201.024" r=".99"/><circle cx="299.314" cy="201.024" r=".99"/><circle cx="314.495" cy="201.024" r=".99"/><circle cx="329.675" cy="201.024" r=".99"/><circle cx="344.856" cy="201.024" r=".99"/><circle cx="360.035" cy="201.024" r=".99"/><circle cx="375.215" cy="201.024" r=".99"/><circle cx="390.396" cy="201.024" r=".99"/></g><g clip-path="url(#clip16_10148_144526)"><circle cx="10.891" cy="216.024" r=".99"/><circle cx="26.071" cy="216.024" r=".99"/><circle cx="41.252" cy="216.024" r=".99"/><circle cx="56.431" cy="216.024" r=".99"/><circle cx="71.612" cy="216.024" r=".99"/><circle cx="86.792" cy="216.024" r=".99"/><circle cx="101.972" cy="216.024" r=".99"/><circle cx="117.153" cy="216.024" r=".99"/><circle cx="132.332" cy="216.024" r=".99"/><circle cx="147.513" cy="216.024" r=".99"/><circle cx="162.693" cy="216.024" r=".99"/><circle cx="177.873" cy="216.024" r=".99"/><circle cx="193.054" cy="216.024" r=".99"/><circle cx="208.233" cy="216.024" r=".99"/><circle cx="223.413" cy="216.024" r=".99"/><circle cx="238.594" cy="216.024" r=".99"/><circle cx="253.774" cy="216.024" r=".99"/><circle cx="268.955" cy="216.024" r=".99"/><circle cx="284.134" cy="216.024" r=".99"/><circle cx="299.314" cy="216.024" r=".99"/><circle cx="314.495" cy="216.024" r=".99"/><circle cx="329.675" cy="216.024" r=".99"/><circle cx="344.856" cy="216.024" r=".99"/><circle cx="360.035" cy="216.024" r=".99"/><circle cx="375.215" cy="216.024" r=".99"/><circle cx="390.396" cy="216.024" r=".99"/></g><g clip-path="url(#clip17_10148_144526)"><circle cx="10.891" cy="231.024" r=".99"/><circle cx="26.071" cy="231.024" r=".99"/><circle cx="41.252" cy="231.024" r=".99"/><circle cx="56.431" cy="231.024" r=".99"/><circle cx="71.612" cy="231.024" r=".99"/><circle cx="86.792" cy="231.024" r=".99"/><circle cx="101.972" cy="231.024" r=".99"/><circle cx="117.153" cy="231.024" r=".99"/><circle cx="132.332" cy="231.024" r=".99"/><circle cx="147.513" cy="231.024" r=".99"/><circle cx="162.693" cy="231.024" r=".99"/><circle cx="177.873" cy="231.024" r=".99"/><circle cx="193.054" cy="231.024" r=".99"/><circle cx="208.233" cy="231.024" r=".99"/><circle cx="223.413" cy="231.024" r=".99"/><circle cx="238.594" cy="231.024" r=".99"/><circle cx="253.774" cy="231.024" r=".99"/><circle cx="268.955" cy="231.024" r=".99"/><circle cx="284.134" cy="231.024" r=".99"/><circle cx="299.314" cy="231.024" r=".99"/><circle cx="314.495" cy="231.024" r=".99"/><circle cx="329.675" cy="231.024" r=".99"/><circle cx="344.856" cy="231.024" r=".99"/><circle cx="360.035" cy="231.024" r=".99"/><circle cx="375.215" cy="231.024" r=".99"/><circle cx="390.396" cy="231.024" r=".99"/></g><g clip-path="url(#clip18_10148_144526)"><circle cx="10.891" cy="246.024" r=".99"/><circle cx="26.071" cy="246.024" r=".99"/><circle cx="41.252" cy="246.024" r=".99"/><circle cx="56.431" cy="246.024" r=".99"/><circle cx="71.612" cy="246.024" r=".99"/><circle cx="86.792" cy="246.024" r=".99"/><circle cx="101.972" cy="246.024" r=".99"/><circle cx="117.153" cy="246.024" r=".99"/><circle cx="132.332" cy="246.024" r=".99"/><circle cx="147.513" cy="246.024" r=".99"/><circle cx="162.693" cy="246.024" r=".99"/><circle cx="177.873" cy="246.024" r=".99"/><circle cx="193.054" cy="246.024" r=".99"/><circle cx="208.233" cy="246.024" r=".99"/><circle cx="223.413" cy="246.024" r=".99"/><circle cx="238.594" cy="246.024" r=".99"/><circle cx="253.774" cy="246.024" r=".99"/><circle cx="268.955" cy="246.024" r=".99"/><circle cx="284.134" cy="246.024" r=".99"/><circle cx="299.314" cy="246.024" r=".99"/><circle cx="314.495" cy="246.024" r=".99"/><circle cx="329.675" cy="246.024" r=".99"/><circle cx="344.856" cy="246.024" r=".99"/><circle cx="360.035" cy="246.024" r=".99"/><circle cx="375.215" cy="246.024" r=".99"/><circle cx="390.396" cy="246.024" r=".99"/></g><g clip-path="url(#clip19_10148_144526)"><circle cx="10.891" cy="261.024" r=".99"/><circle cx="26.071" cy="261.024" r=".99"/><circle cx="41.252" cy="261.024" r=".99"/><circle cx="56.431" cy="261.024" r=".99"/><circle cx="71.612" cy="261.024" r=".99"/><circle cx="86.792" cy="261.024" r=".99"/><circle cx="101.972" cy="261.024" r=".99"/><circle cx="117.153" cy="261.024" r=".99"/><circle cx="132.332" cy="261.024" r=".99"/><circle cx="147.513" cy="261.024" r=".99"/><circle cx="162.693" cy="261.024" r=".99"/><circle cx="177.873" cy="261.024" r=".99"/><circle cx="193.054" cy="261.024" r=".99"/><circle cx="208.233" cy="261.024" r=".99"/><circle cx="223.413" cy="261.024" r=".99"/><circle cx="238.594" cy="261.024" r=".99"/><circle cx="253.774" cy="261.024" r=".99"/><circle cx="268.955" cy="261.024" r=".99"/><circle cx="284.134" cy="261.024" r=".99"/><circle cx="299.314" cy="261.024" r=".99"/><circle cx="314.495" cy="261.024" r=".99"/><circle cx="329.675" cy="261.024" r=".99"/><circle cx="344.856" cy="261.024" r=".99"/><circle cx="360.035" cy="261.024" r=".99"/><circle cx="375.215" cy="261.024" r=".99"/><circle cx="390.396" cy="261.024" r=".99"/></g><g clip-path="url(#clip20_10148_144526)"><circle cx="10.891" cy="276.024" r=".99"/><circle cx="26.071" cy="276.024" r=".99"/><circle cx="41.252" cy="276.024" r=".99"/><circle cx="56.431" cy="276.024" r=".99"/><circle cx="71.612" cy="276.024" r=".99"/><circle cx="86.792" cy="276.024" r=".99"/><circle cx="101.972" cy="276.024" r=".99"/><circle cx="117.153" cy="276.024" r=".99"/><circle cx="132.332" cy="276.024" r=".99"/><circle cx="147.513" cy="276.024" r=".99"/><circle cx="162.693" cy="276.024" r=".99"/><circle cx="177.873" cy="276.024" r=".99"/><circle cx="193.054" cy="276.024" r=".99"/><circle cx="208.233" cy="276.024" r=".99"/><circle cx="223.413" cy="276.024" r=".99"/><circle cx="238.594" cy="276.024" r=".99"/><circle cx="253.774" cy="276.024" r=".99"/><circle cx="268.955" cy="276.024" r=".99"/><circle cx="284.134" cy="276.024" r=".99"/><circle cx="299.314" cy="276.024" r=".99"/><circle cx="314.495" cy="276.024" r=".99"/><circle cx="329.675" cy="276.024" r=".99"/><circle cx="344.856" cy="276.024" r=".99"/><circle cx="360.035" cy="276.024" r=".99"/><circle cx="375.215" cy="276.024" r=".99"/><circle cx="390.396" cy="276.024" r=".99"/></g><g clip-path="url(#clip21_10148_144526)"><circle cx="10.891" cy="291.024" r=".99"/><circle cx="26.071" cy="291.024" r=".99"/><circle cx="41.252" cy="291.024" r=".99"/><circle cx="56.431" cy="291.024" r=".99"/><circle cx="71.612" cy="291.024" r=".99"/><circle cx="86.792" cy="291.024" r=".99"/><circle cx="101.972" cy="291.024" r=".99"/><circle cx="117.153" cy="291.024" r=".99"/><circle cx="132.332" cy="291.024" r=".99"/><circle cx="147.513" cy="291.024" r=".99"/><circle cx="162.693" cy="291.024" r=".99"/><circle cx="177.873" cy="291.024" r=".99"/><circle cx="193.054" cy="291.024" r=".99"/><circle cx="208.233" cy="291.024" r=".99"/><circle cx="223.413" cy="291.024" r=".99"/><circle cx="238.594" cy="291.024" r=".99"/><circle cx="253.774" cy="291.024" r=".99"/><circle cx="268.955" cy="291.024" r=".99"/><circle cx="284.134" cy="291.024" r=".99"/><circle cx="299.314" cy="291.024" r=".99"/><circle cx="314.495" cy="291.024" r=".99"/><circle cx="329.675" cy="291.024" r=".99"/><circle cx="344.856" cy="291.024" r=".99"/><circle cx="360.035" cy="291.024" r=".99"/><circle cx="375.215" cy="291.024" r=".99"/><circle cx="390.396" cy="291.024" r=".99"/></g></g><rect width="141" height="9" x="37" y="125" fill="#474747" rx="4.5"/><rect width="326" height="42" x="37" y="138" fill="#2c2c2c" rx="4"/><path fill="#fff" fill-opacity=".88" d="M343.22 157.47a.75.75 0 0 1 1.06 0l2.72 2.719 2.72-2.719a.749.749 0 1 1 1.06 1.06l-3.25 3.25a.75.75 0 0 1-1.06 0l-3.25-3.25a.75.75 0 0 1 0-1.06"/><rect width="145" height="7" x="49" y="156" fill="#474747" rx="3.5"/><rect width="325" height="123" x="37.5" y="184.5" fill="#2c2c2c" rx="3.5"/><rect width="325" height="123" x="37.5" y="184.5" stroke="#393939" rx="3.5"/><path fill="#fff" fill-opacity=".88" d="M64.864 201.656a.5.5 0 0 1-.021.707l-7.93 7.474a.6.6 0 0 1-.839-.016l-2.68-2.72a.5.5 0 0 1 .712-.702l2.406 2.442 7.645-7.206a.5.5 0 0 1 .707.021"/><rect width="145" height="7" x="75" y="202.5" fill="#474747" rx="3.5"/><path fill="#2c2c2c" d="M63.364 241.656a.5.5 0 0 1-.021.707l-7.93 7.474a.6.6 0 0 1-.839-.016l-2.68-2.72a.5.5 0 0 1 .712-.702l2.406 2.442 7.645-7.206a.5.5 0 0 1 .707.021"/><rect width="145" height="7" x="73.5" y="242.5" fill="#474747" rx="3.5"/><path fill="#2c2c2c" d="M63.364 281.656a.5.5 0 0 1-.021.707l-7.93 7.474a.6.6 0 0 1-.839-.016l-2.68-2.72a.5.5 0 0 1 .712-.702l2.406 2.442 7.645-7.206a.5.5 0 0 1 .707.021"/><rect width="145" height="7" x="73.5" y="282.5" fill="#474747" rx="3.5"/></g><defs><clipPath id="clip0_10148_144526"><path fill="#fff" d="M0 0h400v300H0z"/></clipPath><clipPath id="clip1_10148_144526"><path fill="#fff" d="M0 0h400v300H0z"/></clipPath><clipPath id="clip2_10148_144526"><path fill="#fff" d="M-5 5h412v15H-5z"/></clipPath><clipPath id="clip3_10148_144526"><path fill="#fff" d="M-5 20h412v15H-5z"/></clipPath><clipPath id="clip4_10148_144526"><path fill="#fff" d="M-5 35h412v15H-5z"/></clipPath><clipPath id="clip5_10148_144526"><path fill="#fff" d="M-5 50h412v15H-5z"/></clipPath><clipPath id="clip6_10148_144526"><path fill="#fff" d="M-5 65h412v15H-5z"/></clipPath><clipPath id="clip7_10148_144526"><path fill="#fff" d="M-5 80h412v15H-5z"/></clipPath><clipPath id="clip8_10148_144526"><path fill="#fff" d="M-5 95h412v15H-5z"/></clipPath><clipPath id="clip9_10148_144526"><path fill="#fff" d="M-5 110h412v15H-5z"/></clipPath><clipPath id="clip10_10148_144526"><path fill="#fff" d="M-5 125h412v15H-5z"/></clipPath><clipPath id="clip11_10148_144526"><path fill="#fff" d="M-5 140h412v15H-5z"/></clipPath><clipPath id="clip12_10148_144526"><path fill="#fff" d="M-5 155h412v15H-5z"/></clipPath><clipPath id="clip13_10148_144526"><path fill="#fff" d="M-5 170h412v15H-5z"/></clipPath><clipPath id="clip14_10148_144526"><path fill="#fff" d="M-5 185h412v15H-5z"/></clipPath><clipPath id="clip15_10148_144526"><path fill="#fff" d="M-5 200h412v15H-5z"/></clipPath><clipPath id="clip16_10148_144526"><path fill="#fff" d="M-5 215h412v15H-5z"/></clipPath><clipPath id="clip17_10148_144526"><path fill="#fff" d="M-5 230h412v15H-5z"/></clipPath><clipPath id="clip18_10148_144526"><path fill="#fff" d="M-5 245h412v15H-5z"/></clipPath><clipPath id="clip19_10148_144526"><path fill="#fff" d="M-5 260h412v15H-5z"/></clipPath><clipPath id="clip20_10148_144526"><path fill="#fff" d="M-5 275h412v15H-5z"/></clipPath><clipPath id="clip21_10148_144526"><path fill="#fff" d="M-5 290h412v15H-5z"/></clipPath></defs></svg>