<svg width="66" height="30" viewBox="0 0 66 30" fill="none" xmlns="http://www.w3.org/2000/svg">
<g clip-path="url(#clip0_746_2)">
<path d="M53.1202 13.125C60.1167 13.125 65.7884 18.8334 65.7884 25.875C65.7884 27.1302 65.6082 28.3433 65.2725 29.489C65.1823 29.7967 64.8967 30 64.578 30H46.953C46.6917 30 46.5115 29.7362 46.6052 29.4906L46.9421 28.6077C48.0182 25.775 51.0884 23.4544 53.929 23.3185L59.3134 23.041C59.6011 23.0262 59.8269 22.7869 59.8269 22.4971C59.8269 22.2087 59.6034 21.9702 59.3175 21.9533L54.2613 21.654C51.543 21.5148 50.215 19.0948 50.9461 16.5729L51.7875 13.6705C51.873 13.3753 52.129 13.1604 52.434 13.1438C52.6611 13.1314 52.89 13.125 53.1202 13.125Z" fill="#FF9910"/>
<path d="M35.6085 0C42.9042 0 49.0327 5.02494 50.7661 11.8235C50.8388 12.109 50.8161 12.4103 50.7121 12.6858L49.324 16.3634C48.2479 19.1961 45.4823 21.6525 42.3531 21.6525L18.249 21.9313C17.9581 21.9348 17.724 22.1731 17.7239 22.466C17.7239 22.7585 17.9576 22.9971 18.2483 23.001L42.0129 23.3169C44.7371 23.3169 46.0592 25.8762 45.3285 28.3983L45.0217 29.4594C44.9292 29.7798 44.6377 30 44.3063 30H0.963624C0.592828 30 0.275519 29.7258 0.245826 29.3538C0.223348 29.0721 0.211914 28.7875 0.211914 28.5C0.211914 23.0237 4.37763 18.527 9.69384 18.0436C9.58474 17.5465 9.52682 17.0301 9.52682 16.5C9.52682 12.565 12.6963 9.375 16.6061 9.375C18.1622 9.375 19.6008 9.88056 20.769 10.7369C22.8496 4.49627 28.7073 0 35.6085 0Z" fill="#FF5F08"/>
<path d="M53.1202 13.125C60.1167 13.125 65.7884 18.8334 65.7884 25.875C65.7884 27.1302 65.6082 28.3433 65.2725 29.489C65.1823 29.7967 64.8967 30 64.578 30H46.953C46.6917 30 46.5115 29.7362 46.6052 29.4906L46.9421 28.6077C48.0182 25.775 51.0884 23.4544 53.929 23.3185L59.3134 23.041C59.6011 23.0262 59.8269 22.7869 59.8269 22.4971C59.8269 22.2087 59.6034 21.9702 59.3175 21.9533L54.2613 21.654C51.543 21.5148 50.215 19.0948 50.9461 16.5729L51.7875 13.6705C51.873 13.3753 52.129 13.1604 52.434 13.1438C52.6611 13.1314 52.89 13.125 53.1202 13.125Z" fill="#FF9910"/>
<path d="M35.6085 0C42.9042 0 49.0327 5.02494 50.7661 11.8235C50.8388 12.109 50.8161 12.4103 50.7121 12.6858L49.324 16.3634C48.2479 19.1961 45.4823 21.6525 42.3531 21.6525L18.249 21.9313C17.9581 21.9348 17.724 22.1731 17.7239 22.466C17.7239 22.7585 17.9576 22.9971 18.2483 23.001L42.0129 23.3169C44.7371 23.3169 46.0592 25.8762 45.3285 28.3983L45.0217 29.4594C44.9292 29.7798 44.6377 30 44.3063 30H0.963624C0.592828 30 0.275519 29.7258 0.245826 29.3538C0.223348 29.0721 0.211914 28.7875 0.211914 28.5C0.211914 23.0237 4.37763 18.527 9.69384 18.0436C9.58474 17.5465 9.52682 17.0301 9.52682 16.5C9.52682 12.565 12.6963 9.375 16.6061 9.375C18.1622 9.375 19.6008 9.88056 20.769 10.7369C22.8496 4.49627 28.7073 0 35.6085 0Z" fill="#FF5F08"/>
</g>
<defs>
<clipPath id="clip0_746_2">
<rect width="66" height="30" fill="white"/>
</clipPath>
</defs>
</svg>
